<svg width="120" height="120" viewBox="0 0 120 120" fill="none" xmlns="http://www.w3.org/2000/svg">
<mask id="mask0_369_794" style="mask-type:luminance" maskUnits="userSpaceOnUse" x="0" y="0" width="120" height="120">
<path d="M0 0H120V120H0V0Z" fill="white"/>
</mask>
<g mask="url(#mask0_369_794)">
<path fill-rule="evenodd" clip-rule="evenodd" d="M116.094 61.9348H104.979L106.528 63.7677C107.219 64.5896 107.11 65.8116 106.296 66.4953C105.481 67.1863 104.259 67.0845 103.568 66.2626L99.3417 61.2438C98.7307 60.5237 98.7307 59.469 99.3417 58.7489L103.568 53.7301C104.259 52.9155 105.481 52.8137 106.296 53.4974C107.11 54.1884 107.219 55.4104 106.528 56.225C106.528 56.225 105.765 57.1342 104.979 58.0652H118.065C119.134 58.0652 120 58.9308 120 60C120 89.1453 99.1744 113.461 71.6057 118.873C70.5583 119.076 69.5399 118.393 69.3362 117.345C69.1253 116.298 69.8091 115.279 70.8565 115.076C96.0393 110.13 115.199 88.3307 116.094 61.9348ZM58.0615 15.02V1.93478C58.0615 0.865559 58.9343 0 59.9964 0C89.1435 0 113.461 20.8243 118.873 48.3913C119.083 49.4387 118.4 50.457 117.352 50.668C116.305 50.8716 115.286 50.1879 115.075 49.1405C110.136 23.9665 88.3361 4.80058 61.9313 3.90593V15.02L63.7716 13.4707C64.5863 12.787 65.8083 12.8888 66.4994 13.7035C67.1904 14.5181 67.0813 15.7401 66.2666 16.4311L61.2475 20.6643C60.5274 21.268 59.4726 21.268 58.7525 20.6643L53.7334 16.4311C52.9187 15.7401 52.8096 14.5181 53.5006 13.7035C54.1844 12.8888 55.4064 12.787 56.2284 13.4707C56.2284 13.4707 57.1377 14.2417 58.0615 15.02ZM3.89889 58.0652H15.0136L13.4715 56.225C12.7805 55.4104 12.8823 54.1884 13.7043 53.4974C14.519 52.8137 15.741 52.9155 16.4321 53.7301L20.6583 58.7489C21.2693 59.469 21.2693 60.5237 20.6583 61.2438L16.4321 66.2626C15.741 67.0845 14.519 67.1863 13.7043 66.4953C12.8823 65.8116 12.7805 64.5896 13.4715 63.7677C13.4715 63.7677 14.2353 62.8585 15.0136 61.9348H1.9349C0.865613 61.9348 0 61.0692 0 60C0 30.8547 20.8256 6.53897 48.3943 1.12741C49.4417 0.916475 50.4601 1.60747 50.6638 2.65487C50.8674 3.70227 50.1837 4.72057 49.1362 4.92423C23.9607 9.87029 4.80087 31.6693 3.89889 58.0652ZM58.0615 116.094V104.98L56.2284 106.529C55.4064 107.213 54.1844 107.111 53.5006 106.297C52.8096 105.475 52.9187 104.253 53.7334 103.569L58.7525 99.3357C59.4726 98.732 60.5274 98.732 61.2475 99.3357L66.2666 103.569C67.0813 104.253 67.1904 105.475 66.4994 106.297C65.8083 107.111 64.5863 107.213 63.7716 106.529C63.7716 106.529 62.8623 105.758 61.9313 104.98V118.058C61.9313 119.127 61.0656 120 59.9964 120C30.8565 120 6.5321 99.1757 1.1202 71.6087C0.91653 70.554 1.60029 69.543 2.64775 69.332C3.69522 69.1284 4.71358 69.8121 4.91726 70.8595C9.86361 96.0335 31.6639 115.199 58.0615 116.094Z" fill="#8AC9FE"/>
</g>
<path fill-rule="evenodd" clip-rule="evenodd" d="M59.9972 91.6982C77.4622 91.6982 91.7048 77.4638 91.7048 59.9999C91.7048 42.5432 77.4622 28.2942 59.9972 28.2942C42.5395 28.2942 28.2969 42.5432 28.2969 59.9999C28.2969 77.4638 42.5395 91.6982 59.9972 91.6982Z" fill="#837683"/>
<path fill-rule="evenodd" clip-rule="evenodd" d="M86.0679 59.9999C86.0679 66.4879 84.1184 72.5177 80.7796 77.5365C79.4921 79.4786 77.9937 81.2679 76.3206 82.8754C71.2579 87.7341 64.5803 90.9272 57.1826 91.5746C58.1064 91.6619 59.052 91.6982 59.9977 91.6982C61.5398 91.6982 63.0528 91.5964 64.5367 91.3782C64.7331 91.3564 64.9222 91.32 65.1113 91.2909C80.1904 88.8543 91.7053 75.769 91.7053 59.9999C91.7053 42.4923 77.5136 28.2942 59.9977 28.2942C59.052 28.2942 58.1064 28.3378 57.1826 28.4178C73.3747 29.8435 86.0679 43.4378 86.0679 59.9999Z" fill="#685E68"/>
<path fill-rule="evenodd" clip-rule="evenodd" d="M59.9966 63.0549C48.5764 63.0549 39.1783 71.7105 37.9854 82.8173C43.6882 88.3162 51.4496 91.6984 59.9966 91.6984C61.5387 91.6984 63.0517 91.5966 64.5356 91.3784C71.2787 90.411 77.338 87.327 82.0079 82.8173C80.8222 71.7033 71.4169 63.0549 59.9966 63.0549Z" fill="#8AC9FE"/>
<path fill-rule="evenodd" clip-rule="evenodd" d="M57.1826 63.2368C70.3632 64.9097 75.6733 74.8818 76.8953 86.8324C78.7356 85.6686 80.4523 84.323 82.0089 82.8173C80.8233 71.7033 71.4179 63.0549 59.9977 63.0549C59.0448 63.0549 58.1064 63.1131 57.1826 63.2368Z" fill="#60B7FF"/>
<path fill-rule="evenodd" clip-rule="evenodd" d="M59.9971 61.3819C66.1655 61.3819 71.1991 56.3558 71.1991 50.1878C71.1991 44.0198 66.1655 39.001 59.9971 39.001C53.8359 39.001 48.8096 44.0198 48.8096 50.1878C48.8096 56.3558 53.8359 61.3819 59.9971 61.3819Z" fill="#F6DCCD"/>
<path fill-rule="evenodd" clip-rule="evenodd" d="M68.3764 50.1878C68.3764 55.8976 64.1065 60.6036 58.5928 61.2946C59.051 61.3528 59.5239 61.3819 59.9967 61.3819C66.1796 61.3819 71.1914 56.3704 71.1914 50.1878C71.1914 44.0052 66.1796 39.001 59.9967 39.001C59.5239 39.001 59.051 39.0301 58.5928 39.081C64.1065 39.7793 68.3764 44.4853 68.3764 50.1878Z" fill="#F1CBBC"/>
</svg>
