<svg width="120" height="120" viewBox="0 0 120 120" fill="none" xmlns="http://www.w3.org/2000/svg">
<path d="M8.66895 64.468C13.3855 69.1799 19.7295 72.1757 26.7932 72.4512C27.4796 72.4799 28.1605 72.4799 28.8304 72.4569H28.8414C33.2867 71.6362 37.5493 70.012 41.4465 67.6705C41.5184 67.2113 41.5904 66.7579 41.6624 66.3045C31.4267 73.0825 17.493 68.6576 8.66895 64.468Z" fill="#F2B344"/>
<mask id="mask0_369_795" style="mask-type:luminance" maskUnits="userSpaceOnUse" x="0" y="15" width="45" height="56">
<path d="M0 15.0881H44.8068V70.9186H0V15.0881Z" fill="white"/>
</mask>
<g mask="url(#mask0_369_795)">
<path d="M44.1439 35.3073C44.0719 30.5151 43.7397 25.8262 43.1253 21.2407C39.4772 18.4572 35.3641 16.4599 30.9077 15.49H30.8967C30.2268 15.4097 29.5515 15.358 28.865 15.3351C13.6969 14.7439 0.925809 26.9339 0.217226 42.6133L0.21169 42.6649C0.21169 42.7166 0.21169 42.7682 0.21169 42.8199C0.206154 42.8715 0.206154 42.9232 0.200618 42.9691V43.0207C0.00132757 50.3496 2.48137 57.1218 6.72734 62.3215C7.33628 63.0676 7.98396 63.785 8.6704 64.4679C17.4945 68.6575 31.4281 73.0824 41.6638 66.3045C43.3633 55.6354 44.2989 45.259 44.1439 35.3073Z" fill="#FFCD68"/>
</g>
<path d="M84.9261 67.5616C84.5386 68.1757 84.129 68.7783 83.7082 69.3752C83.055 70.2877 82.435 71.2117 81.8482 72.1529C81.7928 72.2447 81.732 72.3423 81.6766 72.4341C77.3587 73.7713 70.3559 74.638 62.4563 74.638C55.1878 74.638 48.6832 73.9033 44.3265 72.7498C44.2822 72.6694 44.2324 72.5948 44.1826 72.5145C43.5293 71.447 42.8374 70.4025 42.1011 69.3752C41.5863 68.6578 41.0991 67.9289 40.6396 67.1771C40.7448 67.1254 40.85 67.068 40.9607 67.0164C44.7694 65.2085 52.9624 63.9631 62.4563 63.9631C68.9885 63.9631 75.399 64.4624 80.0214 65.3577C82.2634 65.7939 84.0791 66.3219 85.2859 66.9303C85.3358 67.0393 84.7213 67.4411 84.9261 67.5616Z" fill="#F2B344"/>
<path d="M67.665 46.2L78.3934 53.305L67.665 46.2Z" fill="white"/>
<mask id="mask1_369_795" style="mask-type:luminance" maskUnits="userSpaceOnUse" x="0" y="0" width="120" height="120">
<path d="M0 0H120V120H0V0Z" fill="white"/>
</mask>
<g mask="url(#mask1_369_795)">
<path d="M67.6641 46.2L78.3925 53.305" stroke="#FFB895" stroke-width="5.27374" stroke-miterlimit="10" stroke-linecap="round"/>
</g>
<path d="M81.138 39.9216L78.3369 52.9151L81.138 39.9216Z" fill="white"/>
<path d="M78.7687 55.9509C78.4144 56.0026 78.0546 55.9911 77.6892 55.9107C76.0949 55.5377 75.0929 53.902 75.4472 52.2492L78.2538 39.25C78.6137 37.5971 80.1914 36.5583 81.7857 36.9256C83.38 37.2987 84.0554 37.2757 83.6955 38.9229L81.221 53.5864C80.9443 54.8605 79.9423 55.773 78.7687 55.9509Z" fill="#FFB895"/>
<path d="M77.8721 40.8856C78.1046 38.8539 77.9274 36.5181 77.5178 34.5094C77.4403 34.1593 77.3739 33.746 77.6119 33.482C77.8998 33.1664 78.4478 33.3214 78.6914 33.6714C78.9405 34.0215 78.9792 34.4749 79.0401 34.9054C79.1121 35.4506 79.2284 35.9901 79.3889 36.5123C79.555 35.3932 79.6325 34.2568 79.6214 33.1205C79.6214 32.3744 79.5826 31.6053 79.865 30.9166C79.9203 30.7789 79.9978 30.6354 80.1252 30.5551C80.2248 30.492 80.3411 30.4747 80.4518 30.4575C80.795 30.4116 81.1327 30.36 81.4759 30.314C81.7084 30.2796 81.9409 30.2452 82.1734 30.2566C82.9207 30.2796 83.6183 30.7215 84.0722 31.3299C84.5317 31.944 84.7697 32.7015 84.8749 33.4706C85.1406 35.3932 84.6036 37.333 83.9338 39.1523C83.7677 39.6115 83.5906 40.0649 83.3691 40.4953C83.2529 40.7134 83.1034 40.7765 82.8598 40.8052C81.7804 40.9257 80.7009 41.0061 79.6159 41.052C79.4221 41.0577 79.2228 41.0692 79.0291 41.029C78.7855 40.9831 78.553 40.8626 78.3039 40.8741C78.1599 40.8741 78.0105 40.92 77.8721 40.8856C77.8555 41.0348 77.7337 40.8511 77.8721 40.8856Z" fill="#FFB895"/>
<path d="M51.9375 62.1147H72.5196V77.4325H51.9375V62.1147Z" fill="#5A76C7"/>
<path d="M71.3727 53.0181L71.0959 52.559L66.7669 45.4654C65.9587 44.1339 66.5123 42.2572 68.0125 41.2758C69.5072 40.2944 71.3838 40.5814 72.1976 41.9129L76.2608 48.576L71.3727 53.0181Z" fill="#B1AB6C"/>
<path d="M71.5462 53.2364L64.2002 49.4314L71.5462 53.2364Z" fill="white"/>
<path d="M71.5462 53.2364L64.2002 49.4314" stroke="black" stroke-width="0.222288" stroke-miterlimit="10"/>
<path d="M73.3883 46.8371L69.8232 44.6677L73.3883 46.8371Z" fill="white"/>
<path d="M73.3883 46.8371L69.8232 44.6677" stroke="black" stroke-width="0.222288" stroke-miterlimit="10"/>
<path d="M70.5382 71.6245L61.8857 91.5738" stroke="black" stroke-width="0.199001" stroke-miterlimit="10"/>
<path d="M60.7993 92.4692L53.1211 112.195" stroke="black" stroke-width="0.199001" stroke-miterlimit="10"/>
<path d="M67.6541 33.0284C67.6541 33.5794 67.5323 34.1074 67.2888 34.6124C67.0396 35.1175 66.6909 35.5651 66.2425 35.9554C65.7886 36.3457 65.2682 36.6441 64.6759 36.8564C64.0835 37.0631 63.469 37.1721 62.8324 37.1721C62.1903 37.1721 61.5758 37.0631 60.9835 36.8564C60.3967 36.6441 59.8708 36.3457 59.4224 35.9554C58.9684 35.5651 58.6197 35.1175 58.3761 34.6124C58.1325 34.1074 58.0107 33.5794 58.0107 33.0284C58.0107 32.4775 58.1325 31.9495 58.3761 31.4444C58.6197 30.9336 58.9684 30.486 59.4224 30.0957C59.8708 29.7112 60.3967 29.4128 60.9835 29.2004C61.5758 28.9881 62.1903 28.8848 62.8324 28.8848C63.469 28.8848 64.0835 28.9881 64.6759 29.2004C65.2682 29.4128 65.7886 29.7112 66.2425 30.0957C66.6909 30.486 67.0396 30.9336 67.2888 31.4444C67.5323 31.9495 67.6541 32.4775 67.6541 33.0284Z" fill="#FFB895"/>
<path d="M86.2255 33.0918C86.2255 31.3184 85.6221 29.8778 84.8637 29.7803V29.7688L84.825 29.7745C84.8084 29.7745 84.7917 29.7688 84.7807 29.7688C84.7087 29.7688 84.6423 29.7803 84.5703 29.8032L67.5145 32.0071C67.2543 32.0071 67.0439 32.449 67.0439 32.9942C67.0439 33.5337 67.2543 33.9756 67.5145 33.9756L84.5592 36.3688C84.6312 36.3918 84.7032 36.409 84.7807 36.409C84.7917 36.409 84.8084 36.409 84.825 36.4033L84.8637 36.409V36.4033C85.6221 36.3 86.2255 34.8594 86.2255 33.0918Z" fill="#5B77C8"/>
<path d="M67.3036 32.0474C67.0434 32.0474 66.833 32.4606 66.833 32.9714C66.833 33.4765 67.0434 33.8897 67.3036 33.8897L84.6528 36.1681V29.9526L67.3036 32.0474Z" fill="#5A74C6"/>
<path d="M86.0153 33.0574C86.0153 33.4706 85.9766 33.8666 85.9046 34.2511C85.8327 34.6299 85.7275 34.9685 85.5891 35.2555C85.4562 35.5482 85.3012 35.772 85.1241 35.9327C84.9469 36.0877 84.7587 36.168 84.565 36.168C84.3767 36.168 84.1885 36.0877 84.0114 35.9327C83.8342 35.772 83.6792 35.5482 83.5408 35.2555C83.408 34.9685 83.3028 34.6299 83.2308 34.2511C83.1533 33.8666 83.1201 33.4706 83.1201 33.0574C83.1201 32.6442 83.1533 32.2482 83.2308 31.8694C83.3028 31.4906 83.408 31.152 83.5408 30.8593C83.6792 30.5666 83.8342 30.3428 84.0114 30.1878C84.1885 30.0271 84.3767 29.9468 84.565 29.9468C84.7587 29.9468 84.9469 30.0271 85.1241 30.1878C85.3012 30.3428 85.4562 30.5666 85.5891 30.8593C85.7275 31.152 85.8327 31.4906 85.9046 31.8694C85.9766 32.2482 86.0153 32.6442 86.0153 33.0574Z" fill="#F2E7DE"/>
<path d="M63.3016 32.1103C63.0414 32.1103 62.8311 32.5235 62.8311 33.0343C62.8311 33.5393 63.0414 33.9526 63.3016 33.9526L80.6508 36.231V30.0098L63.3016 32.1103Z" fill="#5B77C8"/>
<path d="M82.0134 33.1204C82.0134 33.5336 81.9802 33.9296 81.9027 34.3141C81.8307 34.6929 81.7255 35.0315 81.5927 35.3242C81.4543 35.6112 81.2993 35.835 81.1221 35.9957C80.945 36.1507 80.7568 36.231 80.5685 36.231C80.3748 36.231 80.1921 36.1507 80.0094 35.9957C79.8323 35.835 79.6773 35.6112 79.5444 35.3242C79.406 35.0315 79.3008 34.6929 79.2289 34.3141C79.1569 33.9296 79.1182 33.5336 79.1182 33.1204C79.1182 32.7072 79.1569 32.3112 79.2289 31.9324C79.3008 31.5536 79.406 31.215 79.5444 30.9223C79.6773 30.6296 79.8323 30.4058 80.0094 30.2508C80.1921 30.0901 80.3748 30.0098 80.5685 30.0098C80.7568 30.0098 80.945 30.0901 81.1221 30.2508C81.2993 30.4058 81.4543 30.6296 81.5927 30.9223C81.7255 31.215 81.8307 31.5536 81.9027 31.9324C81.9802 32.3112 82.0134 32.7072 82.0134 33.1204Z" fill="#F2E7DE"/>
<path d="M79.6934 32.1164C79.8705 31.3645 80.2303 30.8423 80.6511 30.8423C81.2379 30.8423 81.7195 31.8696 81.7195 33.1322C81.7195 33.5856 81.6586 34.0103 81.5479 34.3661" stroke="black" stroke-width="0.233457" stroke-miterlimit="10" stroke-linecap="round"/>
<path d="M82.2118 33.1209C82.2118 31.3533 81.6084 29.9128 80.85 29.8095V29.8037H80.8113C80.7947 29.8037 80.7781 29.8037 80.767 29.8037C80.695 29.8037 80.6286 29.8152 80.5566 29.8381L63.5008 32.042C63.2406 32.042 63.0303 32.4839 63.0303 33.0291C63.0303 33.5686 63.2406 34.0105 63.5008 34.0105L80.5456 36.4037C80.6175 36.4267 80.6895 36.4439 80.767 36.4439C80.7781 36.4439 80.7947 36.4382 80.8113 36.4382L80.85 36.4439V36.4324C81.6084 36.3349 82.2118 34.8943 82.2118 33.1209Z" fill="#5B77C8"/>
<path d="M63.2918 32.0817C63.0316 32.0817 62.8213 32.4949 62.8213 33C62.8213 33.5108 63.0316 33.924 63.2918 33.924L80.6411 36.2024V29.9812L63.2918 32.0817Z" fill="#5A74C6"/>
<path d="M82.0026 33.0918C82.0026 33.505 81.9694 33.901 81.8919 34.2798C81.82 34.6643 81.7148 34.9972 81.5819 35.2899C81.4435 35.5826 81.2885 35.8064 81.1114 35.9671C80.9342 36.1221 80.746 36.2024 80.5578 36.2024C80.3641 36.2024 80.1758 36.1221 79.9987 35.9671C79.8215 35.8064 79.6665 35.5826 79.5281 35.2899C79.3953 34.9972 79.2901 34.6643 79.2181 34.2798C79.1406 33.901 79.1074 33.505 79.1074 33.0918C79.1074 32.6786 79.1406 32.2826 79.2181 31.9038C79.2901 31.5193 79.3953 31.1864 79.5281 30.8937C79.6665 30.601 79.8215 30.3772 79.9987 30.2165C80.1758 30.0615 80.3641 29.9812 80.5578 29.9812C80.746 29.9812 80.9342 30.0615 81.1114 30.2165C81.2885 30.3772 81.4435 30.601 81.5819 30.8937C81.7148 31.1864 81.82 31.5193 81.8919 31.9038C81.9694 32.2826 82.0026 32.6786 82.0026 33.0918Z" fill="#F2E7DE"/>
<path d="M79.5557 31.904C79.7273 31.1521 80.0926 30.6299 80.5134 30.6299C81.1002 30.6299 81.5762 31.6572 81.5762 32.9198C81.5762 33.3732 81.5153 33.7979 81.4102 34.1537" stroke="black" stroke-width="0.233457" stroke-miterlimit="10" stroke-linecap="round"/>
<path d="M83.6416 31.904C83.8132 31.1521 84.1786 30.6299 84.5993 30.6299C85.1861 30.6299 85.6622 31.6572 85.6622 32.9198C85.6622 33.3732 85.6013 33.7979 85.4961 34.1537" stroke="black" stroke-width="0.233457" stroke-miterlimit="10" stroke-linecap="round"/>
<path d="M60.2178 30.5493C60.2178 30.5493 59.9244 36.4549 59.2933 36.0015C58.1086 35.1521 54.9255 29.9926 59.2379 28.4144C59.2379 28.4144 60.6994 26.0556 63.7441 27.1288C66.7888 28.2078 66.3293 26.6697 66.3293 26.6697C67.0711 26.8017 67.9734 27.5076 67.1486 28.7071C66.667 29.4187 68.1949 28.8563 68.4495 28.1963C68.4495 28.1963 69.0529 29.4474 67.8959 30.5493C67.5527 30.8765 65.51 31.3528 60.2178 30.5493Z" fill="#B95531"/>
<path d="M72.5139 64.0833L51.9373 64.4621C51.0461 59.4346 50.808 53.8274 51.3782 47.8415C51.7602 43.9159 52.3913 42.022 54.1793 41.3677C56.3494 40.3117 59.3664 39.7378 62.6491 39.3188C66.0592 39.4968 69.3585 39.9444 72.5139 40.7192V64.0833Z" fill="#B1AB6C"/>
<path d="M58.0107 45.3621L68.1025 54.4471L58.0107 45.3621Z" fill="white"/>
<mask id="mask2_369_795" style="mask-type:luminance" maskUnits="userSpaceOnUse" x="0" y="0" width="120" height="120">
<path d="M0 0H120V120H0V0Z" fill="white"/>
</mask>
<g mask="url(#mask2_369_795)">
<path d="M58.0098 45.3621L68.1015 54.4471" stroke="#FFB895" stroke-width="5.53866" stroke-miterlimit="10" stroke-linecap="round"/>
</g>
<path d="M72.9408 40.9775L68.1025 54.0341L72.9408 40.9775Z" fill="white"/>
<path d="M68.1016 57.2536C67.7307 57.2536 67.3598 57.1848 66.9889 57.0413C65.3891 56.4042 64.5919 54.5448 65.2064 52.8804L70.0392 39.8238C70.6536 38.1652 72.4528 37.333 74.0526 37.9701C75.6525 38.6071 76.3555 38.6875 75.741 40.3518L71.0024 55.1875C70.5318 56.4674 69.3527 57.2536 68.1016 57.2536Z" fill="#FFB895"/>
<path d="M62.7544 54.2064L62.2783 53.7587L54.9101 46.9005C53.5206 45.6149 53.4099 43.4053 54.6499 41.9648C55.8955 40.53 58.0268 40.4095 59.4163 41.7008L66.3416 48.1459L62.7544 54.2064Z" fill="#B1AB6C"/>
<path d="M62.65 53.862L55.5752 48.7427L62.65 53.862Z" fill="white"/>
<path d="M62.65 53.862L55.5752 48.7427" stroke="black" stroke-width="0.233457" stroke-miterlimit="10"/>
<path d="M64.9971 47.5031L62.124 44.6909L64.9971 47.5031Z" fill="white"/>
<path d="M64.9971 47.5031L62.124 44.6909" stroke="black" stroke-width="0.233457" stroke-miterlimit="10"/>
<path d="M69.3963 41.4594C69.9388 39.3818 70.1048 36.9312 69.972 34.779C69.9498 34.406 69.9388 33.9641 70.2211 33.723C70.5643 33.4418 71.1124 33.6943 71.3172 34.0961C71.522 34.4978 71.4999 34.9742 71.4943 35.4276C71.4888 36.0072 71.5331 36.5869 71.6216 37.1608C71.9593 36.0187 72.2084 34.8479 72.369 33.6714C72.4742 32.8966 72.5517 32.0874 72.9392 31.4216C73.0222 31.2839 73.1219 31.1462 73.2713 31.083C73.382 31.0371 73.5038 31.0371 73.6256 31.0371C73.9854 31.0428 74.3453 31.0428 74.7051 31.0486C74.9487 31.0486 75.1978 31.0543 75.4414 31.1002C76.2108 31.2437 76.8696 31.8119 77.2571 32.5178C77.6391 33.2237 77.7775 34.0559 77.7719 34.8651C77.7609 36.9083 76.9139 38.8424 75.9562 40.6215C75.7126 41.0691 75.4635 41.5111 75.1701 41.9243C75.0151 42.1366 74.849 42.1768 74.5944 42.1653C73.4595 42.1194 72.3192 42.0391 71.1899 41.9128C70.985 41.8898 70.7747 41.8611 70.5809 41.7923C70.3373 41.7062 70.1104 41.5455 69.8502 41.5168C69.6952 41.4938 69.5402 41.5225 69.3963 41.4594C69.3575 41.6144 69.2579 41.402 69.3963 41.4594Z" fill="#FFB895"/>
<path d="M74.0812 31.835C74.0812 31.835 74.0037 35.112 73.5498 36.168L74.0812 31.835Z" fill="white"/>
<path d="M74.0812 31.835C74.0812 31.835 74.0037 35.112 73.5498 36.168" stroke="black" stroke-width="0.233457" stroke-miterlimit="10"/>
<path d="M75.5412 32.1279C75.5412 32.1279 75.7626 35.4681 75.1592 36.2314" stroke="black" stroke-width="0.233457" stroke-miterlimit="10"/>
<path d="M76.6661 33.1208C76.6661 33.1208 77.2861 33.9989 76.4004 37.0292" stroke="black" stroke-width="0.233457" stroke-miterlimit="10"/>
<path d="M70.2715 34.8882C70.2715 34.8882 70.8749 35.1522 71.0686 34.366" stroke="black" stroke-width="0.233457" stroke-miterlimit="10"/>
<path d="M64.0557 35.2209C64.0557 35.2209 64.6757 35.5481 65.5116 35.2209" stroke="black" stroke-width="0.233457" stroke-miterlimit="10"/>
<path d="M60.7897 33.5222C60.7897 33.8321 60.7011 34.0961 60.524 34.32C60.3468 34.538 60.1365 34.6471 59.8874 34.6471C59.6383 34.6471 59.4224 34.538 59.2452 34.32C59.0681 34.0961 58.9795 33.8321 58.9795 33.5222C58.9795 33.2066 59.0681 32.9426 59.2452 32.7245C59.4224 32.5006 59.6383 32.3916 59.8874 32.3916C60.1365 32.3916 60.3468 32.5006 60.524 32.7245C60.7011 32.9426 60.7897 33.2066 60.7897 33.5222Z" fill="#FFB895"/>
<path d="M60.0627 33.0284C60.0627 33.0284 59.2655 32.9825 59.6918 33.9524" stroke="black" stroke-width="0.233457" stroke-miterlimit="10"/>
<path d="M63.4126 40.8052H62.2501C61.6135 40.8052 61.0986 40.2714 61.0986 39.6172V36.5984H64.5585V39.6172C64.5585 40.2714 64.0437 40.8052 63.4126 40.8052Z" fill="#FFB895"/>
<path d="M82.4496 36.2197C82.4496 36.2197 81.8129 37.7406 80.5674 37.4536" stroke="black" stroke-width="0.233457" stroke-miterlimit="10"/>
<path d="M58.7079 65.6501C58.7079 65.6501 58.791 69.8283 56.167 70.6145" stroke="black" stroke-width="0.233457" stroke-miterlimit="10"/>
<path d="M64.5583 36.8914V38.2974C63.894 38.3491 62.9972 37.5973 62.5322 37.1611C62.6319 37.1668 62.7315 37.1668 62.8312 37.1668C63.4401 37.1668 64.0214 37.0693 64.5583 36.8914Z" fill="#EA8D65"/>
<path d="M85.285 66.9302C85.2518 66.9761 85.2629 67.0277 85.2297 67.0737C85.13 67.2344 85.0304 67.4008 84.9252 67.5615C84.5377 68.1756 84.128 68.7782 83.7073 69.3751C83.0541 70.2876 82.4341 71.2116 81.8473 72.1528C81.7919 72.2446 81.731 72.3422 81.6757 72.434C77.2249 79.6768 74.7448 87.8436 75.315 97.6002H50.4925C51.0571 87.9814 48.6546 79.9121 44.3256 72.7497C44.2758 72.6693 44.2315 72.5947 44.1816 72.5144C43.5284 71.4469 42.8309 70.4024 42.1002 69.3751C41.5853 68.6577 41.0982 67.923 40.6387 67.177C40.5889 67.0966 40.5391 67.0163 40.4893 66.9302C40.6443 66.9589 40.8048 66.9933 40.9598 67.0163C50.7693 68.8126 60.5566 69.4095 70.3383 68.8011C72.0268 68.6978 73.7152 68.5601 75.4036 68.3822C76.9924 68.2157 78.5756 68.0149 80.1589 67.7853C81.5041 67.5959 82.8437 67.3778 84.1834 67.1368C84.4934 67.0851 85.3016 67.0794 85.285 66.9302Z" fill="#FFCD68"/>
<mask id="mask3_369_795" style="mask-type:luminance" maskUnits="userSpaceOnUse" x="0" y="0" width="62" height="60">
<path d="M0 0H61.8128V59.1649H0V0Z" fill="white"/>
</mask>
<g mask="url(#mask3_369_795)">
<path d="M34.4097 23.7657C32.832 23.2836 31.2266 22.9737 29.6157 22.8245C24.257 22.3367 18.8873 23.6796 14.4642 26.8706C13.2518 27.7429 12.117 28.7473 11.0707 29.8951C10.6721 30.3256 10.3012 30.7732 9.94141 31.2266V31.2324" stroke="white" stroke-opacity="0.57" stroke-width="1.79071" stroke-miterlimit="10" stroke-linecap="round"/>
</g>
<path d="M64.9681 99.2013L73.6704 74.8386C72.4137 75.5043 71.3176 76.5316 69.8451 76.7153C68.367 76.8932 66.9277 76.589 66.0918 75.5732C65.5659 76.2791 64.9459 76.6234 64.1377 76.7784C62.2777 77.1285 60.2017 76.5374 59.006 75.3149C58.004 76.2045 56.526 76.7268 55.0479 76.7095C53.5698 76.6981 52.2136 75.7511 51.2393 74.8386L59.9416 99.2013V98.9947L51.2393 74.6377" stroke="black" stroke-width="0.199001" stroke-miterlimit="10"/>
<mask id="mask4_369_795" style="mask-type:luminance" maskUnits="userSpaceOnUse" x="49" y="97" width="27" height="23">
<path d="M49.0576 97.3647H75.9838V120H49.0576V97.3647Z" fill="white"/>
</mask>
<g mask="url(#mask4_369_795)">
<path d="M50.4521 97.5999V112.126C50.4521 113.417 51.0057 114.651 51.9745 115.523L54.1944 117.52L56.7851 119.851H68.6428L71.3443 117.52L73.6527 115.529C74.6658 114.657 75.2526 113.394 75.2526 112.068V97.5999H50.4521Z" fill="#DAE4FD"/>
</g>
<mask id="mask5_369_795" style="mask-type:luminance" maskUnits="userSpaceOnUse" x="27" y="78" width="71" height="42">
<path d="M27.7998 78.2646H97.241V120H27.7998V78.2646Z" fill="white"/>
</mask>
<g mask="url(#mask5_369_795)">
<path d="M50.7314 102.134L74.7181 102.421" stroke="#C3CAF4" stroke-width="1.48134" stroke-miterlimit="10" stroke-linecap="round"/>
<path d="M50.7314 102.134L74.7181 102.421" stroke="#C3CAF4" stroke-width="1.48134" stroke-miterlimit="10" stroke-linecap="round"/>
</g>
<mask id="mask6_369_795" style="mask-type:luminance" maskUnits="userSpaceOnUse" x="27" y="82" width="71" height="38">
<path d="M27.7998 82.6724H97.241V120H27.7998V82.6724Z" fill="white"/>
</mask>
<g mask="url(#mask6_369_795)">
<path d="M50.7314 107.041L74.7181 107.328" stroke="#C3CAF4" stroke-width="1.48134" stroke-miterlimit="10" stroke-linecap="round"/>
<path d="M50.7314 107.041L74.7181 107.328" stroke="#C3CAF4" stroke-width="1.48134" stroke-miterlimit="10" stroke-linecap="round"/>
</g>
<mask id="mask7_369_795" style="mask-type:luminance" maskUnits="userSpaceOnUse" x="27" y="88" width="71" height="32">
<path d="M27.7998 88.5493H97.241V120H27.7998V88.5493Z" fill="white"/>
</mask>
<g mask="url(#mask7_369_795)">
<path d="M50.7314 112.361L74.7181 112.648" stroke="#C3CAF4" stroke-width="1.48134" stroke-miterlimit="10" stroke-linecap="round"/>
<path d="M50.7314 112.361L74.7181 112.648" stroke="#C3CAF4" stroke-width="1.48134" stroke-miterlimit="10" stroke-linecap="round"/>
</g>
<mask id="mask8_369_795" style="mask-type:luminance" maskUnits="userSpaceOnUse" x="95" y="119" width="25" height="1">
<path d="M95.8242 119.403H119.999V120H95.8242V119.403Z" fill="white"/>
</mask>
<g mask="url(#mask8_369_795)">
<path d="M96.4355 119.851H120.001" stroke="black" stroke-width="0.199001" stroke-miterlimit="10"/>
</g>
<mask id="mask9_369_795" style="mask-type:luminance" maskUnits="userSpaceOnUse" x="9" y="119" width="79" height="1">
<path d="M9.37793 119.403H87.3221V120H9.37793V119.403Z" fill="white"/>
</mask>
<g mask="url(#mask9_369_795)">
<path d="M10.6631 119.851H87.0296" stroke="black" stroke-width="0.199001" stroke-miterlimit="10"/>
</g>
<path d="M109.847 18.4859C109.847 14.8243 106.841 11.8571 103.143 11.8571C102.684 11.8571 102.241 11.9031 101.815 11.9891C100.741 9.73366 98.4266 8.17261 95.7417 8.17261C93.0901 8.17261 90.7982 9.69922 89.7077 11.9031C89.4918 11.8744 89.2648 11.8571 89.0379 11.8571C87.0007 11.8571 85.2514 13.0853 84.5096 14.83C84.3601 14.8128 84.2106 14.8013 84.0556 14.8013C82.0627 14.8013 80.4463 16.3968 80.4463 18.3711C80.4463 18.5088 80.4574 18.6466 80.4684 18.7843H109.841C109.841 18.6867 109.847 18.5892 109.847 18.4859Z" fill="#D7E2F4"/>
<mask id="mask10_369_795" style="mask-type:luminance" maskUnits="userSpaceOnUse" x="17" y="0" width="25" height="10">
<path d="M17.8799 0H41.9717V9.21133H17.8799V0Z" fill="white"/>
</mask>
<g mask="url(#mask10_369_795)">
<path d="M18.3613 8.69455C18.3613 5.62411 20.7639 3.13906 23.7311 3.13906C24.0909 3.13906 24.4452 3.17349 24.7884 3.2481C25.6465 1.35418 27.5009 0.0456543 29.6488 0.0456543C31.7691 0.0456543 33.6069 1.32548 34.4761 3.17923C34.6532 3.15053 34.8304 3.13906 35.013 3.13906C36.6406 3.13906 38.0411 4.16636 38.6335 5.62985C38.7552 5.61263 38.877 5.60689 38.9988 5.60689C40.5931 5.60689 41.8885 6.94411 41.8885 8.59699C41.8885 8.71751 41.8774 8.83229 41.8664 8.94707H18.3724C18.3669 8.86673 18.3613 8.78064 18.3613 8.69455Z" fill="#D7E2F4"/>
</g>
</svg>
