<svg width="120" height="120" viewBox="0 0 120 120" fill="none" xmlns="http://www.w3.org/2000/svg">
<path d="M93.1119 28.8227L93.0836 28.7872C91.7548 26.9405 89.1571 26.5853 87.3865 28.013L71.2847 40.9754L57.1762 42.1722C54.826 42.3711 52.6878 43.6105 51.3342 45.5531L39.0988 62.3296C37.4907 64.5386 38.6429 67.6851 41.2935 68.3172C42.7602 68.6652 44.2941 68.1148 45.2059 66.9073L56.2821 52.2651L57.4519 66.1899L53.5254 93.237C53.126 95.9928 55.5858 98.3012 58.293 97.7188L59.8127 97.3885C61.396 97.044 62.6118 95.7691 62.891 94.1675L67.5173 67.337L77.2257 72.1242C77.671 72.3444 78.0173 72.7209 78.2011 73.1861L81.6717 82.9843C82.5553 85.4809 85.5735 86.4362 87.7187 84.8984L88.1181 84.6143C89.5035 83.6235 90.1043 81.8549 89.6201 80.2213L85.5911 66.6339C85.4286 66.1189 85.061 65.6928 84.5733 65.4548L75.4939 60.696L73.9354 48.7599L92.3379 34.3166C94.0237 32.992 94.3665 30.5664 93.1119 28.8227Z" fill="#83ADE6"/>
<path d="M70.8076 33.9402C70.8076 34.4622 70.7581 34.9807 70.6556 35.4957C70.5531 36.0106 70.4047 36.5113 70.2032 36.9943C70.0053 37.4809 69.7579 37.939 69.4681 38.3758C69.1783 38.8126 68.8496 39.2139 68.4821 39.5868C68.111 39.9561 67.7116 40.2864 67.2769 40.5776C66.8422 40.8688 66.3863 41.1174 65.9021 41.3163C65.4215 41.5187 64.9231 41.6679 64.4107 41.7709C63.9018 41.8739 63.3822 41.9236 62.8627 41.9236C62.3396 41.9236 61.8237 41.8739 61.3112 41.7709C60.7987 41.6679 60.304 41.5187 59.8198 41.3163C59.3391 41.1174 58.8797 40.8688 58.445 40.5776C58.0138 40.2864 57.6109 39.9561 57.2433 39.5868C56.8722 39.2139 56.5436 38.8126 56.2538 38.3758C55.964 37.939 55.7201 37.4809 55.5187 36.9943C55.3207 36.5113 55.1688 36.0106 55.0663 35.4957C54.9673 34.9807 54.9143 34.4622 54.9143 33.9402C54.9143 33.4146 54.9673 32.8961 55.0663 32.3811C55.1688 31.8662 55.3207 31.369 55.5187 30.8825C55.7201 30.3995 55.964 29.9378 56.2538 29.501C56.5436 29.0677 56.8722 28.6629 57.2433 28.2935C57.6109 27.9206 58.0138 27.5904 58.445 27.2991C58.8797 27.0079 59.3391 26.7629 59.8198 26.5605C60.304 26.3616 60.7987 26.2089 61.3112 26.1059C61.8237 26.0029 62.3396 25.9532 62.8627 25.9532C63.3822 25.9532 63.9018 26.0029 64.4107 26.1059C64.9231 26.2089 65.4215 26.3616 65.9021 26.5605C66.3863 26.7629 66.8422 27.0079 67.2769 27.2991C67.7116 27.5904 68.111 27.9206 68.4821 28.2935C68.8496 28.6629 69.1783 29.0677 69.4681 29.501C69.7579 29.9378 70.0053 30.3995 70.2032 30.8825C70.4047 31.369 70.5531 31.8662 70.6556 32.3811C70.7581 32.8961 70.8076 33.4146 70.8076 33.9402Z" fill="#83ADE6"/>
<mask id="mask0_202_1006" style="mask-type:luminance" maskUnits="userSpaceOnUse" x="29" y="49" width="91" height="68">
<path d="M29.4646 49.0867H120V116.363H29.4646V49.0867Z" fill="white"/>
</mask>
<g mask="url(#mask0_202_1006)">
<path d="M115.229 49.9106L97.3494 59.8935L105.298 61.8893C100.604 68.47 87.4324 85.0867 63.5766 93.8301C61.4596 94.6043 59.3745 95.2791 57.3211 95.858C53.7622 96.8666 50.1714 97.8929 45.6936 98.3084C42.8344 98.5747 38.7312 98.6706 33.7728 97.8219L29.8003 115.792H37.625C39.0316 115.792 40.4453 115.71 41.8343 115.504C88.0226 108.742 108.259 72.4617 113.402 64.6239L120.046 67.6851L115.229 49.9106Z" fill="#FF8088"/>
</g>
<path d="M107.284 0L110.967 7.88754L119.205 9.15182L113.243 15.2885L114.649 23.9574L107.284 19.8627L99.9152 23.9574L101.322 15.2885L95.3632 9.15182L103.601 7.88754L107.284 0Z" fill="#FADA5E"/>
<mask id="mask1_202_1006" style="mask-type:luminance" maskUnits="userSpaceOnUse" x="0" y="79" width="41" height="41">
<path d="M0 79.0885H40.3216V120H0V79.0885Z" fill="white"/>
</mask>
<g mask="url(#mask1_202_1006)">
<path d="M39.7349 103.82V95.8189H35.2288C34.8578 94.3664 34.2887 92.9956 33.5466 91.7313L36.7309 88.5315L31.1009 82.8742L27.9166 86.074C26.6584 85.3282 25.2942 84.7564 23.8487 84.3765V79.8556H15.8862V84.3729C14.4336 84.7458 13.0694 85.3211 11.8077 86.0633L8.63404 82.8742L3.00406 88.5315L6.17777 91.7206C5.43206 92.9849 4.86305 94.3593 4.48843 95.8189H0V103.82H4.48843C4.86305 105.276 5.43206 106.654 6.17777 107.918L3.00406 111.104L8.63404 116.761L11.8077 113.572C13.0659 114.318 14.4336 114.89 15.8862 115.266V119.783H23.8487V115.263C25.2978 114.886 26.662 114.314 27.9201 113.569L31.1009 116.765L36.7309 111.107L33.5466 107.908C34.2887 106.647 34.8578 105.276 35.2288 103.82H39.7349ZM19.8657 107.805C15.4798 107.805 11.9208 104.228 11.9208 99.8213C11.9208 95.4105 15.4798 91.8343 19.8657 91.8343C24.2552 91.8343 27.8141 95.4105 27.8141 99.8213C27.8141 104.228 24.2552 107.805 19.8657 107.805Z" fill="#5A6D80"/>
</g>
<path d="M3.97244 0H7.94488V3.99171H3.97244V0Z" fill="#ADC4E6"/>
<path d="M7.94488 3.9917H11.9208V7.98696H7.94488V3.9917Z" fill="#ADC4E6"/>
<mask id="mask2_202_1006" style="mask-type:luminance" maskUnits="userSpaceOnUse" x="0" y="3" width="5" height="6">
<path d="M0 3.62939H4.13147V8.17512H0V3.62939Z" fill="white"/>
</mask>
<g mask="url(#mask2_202_1006)">
<path d="M0 3.9917H3.97243V7.98696H0V3.9917Z" fill="#ADC4E6"/>
</g>
<path d="M3.97244 7.98694H7.94488V11.9787H3.97244V7.98694Z" fill="#ADC4E6"/>
<path d="M19.8658 5.99109H23.8417V9.9828H19.8658V5.99109Z" fill="#ADC4E6"/>
<path d="M23.8417 9.98279H27.8141V13.9745H23.8417V9.98279Z" fill="#ADC4E6"/>
<path d="M15.8933 9.98279H19.8658V13.9745H15.8933V9.98279Z" fill="#ADC4E6"/>
<path d="M19.8658 13.9745H23.8417V17.9662H19.8658V13.9745Z" fill="#ADC4E6"/>
<path d="M111.256 107.805H115.229V111.796H111.256V107.805Z" fill="#ADC4E6"/>
<path d="M115.229 111.796H119.205V115.792H115.229V111.796Z" fill="#ADC4E6"/>
<path d="M107.284 111.796H111.256V115.792H107.284V111.796Z" fill="#ADC4E6"/>
<path d="M111.256 115.792H115.229V119.783H111.256V115.792Z" fill="#ADC4E6"/>
</svg>
