<svg width="120" height="120" viewBox="0 0 120 120" fill="none" xmlns="http://www.w3.org/2000/svg">
<path d="M94.418 66.7799C94.418 68.0608 94.3632 69.3417 94.2482 70.6166C94.1332 71.8916 93.9579 73.1606 93.7279 74.4176C93.4979 75.6747 93.2131 76.9199 92.8735 78.1472C92.5285 79.3744 92.1342 80.5779 91.6851 81.7635C91.2305 82.9491 90.7321 84.1049 90.1735 85.2368C89.6203 86.3688 89.0179 87.465 88.3607 88.5314C87.7089 89.5979 87.0079 90.6286 86.2631 91.6175C85.5127 92.6125 84.7241 93.5597 83.8916 94.4653C83.0592 95.3768 82.1883 96.2347 81.2792 97.045C80.3701 97.8612 79.4226 98.6238 78.4477 99.3387C77.4674 100.048 76.4597 100.709 75.4191 101.311C74.384 101.918 73.3215 102.467 72.2316 102.955C71.1417 103.444 70.0354 103.878 68.9127 104.248C67.7845 104.623 66.6453 104.933 65.4897 105.183C64.3341 105.433 63.173 105.624 62.001 105.749C60.829 105.874 59.6515 105.934 58.474 105.934C57.3019 105.934 56.1244 105.874 54.9524 105.749C53.7804 105.624 52.6193 105.433 51.4637 105.183C50.3081 104.933 49.1689 104.623 48.0407 104.248C46.918 103.878 45.8117 103.444 44.7218 102.955C43.6319 102.467 42.5694 101.918 41.5343 101.311C40.4937 100.709 39.486 100.048 38.5057 99.3387C37.5308 98.6238 36.5833 97.8612 35.6742 97.045C34.765 96.2347 33.8942 95.3768 33.0618 94.4653C32.2293 93.5597 31.4406 92.6125 30.6903 91.6175C29.9455 90.6286 29.2445 89.5979 28.5927 88.5314C27.9355 87.465 27.3331 86.3688 26.7799 85.2368C26.2213 84.1049 25.7174 82.9491 25.2683 81.7635C24.8192 80.5779 24.4249 79.3744 24.0799 78.1472C23.7403 76.9199 23.4555 75.6747 23.2255 74.4176C22.9955 73.1606 22.8202 71.8916 22.7052 70.6166C22.5902 69.3417 22.5354 68.0608 22.5354 66.7799C22.5354 65.499 22.5902 64.218 22.7052 62.9431C22.8202 61.6622 22.9955 60.3992 23.2255 59.1421C23.4555 57.8791 23.7403 56.6398 24.0799 55.4126C24.4249 54.1853 24.8192 52.9759 25.2683 51.7962C25.7174 50.6107 26.2213 49.4489 26.7799 48.3169C27.3331 47.1909 27.9355 46.0888 28.5927 45.0223C29.2445 43.9559 29.9455 42.9312 30.6903 41.9362C31.4406 40.9473 32.2293 39.994 33.0618 39.0885C33.8942 38.1829 34.765 37.325 35.6742 36.5088C36.5833 35.6985 37.5308 34.93 38.5057 34.221C39.486 33.5061 40.4937 32.8507 41.5343 32.2431C42.5694 31.6413 43.6319 31.0932 44.7218 30.5987C45.8117 30.1102 46.918 29.6812 48.0407 29.3059C49.1689 28.9365 50.3081 28.6208 51.4637 28.3705C52.6193 28.1203 53.7804 27.9356 54.9524 27.8105C56.1244 27.6854 57.3019 27.6199 58.474 27.6199C59.6515 27.6199 60.829 27.6854 62.001 27.8105C63.173 27.9356 64.3341 28.1203 65.4897 28.3705C66.6453 28.6208 67.7845 28.9365 68.9127 29.3059C70.0354 29.6812 71.1417 30.1102 72.2316 30.5987C73.3215 31.0932 74.384 31.6413 75.4191 32.2431C76.4597 32.8507 77.4674 33.5061 78.4477 34.221C79.4226 34.93 80.3701 35.6985 81.2792 36.5088C82.1883 37.325 83.0592 38.1829 83.8916 39.0885C84.7241 39.994 85.5127 40.9473 86.2631 41.9362C87.0079 42.9312 87.7089 43.9559 88.3607 45.0223C89.0179 46.0888 89.6203 47.1909 90.1735 48.3169C90.7321 49.4489 91.2305 50.6107 91.6851 51.7962C92.1342 52.9759 92.5285 54.1853 92.8735 55.4126C93.2131 56.6398 93.4979 57.8791 93.7279 59.1421C93.9579 60.3992 94.1332 61.6622 94.2482 62.9431C94.3632 64.218 94.418 65.499 94.418 66.7799Z" fill="#FFA91A"/>
<path d="M30.6903 86.4462C30.296 86.4462 29.9291 86.2258 29.7209 85.8564C26.5061 80.1191 24.8083 73.524 24.8083 66.7798C24.8083 62.4605 25.4929 58.2246 26.8402 54.2031C28.1491 50.3128 30.0441 46.7083 32.4703 43.4971C37.3501 37.039 44.1413 32.5528 51.6006 30.8549C52.2031 30.7179 52.8165 31.1587 52.9424 31.8022C53.0629 32.4694 52.6741 33.1307 52.0607 33.2678C37.5801 36.5624 27.0702 50.6523 27.0702 66.7798C27.0702 73.0652 28.6585 79.2195 31.6542 84.5696C31.8131 84.8496 31.8624 85.1832 31.7912 85.5049C31.72 85.8207 31.5392 86.0888 31.2763 86.2615C31.1011 86.3807 30.8984 86.4462 30.6903 86.4462ZM56.3106 32.6243C55.7191 32.6243 55.2208 32.1179 55.1824 31.4745C55.1386 30.7953 55.6096 30.2055 56.234 30.1578C56.2394 30.1638 56.2394 30.1578 56.2449 30.1638C56.8693 30.1221 57.4005 30.6404 57.4389 31.3136C57.4608 31.6353 57.3567 31.9571 57.1595 32.2073C56.9624 32.4516 56.6885 32.6005 56.3928 32.6184C56.3928 32.6243 56.3873 32.6243 56.3873 32.6243C56.3545 32.6243 56.3325 32.6243 56.3106 32.6243Z" fill="#FFC91D"/>
<path d="M80.9233 36.1812C85.8359 42.8836 88.7824 51.3733 88.7824 60.6137C88.7824 82.2461 72.6917 99.7796 52.8329 99.7796C44.3494 99.7796 36.556 96.5684 30.4056 91.2125C36.9941 100.185 47.1261 105.946 58.4904 105.946C78.3492 105.946 94.4399 88.4064 94.4399 66.7799C94.4399 54.3939 89.1603 43.3602 80.9233 36.1812Z" fill="#F79219"/>
<path d="M82.4567 37.593C88.1471 44.5218 91.6139 53.6669 91.6139 63.6997C91.6139 85.3261 75.5176 102.86 55.6644 102.86C46.4579 102.86 38.062 99.0825 31.7035 92.8865C38.2866 100.894 47.8435 105.946 58.4959 105.946C78.3491 105.946 94.4399 88.4063 94.4399 66.7798C94.4399 55.1802 89.812 44.7661 82.4567 37.593Z" fill="#EF7816"/>
<path d="M72.1549 73.8695V103.015C67.9432 104.903 63.3263 105.94 58.4903 105.94C53.6598 105.94 49.0429 104.903 44.8313 103.015V73.8695H72.1549Z" fill="#58595B"/>
<path d="M55.4782 67.7629V75.8654C55.4782 76.4969 55.6425 77.1106 55.9547 77.6408C57.1431 79.6486 59.8432 79.6486 61.0316 77.6408C61.3438 77.1106 61.5081 76.4969 61.5081 75.8654V67.7629H55.4782Z" fill="#FCC4AE"/>
<path d="M65.2541 73.8695L61.508 72.0286V73.798L58.4903 78.9216L55.4781 73.798V72.0286L51.732 73.8695L58.4903 93.8636H58.4958L65.2541 73.8695Z" fill="#D1D3D4"/>
<path d="M51.732 73.8695L54.558 82.2162C54.673 82.5558 55.0673 82.6511 55.3028 82.395L58.4903 78.9216L55.4781 73.798V72.0286L51.732 73.8695Z" fill="#F1F2F2"/>
<path d="M65.2542 73.8695L62.4282 82.2162C62.3132 82.5558 61.9188 82.6511 61.6833 82.395L58.4958 78.9216L61.5081 73.798V72.0286L65.2542 73.8695Z" fill="#F1F2F2"/>
<path d="M58.4903 93.8636L49.5577 83.3184C49.3879 83.1159 49.3989 82.7941 49.5906 82.6154L51.1953 81.0724C51.4965 80.7864 51.3377 80.2502 50.9433 80.2025L49.0593 79.9881C48.7636 79.9523 48.5829 79.6247 48.6814 79.3268L50.4942 73.8695H51.732L58.4903 93.8636Z" fill="#414042"/>
<path d="M67.9269 79.9881L66.0429 80.2025C65.6485 80.2502 65.4897 80.7864 65.7909 81.0724L67.3956 82.6154C67.5873 82.7941 67.5983 83.1159 67.4285 83.3184L58.4904 93.8636L65.2542 73.8695H66.4974L68.3048 79.3268C68.4034 79.6247 68.2172 79.9523 67.9269 79.9881Z" fill="#414042"/>
<path d="M52.0716 59.1837C52.0716 61.0186 50.7024 62.5081 49.0156 62.5081C47.3287 62.5081 45.965 61.0186 45.965 59.1837C45.965 57.3487 47.3287 55.8593 49.0156 55.8593C50.7024 55.8593 52.0716 57.3487 52.0716 59.1837Z" fill="#FFD2C0"/>
<path d="M50.7736 59.1838C50.7736 60.2383 49.985 61.0962 49.0156 61.0962C48.0462 61.0962 47.263 60.2383 47.263 59.1838C47.263 58.1293 48.0462 57.2714 49.0156 57.2714C49.985 57.2714 50.7736 58.1293 50.7736 59.1838Z" fill="#F2AD97"/>
<path d="M71.0212 59.1837C71.0212 61.0186 69.652 62.5081 67.9707 62.5081C66.2838 62.5081 64.9146 61.0186 64.9146 59.1837C64.9146 57.3487 66.2838 55.8593 67.9707 55.8593C69.652 55.8593 71.0212 57.3487 71.0212 59.1837Z" fill="#FFD2C0"/>
<path d="M69.7233 59.1838C69.7233 60.2383 68.9346 61.0962 67.9707 61.0962C67.0013 61.0962 66.2126 60.2383 66.2126 59.1838C66.2126 58.1293 67.0013 57.2714 67.9707 57.2714C68.9346 57.2714 69.7233 58.1293 69.7233 59.1838Z" fill="#F2AD97"/>
<path d="M67.9706 53.7266V59.0825C67.998 64.8198 63.5837 69.4549 58.4903 69.4072C53.4024 69.4549 48.9882 64.8198 49.0155 59.0825V53.7266C49.0155 48.025 53.26 43.4019 58.4903 43.4019C63.7261 43.4019 67.9651 48.025 67.9706 53.7266Z" fill="#FFD2C0"/>
<path d="M60.1772 62.9073C60.4401 62.9073 60.6373 63.1754 60.577 63.4495C60.3525 64.4742 59.5036 65.2428 58.4904 65.2428C57.4827 65.2428 56.6338 64.4742 56.4092 63.4495C56.349 63.1754 56.5461 62.9073 56.809 62.9073H60.1772Z" fill="#E59076"/>
<path d="M55.0565 41.3404C55.0729 46.8215 52.2579 51.7783 47.9751 54.3163C47.0714 54.8525 45.9541 54.078 46.0472 52.9579C46.3539 49.1569 47.9093 45.6776 50.3465 43.223C51.6609 41.8945 53.2382 40.8697 55.0182 40.2561C55.0456 40.6136 55.0565 40.971 55.0565 41.3404Z" fill="#7C3108"/>
<path d="M70.1668 53.4108C62.2255 57.8791 52.2414 52.7793 50.3464 43.2231C51.6554 41.9005 53.2217 40.8817 54.9852 40.2621C62.3734 37.6526 69.7287 43.7712 70.8514 51.9571C70.9336 52.5469 70.6542 53.1367 70.1668 53.4108Z" fill="#8C3F0A"/>
<path d="M55.1878 57.73C55.1878 58.4211 54.673 58.9811 54.0377 58.9811C53.4079 58.9811 52.8931 58.4211 52.8931 57.73C52.8931 57.0389 53.4079 56.4789 54.0377 56.4789C54.673 56.4789 55.1878 57.0389 55.1878 57.73Z" fill="#995222"/>
<path d="M64.0931 57.73C64.0931 58.4211 63.5783 58.9811 62.9485 58.9811C62.3132 58.9811 61.7984 58.4211 61.7984 57.73C61.7984 57.0389 62.3132 56.4789 62.9485 56.4789C63.5783 56.4789 64.0931 57.0389 64.0931 57.73Z" fill="#995222"/>
<path d="M84.2311 61.0843V56.3419H75.2219V62.6511C75.7476 63.0801 76.1091 63.5031 76.1036 63.8546H83.6396V63.2052C83.5958 62.4188 84.275 61.8707 84.2311 61.0843Z" fill="#FCC4AE"/>
<path d="M75.2219 62.5857V62.6512C75.2547 62.681 75.2876 62.7048 75.3204 62.7346C75.2931 62.687 75.2602 62.6393 75.2219 62.5857Z" fill="#FCC4AE"/>
<path d="M84.2312 61.0843V56.3419H83.5795V60.3812C83.6233 61.1677 82.9441 61.7098 82.988 62.4962V63.1456H75.7477C75.9722 63.4018 76.1091 63.6401 76.1037 63.8546H83.6397V63.2052C83.5959 62.4188 84.275 61.8707 84.2312 61.0843Z" fill="#FCC4AE"/>
<path d="M75.2219 59.2135C75.2219 59.6127 75.5833 59.8868 75.9284 59.7557C76.2132 59.6425 76.5253 59.5829 76.843 59.5829C77.911 59.5829 78.8365 60.2323 79.3075 61.1915C79.4225 61.4238 79.7347 61.4238 79.8497 61.1915C80.3207 60.2323 81.2463 59.5829 82.3143 59.5829C82.4676 59.5829 82.6155 59.5948 82.7634 59.6246C83.5356 59.7616 84.2257 59.0884 84.2257 58.2365V56.3419H75.2219V59.2135Z" fill="#F2AD97"/>
<path d="M79.7238 53.8339V56.9616C79.7238 57.6408 79.2199 58.1889 78.6011 58.1889C77.9767 58.1889 77.4728 57.6408 77.4728 56.9616V53.8339C77.4728 53.1606 77.9767 52.6066 78.6011 52.6066C79.2199 52.6066 79.7238 53.1606 79.7238 53.8339Z" fill="#FFD2C0"/>
<path d="M81.9748 54.4475V57.5693C81.9748 58.2485 81.4709 58.7966 80.852 58.7966C80.2277 58.7966 79.7238 58.2485 79.7238 57.5693V54.4475C79.7238 53.7683 80.2277 53.2202 80.852 53.2202C81.4709 53.2202 81.9748 53.7683 81.9748 54.4475Z" fill="#FFD2C0"/>
<path d="M84.2312 55.0552V58.183C84.2312 58.8562 83.7273 59.4102 83.103 59.4102C82.4841 59.4102 81.9748 58.8562 81.9748 58.183V55.0552C81.9748 54.376 82.4841 53.8279 83.103 53.8279C83.7273 53.8279 84.2312 54.376 84.2312 55.0552Z" fill="#FFD2C0"/>
<path d="M77.4728 53.2259V56.3537C77.4728 57.0329 76.969 57.581 76.3446 57.581C75.7257 57.581 75.2219 57.0329 75.2219 56.3537V53.2259C75.2219 52.5468 75.7257 51.9987 76.3446 51.9987C76.969 51.9987 77.4728 52.5468 77.4728 53.2259Z" fill="#FFD2C0"/>
<path d="M78.8366 55.5495C78.7599 55.2993 78.508 55.1682 78.2725 55.2516L74.5756 56.5743C74.1211 56.7351 73.8089 57.1998 73.8089 57.7241V60.417C73.8089 61.7694 74.8221 62.8715 76.0653 62.8715V58.7905L77.5933 58.2424C78.6175 57.873 79.1761 56.6696 78.8366 55.5495Z" fill="#FCC4AE"/>
<path d="M84.6474 64.6707V68.013C84.6474 68.4598 84.3133 68.8292 83.8971 68.8292H75.8298C75.4136 68.8292 75.0795 68.4598 75.0795 68.013V64.6707C75.0795 64.2179 75.4136 63.8545 75.8298 63.8545H83.8971C84.3133 63.8545 84.6474 64.2179 84.6474 64.6707Z" fill="#414042"/>
<path d="M78.3546 66.3391C78.3546 66.8693 77.9603 67.2983 77.4728 67.2983C76.9854 67.2983 76.5911 66.8693 76.5911 66.3391C76.5911 65.8088 76.9854 65.3799 77.4728 65.3799C77.9603 65.3799 78.3546 65.8088 78.3546 66.3391Z" fill="#939598"/>
<path d="M78.3272 82.2997H72.1549V73.8696H76.0051V68.8293H83.7437V76.4016C83.7437 79.6545 81.3121 82.2997 78.3272 82.2997Z" fill="#58595B"/>
<path d="M32.7551 61.0843V56.3419H41.7644V62.6511C41.2386 63.0801 40.8772 63.5031 40.8826 63.8546H33.3466V63.2052C33.3904 62.4188 32.7113 61.8707 32.7551 61.0843Z" fill="#FCC4AE"/>
<path d="M41.7644 62.5857V62.6512C41.7315 62.681 41.6986 62.7048 41.6658 62.7346C41.6932 62.687 41.726 62.6393 41.7644 62.5857Z" fill="#FCC4AE"/>
<path d="M32.7551 61.0843V56.3419H33.4069V60.3812C33.363 61.1677 34.0422 61.7098 33.9983 62.4962V63.1456H41.2386C41.0141 63.4018 40.8772 63.6401 40.8826 63.8546H33.3466V63.2052C33.3904 62.4188 32.7113 61.8707 32.7551 61.0843Z" fill="#FCC4AE"/>
<path d="M41.7644 59.2135C41.7644 59.6127 41.4029 59.8868 41.0579 59.7557C40.7731 59.6425 40.4609 59.5829 40.1378 59.5829C39.0753 59.5829 38.1497 60.2323 37.6787 61.1915C37.5637 61.4238 37.2516 61.4238 37.1365 61.1915C36.6655 60.2323 35.74 59.5829 34.672 59.5829C34.5186 59.5829 34.3708 59.5948 34.2229 59.6246C33.4507 59.7616 32.7551 59.0884 32.7551 58.2365V56.3419H41.7644V59.2135Z" fill="#F2AD97"/>
<path d="M37.2624 53.8339V56.9616C37.2624 57.6408 37.7663 58.1889 38.3852 58.1889C39.0095 58.1889 39.5134 57.6408 39.5134 56.9616V53.8339C39.5134 53.1606 39.0095 52.6066 38.3852 52.6066C37.7663 52.6066 37.2624 53.1606 37.2624 53.8339Z" fill="#FFD2C0"/>
<path d="M35.0115 54.4475V57.5693C35.0115 58.2485 35.5154 58.7966 36.1342 58.7966C36.7586 58.7966 37.2625 58.2485 37.2625 57.5693V54.4475C37.2625 53.7683 36.7586 53.2202 36.1342 53.2202C35.5154 53.2202 35.0115 53.7683 35.0115 54.4475Z" fill="#FFD2C0"/>
<path d="M32.7551 55.0552V58.183C32.7551 58.8562 33.259 59.4102 33.8833 59.4102C34.5022 59.4102 35.0116 58.8562 35.0116 58.183V55.0552C35.0116 54.376 34.5022 53.8279 33.8833 53.8279C33.259 53.8279 32.7551 54.376 32.7551 55.0552Z" fill="#FFD2C0"/>
<path d="M39.5134 53.2259V56.3537C39.5134 57.0329 40.0173 57.581 40.6362 57.581C41.2605 57.581 41.7644 57.0329 41.7644 56.3537V53.2259C41.7644 52.5468 41.2605 51.9987 40.6362 51.9987C40.0173 51.9987 39.5134 52.5468 39.5134 53.2259Z" fill="#FFD2C0"/>
<path d="M38.1497 55.5495C38.2264 55.2993 38.4783 55.1682 38.7138 55.2516L42.4052 56.5743C42.8652 56.7351 43.1719 57.1998 43.1719 57.7241V60.417C43.1719 61.7694 42.1642 62.8715 40.921 62.8715V58.7905L39.3929 58.2424C38.3688 57.873 37.8102 56.6696 38.1497 55.5495Z" fill="#FCC4AE"/>
<path d="M32.3389 64.6707V68.013C32.3389 68.4598 32.6729 68.8292 33.0837 68.8292H41.1565C41.5672 68.8292 41.9068 68.4598 41.9068 68.013V64.6707C41.9068 64.2179 41.5672 63.8545 41.1565 63.8545H33.0837C32.6729 63.8545 32.3389 64.2179 32.3389 64.6707Z" fill="#414042"/>
<path d="M38.6316 66.3391C38.6316 66.8693 39.0259 67.2983 39.5134 67.2983C40.0008 67.2983 40.3951 66.8693 40.3951 66.3391C40.3951 65.8088 40.0008 65.3799 39.5134 65.3799C39.0259 65.3799 38.6316 65.8088 38.6316 66.3391Z" fill="#939598"/>
<path d="M38.659 82.2997H44.8313V73.8696H40.9812V68.8293H33.2425V76.4016C33.2425 79.6545 35.6742 82.2997 38.659 82.2997Z" fill="#58595B"/>
<path d="M72.7026 99.7736C72.7026 100.786 72.6095 101.793 72.4288 102.794C72.2481 103.789 71.9797 104.76 71.6237 105.696C71.2622 106.637 70.8241 107.531 70.3093 108.371C69.789 109.217 69.203 110.003 68.5403 110.718C67.8831 111.439 67.1656 112.082 66.3879 112.642C65.6102 113.208 64.7942 113.685 63.9288 114.072C63.069 114.465 62.1818 114.757 61.2671 114.954C60.3525 115.156 59.4269 115.252 58.4904 115.252C57.5594 115.252 56.6338 115.156 55.7192 114.954C54.8046 114.757 53.9173 114.465 53.0575 114.072C52.1921 113.685 51.3761 113.208 50.5984 112.642C49.8207 112.082 49.1032 111.439 48.446 110.718C47.7833 110.003 47.1973 109.217 46.677 108.371C46.1567 107.531 45.7186 106.637 45.3626 105.696C45.0066 104.76 44.7383 103.789 44.5575 102.794C44.3713 101.793 44.2837 100.786 44.2837 99.7736C44.2837 98.7549 44.3713 97.748 44.5575 96.7531C44.7383 95.7522 45.0066 94.787 45.3626 93.8457C45.7186 92.9103 46.1567 92.0167 46.677 91.1707C47.1973 90.3247 47.7833 89.5442 48.446 88.8234C49.1032 88.1084 49.8207 87.465 50.5984 86.899C51.3761 86.333 52.1921 85.8564 53.0575 85.4692C53.9173 85.0819 54.8046 84.784 55.7192 84.5874C56.6338 84.3908 57.5594 84.2896 58.4904 84.2896C59.4269 84.2896 60.3525 84.3908 61.2671 84.5874C62.1818 84.784 63.069 85.0819 63.9288 85.4692C64.7942 85.8564 65.6102 86.333 66.3879 86.899C67.1656 87.465 67.8831 88.1084 68.5403 88.8234C69.203 89.5442 69.789 90.3247 70.3093 91.1707C70.8241 92.0167 71.2622 92.9103 71.6237 93.8457C71.9797 94.787 72.2481 95.7522 72.4288 96.7531C72.6095 97.748 72.7026 98.7549 72.7026 99.7736Z" fill="#E63950"/>
<path d="M53.9611 91.54C55.9054 91.54 57.6689 92.7613 58.4904 94.6738C59.6624 91.9451 62.6418 90.7655 65.1501 92.0464C66.9136 92.9401 68.0364 94.8704 68.0364 96.9913C68.0419 103.146 58.5068 110.265 58.5068 110.265C58.5068 110.265 48.9553 103.163 48.9499 97.0092C48.9499 93.9886 51.1953 91.54 53.9611 91.54Z" fill="white"/>
<path d="M96.0829 20.3454C96.2144 21.5012 96.2418 22.657 96.1651 23.8128C96.0884 24.9686 95.9077 26.1125 95.6229 27.2266C95.3381 28.3466 94.9602 29.425 94.4782 30.4616C94.0018 31.5042 93.4322 32.4753 92.7804 33.3928C92.1232 34.3103 91.3948 35.1444 90.5843 35.907C89.7792 36.6636 88.9138 37.3309 87.9883 37.9028C87.0572 38.4747 86.0878 38.9454 85.0801 39.3088C84.0669 39.6782 83.0318 39.9284 81.9748 40.0714C80.9178 40.2144 79.8553 40.2442 78.7928 40.1608C77.7303 40.0774 76.6842 39.8808 75.6546 39.571C74.6304 39.2612 73.6391 38.8441 72.6862 38.3258C71.7332 37.8015 70.8405 37.1879 69.9971 36.473C69.1592 35.758 68.3869 34.9597 67.6914 34.0839C66.9958 33.2022 66.3824 32.2609 65.8567 31.248C65.3309 30.2412 64.9037 29.1867 64.5696 28.0785C64.2301 26.9764 64 25.8504 63.8686 24.7005C63.7372 23.5447 63.7098 22.3949 63.7865 21.2331C63.8631 20.0774 64.0439 18.9394 64.3287 17.8194C64.6134 16.6993 64.9968 15.621 65.4733 14.5843C65.9498 13.5477 66.5194 12.5706 67.1711 11.6532C67.8283 10.7357 68.5622 9.90159 69.3673 9.13901C70.1724 8.38238 71.0377 7.71511 71.9687 7.14317C72.8943 6.57124 73.8637 6.10058 74.8769 5.73716C75.8846 5.37374 76.9197 5.11756 77.9767 4.97457C79.0392 4.83159 80.0963 4.8018 81.1587 4.8852C82.2212 4.97457 83.2673 5.17117 84.2969 5.47502C85.3211 5.78482 86.3124 6.20186 87.2653 6.72614C88.2183 7.24446 89.1165 7.86406 89.9544 8.57898C90.7979 9.28795 91.5646 10.0863 92.2601 10.9621C92.9557 11.8438 93.5691 12.7851 94.0949 13.7979C94.6206 14.8048 95.0533 15.8653 95.3874 16.9674C95.7215 18.0696 95.957 19.1956 96.0829 20.3454Z" fill="#76A34F"/>
<path d="M89.801 8.42407C91.8548 11.3851 93.0761 15.0788 93.0761 19.0824C93.0761 28.853 85.8085 36.7708 76.8375 36.7708C73.1626 36.7708 69.7725 35.4423 67.056 33.2022C70.019 37.4738 74.7235 40.2323 80.0141 40.2323C88.985 40.2323 96.2527 32.3085 96.2527 22.5438C96.2527 16.7768 93.7224 11.6531 89.801 8.42407Z" fill="#648940"/>
<path d="M87.3639 23.8665C87.6487 23.8665 87.8842 24.1226 87.8677 24.4324C87.5994 28.9007 84.1873 32.4336 80.014 32.4336C75.8462 32.4336 72.4287 28.9007 72.1658 24.4324C72.1439 24.1226 72.3794 23.8665 72.6642 23.8665H87.3639Z" fill="#5A7A39"/>
<path d="M72.1658 24.4324C72.2096 25.2367 72.3685 26.0172 72.604 26.75H87.4241C87.6651 26.0172 87.8184 25.2367 87.8677 24.4324C87.8841 24.1226 87.6486 23.8665 87.3638 23.8665H72.6642C72.3849 23.8665 72.1439 24.1226 72.1658 24.4324Z" fill="white"/>
<path d="M76.2461 16.2705C76.2461 17.5038 75.3315 18.5047 74.1978 18.5047C73.0641 18.5047 72.144 17.5038 72.144 16.2705C72.144 15.0373 73.0641 14.0364 74.1978 14.0364C75.3315 14.0364 76.2461 15.0373 76.2461 16.2705Z" fill="#5A7A39"/>
<path d="M87.8841 16.2705C87.8841 17.5038 86.964 18.5047 85.8304 18.5047C84.7021 18.5047 83.782 17.5038 83.782 16.2705C83.782 15.0373 84.7021 14.0364 85.8304 14.0364C86.964 14.0364 87.8841 15.0373 87.8841 16.2705Z" fill="#5A7A39"/>
<mask id="mask0_202_1007" style="mask-type:luminance" maskUnits="userSpaceOnUse" x="22" y="0" width="26" height="27">
<path d="M22.5026 0H47.7395V26.5892H22.5026V0Z" fill="white"/>
</mask>
<g mask="url(#mask0_202_1007)">
<path d="M33.3246 1.48335C31.468 5.86822 28.2367 9.38923 24.2168 11.4089C23.2857 11.8676 22.875 13.0592 23.2967 14.072C23.4774 14.5188 23.806 14.8763 24.2168 15.0788C28.2367 17.0925 31.468 20.6135 33.3246 24.9984C33.7409 26.0112 34.8362 26.464 35.7673 26.0112C36.178 25.8087 36.5066 25.4452 36.6928 24.9984C38.5495 20.6135 41.7753 17.0925 45.8007 15.0788C46.7318 14.6201 47.1425 13.4226 46.7263 12.4098C46.5401 11.9689 46.2115 11.6115 45.8007 11.4089C41.7808 9.38923 38.5495 5.86822 36.6928 1.48335C36.2766 0.470544 35.1867 0.0177578 34.2557 0.470543C33.8394 0.673104 33.5108 1.03653 33.3246 1.48335Z" fill="#FFA91A"/>
</g>
<path d="M46.7263 12.4098C46.5401 11.969 46.2115 11.6115 45.8008 11.4089C45.0669 11.0396 44.3604 10.6166 43.6758 10.1519C43.5717 10.7774 43.1938 11.3315 42.6242 11.6115C38.5988 13.6312 35.373 17.1522 33.5164 21.537C33.3302 21.9839 33.0016 22.3473 32.5853 22.5498C32.4539 22.6154 32.317 22.663 32.1746 22.6869C32.6017 23.4256 32.9851 24.2001 33.3247 24.9985C33.7409 26.0113 34.8363 26.4641 35.7673 26.0113C36.1781 25.8087 36.5067 25.4453 36.6929 24.9985C38.5495 20.6136 41.7753 17.0926 45.8008 15.0729C46.7318 14.6142 47.1426 13.4226 46.7263 12.4098Z" fill="#F79219"/>
<mask id="mask1_202_1007" style="mask-type:luminance" maskUnits="userSpaceOnUse" x="9" y="93" width="27" height="27">
<path d="M9.88412 93.6968H35.1211V120H9.88412V93.6968Z" fill="white"/>
</mask>
<g mask="url(#mask1_202_1007)">
<path d="M21.4455 95.067C19.5889 99.4518 16.3576 102.973 12.3377 104.993C11.4066 105.451 10.9959 106.643 11.4121 107.656C11.5983 108.102 11.9269 108.454 12.3377 108.656C16.3576 110.676 19.5889 114.197 21.4455 118.582C21.8618 119.595 22.9517 120.048 23.8827 119.595C24.2989 119.392 24.633 119.029 24.8138 118.582C26.6704 114.197 29.8962 110.676 33.9216 108.656C34.8527 108.198 35.2634 107.006 34.8417 105.993C34.661 105.553 34.3324 105.195 33.9216 104.993C29.9017 102.973 26.6704 99.4518 24.8138 95.067C24.3975 94.0542 23.3022 93.6014 22.3711 94.0542C21.9604 94.2567 21.6318 94.6201 21.4455 95.067Z" fill="#FFA91A"/>
</g>
<mask id="mask2_202_1007" style="mask-type:luminance" maskUnits="userSpaceOnUse" x="19" y="102" width="17" height="18">
<path d="M19.6984 102.848H35.121V120H19.6984V102.848Z" fill="white"/>
</mask>
<g mask="url(#mask2_202_1007)">
<path d="M34.8416 105.993C34.6609 105.552 34.3323 105.195 33.9215 104.992C33.1877 104.623 32.4757 104.2 31.7966 103.735C31.6925 104.361 31.3146 104.915 30.745 105.195C26.7196 107.215 23.4938 110.736 21.6372 115.121C21.4509 115.567 21.1223 115.931 20.7061 116.133C20.5747 116.199 20.4323 116.241 20.2953 116.27C20.7225 117.009 21.1059 117.778 21.4455 118.582C21.8617 119.595 22.9516 120.048 23.8826 119.595C24.2989 119.392 24.6329 119.029 24.8137 118.582C26.6703 114.197 29.8961 110.676 33.9215 108.656C34.8526 108.198 35.2633 107.006 34.8416 105.993Z" fill="#F79219"/>
</g>
<mask id="mask3_202_1007" style="mask-type:luminance" maskUnits="userSpaceOnUse" x="81" y="93" width="26" height="27">
<path d="M81.3888 93.6968H106.626V120H81.3888V93.6968Z" fill="white"/>
</mask>
<g mask="url(#mask3_202_1007)">
<path d="M91.8494 95.067C89.9928 99.4518 86.7615 102.973 82.7416 104.993C81.8105 105.451 81.3997 106.643 81.816 107.656C82.0022 108.102 82.3308 108.454 82.7416 108.656C86.7615 110.676 89.9928 114.197 91.8494 118.582C92.2656 119.595 93.3555 120.048 94.2866 119.595C94.7028 119.392 95.0314 119.029 95.2176 118.582C97.0742 114.197 100.3 110.676 104.325 108.656C105.257 108.198 105.667 107.006 105.246 105.993C105.065 105.553 104.736 105.195 104.325 104.993C100.306 102.973 97.0742 99.4518 95.2176 95.067C94.8014 94.0542 93.706 93.6014 92.775 94.0542C92.3642 94.2567 92.0301 94.6201 91.8494 95.067Z" fill="#FFA91A"/>
</g>
<mask id="mask4_202_1007" style="mask-type:luminance" maskUnits="userSpaceOnUse" x="89" y="102" width="18" height="18">
<path d="M89.8011 102.848H106.626V120H89.8011V102.848Z" fill="white"/>
</mask>
<g mask="url(#mask4_202_1007)">
<path d="M105.246 105.993C105.065 105.552 104.736 105.195 104.325 104.992C103.592 104.623 102.88 104.2 102.2 103.735C102.096 104.361 101.718 104.915 101.149 105.195C97.1235 107.215 93.8922 110.736 92.041 115.121C91.8548 115.567 91.5262 115.931 91.11 116.133C90.9785 116.199 90.8361 116.241 90.6992 116.27C91.1264 117.009 91.5098 117.778 91.8493 118.582C92.2656 119.595 93.3554 120.048 94.2865 119.595C94.7027 119.392 95.0313 119.029 95.2175 118.582C97.0742 114.197 100.3 110.676 104.325 108.656C105.256 108.198 105.667 107.006 105.246 105.993Z" fill="#F79219"/>
</g>
<mask id="mask5_202_1007" style="mask-type:luminance" maskUnits="userSpaceOnUse" x="96" y="44" width="24" height="27">
<path d="M96.8114 44.8912H120V70.8192H96.8114V44.8912Z" fill="white"/>
</mask>
<g mask="url(#mask5_202_1007)">
<path d="M107.064 47.2208C105.333 51.3137 102.316 54.5964 98.564 56.479C97.6986 56.908 97.3098 58.0221 97.7041 58.9634C97.8794 59.3804 98.1806 59.7141 98.564 59.8988C102.321 61.7814 105.333 65.0641 107.064 69.157C107.453 70.1043 108.471 70.5273 109.337 70.0983C109.726 69.9137 110.032 69.5741 110.208 69.157C111.938 65.0641 114.95 61.7814 118.702 59.8988C119.573 59.4698 119.956 58.3617 119.562 57.4144C119.392 56.9974 119.085 56.6697 118.702 56.479C114.95 54.5964 111.938 51.3137 110.208 47.2208C109.819 46.2735 108.8 45.8505 107.929 46.2794C107.546 46.4641 107.234 46.8037 107.064 47.2208Z" fill="#FFA91A"/>
</g>
<mask id="mask6_202_1007" style="mask-type:luminance" maskUnits="userSpaceOnUse" x="105" y="54" width="15" height="17">
<path d="M105.224 54.0422H120V70.8191H105.224V54.0422Z" fill="white"/>
</mask>
<g mask="url(#mask6_202_1007)">
<path d="M119.562 57.4143C119.392 56.9973 119.085 56.6696 118.702 56.479C117.935 56.0917 117.196 55.6508 116.495 55.1504C116.38 55.6985 116.035 56.187 115.525 56.4373C111.774 58.3199 108.762 61.6026 107.031 65.6955C106.856 66.1126 106.549 66.4522 106.16 66.6428C106.056 66.6905 105.952 66.7262 105.848 66.756C106.303 67.5186 106.708 68.3229 107.064 69.157C107.453 70.1042 108.471 70.5272 109.337 70.0983C109.726 69.9136 110.032 69.574 110.208 69.157C111.938 65.064 114.95 61.7813 118.702 59.8987C119.573 59.4697 119.956 58.3616 119.562 57.4143Z" fill="#F79219"/>
</g>
<path d="M32.3388 45.916C32.4703 47.0718 32.4977 48.2217 32.421 49.3834C32.3443 50.5392 32.1636 51.6771 31.8788 52.7972C31.5995 53.9172 31.2161 54.9956 30.7396 56.0322C30.2577 57.0688 29.6936 58.0459 29.0364 58.9634C28.3846 59.8809 27.6507 60.715 26.8457 61.4775C26.0406 62.2342 25.1698 62.9014 24.2442 63.4734C23.3186 64.0513 22.3492 64.516 21.336 64.8854C20.3283 65.2488 19.2932 65.505 18.2362 65.6479C17.1737 65.7909 16.1167 65.8207 15.0542 65.7313C13.9917 65.6479 12.9456 65.4513 11.916 65.1415C10.8918 64.8377 9.90055 64.4207 8.94759 63.9023C7.99464 63.3781 7.09645 62.7585 6.2585 62.0495C5.41508 61.3346 4.64833 60.5362 3.95278 59.6604C3.25176 58.7787 2.64384 57.8374 2.11807 56.8246C1.5923 55.8177 1.15963 54.7632 0.82555 53.661C0.485992 52.5589 0.255967 51.4329 0.124525 50.2771C-0.00691771 49.1272 -0.0343022 47.9714 0.0423732 46.8097C0.119047 45.6539 0.29978 44.516 0.584573 43.3959C0.869363 42.2759 1.24726 41.1975 1.72922 40.1609C2.2057 39.1242 2.7698 38.1472 3.42701 37.2297C4.08422 36.3122 4.81263 35.4781 5.61772 34.7155C6.4228 33.9589 7.29361 33.2917 8.21918 32.7197C9.14475 32.1478 10.1141 31.6771 11.1273 31.3137C12.1405 30.9443 13.1757 30.6941 14.2327 30.5511C15.2897 30.4081 16.3467 30.3783 17.4147 30.4617C18.4772 30.5452 19.5177 30.7418 20.5474 31.0516C21.577 31.3614 22.5628 31.7724 23.5158 32.2967C24.4687 32.815 25.3669 33.4346 26.2049 34.1496C27.0483 34.8585 27.815 35.6569 28.5161 36.5326C29.2116 37.4144 29.825 38.3557 30.3508 39.3685C30.8766 40.3754 31.3037 41.4358 31.6433 42.538C31.9774 43.6402 32.2074 44.7662 32.3388 45.916Z" fill="#478CF7"/>
<path d="M26.0241 34.0066C28.0834 36.9735 29.2993 40.6613 29.2993 44.6649C29.2993 54.4356 22.0316 62.3593 13.0606 62.3593C9.39121 62.3593 6.0011 61.0248 3.27914 58.7847C6.24207 63.0564 10.9466 65.8148 16.2372 65.8148C25.2081 65.8148 32.4758 57.897 32.4758 48.1264C32.4758 42.3593 29.9455 37.2357 26.0241 34.0066Z" fill="#377DE2"/>
<path d="M23.587 49.449C23.8718 49.449 24.1073 49.7052 24.0908 50.015C23.8225 54.4832 20.4105 58.0221 16.2372 58.0221C12.0693 58.0221 8.65732 54.4832 8.38896 50.015C8.36705 49.7052 8.60803 49.449 8.89282 49.449H23.587Z" fill="#2266D3"/>
<path d="M8.38893 50.015C8.43822 50.8252 8.59157 51.5997 8.83255 52.3325H23.6472C23.8882 51.5997 24.0415 50.8252 24.0908 50.015C24.1072 49.7052 23.8717 49.449 23.587 49.449H8.8928C8.608 49.449 8.3725 49.7052 8.38893 50.015Z" fill="white"/>
<path d="M12.4747 41.8587C12.4747 43.0919 11.5546 44.0928 10.4209 44.0928C9.28718 44.0928 8.37256 43.0919 8.37256 41.8587C8.37256 40.6254 9.28718 39.6245 10.4209 39.6245C11.5546 39.6245 12.4747 40.6254 12.4747 41.8587Z" fill="#2266D3"/>
<path d="M24.1073 41.8587C24.1073 43.0919 23.1927 44.0928 22.059 44.0928C20.9253 44.0928 20.0052 43.0919 20.0052 41.8587C20.0052 40.6254 20.9253 39.6245 22.059 39.6245C23.1927 39.6245 24.1073 40.6254 24.1073 41.8587Z" fill="#2266D3"/>
</svg>
