<svg width="120" height="100" viewBox="0 0 120 100" fill="none" xmlns="http://www.w3.org/2000/svg">
<path fill-rule="evenodd" clip-rule="evenodd" d="M50.221 40.6621H59.8345C60.9974 40.6621 61.9402 41.5614 61.9402 42.6691V91.0401C61.9402 92.1479 60.9974 93.0472 59.8345 93.0472H50.221C49.058 93.0472 48.1152 92.1479 48.1152 91.0401V42.6691C48.1152 41.5614 49.058 40.6621 50.221 40.6621Z" fill="#6CF5C2"/>
<path fill-rule="evenodd" clip-rule="evenodd" d="M50.221 40.6621H54.4256C53.2695 40.6621 52.3198 41.5614 52.3198 42.6691V91.0401C52.3198 92.1479 53.2695 93.0472 54.4256 93.0472H50.221C49.058 93.0472 48.1152 92.1479 48.1152 91.0401V42.6691C48.1152 41.5614 49.058 40.6621 50.221 40.6621Z" fill="#00E499"/>
<path fill-rule="evenodd" clip-rule="evenodd" d="M75.8889 54.4963C79.0957 54.4963 82.3025 54.4963 85.5093 54.4963C86.6722 54.4963 87.615 55.4021 87.615 56.5034C87.615 68.7281 87.615 78.8154 87.615 91.0401C87.615 92.1479 86.6722 93.0471 85.5093 93.0471C82.3025 93.0471 79.0957 93.0471 75.8889 93.0471C74.7328 93.0471 73.79 92.1479 73.79 91.0401C73.79 78.8154 73.79 68.7281 73.79 56.5034C73.79 55.4021 74.7328 54.4963 75.8889 54.4963Z" fill="#FFE177"/>
<path fill-rule="evenodd" clip-rule="evenodd" d="M75.8889 54.4963H80.1004C78.9443 54.4963 77.9946 55.4021 77.9946 56.5034C77.9946 68.7281 77.9946 78.8154 77.9946 91.0401C77.9946 92.1479 78.9443 93.0471 80.1004 93.0471H75.8889C74.7328 93.0471 73.79 92.1479 73.79 91.0401C73.79 78.8154 73.79 68.7281 73.79 56.5034C73.79 55.4021 74.7328 54.4963 75.8889 54.4963Z" fill="#FFD064"/>
<path fill-rule="evenodd" clip-rule="evenodd" d="M111.184 67.7505H101.564C100.408 67.7505 99.458 68.6563 99.458 69.7575V91.04C99.458 92.1478 100.408 93.047 101.564 93.047H111.184C112.34 93.047 113.29 92.1478 113.29 91.04V69.7575C113.29 68.6563 112.34 67.7505 111.184 67.7505Z" fill="#FE646F"/>
<path fill-rule="evenodd" clip-rule="evenodd" d="M105.775 67.7505H101.564C100.408 67.7505 99.458 68.6563 99.458 69.7575V91.04C99.458 92.1478 100.408 93.047 101.564 93.047H105.775C104.612 93.047 103.669 92.1478 103.669 91.04V69.7575C103.669 68.6563 104.612 67.7505 105.775 67.7505Z" fill="#FD4755"/>
<mask id="mask0_369_798" style="mask-type:luminance" maskUnits="userSpaceOnUse" x="14" y="90" width="106" height="8">
<path d="M14.0928 90.7925H119.999V97.4652H14.0928V90.7925Z" fill="white"/>
</mask>
<g mask="url(#mask0_369_798)">
<path fill-rule="evenodd" clip-rule="evenodd" d="M117.861 91.6138H17.8723C16.7162 91.6138 15.7734 92.513 15.7734 93.6208V94.5852C15.7734 95.6865 16.7162 96.5858 17.8723 96.5858H117.861C119.017 96.5858 119.96 95.6865 119.96 94.5852V93.6208C119.96 92.513 119.017 91.6138 117.861 91.6138Z" fill="#A79BA7"/>
</g>
<mask id="mask1_369_798" style="mask-type:luminance" maskUnits="userSpaceOnUse" x="14" y="92" width="106" height="6">
<path d="M14.0928 92.4604H119.999V97.465H14.0928V92.4604Z" fill="white"/>
</mask>
<g mask="url(#mask1_369_798)">
<path fill-rule="evenodd" clip-rule="evenodd" d="M15.7734 94.1028V94.585C15.7734 95.6863 16.7162 96.5855 17.8723 96.5855H117.861C119.017 96.5855 119.96 95.6863 119.96 94.585V94.1028H15.7734Z" fill="#837683"/>
</g>
<mask id="mask2_369_798" style="mask-type:luminance" maskUnits="userSpaceOnUse" x="38" y="0" width="77" height="50">
<path d="M38.7568 0H114.509V49.0878H38.7568V0Z" fill="white"/>
</mask>
<g mask="url(#mask2_369_798)">
<path fill-rule="evenodd" clip-rule="evenodd" d="M97.7508 41.8871C87.9516 41.6004 77.4848 38.7593 67.7337 33.2073C53.2412 24.9576 43.5383 12.5374 40.2695 -0.0065918C45.1761 8.24964 52.147 15.4502 62.7721 21.5039C72.4062 26.9907 87.4767 31.2654 98.4803 31.5522L98.8932 25.7526C98.9069 25.518 99.0514 25.3225 99.2854 25.2378C99.5194 25.1466 99.7671 25.1857 99.9529 25.3486L113.537 37.0455C113.682 37.1693 113.757 37.3387 113.743 37.5342C113.73 37.7232 113.64 37.8795 113.475 37.9903L98.3564 48.0125C98.15 48.1493 97.8953 48.1624 97.682 48.0451C97.4618 47.9278 97.3448 47.7127 97.3586 47.4782L97.7508 41.8871Z" fill="#FFE177"/>
<path fill-rule="evenodd" clip-rule="evenodd" d="M97.7508 41.8871C87.9516 41.6004 77.4848 38.7593 67.7337 33.2073C53.2412 24.9576 43.5383 12.5374 40.2695 -0.0065918C40.3452 0.11722 40.4209 0.241031 40.4897 0.358325L40.4966 0.371357L40.5104 0.38439V0.397423L40.5998 0.540783C44.6875 11.775 55.4914 23.5044 66.8872 29.9947C78.283 36.485 87.9516 38.44 97.7508 38.7267V41.8871ZM111.658 35.4294L97.5513 44.7804L97.3586 47.4782C97.3379 47.7127 97.4618 47.9278 97.682 48.0451C97.8953 48.1624 98.15 48.1493 98.3564 48.0125L113.475 37.9903C113.64 37.8795 113.73 37.7232 113.743 37.5342C113.757 37.3387 113.682 37.1693 113.537 37.0455L111.658 35.4294Z" fill="#FFD064"/>
</g>
<mask id="mask3_369_798" style="mask-type:luminance" maskUnits="userSpaceOnUse" x="0" y="19" width="59" height="81">
<path d="M0 19.0603H58.135V100H0V19.0603Z" fill="white"/>
</mask>
<g mask="url(#mask3_369_798)">
<path fill-rule="evenodd" clip-rule="evenodd" d="M34.8615 36.674L37.6554 44.65C44.9567 52.1113 50.2692 58.4256 53.5999 64.0101C64.2594 81.8585 49.0994 99.987 28.792 99.6612C8.48467 99.987 -6.67531 81.8585 3.98416 64.0101C7.31481 58.4321 12.6342 52.1113 19.9286 44.65L22.7363 36.687L15.8961 30.1641C14.2307 28.5741 14.2307 25.9741 15.8961 24.3776C17.3205 23.0287 19.5639 22.8007 21.2499 23.8302C21.883 24.2147 22.5987 24.2799 23.2868 24.0062C23.975 23.7325 24.4429 23.2047 24.6012 22.5074C25.021 20.6763 26.7482 19.2883 28.792 19.2883C30.8014 19.2883 32.5562 20.6372 32.9829 22.5074C33.1411 23.2047 33.6091 23.7325 34.2972 24.0062C34.9854 24.2799 35.708 24.2147 36.3342 23.8302C37.9926 22.8137 40.236 23.0027 41.688 24.3776C43.3533 25.9741 43.3533 28.5741 41.688 30.1641L34.8615 36.674Z" fill="#FFC338"/>
</g>
<mask id="mask4_369_798" style="mask-type:luminance" maskUnits="userSpaceOnUse" x="17" y="19" width="42" height="81">
<path d="M17.6172 19.0601H58.1356V99.9998H17.6172V19.0601Z" fill="white"/>
</mask>
<g mask="url(#mask4_369_798)">
<path fill-rule="evenodd" clip-rule="evenodd" d="M34.8604 36.674L37.6543 44.65C44.9556 52.1113 50.2681 58.4256 53.5987 64.0101C64.2582 81.8585 49.0982 99.987 28.7909 99.6612C28.3918 99.6677 27.9995 99.6612 27.6073 99.6547C47.309 99.2767 61.6777 81.5131 51.2315 64.0101C47.894 58.4321 42.5814 52.1113 35.287 44.65L32.4863 36.674L39.3127 30.1641C40.9849 28.5741 40.9849 25.9741 39.3127 24.3776C38.7828 23.8759 38.1429 23.5305 37.4616 23.3415C38.9136 22.9505 40.5445 23.2959 41.6868 24.3776C43.3522 25.9741 43.3522 28.5741 41.6868 30.1641L34.8604 36.674ZM17.7529 23.348C18.909 23.0287 20.189 23.1786 21.2487 23.8302L21.2625 23.8368C21.1524 23.9019 21.0354 23.954 20.9184 24.0062C20.2303 24.2733 19.5077 24.2147 18.8815 23.8302C18.5237 23.6152 18.1452 23.4523 17.7529 23.348ZM27.6073 19.4447C29.0868 19.8553 30.2704 21.0152 30.6145 22.5074C30.7728 23.2047 31.2338 23.7325 31.922 24.0062C32.6101 24.2733 33.3258 24.2147 33.952 23.8368C33.4497 23.5435 33.1125 23.0809 32.9817 22.5074C32.5551 20.6372 30.8003 19.2883 28.7909 19.2883C28.378 19.2883 27.9789 19.3405 27.6073 19.4447Z" fill="#F5B829"/>
</g>
<path fill-rule="evenodd" clip-rule="evenodd" d="M19.4818 44.65H38.1032C40.4016 44.65 42.2802 42.858 42.2802 40.6685C42.2802 38.479 40.4016 36.687 38.1032 36.687H19.4818C17.1833 36.687 15.3047 38.479 15.3047 40.6685C15.3047 42.858 17.1833 44.65 19.4818 44.65Z" fill="#837683"/>
<path fill-rule="evenodd" clip-rule="evenodd" d="M35.7354 44.65H38.1026C40.401 44.65 42.2797 42.858 42.2797 40.6685C42.2797 38.479 40.401 36.687 38.1026 36.687H35.7354C38.0269 36.687 39.9056 38.479 39.9056 40.6685C39.9056 42.858 38.0269 44.65 35.7354 44.65Z" fill="#685E68"/>
<path fill-rule="evenodd" clip-rule="evenodd" d="M28.5787 80.9398C28.62 80.9332 28.6681 80.9332 28.7163 80.9332C28.7645 80.9332 28.8195 80.9332 28.8746 80.9398H28.964C29.198 80.9332 29.4802 80.9137 29.7967 80.8746C30.9734 80.7377 32.1433 80.3859 32.976 79.7798C33.6435 79.2976 34.0908 78.6199 34.0701 77.7337C34.0701 77.6685 34.0564 77.5578 34.0357 77.4079C33.8981 76.2936 33.2306 75.5507 32.3497 75.0424C31.2418 74.4104 29.7898 74.0715 28.4273 73.8565C26.7344 73.5958 24.8971 73.1136 23.3969 72.1818C21.6834 71.1131 20.4516 69.5296 20.3277 67.1707C20.2108 64.8248 21.2705 62.9481 22.9427 61.6513C24.03 60.8042 25.3788 60.2308 26.817 59.9505V58.5235C26.817 57.5265 27.6634 56.7119 28.7163 56.7119C29.7623 56.7119 30.6087 57.5265 30.6087 58.5235V59.9245C30.7945 59.9571 30.9803 59.9962 31.1592 60.0418C33.6572 60.6413 35.9213 62.2052 37.1118 64.9095C37.5178 65.8348 37.0636 66.8905 36.1002 67.2815C35.1299 67.6659 34.022 67.2293 33.6159 66.3105C32.9416 64.7727 31.6547 63.8864 30.244 63.5476C29.7829 63.4368 29.315 63.3782 28.8471 63.3716C28.8058 63.3782 28.7576 63.3782 28.7163 63.3782C28.675 63.3782 28.6406 63.3782 28.5993 63.3716C28.2484 63.3847 27.8974 63.4238 27.5602 63.4889C26.7138 63.6453 25.9362 63.9777 25.3306 64.4468C24.5461 65.0529 24.0575 65.9261 24.1126 67.0013C24.1607 67.9983 24.7044 68.6825 25.4614 69.1517C26.4385 69.7642 27.7735 70.0965 29.0397 70.2985C30.7945 70.5722 32.7076 71.0284 34.3041 71.9472C36.1208 72.9963 37.4971 74.5668 37.7999 76.9843C37.8274 77.1733 37.8412 77.4014 37.8481 77.649C37.9031 79.858 36.8503 81.5002 35.2606 82.647C33.9394 83.6049 32.2603 84.1784 30.6087 84.4195V85.7879C30.6087 86.7849 29.7623 87.5995 28.7163 87.5995C27.6634 87.5995 26.817 86.7849 26.817 85.7879V84.3869C25.4614 84.1523 24.1607 83.6897 23.0459 82.9794C21.4081 81.9368 20.1557 80.4054 19.6258 78.3788C19.3781 77.4144 19.9974 76.4369 21.0159 76.1958C22.0275 75.9613 23.0528 76.5542 23.3074 77.5187C23.5827 78.5939 24.2571 79.4084 25.1379 79.9688C26.1082 80.5814 27.3262 80.9072 28.5787 80.9398Z" fill="#FFE177"/>
</svg>
