<svg width="40" height="40" viewBox="0 0 40 40" fill="none" xmlns="http://www.w3.org/2000/svg">
<path d="M2.5 15.1666C2.5 10.7329 2.5 8.51604 3.36286 6.82257C4.12186 5.33296 5.33296 4.12186 6.82257 3.36286C8.51604 2.5 10.7329 2.5 15.1666 2.5H24.8334C29.2671 2.5 31.484 2.5 33.1774 3.36286C34.667 4.12186 35.8781 5.33296 36.6371 6.82257C37.5 8.51604 37.5 10.7329 37.5 15.1666V24.8334C37.5 29.2671 37.5 31.484 36.6371 33.1774C35.8781 34.667 34.667 35.8781 33.1774 36.6371C31.484 37.5 29.2671 37.5 24.8334 37.5H15.1666C10.7329 37.5 8.51604 37.5 6.82257 36.6371C5.33296 35.8781 4.12186 34.667 3.36286 33.1774C2.5 31.484 2.5 29.2671 2.5 24.8334V15.1666Z" fill="#470137"/>
<path d="M20.8081 12.7923L16.441 20.1853L21.1133 28.0356C21.2104 28.2136 21.1133 28.253 20.9725 28.253H17.6385C17.4036 28.253 17.2393 28.2445 17.1454 28.0839C16.832 27.4578 16.519 26.8356 16.2061 26.2175C15.8929 25.5996 15.5603 24.9695 15.2084 24.3271C14.8561 23.6853 14.5079 23.0351 14.1635 22.3766C13.8503 23.0189 13.5019 23.661 13.1656 24.3031C12.8289 24.9454 12.4963 25.5835 12.1678 26.2175C11.8391 26.8519 11.5025 27.482 11.1582 28.1079C11.0955 28.2524 10.9857 28.2673 10.8294 28.2673H7.61283C7.48644 28.2673 7.47119 28.1723 7.5424 28.0598L12.0738 20.426L7.65975 12.7681C7.57958 12.6589 7.64858 12.5425 7.77718 12.5514H11.0877C11.231 12.5434 11.3577 12.5974 11.4399 12.72C11.7217 13.3623 12.0347 14.0045 12.379 14.6465C12.7231 15.2888 13.0715 15.923 13.4239 16.5489C13.7761 17.175 14.1244 17.8091 14.4218 18.4514C14.7346 17.7933 15.0516 17.1511 15.3726 16.5249C15.6934 15.8988 16.022 15.2686 16.3588 14.6345C16.6953 14.0005 17.02 13.3704 17.3331 12.7441C17.3748 12.6068 17.4743 12.5371 17.6149 12.5514H20.6906C20.8081 12.5514 20.8566 12.7118 20.8081 12.7923Z" fill="#FF61F6"/>
<path d="M27.5464 28.5656C25.4758 28.598 23.3069 27.7454 22.2166 25.8565C21.6844 24.9496 21.4183 23.8139 21.4184 22.449C21.4095 21.3438 21.6849 20.2556 22.2166 19.2944C23.5888 16.8416 26.353 15.9226 28.9786 16.1639V11.4198C28.9786 11.3077 29.0256 11.2513 29.1195 11.2513H32.0779C32.1588 11.2394 32.2303 11.3128 32.2188 11.3957V25.6277C32.2188 26.2149 32.277 26.8 32.3128 27.3856C32.3185 27.4856 32.2606 27.5846 32.1718 27.6265C30.7101 28.2518 29.1285 28.5584 27.5464 28.5656ZM28.9786 25.5795V19.0054C26.8341 18.4096 24.7521 20.043 24.7524 22.3045C24.7015 24.6426 26.717 26.258 28.9786 25.5795Z" fill="#FF61F6"/>
</svg>
