<svg width="40" height="40" viewBox="0 0 40 40" fill="none" xmlns="http://www.w3.org/2000/svg">
<g clip-path="url(#clip0_38_117)">
<path d="M5.83668 13.3396C4.4563 13.3396 3.33727 14.4586 3.33727 15.839V27.5029C3.33727 28.8833 4.4563 30.0023 5.83668 30.0023C7.21706 30.0023 8.33609 28.8833 8.33609 27.5029V15.839C8.33609 14.4586 7.21706 13.3396 5.83668 13.3396Z" fill="#4CAF50"/>
<path d="M34.1633 13.3396C32.7829 13.3396 31.6639 14.4586 31.6639 15.839V27.5029C31.6639 28.8833 32.7829 30.0023 34.1633 30.0023C35.5437 30.0023 36.6627 28.8833 36.6627 27.5029V15.839C36.6627 14.4586 35.5438 13.3396 34.1633 13.3396Z" fill="#4CAF50"/>
<path d="M29.1645 13.3396H10.8355C10.3754 13.3396 10.0023 13.7126 10.0023 14.1728V27.5029C10.002 29.4828 11.3951 31.1893 13.3349 31.5853V37.5006C13.3349 38.881 14.454 40 15.8343 40C17.2147 40 18.3337 38.881 18.3337 37.5006V31.6686H21.6663V37.5006C21.6663 38.881 22.7854 40 24.1657 40C25.5461 40 26.6652 38.881 26.6652 37.5006V31.5853C28.605 31.1893 29.9981 29.4828 29.9977 27.5029V14.1728C29.9977 13.7126 29.6246 13.3396 29.1645 13.3396Z" fill="#4CAF50"/>
<path d="M26.0569 3.46192L28.0881 1.4324C28.419 1.11271 28.4282 0.585331 28.1086 0.254315C27.7889 -0.0766233 27.2615 -0.0857618 26.9305 0.233851C26.9235 0.240568 26.9167 0.247363 26.91 0.254315L24.5439 2.62048C21.646 1.36163 18.3556 1.36163 15.4577 2.62048L13.0916 0.252674C12.7607 -0.0670162 12.2332 -0.0577996 11.9135 0.273138C11.6017 0.596031 11.6017 1.10786 11.9135 1.43068L13.9431 3.46184C11.4689 5.09896 9.98703 7.87339 10.0023 10.8401C10.0023 11.3002 10.3754 11.6733 10.8355 11.6733H29.1646C29.6247 11.6733 29.9977 11.3002 29.9977 10.8401C30.013 7.87347 28.5311 5.09904 26.0569 3.46192Z" fill="#4CAF50"/>
<path d="M15.8343 8.34077C16.2945 8.34077 16.6675 7.96775 16.6675 7.5076C16.6675 7.04746 16.2945 6.67444 15.8343 6.67444C15.3742 6.67444 15.0012 7.04746 15.0012 7.5076C15.0012 7.96775 15.3742 8.34077 15.8343 8.34077Z" fill="#FAFAFA"/>
<path d="M24.1657 8.34077C24.6258 8.34077 24.9988 7.96775 24.9988 7.5076C24.9988 7.04746 24.6258 6.67444 24.1657 6.67444C23.7055 6.67444 23.3325 7.04746 23.3325 7.5076C23.3325 7.96775 23.7055 8.34077 24.1657 8.34077Z" fill="#FAFAFA"/>
</g>
<defs>
<clipPath id="clip0_38_117">
<rect width="40" height="40" fill="white"/>
</clipPath>
</defs>
</svg>
