<svg width="40" height="40" viewBox="0 0 40 40" fill="none" xmlns="http://www.w3.org/2000/svg">
<g clip-path="url(#clip0_38_141)">
<path d="M25.9564 6.33808C27.2305 4.79815 28.1259 2.70667 28.0809 0.576357C28.0734 0.218623 27.747 -0.047002 27.3933 0.00698238C25.524 0.292607 23.4344 1.46331 22.1409 2.97761C20.9488 4.35597 19.8909 6.498 19.9704 8.62058C19.9823 8.94042 20.2526 9.19534 20.5725 9.18628C22.6357 9.12792 24.6727 7.89245 25.9564 6.33808Z" fill="#0D4E57"/>
<path d="M21.5802 8.62055C21.4569 5.32985 23.9396 1.48625 27.9695 0.247111C27.843 0.0732045 27.6243 -0.0282798 27.3934 0.00695453C25.5241 0.29258 23.4345 1.46328 22.141 2.97758C20.9489 4.35594 19.8909 6.49805 19.9705 8.62055C19.9824 8.94039 20.2527 9.19531 20.5726 9.18625C20.9727 9.17492 21.3716 9.11891 21.7644 9.02531C21.6562 8.92281 21.5862 8.77977 21.5802 8.62055Z" fill="#427E86"/>
<path d="M35.9144 29.1175C34.6191 28.4654 31.0446 26.215 31.0004 21.2242C30.9626 17.1388 33.6735 14.7633 34.8267 13.9338C35.1005 13.7369 35.1606 13.3515 34.9525 13.0861C33.9943 11.8646 32.8739 11.0811 31.7977 10.5732C31.7983 10.5731 31.7991 10.573 31.7997 10.5729C31.6603 10.507 31.4216 10.4025 31.2306 10.3273C25.815 8.19547 22.402 11.4631 20.3346 11.4631C18.7517 11.4631 16.3091 9.67454 13.7212 9.72336C10.3205 9.77274 7.18813 11.7016 5.43446 14.7454C2.74399 19.4152 3.63125 25.799 5.72743 30.7741L5.72735 30.7743C5.78102 30.9016 5.86649 31.0996 5.93774 31.2595C5.93782 31.2594 5.93782 31.2593 5.9379 31.2591C6.54516 32.6229 7.2404 33.8691 7.97282 34.9285C9.65461 37.3594 11.6609 40.0978 14.2971 39.9972C16.8344 39.8966 17.7936 38.3567 20.8598 38.3567C23.9241 38.3567 24.7885 39.9972 27.4713 39.9484C30.2023 39.8966 31.9317 37.4677 33.602 35.0252C35.0721 32.8791 35.8831 30.7845 36.2081 29.8414C36.305 29.5603 36.1801 29.2513 35.9144 29.1175Z" fill="#0D4E57"/>
<path d="M9.58258 34.9286C8.85016 33.8692 8.15493 32.623 7.54766 31.2592C7.54766 31.2592 7.54758 31.2595 7.5475 31.2596C7.47633 31.0998 7.39157 30.9034 7.33711 30.7744L7.33719 30.7742C5.25391 25.8299 4.34414 19.4318 7.04422 14.7455C8.66383 11.9345 11.4595 10.0757 14.5563 9.76877C14.2802 9.73556 14.0016 9.71822 13.7213 9.72346C10.3206 9.77283 7.18821 11.7017 5.43453 14.7455C2.74407 19.4153 3.63133 25.7991 5.7275 30.7742L5.72742 30.7744C5.7811 30.9017 5.86657 31.0997 5.93782 31.2596C5.93789 31.2595 5.93797 31.2594 5.93797 31.2592C6.54524 32.623 7.24047 33.8692 7.97282 34.9286C9.65461 37.3595 11.6609 40.0979 14.2971 39.9973C14.5565 39.987 14.7987 39.961 15.029 39.9238C12.8174 39.4753 11.0724 37.082 9.58258 34.9286Z" fill="#427E86"/>
</g>
<defs>
<clipPath id="clip0_38_141">
<rect width="40" height="40" fill="white"/>
</clipPath>
</defs>
</svg>
