<svg width="52" height="53" viewBox="0 0 52 53" fill="none" xmlns="http://www.w3.org/2000/svg">
<path d="M41.6668 52.316C39.4006 52.316 36.2173 51.4965 31.4504 48.8338C25.6538 45.5837 21.1702 42.5832 15.4049 36.8342C9.84624 31.2801 7.14122 27.6841 3.35536 20.7964C-0.921587 13.0195 -0.192509 8.94302 0.622479 7.20077C1.59303 5.11842 3.02565 3.87296 4.87737 2.63679C5.92913 1.94782 7.04216 1.35722 8.20233 0.872479C8.31843 0.822567 8.4264 0.774978 8.52276 0.732031C9.09743 0.473188 9.96814 0.0820229 11.071 0.499885C11.8071 0.776138 12.4642 1.34141 13.4928 2.35705C15.6022 4.43708 18.4849 9.06954 19.5483 11.3446C20.2623 12.8779 20.7348 13.89 20.736 15.0252C20.736 16.3543 20.0673 17.3792 19.2558 18.4854C19.1037 18.6931 18.9527 18.8916 18.8065 19.0843C17.923 20.245 17.7291 20.5805 17.8568 21.1794C18.1157 22.3831 20.0464 25.9663 23.2192 29.1316C26.3921 32.2969 29.8727 34.1053 31.0812 34.363C31.7058 34.4965 32.0483 34.2945 33.2464 33.3798C33.4182 33.2487 33.5947 33.1129 33.7793 32.9771C35.0168 32.0566 35.9944 31.4054 37.2923 31.4054H37.2993C38.4289 31.4054 39.3959 31.8953 40.9981 32.7031C43.0878 33.7571 47.8604 36.602 49.9536 38.7134C50.9718 39.7395 51.5395 40.3941 51.817 41.1289C52.2349 42.235 51.8413 43.1021 51.5848 43.6825C51.5418 43.7788 51.4942 43.8844 51.4443 44.0017C50.9556 45.1595 50.3614 46.27 49.6692 47.319C48.4351 49.1646 47.1848 50.5934 45.0974 51.565C44.0255 52.0719 42.8524 52.3287 41.6668 52.316Z" fill="#263156"/>
</svg>
