<svg width="80" height="81" viewBox="0 0 80 81" fill="none" xmlns="http://www.w3.org/2000/svg">
<path d="M52.5 11.5664V56.5664C52.5 58.5555 51.7098 60.4632 50.3033 61.8697C48.8968 63.2762 46.9891 64.0664 45 64.0664H20C18.683 64.0656 17.3893 63.7188 16.2485 63.0606C15.1078 62.4025 14.1599 61.4562 13.5 60.3164V60.3039C12.8422 59.1684 12.4971 57.8787 12.5 56.5664V11.5664C12.5 9.57728 13.2902 7.66963 14.6967 6.26311C16.1032 4.85658 18.0109 4.06641 20 4.06641H45C46.8911 4.06738 48.712 4.78271 50.0981 6.06914C51.4842 7.35558 52.3332 9.11815 52.475 11.0039C52.4875 11.1914 52.5 11.3789 52.5 11.5664Z" fill="#5AAAE7"/>
<path d="M52.5004 14.3789V48.7414C50.4905 47.8701 48.6499 46.6515 47.0629 45.1414L38.2754 46.7789L42.8254 39.0789C41.8378 36.822 41.3047 34.3925 41.2565 31.9294C41.2082 29.4663 41.6459 27.0179 42.5444 24.724C43.4429 22.4301 44.7847 20.3358 46.493 18.5607C48.2013 16.7857 50.2426 15.3647 52.5004 14.3789Z" fill="#3D9AE2"/>
<path d="M75.9629 32.3165C75.1 37.2126 72.328 41.5656 68.2564 44.4183C64.1847 47.271 59.1468 48.3899 54.2504 47.529C53.6601 47.4282 53.0759 47.2946 52.5004 47.129C49.5242 46.3126 46.7969 44.7707 44.5629 42.6415L35.7754 44.279L40.3254 36.579C38.9656 33.4724 38.4741 30.0551 38.9032 26.6912C39.3323 23.3273 40.666 20.1429 42.7622 17.4772C44.8583 14.8114 47.6384 12.7643 50.8061 11.5539C53.9739 10.3436 57.4107 10.0152 60.7504 10.604C65.6465 11.4668 69.9995 14.2388 72.8522 18.3105C75.7049 22.3821 76.8238 27.42 75.9629 32.3165Z" fill="#FFD422"/>
<path d="M51.25 25.3164V40.3164C51.252 40.9788 51.516 41.6136 51.9844 42.082C52.4528 42.5504 53.0876 42.8144 53.75 42.8164H66.25C66.9124 42.8144 67.5472 42.5504 68.0156 42.082C68.484 41.6136 68.748 40.9788 68.75 40.3164V25.3164H51.25Z" fill="#EBBF00"/>
<path d="M66.25 35.3164V37.8164C66.248 38.4788 65.984 39.1136 65.5156 39.582C65.0472 40.0504 64.4124 40.3144 63.75 40.3164H51.25C50.5876 40.3144 49.9528 40.0504 49.4844 39.582C49.016 39.1136 48.752 38.4788 48.75 37.8164V35.3164H66.25Z" fill="#D1D3D4"/>
<path d="M48.75 22.8164H66.25V35.3164H48.75V22.8164Z" fill="#3D9AE2"/>
<path d="M35 54.0664C35.6624 54.0684 36.2972 54.3324 36.7656 54.8008C37.234 55.2692 37.498 55.904 37.5 56.5664C37.4951 57.2279 37.2301 57.861 36.7623 58.3287C36.2946 58.7965 35.6615 59.0615 35 59.0664H30C29.3376 59.0644 28.7028 58.8004 28.2344 58.332C27.766 57.8636 27.502 57.2288 27.5 56.5664C27.5049 55.9049 27.7699 55.2718 28.2377 54.8041C28.7054 54.3363 29.3385 54.0713 30 54.0664H35Z" fill="#E6E7E8"/>
<path d="M28.625 54.9537C28.6251 55.6117 28.4527 56.2581 28.125 56.8287L27.7125 57.5537C27.5717 57.2436 27.4992 56.9068 27.5 56.5662C27.4983 56.238 27.5627 55.9127 27.6894 55.6099C27.8161 55.3071 28.0025 55.0329 28.2375 54.8037C28.3493 54.6895 28.4706 54.5849 28.6 54.4912C28.6125 54.6412 28.625 54.8037 28.625 54.9537Z" fill="#E6E7E8"/>
<path d="M28.5379 25.5289C29.3589 26.3476 29.8705 27.4257 29.9855 28.5793C30.1006 29.733 29.8119 30.8909 29.1688 31.8555C28.5256 32.8202 27.5678 33.5319 26.4586 33.8694C25.3495 34.2069 24.1575 34.1493 23.0861 33.7063C22.0147 33.2634 21.13 32.4625 20.583 31.4403C20.0359 30.4181 19.8604 29.2377 20.0862 28.1006C20.312 26.9634 20.9253 25.9397 21.8214 25.2041C22.7175 24.4684 23.841 24.0664 25.0004 24.0664C26.3262 24.0688 27.5975 24.5944 28.5379 25.5289Z" fill="#3D9AE2"/>
<path d="M26.0379 23.0289C26.8589 23.8476 27.3705 24.9257 27.4855 26.0793C27.6006 27.233 27.3119 28.3909 26.6688 29.3555C26.0256 30.3202 25.0678 31.0319 23.9586 31.3694C22.8495 31.7069 21.6575 31.6493 20.5861 31.2063C19.5147 30.7634 18.63 29.9625 18.083 28.9403C17.5359 27.9181 17.3604 26.7377 17.5862 25.6006C17.812 24.4634 18.4253 23.4397 19.3214 22.7041C20.2175 21.9684 21.341 21.5664 22.5004 21.5664C23.8262 21.5688 25.0975 22.0944 26.0379 23.0289Z" fill="#FFD422"/>
<path d="M26.125 52.4538C26.1259 51.6275 25.8539 50.8241 25.3513 50.1683C24.8486 49.5125 24.1434 49.0411 23.3453 48.8273C22.5471 48.6135 21.7007 48.6693 20.9376 48.9861C20.1744 49.3028 19.5372 49.8627 19.125 50.5788L13.5 60.3038C12.8422 59.1683 12.4971 57.8786 12.5 56.5663V36.5913C12.0855 36.6488 11.6921 36.8093 11.3558 37.0583C11.0194 37.3073 10.751 37.6367 10.575 38.0163L4.90001 50.3288C4.14058 51.9659 3.74809 53.7492 3.75001 55.5538V77.8163L23.75 77.8038V72.3788C23.7473 71.0178 23.3758 69.683 22.675 68.5163L20 64.0663L25.625 54.3288C25.9526 53.7582 26.125 53.1118 26.125 52.4538Z" fill="#FFC477"/>
<path d="M22.5 7.81641H25V10.3164H22.5V7.81641Z" fill="black"/>
<path d="M27.5 7.81641H37.5V10.3164H27.5V7.81641Z" fill="black"/>
<path d="M51.2501 56.5664C51.2481 58.2234 50.589 59.812 49.4173 60.9836C48.2456 62.1553 46.6571 62.8144 45.0001 62.8164H22.1651L26.4626 55.3739C26.3266 55.757 26.2548 56.1599 26.2501 56.5664C26.2501 57.561 26.6451 58.5148 27.3484 59.2181C28.0517 59.9213 29.0055 60.3164 30.0001 60.3164H35.0001C35.9946 60.3164 36.9485 59.9213 37.6517 59.2181C38.355 58.5148 38.7501 57.561 38.7501 56.5664C38.7501 55.5718 38.355 54.618 37.6517 53.9148C36.9485 53.2115 35.9946 52.8164 35.0001 52.8164H30.0001C29.4049 52.8175 28.8186 52.9607 28.2898 53.2339C27.7611 53.5072 27.3052 53.9028 26.9601 54.3877C27.4565 53.2182 27.4879 51.9034 27.0479 50.7116C26.6079 49.5198 25.7297 48.5408 24.5925 47.9744C23.4553 47.408 22.1448 47.297 20.9285 47.6639C19.7122 48.0309 18.6818 48.8481 18.0476 49.9489L13.7976 57.3139C13.7667 57.0659 13.7509 56.8163 13.7501 56.5664V11.5664C13.752 9.90941 14.4112 8.32085 15.5828 7.14918C16.7545 5.97751 18.3431 5.31839 20.0001 5.31641H45.0001C46.0966 5.31895 47.1734 5.60882 48.1231 6.15712C49.0727 6.70542 49.8621 7.49301 50.4126 8.44141L52.5763 7.19141C51.8058 5.86383 50.7008 4.76132 49.3715 3.99372C48.0423 3.22611 46.535 2.82019 45.0001 2.81641H20.0001C17.6802 2.81905 15.4562 3.74178 13.8158 5.38215C12.1754 7.02252 11.2527 9.24657 11.2501 11.5664V35.6914C10.4546 36.0616 9.8141 36.699 9.44006 37.4927L3.76631 49.8014C2.92639 51.6069 2.49409 53.5751 2.50006 55.5664V77.8164H5.00006V55.5664C4.99448 53.9382 5.34787 52.3288 6.03506 50.8527L11.2501 39.5377V56.5664C11.2492 58.0594 11.6318 59.5275 12.3613 60.8302C12.4554 61.0409 12.606 61.2215 12.7965 61.3519C12.9869 61.4823 13.2098 61.5574 13.4403 61.5689C13.6708 61.5804 13.9 61.5279 14.1025 61.4172C14.305 61.3064 14.4729 61.1417 14.5876 60.9414L20.2126 51.1989C20.5464 50.6294 21.092 50.215 21.7303 50.0463C22.3685 49.8776 23.0476 49.9681 23.6193 50.2982C24.191 50.6283 24.609 51.1711 24.7819 51.8082C24.9549 52.4454 24.8689 53.125 24.5426 53.6989L18.9176 63.4414C18.8058 63.6348 18.7479 63.8546 18.7499 64.0779C18.7519 64.3013 18.8136 64.52 18.9288 64.7114L21.6063 69.1614C22.1904 70.1349 22.4993 71.2486 22.5001 72.3839V77.8039H25.0001V72.3839C24.9999 70.7951 24.5678 69.2362 23.7501 67.8739L22.2113 65.3164H45.0001C47.3199 65.3138 49.544 64.391 51.1843 62.7507C52.8247 61.1103 53.7474 58.8862 53.7501 56.5664V50.3164H51.2501V56.5664ZM30.0001 55.3164H35.0001C35.3316 55.3164 35.6495 55.4481 35.8839 55.6825C36.1184 55.9169 36.2501 56.2349 36.2501 56.5664C36.2501 56.8979 36.1184 57.2159 35.8839 57.4503C35.6495 57.6847 35.3316 57.8164 35.0001 57.8164H30.0001C29.6685 57.8164 29.3506 57.6847 29.1162 57.4503C28.8818 57.2159 28.7501 56.8979 28.7501 56.5664C28.7501 56.2349 28.8818 55.9169 29.1162 55.6825C29.3506 55.4481 29.6685 55.3164 30.0001 55.3164Z" fill="black"/>
<path d="M73.8878 17.5912C71.0766 13.5673 66.8837 10.7178 62.1075 9.58515C57.3313 8.45251 52.3054 9.11589 47.9866 11.449C43.6679 13.7821 40.358 17.6219 38.687 22.2374C37.0161 26.8529 37.1009 31.9217 38.9253 36.4787L34.7003 43.6412C34.5784 43.8474 34.5184 44.0843 34.5272 44.3236C34.5361 44.5629 34.6135 44.7947 34.7503 44.9912C34.8906 45.1875 35.0838 45.3398 35.3073 45.4305C35.5308 45.5212 35.7754 45.5466 36.0128 45.5037L44.1753 43.9787C46.947 46.4634 50.3592 48.1219 54.0253 48.7662C55.1773 48.9643 56.3439 49.0647 57.5128 49.0662C61.1715 49.0652 64.7598 48.0606 67.8872 46.1618C71.0145 44.2629 73.5611 41.5426 75.2497 38.2969C76.9383 35.0511 77.7042 31.4044 77.4641 27.7536C77.2239 24.1028 75.987 20.5878 73.8878 17.5912ZM74.7378 32.1037C74.188 35.222 72.8025 38.1327 70.729 40.5256C68.6554 42.9185 65.9714 44.704 62.9631 45.6918C59.9548 46.6797 56.7348 46.8328 53.6463 46.1348C50.5578 45.4369 47.7166 43.9141 45.4253 41.7287C45.1909 41.5112 44.8827 41.3905 44.5628 41.3913C44.4876 41.3892 44.4123 41.3934 44.3378 41.4037L38.2503 42.5412L41.4003 37.2162C41.4982 37.0447 41.5559 36.8532 41.5689 36.6561C41.5818 36.4591 41.5499 36.2616 41.4753 36.0787C40.0811 32.9238 39.659 29.4248 40.2628 26.0287C41.0684 21.4571 43.6571 17.3927 47.4594 14.7297C49.3421 13.4111 51.4661 12.4762 53.7101 11.9785C55.9541 11.4807 58.2741 11.4299 60.5378 11.8287C62.8015 12.2276 64.9644 13.0685 66.9031 14.3033C68.8418 15.5381 70.5183 17.1426 71.8369 19.0253C73.1555 20.908 74.0903 23.032 74.5881 25.276C75.0858 27.52 75.1367 29.8401 74.7378 32.1037Z" fill="black"/>
<path d="M66.25 21.5664H62.5V20.3164C62.5 18.9903 61.9732 17.7186 61.0355 16.7809C60.0979 15.8432 58.8261 15.3164 57.5 15.3164C56.1739 15.3164 54.9021 15.8432 53.9645 16.7809C53.0268 17.7186 52.5 18.9903 52.5 20.3164V21.5664H48.75C48.4185 21.5664 48.1005 21.6981 47.8661 21.9325C47.6317 22.1669 47.5 22.4849 47.5 22.8164V37.8164C47.503 38.8101 47.899 39.7622 48.6016 40.4648C49.3042 41.1674 50.2564 41.5634 51.25 41.5664H63.75C64.7436 41.5634 65.6958 41.1674 66.3984 40.4648C67.101 39.7622 67.497 38.8101 67.5 37.8164V22.8164C67.5 22.4849 67.3683 22.1669 67.1339 21.9325C66.8995 21.6981 66.5815 21.5664 66.25 21.5664ZM55 20.3164C55 19.6534 55.2634 19.0175 55.7322 18.5486C56.2011 18.0798 56.837 17.8164 57.5 17.8164C58.163 17.8164 58.7989 18.0798 59.2678 18.5486C59.7366 19.0175 60 19.6534 60 20.3164V21.5664H55V20.3164ZM65 37.8164C65 38.1479 64.8683 38.4659 64.6339 38.7003C64.3995 38.9347 64.0815 39.0664 63.75 39.0664H51.25C50.9185 39.0664 50.6005 38.9347 50.3661 38.7003C50.1317 38.4659 50 38.1479 50 37.8164V36.5664H65V37.8164ZM65 34.0664H50V24.0664H52.5V26.5664H55V24.0664H60V26.5664H62.5V24.0664H65V34.0664Z" fill="black"/>
<path d="M27.8666 19.4326L25.9416 21.3576C24.6459 20.5 23.0778 20.1542 21.5415 20.3872C20.0053 20.6202 18.6103 21.4155 17.6272 22.6188C16.644 23.8221 16.1428 25.3476 16.2208 26.8995C16.2987 28.4514 16.9502 29.919 18.049 31.0177C19.1477 32.1165 20.6153 32.768 22.1672 32.8459C23.7191 32.9238 25.2446 32.4227 26.4479 31.4395C27.6512 30.4564 28.4465 29.0614 28.6795 27.5252C28.9125 25.9889 28.5667 24.4208 27.7091 23.1251L29.6341 21.2001L27.8666 19.4326ZM26.2503 26.5664C26.2503 27.308 26.0304 28.0331 25.6183 28.6498C25.2063 29.2664 24.6206 29.7471 23.9354 30.0309C23.2502 30.3147 22.4962 30.389 21.7687 30.2443C21.0413 30.0996 20.3731 29.7425 19.8487 29.218C19.3242 28.6936 18.9671 28.0254 18.8224 27.298C18.6777 26.5705 18.752 25.8165 19.0358 25.1313C19.3196 24.4461 19.8003 23.8604 20.4169 23.4484C21.0336 23.0363 21.7587 22.8164 22.5003 22.8164C23.0572 22.8185 23.6063 22.9467 24.1066 23.1914L20.3666 26.9314L22.1341 28.6989L25.8753 24.9601C26.12 25.4604 26.2482 26.0095 26.2503 26.5664Z" fill="black"/>
<path d="M31.25 22.8164H36.25V25.3164H31.25V22.8164Z" fill="black"/>
<path d="M31.25 27.8164H36.25V30.3164H31.25V27.8164Z" fill="black"/>
</svg>
