<svg width="80" height="81" viewBox="0 0 80 81" fill="none" xmlns="http://www.w3.org/2000/svg">
<g clip-path="url(#clip0_267_619)">
<path d="M69.0992 40.1226H48.5486C46.0516 40.1226 44.0273 42.1468 44.0273 44.6438V79.1446H69.7008V63.481H72.9613C75.6484 63.481 77.8269 61.3026 77.8269 58.6154V48.8502C77.8269 44.0301 73.9194 40.1226 69.0992 40.1226Z" fill="#4980AC"/>
<path d="M51.6807 63.481H69.7013V67.9333H51.6807V63.481Z" fill="#407194"/>
<path d="M69.7007 40.1455V57.0644H58.9111V63.481H72.9611C73.2971 63.481 73.625 63.4469 73.9418 63.3821C74.9922 63.1672 75.9843 62.5968 76.7157 61.7102C76.9636 61.4099 77.1761 61.0793 77.3469 60.7247C77.6544 60.0866 77.8268 59.371 77.8268 58.6152V48.85C77.8268 44.2325 74.2399 40.4549 69.7007 40.1455Z" fill="#5D91B9"/>
<path d="M43.541 5.11232V21.104H71.7801V13.8193C71.7801 7.96247 67.0321 3.21466 61.1754 3.21466H52.2962C51.407 3.21466 50.5359 2.9631 49.7835 2.48919L49.088 2.05107C46.6785 0.532942 43.541 2.26466 43.541 5.11232Z" fill="#BE694E"/>
<path d="M53.375 27.6831V40.8854C53.375 42.925 55.0284 44.5783 57.0678 44.5783H58.252C60.2916 44.5783 61.9448 42.9248 61.9448 40.8854V27.6831H53.375Z" fill="#EBAE9D"/>
<path d="M42.2715 21.1042C42.2715 23.0931 43.8838 24.7054 45.8727 24.7054H69.4474C71.4363 24.7054 73.0487 23.0931 73.0487 21.1042C73.0487 19.1153 71.4363 17.5029 69.4474 17.5029H45.8729C43.8838 17.5029 42.2715 19.1153 42.2715 21.1042Z" fill="#FFCDBE"/>
<path d="M48.917 11.6621V26.7946C48.917 31.3579 52.6164 35.0573 57.1797 35.0573H58.1406C62.7039 35.0573 66.4032 31.3579 66.4032 26.7946V16.981C66.4032 13.7846 63.812 11.1934 60.6156 11.1934H49.3856C49.1268 11.1934 48.917 11.4032 48.917 11.6621Z" fill="#FFCDBE"/>
<path d="M54.9647 67.8468H22.7261C21.7231 67.8468 20.9102 67.0338 20.9102 66.0308V39.4263C20.9102 38.4233 21.7231 37.6104 22.7261 37.6104H54.9645C55.9675 37.6104 56.7805 38.4233 56.7805 39.4263V66.0307C56.7806 67.0336 55.9677 67.8468 54.9647 67.8468Z" fill="#80B6FC"/>
<path d="M54.965 37.6104H50.5557C51.5586 37.6104 52.3716 38.4233 52.3716 39.4263V66.0307C52.3716 67.0336 51.5586 67.8466 50.5557 67.8466H54.965C55.968 67.8466 56.781 67.0336 56.781 66.0307V39.4263C56.781 38.4233 55.968 37.6104 54.965 37.6104Z" fill="#62A4FB"/>
<path d="M54.9645 73.1498H22.7261C21.7231 73.1498 20.9102 72.3369 20.9102 71.3339V44.7295C20.9102 43.7265 21.7231 42.9136 22.7261 42.9136H54.9645C55.9675 42.9136 56.7809 43.7265 56.7809 44.7294V71.3339C56.7809 72.3369 55.9675 73.1498 54.9645 73.1498Z" fill="#DDEBFD"/>
<path d="M56.7808 44.7294V71.3339C56.7808 72.337 55.9675 73.1498 54.9644 73.1498H50.5547C51.5578 73.1498 52.3703 72.3369 52.3703 71.3337V42.9136H54.9644C55.9675 42.9136 56.7808 43.7262 56.7808 44.7294Z" fill="#BED9FD"/>
<path d="M34.4531 48.6931V57.662C34.4531 58.2512 35.0994 58.612 35.6009 58.3029L42.8789 53.8184C43.3561 53.5243 43.3561 52.8306 42.8789 52.5365L35.6009 48.052C35.0992 47.7431 34.4531 48.1039 34.4531 48.6931Z" fill="#DF646E"/>
<path d="M34.9234 68.4936C36.1694 67.9771 36.7608 66.5483 36.2443 65.3023C35.7279 64.0563 34.2991 63.4648 33.053 63.9813C31.807 64.4978 31.2156 65.9266 31.7321 67.1726C32.2485 68.4187 33.6773 69.0101 34.9234 68.4936Z" fill="#DF646E"/>
<path d="M58.9117 63.481H55.3917C53.792 63.481 52.4951 62.1841 52.4951 60.5845V57.0645H58.9117V63.481Z" fill="#FFCDBE"/>
<path d="M38.2538 77.6733H34.5224C33.583 77.6733 32.8213 76.9118 32.8213 75.9722V73.1499H39.9547V75.9722C39.9549 76.9118 39.1933 77.6733 38.2538 77.6733Z" fill="#FFCDBE"/>
<path d="M18.4613 47.846C27.4567 47.846 34.7488 40.4544 34.7488 31.3363C34.7488 22.2183 27.4567 14.8267 18.4613 14.8267C9.46599 14.8267 2.17383 22.2183 2.17383 31.3363C2.17383 40.4544 9.46599 47.846 18.4613 47.846Z" fill="#F5DE46"/>
<path d="M30.8657 20.6387C31.8618 22.7754 32.4197 25.163 32.4197 27.683C32.4197 36.801 25.1275 44.1927 16.1322 44.1927C11.1633 44.1927 6.71504 41.9366 3.72754 38.3807C6.33535 43.9749 11.9519 47.8459 18.461 47.8459C27.4563 47.8459 34.7485 40.4543 34.7485 31.3362C34.7483 27.2549 33.2864 23.5201 30.8657 20.6387Z" fill="#ECC52E"/>
<path d="M10.9053 29.998V37.8802C10.9053 38.2649 11.1623 38.6007 11.53 38.6962L18.049 40.3891C18.3196 40.4595 18.6032 40.4595 18.8739 40.3891L25.3929 38.6962C25.7606 38.6007 26.0176 38.2649 26.0176 37.8802V29.998H10.9053Z" fill="#407194"/>
<path d="M18.2238 26.1752L6.78473 29.63C6.42332 29.7391 6.42332 30.2578 6.78473 30.3671L18.2238 33.8219C18.3786 33.8686 18.5435 33.8686 18.6983 33.8219L30.1374 30.3671C30.4988 30.258 30.4988 29.7392 30.1374 29.63L18.6983 26.1752C18.5435 26.1285 18.3786 26.1285 18.2238 26.1752Z" fill="#5D91B9"/>
<path d="M57.8295 30.7365C58.8894 30.7365 59.8966 30.3266 60.6652 29.5826C61.1302 29.1324 61.1422 28.3905 60.6921 27.9257C60.2419 27.4607 59.5 27.4485 59.0352 27.8988C58.706 28.2174 58.2778 28.393 57.8295 28.393H57.4883C57.04 28.393 56.6119 28.2176 56.2827 27.8988C55.8175 27.4485 55.0758 27.4607 54.6258 27.9257C54.1756 28.3907 54.1877 29.1326 54.6527 29.5826C55.4214 30.3266 56.4285 30.7365 57.4883 30.7365H57.8295Z" fill="black"/>
<path d="M34.2685 59.3438C34.5602 59.5066 34.8836 59.5877 35.2068 59.5877C35.5574 59.5877 35.9077 59.492 36.2166 59.3019L43.4941 54.8177C44.0671 54.4647 44.4091 53.852 44.4091 53.1791C44.4091 52.5061 44.0671 51.8935 43.4941 51.5405L36.2164 47.0563C35.6233 46.6908 34.8769 46.6749 34.2685 47.0144C33.6602 47.3541 33.2822 47.998 33.2822 48.6947V57.6631C33.2824 58.36 33.6602 59.0039 34.2685 59.3438ZM35.626 49.4452L41.6858 53.1791L35.626 56.913V49.4452Z" fill="black"/>
<path d="M48.6405 65.0683H37.3794C36.8916 63.6494 35.5445 62.6265 33.9623 62.6265C32.38 62.6265 31.033 63.6494 30.545 65.0685H29.0506C28.4034 65.0685 27.8788 65.5933 27.8789 66.2405C27.8789 66.8877 28.4036 67.4122 29.0508 67.4122H30.5452C31.0331 68.831 32.3802 69.8535 33.9623 69.8535C35.5445 69.8535 36.8914 68.8308 37.3794 67.4122H48.6405C49.2875 67.4122 49.8123 66.8877 49.8123 66.2405C49.8123 65.5933 49.2877 65.0683 48.6405 65.0683ZM33.9623 67.5096C33.2622 67.5096 32.6927 66.9401 32.6927 66.2399C32.6927 65.5396 33.2622 64.9699 33.9623 64.9699C34.6623 64.9699 35.2319 65.5396 35.2319 66.2399C35.2319 66.9401 34.6623 67.5096 33.9623 67.5096Z" fill="black"/>
<path d="M78.997 57.0639V48.8523C78.997 43.3937 74.5561 38.9528 69.0975 38.9528H63.1166V34.8065C65.79 33.1392 67.5737 30.1733 67.5737 26.797V25.88H69.4459C72.0778 25.88 74.2191 23.7387 74.2191 21.1067C74.2191 19.8589 73.7372 18.7219 72.9505 17.8704V13.8228C72.9505 10.2967 71.3886 6.98498 68.6655 4.7367C68.1664 4.32467 67.4278 4.39529 67.0158 4.89435C66.6037 5.39341 66.6744 6.13201 67.1734 6.54404C69.3555 8.34545 70.6069 10.9986 70.6069 13.8228V16.4772C70.235 16.3839 69.8462 16.3337 69.4459 16.3337H67.5423C67.2131 12.8003 64.2325 10.025 60.6145 10.025H49.3852C48.4806 10.025 47.7447 10.7609 47.7447 11.6654V16.3337H45.872C45.4722 16.3337 45.0841 16.3837 44.7127 16.4769V5.11545C44.7127 4.21185 45.1852 3.41154 45.9764 2.97482C46.768 2.53763 47.6977 2.56451 48.4617 3.0456L49.158 3.48513C50.098 4.07732 51.1828 4.39045 52.295 4.39045H61.1742C61.6644 4.39045 62.1523 4.42779 62.6248 4.50154C63.2645 4.60076 63.8634 4.16373 63.9631 3.5242C64.063 2.88467 63.6255 2.2856 62.9859 2.18591C62.3944 2.09357 61.7848 2.04685 61.1742 2.04685H52.295C51.6256 2.04685 50.9728 1.85841 50.4081 1.50279L49.7117 1.0631C48.2136 0.119665 46.3937 0.0671647 44.8436 0.923102C43.2941 1.77857 42.3687 3.34591 42.3687 5.1156V17.869C41.5811 18.7206 41.0986 19.8583 41.0986 21.1069C41.0986 23.7389 43.2398 25.8801 45.8717 25.8801H47.7444V26.7972C47.7444 30.1737 49.5286 33.1401 52.2027 34.8073V36.4404H35.1789C35.6608 34.8244 35.9209 33.1119 35.9209 31.3386C35.9209 21.5895 28.0891 13.6579 18.4625 13.6579C8.83594 13.6579 1.00391 21.5895 1.00391 31.3386C1.00391 41.0878 8.83578 49.0192 18.4623 49.0192C18.8917 49.0192 19.3173 49.0028 19.7389 48.9717V71.3339C19.7389 72.9811 21.0797 74.3212 22.7278 74.3212H31.6502V75.9723C31.6502 77.5564 32.9389 78.8451 34.523 78.8451H38.2541C39.8381 78.8451 41.1269 77.5564 41.1269 75.9723V74.3212H42.8548V79.1445C42.8548 79.7917 43.3795 80.3164 44.0267 80.3164H69.6989C70.3461 80.3164 70.8708 79.7917 70.8708 79.1445V75.0962C70.8708 74.449 70.3461 73.9244 69.6989 73.9244C69.0517 73.9244 68.527 74.449 68.527 75.0962V77.9726H45.1987V74.3212H54.9639C56.612 74.3212 57.9528 72.9811 57.9528 71.3339V64.6534H68.5273V69.6278C68.5273 70.275 69.052 70.7997 69.6992 70.7997C70.3464 70.7997 70.8711 70.275 70.8711 69.6278V64.6533H72.96C74.1044 64.6533 75.1753 64.3333 76.0881 63.7779C77.8308 62.7179 78.9972 60.8006 78.9972 58.6161V57.0639H78.997ZM71.8755 21.1069C71.8755 22.4465 70.7856 23.5364 69.4459 23.5364H67.5737V18.6773H69.4459C70.7856 18.6773 71.8755 19.7672 71.8755 21.1069ZM45.872 23.5364C44.5323 23.5364 43.4425 22.4464 43.4425 21.1069C43.4425 19.7673 44.5323 18.6773 45.872 18.6773H47.7447V23.5364H45.872ZM50.0883 26.797V24.7233C50.0883 24.7183 50.0891 24.7133 50.0891 24.7081C50.0891 24.7029 50.0884 24.6981 50.0883 24.6929V17.5204C50.0883 17.5154 50.0891 17.5104 50.0891 17.5053C50.0891 17.5001 50.0884 17.4953 50.0883 17.4901V12.3683H60.6145C63.1595 12.3683 65.23 14.4387 65.23 16.9837V26.7967C65.23 30.7064 62.0492 33.8872 58.1395 33.8872H57.1786C53.2691 33.8875 50.0883 30.7067 50.0883 26.797ZM54.5467 35.8547C55.3828 36.0981 56.2653 36.2311 57.1787 36.2311H58.1397C59.0536 36.2311 59.9366 36.0979 60.773 35.8544V40.887C60.773 42.2775 59.6417 43.4087 58.2512 43.4087H57.9528V39.4276C57.9528 37.7804 56.6119 36.4403 54.9639 36.4403H54.5467V35.8547ZM56.79 62.31C56.7869 62.31 56.7841 62.3095 56.7809 62.3095C56.7778 62.3095 56.775 62.31 56.7719 62.31H55.3908C54.4398 62.31 53.6661 61.5364 53.6661 60.5853V58.2372H57.7387V62.3098H56.79V62.31ZM54.9637 38.784C55.3195 38.784 55.6091 39.0728 55.6091 39.4278V41.8154C55.4009 41.7695 55.1855 41.7434 54.9637 41.7434H32.5684C33.2341 40.8204 33.8136 39.83 34.295 38.7842H54.9637V38.784ZM3.3475 31.3386C3.3475 22.8817 10.128 16.0015 18.4623 16.0015C26.7967 16.0015 33.5772 22.8817 33.5772 31.3386C33.5772 39.7954 26.7967 46.6756 18.4623 46.6756C10.128 46.6756 3.3475 39.7954 3.3475 31.3386ZM38.7834 75.9725C38.7834 76.2644 38.5461 76.5017 38.2542 76.5017H34.5231C34.2312 76.5017 33.9939 76.2644 33.9939 75.9725V74.3214H38.7833L38.7834 75.9725ZM55.6092 71.334C55.6092 71.689 55.3197 71.9778 54.9639 71.9778H22.728C22.3722 71.9778 22.0827 71.689 22.0827 71.334V48.6359C25.3256 47.9406 28.2391 46.3312 30.5467 44.087H54.9637C55.3195 44.087 55.6091 44.3758 55.6091 44.7308V55.8937H49.2861C48.6389 55.8937 48.1142 56.4184 48.1142 57.0656C48.1142 57.7128 48.6389 58.2375 49.2861 58.2375H51.3225V60.5856C51.3225 62.8289 53.1475 64.6539 55.3908 64.6539H55.6092V71.334ZM76.2886 60.2161C75.6912 61.4537 74.4236 62.3097 72.9598 62.3097C72.2676 62.3097 60.768 62.31 60.0823 62.31V58.2373H71.778C72.4251 58.2373 72.9498 57.7126 72.9498 57.0654C72.9498 56.4183 72.4251 55.8936 71.778 55.8936H70.8714V48.4467C70.8714 47.7995 70.3467 47.2748 69.6995 47.2748C69.0523 47.2748 68.5276 47.7995 68.5276 48.4467V55.8936H57.9525V45.7523H58.2509C60.7958 45.7523 62.8891 43.7881 63.0978 41.2962H69.0973C73.2636 41.2962 76.6533 44.6858 76.6533 48.8522V58.6159C76.6534 58.9344 76.6231 59.5489 76.2886 60.2161Z" fill="black"/>
<path d="M30.4769 31.4912C31.1372 31.2918 31.5809 30.693 31.5809 30.001C31.5809 29.3091 31.1373 28.7102 30.4769 28.5105L19.0384 25.056C18.6617 24.9423 18.2631 24.9423 17.8863 25.056L6.44766 28.5107C5.78734 28.7102 5.34375 29.3091 5.34375 30.001C5.34375 30.3259 5.44266 30.6296 5.61469 30.8816V34.7534C5.61469 35.4005 6.13938 35.9252 6.78656 35.9252C7.43375 35.9252 7.95844 35.4005 7.95844 34.7534V31.9474L9.73484 32.4838V37.8823C9.73484 38.8007 10.3527 39.6026 11.2369 39.832L17.755 41.5255C17.9864 41.5859 18.2245 41.6159 18.4627 41.6159C18.7006 41.6159 18.9384 41.5859 19.1697 41.5255L25.6878 39.8321C26.5725 39.6024 27.1903 38.8007 27.1903 37.8823V32.4837L30.4769 31.4912ZM18.4623 27.3302L27.3052 30.0009L18.4623 32.6715L9.61953 30.0009L18.4623 27.3302ZM24.8466 37.6293L18.5798 39.2576C18.503 39.2776 18.4219 39.2774 18.3447 39.2576L12.0784 37.6295V33.192L17.8863 34.946C18.0747 35.0029 18.2686 35.0313 18.4623 35.0313C18.6562 35.0313 18.85 35.0029 19.0384 34.946L24.8466 33.1918V37.6293Z" fill="black"/>
</g>
<defs>
<clipPath id="clip0_267_619">
<rect width="80" height="80" fill="white" transform="translate(0 0.316406)"/>
</clipPath>
</defs>
</svg>
