<svg width="80" height="81" viewBox="0 0 80 81" fill="none" xmlns="http://www.w3.org/2000/svg">
<path d="M63.75 10.3164C66.5125 10.3164 68.75 12.5539 68.75 15.3164V64.8687C68.75 67.6312 66.5125 69.8687 63.75 69.8687H8.75C5.9875 69.8687 3.75 67.6312 3.75 64.8687V15.3164C3.75 12.5539 5.9875 10.3164 8.75 10.3164H63.75Z" fill="#DED8D0"/>
<path d="M8.75 69.8687H63.75C66.5125 69.8687 68.75 67.6312 68.75 64.8687V37.8164C56.9206 50.7585 36.9074 60.2797 3.75 62.0573V64.8687C3.75 67.6312 5.98747 69.8687 8.75 69.8687Z" fill="#C9C4BD"/>
<path d="M63.75 77.8164C71.3439 77.8164 77.5 71.6603 77.5 64.0664C77.5 56.4725 71.3439 50.3164 63.75 50.3164C56.1561 50.3164 50 56.4725 50 64.0664C50 71.6603 56.1561 77.8164 63.75 77.8164Z" fill="#F5A947"/>
<path d="M71.9894 53.0771C73.7151 55.3751 74.75 58.2214 74.75 61.3163C74.75 68.9102 68.5939 75.0663 61 75.0663C57.905 75.0663 55.0587 74.0313 52.7607 72.3056C55.2693 75.6458 59.2511 77.8163 63.75 77.8163C71.3439 77.8163 77.5 71.6602 77.5 64.0663C77.5 59.5674 75.3296 55.5857 71.9894 53.0771Z" fill="#F09D3A"/>
<path d="M68.75 22.8164H3.75V15.3164C3.75 12.555 5.98857 10.3164 8.75 10.3164H63.75C66.5114 10.3164 68.75 12.555 68.75 15.3164V22.8164Z" fill="#E34E4B"/>
<path d="M15 16.5664C13.6193 16.5664 12.5 15.4471 12.5 14.0664V6.56641C12.5 5.18569 13.6193 4.06641 15 4.06641C16.3807 4.06641 17.5 5.18569 17.5 6.56641V14.0664C17.5 15.4471 16.3807 16.5664 15 16.5664Z" fill="#F5A947"/>
<path d="M28.75 16.5664C27.3693 16.5664 26.25 15.4471 26.25 14.0664V6.56641C26.25 5.18569 27.3693 4.06641 28.75 4.06641C30.1307 4.06641 31.25 5.18569 31.25 6.56641V14.0664C31.25 15.4471 30.1307 16.5664 28.75 16.5664Z" fill="#F5A947"/>
<path d="M43.75 16.5664C42.3693 16.5664 41.25 15.4471 41.25 14.0664V6.56641C41.25 5.18569 42.3693 4.06641 43.75 4.06641C45.1307 4.06641 46.25 5.18569 46.25 6.56641V14.0664C46.25 15.4471 45.1307 16.5664 43.75 16.5664Z" fill="#F5A947"/>
<path d="M57.5 16.5664C56.1193 16.5664 55 15.4471 55 14.0664V6.56641C55 5.18569 56.1193 4.06641 57.5 4.06641C58.8807 4.06641 60 5.18569 60 6.56641V14.0664C60 15.4471 58.8807 16.5664 57.5 16.5664Z" fill="#F5A947"/>
<path d="M11.25 29.0664H18.75V36.5664H11.25V29.0664Z" fill="#50B6CF"/>
<path d="M25 29.0664H32.5V36.5664H25V29.0664Z" fill="#50B6CF"/>
<path d="M38.75 29.0664H46.25V36.5664H38.75V29.0664Z" fill="#50B6CF"/>
<path d="M52.5 29.0664H60V36.5664H52.5V29.0664Z" fill="#50B6CF"/>
<path d="M11.25 42.8164H18.75V50.3164H11.25V42.8164Z" fill="#50B6CF"/>
<path d="M25 42.8164H32.5V50.3164H25V42.8164Z" fill="#50B6CF"/>
<path d="M38.75 42.8164H46.25V50.3164H38.75V42.8164Z" fill="#50B6CF"/>
<path d="M52.5 42.8164H60V50.3164H52.5V42.8164Z" fill="#50B6CF"/>
<path d="M11.25 56.5664H18.75V64.0664H11.25V56.5664Z" fill="#50B6CF"/>
<path d="M25 56.5664H32.5V64.0664H25V56.5664Z" fill="#50B6CF"/>
<path d="M38.75 56.5664H46.25V64.0664H38.75V56.5664Z" fill="#50B6CF"/>
<path d="M70 50.448V15.3164C70 11.8704 67.1961 9.06641 63.75 9.06641H61.25V6.56641C61.25 4.49853 59.5679 2.81641 57.5 2.81641C55.4321 2.81641 53.75 4.49853 53.75 6.56641V9.06641H47.5V6.56641C47.5 4.49853 45.8179 2.81641 43.75 2.81641C41.6821 2.81641 40 4.49853 40 6.56641V9.06641H32.5V6.56641C32.5 4.49853 30.8179 2.81641 28.75 2.81641C26.6821 2.81641 25 4.49853 25 6.56641V9.06641H18.75V6.56641C18.75 4.49853 17.0679 2.81641 15 2.81641C12.9321 2.81641 11.25 4.49853 11.25 6.56641V9.06641H8.75C5.30395 9.06641 2.5 11.8704 2.5 15.3164V65.3164C2.5 68.7625 5.30395 71.5664 8.75 71.5664H50.7793C53.3777 76.0424 58.2121 79.0664 63.75 79.0664C72.0215 79.0664 78.75 72.3379 78.75 64.0664C78.75 58.0271 75.1555 52.8238 70 50.448ZM56.25 6.56641C56.25 5.87671 56.8103 5.31641 57.5 5.31641C58.1897 5.31641 58.75 5.87671 58.75 6.56641V14.0664C58.75 14.7561 58.1897 15.3164 57.5 15.3164C56.8103 15.3164 56.25 14.7561 56.25 14.0664V6.56641ZM42.5 6.56641C42.5 5.87671 43.0603 5.31641 43.75 5.31641C44.4397 5.31641 45 5.87671 45 6.56641V14.0664C45 14.7561 44.4397 15.3164 43.75 15.3164C43.0603 15.3164 42.5 14.7561 42.5 14.0664V6.56641ZM27.5 6.56641C27.5 5.87671 28.0603 5.31641 28.75 5.31641C29.4397 5.31641 30 5.87671 30 6.56641V14.0664C30 14.7561 29.4397 15.3164 28.75 15.3164C28.0603 15.3164 27.5 14.7561 27.5 14.0664V6.56641ZM13.75 6.56641C13.75 5.87671 14.3103 5.31641 15 5.31641C15.6897 5.31641 16.25 5.87671 16.25 6.56641V14.0664C16.25 14.7561 15.6897 15.3164 15 15.3164C14.3103 15.3164 13.75 14.7561 13.75 14.0664V6.56641ZM8.75 11.5664H11.25V14.0664C11.25 16.1343 12.9321 17.8164 15 17.8164C17.0679 17.8164 18.75 16.1343 18.75 14.0664V11.5664H25V14.0664C25 16.1343 26.6821 17.8164 28.75 17.8164C30.8179 17.8164 32.5 16.1343 32.5 14.0664V11.5664H40V14.0664C40 16.1343 41.6821 17.8164 43.75 17.8164C45.8179 17.8164 47.5 16.1343 47.5 14.0664V11.5664H53.75V14.0664C53.75 16.1343 55.4321 17.8164 57.5 17.8164C59.5679 17.8164 61.25 16.1343 61.25 14.0664V11.5664H63.75C65.8179 11.5664 67.5 13.2485 67.5 15.3164V21.5664H5V15.3164C5 13.2485 6.68213 11.5664 8.75 11.5664ZM8.75 69.0664C6.68213 69.0664 5 67.3843 5 65.3164V24.0664H67.5V49.56C66.299 49.2491 65.0469 49.0664 63.75 49.0664C62.8965 49.0664 62.0649 49.1546 61.25 49.2922V42.8164C61.25 42.1255 60.6909 41.5664 60 41.5664H52.5C51.8091 41.5664 51.25 42.1255 51.25 42.8164V50.3164C51.25 51.0073 51.8091 51.5664 52.5 51.5664H55.4761C51.4272 54.2552 48.75 58.8519 48.75 64.0664C48.75 65.8215 49.0687 67.4997 49.625 69.0664H8.75ZM58.75 49.0664H53.75V44.0664H58.75V49.0664ZM63.75 76.5664C56.8579 76.5664 51.25 70.9585 51.25 64.0664C51.25 57.1743 56.8579 51.5664 63.75 51.5664C70.6421 51.5664 76.25 57.1743 76.25 64.0664C76.25 70.9585 70.6421 76.5664 63.75 76.5664Z" fill="#0D0F23"/>
<path d="M65 61.9132V54.0664H62.5V61.9132C61.7559 62.3462 61.25 63.1433 61.25 64.0664C61.25 64.193 61.2691 64.3144 61.2872 64.4358L56.7188 68.0898L58.2812 70.043L62.8458 66.3913C63.1269 66.5008 63.4302 66.5664 63.75 66.5664C65.1307 66.5664 66.25 65.4471 66.25 64.0664C66.25 63.1433 65.7441 62.3462 65 61.9132Z" fill="#0D0F23"/>
<path d="M18.75 27.8164H11.25C10.5591 27.8164 10 28.3755 10 29.0664V36.5664C10 37.2573 10.5591 37.8164 11.25 37.8164H18.75C19.4409 37.8164 20 37.2573 20 36.5664V29.0664C20 28.3755 19.4409 27.8164 18.75 27.8164ZM17.5 35.3164H12.5V30.3164H17.5V35.3164Z" fill="#0D0F23"/>
<path d="M32.5 27.8164H25C24.3091 27.8164 23.75 28.3755 23.75 29.0664V36.5664C23.75 37.2573 24.3091 37.8164 25 37.8164H32.5C33.1909 37.8164 33.75 37.2573 33.75 36.5664V29.0664C33.75 28.3755 33.1909 27.8164 32.5 27.8164ZM31.25 35.3164H26.25V30.3164H31.25V35.3164Z" fill="#0D0F23"/>
<path d="M46.25 27.8164H38.75C38.0591 27.8164 37.5 28.3755 37.5 29.0664V36.5664C37.5 37.2573 38.0591 37.8164 38.75 37.8164H46.25C46.9409 37.8164 47.5 37.2573 47.5 36.5664V29.0664C47.5 28.3755 46.9409 27.8164 46.25 27.8164ZM45 35.3164H40V30.3164H45V35.3164Z" fill="#0D0F23"/>
<path d="M52.5 37.8164H60C60.6909 37.8164 61.25 37.2573 61.25 36.5664V29.0664C61.25 28.3755 60.6909 27.8164 60 27.8164H52.5C51.8091 27.8164 51.25 28.3755 51.25 29.0664V36.5664C51.25 37.2573 51.8091 37.8164 52.5 37.8164ZM53.75 30.3164H58.75V35.3164H53.75V30.3164Z" fill="#0D0F23"/>
<path d="M18.75 41.5664H11.25C10.5591 41.5664 10 42.1255 10 42.8164V50.3164C10 51.0073 10.5591 51.5664 11.25 51.5664H18.75C19.4409 51.5664 20 51.0073 20 50.3164V42.8164C20 42.1255 19.4409 41.5664 18.75 41.5664ZM17.5 49.0664H12.5V44.0664H17.5V49.0664Z" fill="#0D0F23"/>
<path d="M32.5 41.5664H25C24.3091 41.5664 23.75 42.1255 23.75 42.8164V50.3164C23.75 51.0073 24.3091 51.5664 25 51.5664H32.5C33.1909 51.5664 33.75 51.0073 33.75 50.3164V42.8164C33.75 42.1255 33.1909 41.5664 32.5 41.5664ZM31.25 49.0664H26.25V44.0664H31.25V49.0664Z" fill="#0D0F23"/>
<path d="M46.25 41.5664H38.75C38.0591 41.5664 37.5 42.1255 37.5 42.8164V50.3164C37.5 51.0073 38.0591 51.5664 38.75 51.5664H46.25C46.9409 51.5664 47.5 51.0073 47.5 50.3164V42.8164C47.5 42.1255 46.9409 41.5664 46.25 41.5664ZM45 49.0664H40V44.0664H45V49.0664Z" fill="#0D0F23"/>
<path d="M18.75 55.3164H11.25C10.5591 55.3164 10 55.8755 10 56.5664V64.0664C10 64.7573 10.5591 65.3164 11.25 65.3164H18.75C19.4409 65.3164 20 64.7573 20 64.0664V56.5664C20 55.8755 19.4409 55.3164 18.75 55.3164ZM17.5 62.8164H12.5V57.8164H17.5V62.8164Z" fill="#0D0F23"/>
<path d="M32.5 55.3164H25C24.3091 55.3164 23.75 55.8755 23.75 56.5664V64.0664C23.75 64.7573 24.3091 65.3164 25 65.3164H32.5C33.1909 65.3164 33.75 64.7573 33.75 64.0664V56.5664C33.75 55.8755 33.1909 55.3164 32.5 55.3164ZM31.25 62.8164H26.25V57.8164H31.25V62.8164Z" fill="#0D0F23"/>
<path d="M46.25 55.3164H38.75C38.0591 55.3164 37.5 55.8755 37.5 56.5664V64.0664C37.5 64.7573 38.0591 65.3164 38.75 65.3164H46.25C46.9409 65.3164 47.5 64.7573 47.5 64.0664V56.5664C47.5 55.8755 46.9409 55.3164 46.25 55.3164ZM45 62.8164H40V57.8164H45V62.8164Z" fill="#0D0F23"/>
</svg>
