<svg width="80" height="81" viewBox="0 0 80 81" fill="none" xmlns="http://www.w3.org/2000/svg">
<path d="M53.2451 62.5969L70.7468 52.4102C71.9616 51.7029 73.4051 51.5114 74.7599 51.8777C76.1147 52.2441 77.2697 53.1382 77.9709 54.3635C78.672 55.5888 78.8619 57.0449 78.4987 58.4114C78.1356 59.7779 77.2491 60.9429 76.0343 61.6502L47.4949 78.2635C46.6935 78.738 45.7804 78.9867 44.8512 78.9835H28.4995C28.0081 78.9835 27.5189 78.9162 27.0454 78.7835L9.25293 73.6502V53.6502H23.1459C24.1894 53.6488 25.2229 53.8555 26.187 54.2582C27.1511 54.6609 28.0268 55.2518 28.7639 55.9968L33.0468 60.3169H48.9093C50.3114 60.3194 51.6558 60.88 52.6503 61.8768C52.8627 62.1046 53.0613 62.345 53.2451 62.5969Z" fill="#FFC477"/>
<path d="M47.5875 1.6499H55.5188C55.5188 3.77163 54.6832 5.80647 53.1958 7.30676C51.7084 8.80705 49.691 9.6499 47.5875 9.6499H39.6562C39.6562 7.52817 40.4919 5.49334 41.9793 3.99305C43.4667 2.49276 45.484 1.6499 47.5875 1.6499Z" fill="#9CDD05"/>
<path d="M47.5875 14.9829H55.5188C55.5188 17.1046 54.6832 19.1395 53.1958 20.6398C51.7084 22.1401 49.691 22.9829 47.5875 22.9829H39.6562C39.6562 20.8612 40.4919 18.8263 41.9793 17.3261C43.4667 15.8258 45.484 14.9829 47.5875 14.9829Z" fill="#9CDD05"/>
<path d="M39.6563 54.9831C46.9568 54.9831 52.8751 49.0135 52.8751 41.6497C52.8751 34.2859 46.9568 28.3164 39.6563 28.3164C32.3558 28.3164 26.4375 34.2859 26.4375 41.6497C26.4375 49.0135 32.3558 54.9831 39.6563 54.9831Z" fill="#FFCD00"/>
<path d="M39.6565 9.6499H31.7252C29.6217 9.6499 27.6044 8.80705 26.117 7.30676C24.6296 5.80647 23.7939 3.77163 23.7939 1.6499H31.7252C33.8287 1.6499 35.8461 2.49276 37.3335 3.99305C38.8209 5.49334 39.6565 7.52817 39.6565 9.6499Z" fill="#9CDD05"/>
<path d="M39.6565 22.9829H31.7252C29.6217 22.9829 27.6044 22.1401 26.117 20.6398C24.6296 19.1395 23.7939 17.1046 23.7939 14.9829H31.7252C33.8287 14.9829 35.8461 15.8258 37.3335 17.3261C38.8209 18.8263 39.6565 20.8612 39.6565 22.9829Z" fill="#9CDD05"/>
<path d="M9.25355 73.6499V78.9832H1.32227V49.6499H9.25355V53.6499V73.6499Z" fill="#2488FF"/>
<path d="M52.8754 41.6497C52.8754 45.186 51.4827 48.5774 49.0037 51.0778C46.5247 53.5783 43.1624 54.9831 39.6566 54.9831C39.0012 54.9839 38.3469 54.9304 37.7002 54.8231C40.8144 54.332 43.6521 52.7347 45.7015 50.3192C47.751 47.9037 48.8773 44.8291 48.8773 41.6497C48.8773 38.4704 47.751 35.3958 45.7015 32.9803C43.6521 30.5648 40.8144 28.9675 37.7002 28.4764C38.3469 28.3691 39.0012 28.3156 39.6566 28.3164C43.1624 28.3164 46.5247 29.7212 49.0037 32.2217C51.4827 34.7221 52.8754 38.1135 52.8754 41.6497Z" fill="#DDB200"/>
<path d="M55.5186 1.6499C55.5186 3.77163 54.683 5.80647 53.1956 7.30676C51.7082 8.80705 49.6908 9.6499 47.5873 9.6499H42.2998C44.4033 9.6499 46.4207 8.80705 47.9081 7.30676C49.3955 5.80647 50.2311 3.77163 50.2311 1.6499H55.5186Z" fill="#5EAC24"/>
<path d="M55.5186 14.9829C55.5186 17.1046 54.683 19.1395 53.1956 20.6398C51.7082 22.1401 49.6908 22.9829 47.5873 22.9829H42.2998C44.4033 22.9829 46.4207 22.1401 47.9081 20.6398C49.3955 19.1395 50.2311 17.1046 50.2311 14.9829H55.5186Z" fill="#5EAC24"/>
<path d="M77.9643 59.7034C77.2627 58.4804 76.1094 57.5876 74.7567 57.2203C73.4041 56.8529 71.9623 57.041 70.7468 57.7434L58.1625 65.0634L53.2451 67.93C53.0613 67.6782 52.8627 67.4378 52.6503 67.21C51.6558 66.2132 50.3114 65.6526 48.9093 65.65H33.0468L28.7639 61.33C28.0268 60.5849 27.1511 59.9941 26.187 59.5914C25.2229 59.1886 24.1894 58.982 23.1459 58.9834H9.25293V53.65H23.1459C24.1894 53.6487 25.2229 53.8553 26.187 54.258C27.1511 54.6607 28.0268 55.2516 28.7639 55.9967L33.0468 60.3167H48.9093C50.3114 60.3192 51.6558 60.8798 52.6503 61.8767C52.8627 62.1045 53.0613 62.3449 53.2451 62.5967L58.1625 59.73L70.7468 52.41C71.7555 51.823 72.9281 51.5883 74.0825 51.7423C75.237 51.8964 76.3088 52.4305 77.1314 53.2618C77.9541 54.0932 78.4817 55.1752 78.6323 56.34C78.7829 57.5047 78.5481 58.687 77.9643 59.7034Z" fill="#FFA733"/>
<path d="M38.3342 33.6499V35.2286C37.4529 35.5417 36.7099 36.1593 36.2368 36.9719C35.7637 37.7846 35.5911 38.74 35.7494 39.6688C35.9077 40.5976 36.3868 41.4399 37.1019 42.0466C37.8169 42.6532 38.7217 42.985 39.6561 42.9832C39.9175 42.9832 40.1731 43.0614 40.3905 43.2079C40.6078 43.3545 40.7773 43.5627 40.8773 43.8063C40.9774 44.05 41.0036 44.318 40.9526 44.5767C40.9015 44.8353 40.7756 45.0729 40.5908 45.2594C40.4059 45.4458 40.1704 45.5728 39.914 45.6243C39.6575 45.6757 39.3918 45.6493 39.1502 45.5484C38.9087 45.4475 38.7022 45.2766 38.557 45.0573C38.4117 44.8381 38.3342 44.5803 38.3342 44.3166H35.6904C35.6938 45.1409 35.9496 45.9441 36.4229 46.6162C36.8961 47.2883 37.5637 47.7965 38.3342 48.0712V49.6499H40.978V48.0712C41.8592 47.7581 42.6022 47.1406 43.0753 46.3279C43.5484 45.5152 43.7211 44.5598 43.5627 43.631C43.4044 42.7022 42.9253 41.8599 42.2103 41.2532C41.4952 40.6466 40.5904 40.3148 39.6561 40.3166C39.3946 40.3166 39.1391 40.2384 38.9217 40.0919C38.7043 39.9454 38.5349 39.7371 38.4348 39.4935C38.3348 39.2498 38.3086 38.9818 38.3596 38.7231C38.4106 38.4645 38.5365 38.2269 38.7214 38.0404C38.9062 37.854 39.1418 37.727 39.3982 37.6755C39.6546 37.6241 39.9204 37.6505 40.1619 37.7514C40.4035 37.8523 40.6099 38.0232 40.7552 38.2425C40.9004 38.4617 40.978 38.7195 40.978 38.9832H43.6217C43.6183 38.1589 43.3625 37.3557 42.8893 36.6836C42.416 36.0115 41.7485 35.5033 40.978 35.2286V33.6499H38.3342Z" fill="black"/>
<path d="M47.5874 24.3164C50.0406 24.3136 52.3926 23.3293 54.1273 21.5796C55.862 19.8299 56.8378 17.4576 56.8406 14.9831C56.8406 14.6295 56.7013 14.2903 56.4534 14.0403C56.2055 13.7902 55.8693 13.6497 55.5187 13.6497H47.5874C46.3552 13.649 45.1354 13.8977 44.0001 14.3809C42.8648 14.8641 41.8372 15.5722 40.978 16.4631V10.9831H47.5874C50.0406 10.9803 52.3926 9.99601 54.1273 8.24628C55.862 6.49656 56.8378 4.12423 56.8406 1.64974C56.8406 1.29612 56.7013 0.956979 56.4534 0.70693C56.2055 0.456882 55.8693 0.316406 55.5187 0.316406H47.5874C45.9883 0.316722 44.4166 0.7359 43.0263 1.5329C41.636 2.3299 40.4747 3.47741 39.6561 4.86307C38.8375 3.47741 37.6763 2.3299 36.286 1.5329C34.8957 0.7359 33.324 0.316722 31.7248 0.316406H23.7936C23.443 0.316406 23.1067 0.456882 22.8588 0.70693C22.6109 0.956979 22.4717 1.29612 22.4717 1.64974C22.4745 4.12423 23.4503 6.49656 25.185 8.24628C26.9197 9.99601 29.2716 10.9803 31.7248 10.9831H38.3342V16.4631C37.4751 15.5722 36.4474 14.8641 35.3122 14.3809C34.1769 13.8977 32.9571 13.649 31.7248 13.6497H23.7936C23.443 13.6497 23.1067 13.7902 22.8588 14.0403C22.6109 14.2903 22.4717 14.6295 22.4717 14.9831C22.4745 17.4576 23.4503 19.8299 25.185 21.5796C26.9197 23.3293 29.2716 24.3136 31.7248 24.3164H38.3342V27.0497C34.6079 27.3929 31.156 29.1718 28.6968 32.0165C26.2376 34.8612 24.9602 38.5526 25.1305 42.323C25.3008 46.0934 26.9055 49.6525 29.6109 52.2599C32.3164 54.8673 35.9142 56.3223 39.6561 56.3223C43.398 56.3223 46.9959 54.8673 49.7013 52.2599C52.4067 49.6525 54.0115 46.0934 54.1817 42.323C54.352 38.5526 53.0747 34.8612 50.6154 32.0165C48.1562 29.1718 44.7044 27.3929 40.978 27.0497V24.3164H47.5874ZM47.5874 16.3164H54.0646C53.7578 17.8212 52.9461 19.1733 51.7662 20.1448C50.5863 21.1163 49.1105 21.6478 47.5874 21.6497H41.1102C41.417 20.145 42.2287 18.7929 43.4086 17.8214C44.5885 16.8499 46.0643 16.3183 47.5874 16.3164ZM47.5874 2.98307H54.0646C53.7578 4.48786 52.9461 5.83995 51.7662 6.81145C50.5863 7.78295 49.1105 8.31447 47.5874 8.31641H41.1102C41.417 6.81162 42.2287 5.45953 43.4086 4.48803C44.5885 3.51653 46.0643 2.98501 47.5874 2.98307ZM31.7248 8.31641C30.2018 8.31447 28.7259 7.78295 27.546 6.81145C26.3662 5.83995 25.5544 4.48786 25.2476 2.98307H31.7248C33.2479 2.98501 34.7238 3.51653 35.9036 4.48803C37.0835 5.45953 37.8953 6.81162 38.2021 8.31641H31.7248ZM31.7248 21.6497C30.2018 21.6478 28.7259 21.1163 27.546 20.1448C26.3662 19.1733 25.5544 17.8212 25.2476 16.3164H31.7248C33.2479 16.3183 34.7238 16.8499 35.9036 17.8214C37.0835 18.7929 37.8953 20.145 38.2021 21.6497H31.7248ZM51.553 41.6497C51.553 44.0231 50.8553 46.3432 49.5481 48.3166C48.2408 50.29 46.3828 51.828 44.2089 52.7363C42.035 53.6445 39.6429 53.8822 37.3351 53.4192C35.0274 52.9561 32.9075 51.8133 31.2437 50.135C29.5799 48.4568 28.4468 46.3186 27.9878 43.9908C27.5288 41.6631 27.7643 39.2503 28.6648 37.0575C29.5652 34.8648 31.0901 32.9907 33.0465 31.6721C35.003 30.3535 37.3031 29.6497 39.6561 29.6497C42.8099 29.6547 45.8331 30.9205 48.0631 33.1699C50.2932 35.4193 51.5482 38.4687 51.553 41.6497Z" fill="black"/>
<path d="M2.64355 0.316406H5.28731V2.98307H2.64355V0.316406Z" fill="black"/>
<path d="M2.64355 5.6499H5.28731V8.31657H2.64355V5.6499Z" fill="black"/>
<path d="M0 2.98291H2.64376V5.64958H0V2.98291Z" fill="black"/>
<path d="M5.28711 2.98291H7.93087V5.64958H5.28711V2.98291Z" fill="black"/>
<path d="M10.5752 16.3164H13.219V18.9831H10.5752V16.3164Z" fill="black"/>
<path d="M10.5752 21.6499H13.219V24.3166H10.5752V21.6499Z" fill="black"/>
<path d="M7.93164 18.9829H10.5754V21.6496H7.93164V18.9829Z" fill="black"/>
<path d="M13.2188 18.9829H15.8625V21.6496H13.2188V18.9829Z" fill="black"/>
<path d="M2.64355 32.3164H5.28731V34.9831H2.64355V32.3164Z" fill="black"/>
<path d="M2.64355 37.6499H5.28731V40.3166H2.64355V37.6499Z" fill="black"/>
<path d="M0 34.9829H2.64376V37.6496H0V34.9829Z" fill="black"/>
<path d="M5.28711 34.9829H7.93087V37.6496H5.28711V34.9829Z" fill="black"/>
<path d="M74.0254 0.316406H76.6692V2.98307H74.0254V0.316406Z" fill="black"/>
<path d="M74.0254 5.6499H76.6692V8.31657H74.0254V5.6499Z" fill="black"/>
<path d="M76.6689 2.98291H79.3127V5.64958H76.6689V2.98291Z" fill="black"/>
<path d="M71.3818 2.98291H74.0256V5.64958H71.3818V2.98291Z" fill="black"/>
<path d="M66.0938 16.3164H68.7375V18.9831H66.0938V16.3164Z" fill="black"/>
<path d="M66.0938 21.6499H68.7375V24.3166H66.0938V21.6499Z" fill="black"/>
<path d="M68.7373 18.9829H71.3811V21.6496H68.7373V18.9829Z" fill="black"/>
<path d="M63.4502 18.9829H66.094V21.6496H63.4502V18.9829Z" fill="black"/>
<path d="M74.0254 32.3164H76.6692V34.9831H74.0254V32.3164Z" fill="black"/>
<path d="M74.0254 37.6499H76.6692V40.3166H74.0254V37.6499Z" fill="black"/>
<path d="M76.6689 34.9829H79.3127V37.6496H76.6689V34.9829Z" fill="black"/>
<path d="M71.3818 34.9829H74.0256V37.6496H71.3818V34.9829Z" fill="black"/>
<path d="M79.1145 53.7031C78.2353 52.175 76.7927 51.0596 75.1015 50.6C73.4102 50.1405 71.6073 50.374 70.0861 51.2497L53.5361 60.8897C52.3001 59.669 50.6395 58.9846 48.9096 58.9831H33.589L29.7026 55.0497C28.8418 54.1815 27.8195 53.4931 26.6944 53.0241C25.5693 52.5551 24.3635 52.3146 23.1461 52.3164H10.575V49.6497C10.575 49.2961 10.4358 48.957 10.1879 48.7069C9.93997 48.4569 9.60375 48.3164 9.25316 48.3164H1.32188C0.971296 48.3164 0.63507 48.4569 0.38717 48.7069C0.139269 48.957 0 49.2961 0 49.6497V78.9831C0 79.3367 0.139269 79.6758 0.38717 79.9259C0.63507 80.1759 0.971296 80.3164 1.32188 80.3164H9.25316C9.60375 80.3164 9.93997 80.1759 10.1879 79.9259C10.4358 79.6758 10.575 79.3367 10.575 78.9831V75.4231L26.6888 80.0631C27.2786 80.2284 27.8876 80.3136 28.4997 80.3164H44.8514C46.0117 80.3175 47.1518 80.0093 48.1561 79.4231L76.6955 62.8097C78.2135 61.9257 79.3211 60.4695 79.7748 58.7617C80.2285 57.0539 79.9909 55.2343 79.1145 53.7031ZM7.93128 77.6497H2.64376V50.9831H7.93128V77.6497ZM77.2242 58.0631C77.0898 58.5707 76.857 59.0465 76.5394 59.463C76.2218 59.8795 75.8256 60.2284 75.3736 60.4897L46.8342 77.1164C46.2297 77.463 45.5468 77.6467 44.8514 77.6497H28.4997C28.1326 77.6508 27.7673 77.5969 27.4158 77.4897L10.575 72.6497V54.9831H23.1461C24.0162 54.9792 24.8782 55.1506 25.6818 55.4871C26.4853 55.8237 27.2142 56.3187 27.8256 56.9431L32.1085 61.2631C32.3605 61.5087 32.6966 61.6471 33.047 61.6497H48.9096C49.4243 61.647 49.9346 61.7469 50.411 61.9437C50.8874 62.1405 51.3205 62.4303 51.6855 62.7964C51.8554 62.973 52.0144 63.16 52.1614 63.3564C52.6234 64.0307 52.8722 64.8301 52.8752 65.6497C52.8721 66.7096 52.4533 67.7252 51.7102 68.4747C50.9672 69.2241 49.9604 69.6466 48.9096 69.6497H33.047V72.3164H48.9096C49.9967 72.323 51.0685 72.0574 52.0289 71.5434C52.9892 71.0294 53.8081 70.283 54.412 69.3712C55.016 68.4594 55.3862 67.4106 55.4894 66.319C55.5926 65.2274 55.4256 64.1269 55.0034 63.1164L71.408 53.5697C72.0868 53.174 72.8667 52.9901 73.649 53.0413C74.4314 53.0925 75.1812 53.3765 75.8037 53.8573C76.4261 54.3382 76.8933 54.9944 77.1461 55.743C77.399 56.4915 77.4262 57.2989 77.2242 58.0631Z" fill="black"/>
</svg>
