<svg width="20" height="32" viewBox="0 0 20 32" fill="none" xmlns="http://www.w3.org/2000/svg">
<path d="M10.1459 6.17822L6.51075 9.05275C6.51075 9.05671 6.50938 9.06331 6.50801 9.07123C6.50527 9.07915 6.50391 9.08443 6.50391 9.08971V11.9999C6.50391 12.1055 6.54497 12.1965 6.62435 12.2731C6.7051 12.3496 6.79953 12.3879 6.90903 12.3879H9.33563V10.0598H10.9547V12.3879H13.3827C13.4922 12.3879 13.588 12.3496 13.6674 12.2731C13.7468 12.1965 13.7878 12.1055 13.7878 11.9999V9.08971C13.7878 9.07255 13.7851 9.06199 13.781 9.05275L10.1459 6.17822Z" fill="#D9DFE3"/>
<path d="M15.1716 8.39789L13.7879 7.29454V4.81991C13.7879 4.76316 13.7688 4.71697 13.7305 4.68001C13.6921 4.64438 13.6442 4.6259 13.5854 4.6259H12.3714C12.3125 4.6259 12.2633 4.64438 12.2249 4.68001C12.188 4.71697 12.1688 4.76316 12.1688 4.81991V6.00245L10.6264 4.76448C10.4909 4.66021 10.3307 4.60742 10.146 4.60742C9.95984 4.60742 9.79971 4.66021 9.66558 4.76448L5.12031 8.39789C5.07788 8.43089 5.05462 8.47312 5.05051 8.52855C5.04641 8.58267 5.06009 8.63018 5.09431 8.67109L5.48574 9.11982C5.51996 9.15546 5.56375 9.1779 5.61987 9.18581C5.67051 9.19109 5.72115 9.17526 5.77179 9.14358L10.146 5.64479L14.5215 9.14358C14.5544 9.17262 14.5982 9.18581 14.6543 9.18581H14.6721C14.7268 9.1779 14.7706 9.15546 14.8062 9.11982L15.1976 8.67109C15.2305 8.63018 15.2455 8.58267 15.2414 8.52855C15.2373 8.47312 15.2141 8.43089 15.1716 8.39789Z" fill="#D9DFE3"/>
<mask id="mask0_409_1894" style="mask-type:luminance" maskUnits="userSpaceOnUse" x="0" y="21" width="20" height="11">
<path d="M0 21.835H20V32.0001H0V21.835Z" fill="white"/>
</mask>
<g mask="url(#mask0_409_1894)">
<path d="M14.3099 22.124C14.2099 22.285 14.1141 22.4421 14.0197 22.6018C16.6557 23.2947 18.4527 24.6765 18.4527 26.2669C18.4527 28.5567 14.7341 30.4124 10.1464 30.4124C5.55874 30.4124 1.84014 28.5567 1.84014 26.2669C1.84014 24.6805 3.62895 23.2986 6.25675 22.6058C6.15958 22.4474 6.0624 22.2864 5.9666 22.128C2.60794 22.9542 0.28125 24.7438 0.28125 26.8186C0.28125 29.6799 4.69787 32.0001 10.1464 32.0001C15.595 32.0001 20.0103 29.6799 20.0103 26.8186C20.0103 24.7399 17.6754 22.9476 14.3099 22.124Z" fill="#D71A43"/>
</g>
<path d="M10.1456 15.3929C6.4379 15.3929 3.43235 12.5105 3.43235 8.95495C3.43235 5.3994 6.4379 2.51695 10.1456 2.51695C13.8518 2.51695 16.8574 5.3994 16.8574 8.95495C16.8574 12.5105 13.8518 15.3929 10.1456 15.3929ZM19.3387 7.08083C18.1152 1.85309 12.5995 -1.17585 7.25771 0.431666C1.62437 2.12761 -0.992475 8.38743 1.91453 13.3367C4.01813 16.92 6.20386 20.4583 8.35263 24.0178C8.93567 24.9813 9.52145 25.9434 10.1305 26.9491C10.1962 26.8515 10.2331 26.8013 10.2646 26.7498C12.9567 22.2995 15.6612 17.8557 18.3342 13.3934C19.5126 11.4256 19.8588 9.30337 19.3387 7.08083Z" fill="#D9DFE3"/>
<path d="M11.8133 27.0628C11.8133 27.765 11.066 28.3364 10.1449 28.3364C9.22384 28.3364 8.47656 27.765 8.47656 27.0628C8.47656 26.6511 8.73387 26.2828 9.13214 26.0519C9.14583 26.0769 9.16088 26.0981 9.17457 26.1231L10.1162 27.6726L10.5213 27.0628C10.5555 27.014 10.5788 26.9784 10.6021 26.9401C10.7827 26.6405 10.9634 26.3435 11.1454 26.0439C11.5519 26.2762 11.8133 26.6458 11.8133 27.0628Z" fill="#D9DFE3"/>
</svg>
