<svg width="24" height="24" viewBox="0 0 24 24" fill="none" xmlns="http://www.w3.org/2000/svg">
<mask id="mask0_409_1904" style="mask-type:luminance" maskUnits="userSpaceOnUse" x="0" y="1" width="24" height="23">
<path d="M0 1.6416H24V24H0V1.6416Z" fill="white"/>
</mask>
<g mask="url(#mask0_409_1904)">
<path d="M22.6957 8.13973L14.1399 2.53988C13.9835 2.4331 13.8196 2.33711 13.6481 2.25406C13.4777 2.17209 13.3019 2.10198 13.1207 2.0459C12.9395 1.98982 12.7551 1.94667 12.5674 1.91863C12.3798 1.89059 12.1899 1.87549 12.0001 1.87549C11.8103 1.87549 11.6216 1.89059 11.4339 1.91863C11.2463 1.94667 11.0618 1.98982 10.8806 2.0459C10.6995 2.10198 10.5237 2.17209 10.3522 2.25406C10.1818 2.33711 10.0178 2.4331 9.86145 2.53988L1.30566 8.13973C1.1029 8.29397 0.920636 8.46977 0.758861 8.66715C0.597085 8.86452 0.459036 9.077 0.346871 9.30565C0.233628 9.5343 0.148426 9.77267 0.0901867 10.0218C0.0319473 10.2699 0.00390625 10.5212 0.00390625 10.7768V20.6661C0.00390625 20.885 0.0254763 21.1018 0.0675381 21.3154C0.110678 21.53 0.173232 21.7381 0.257355 21.9398C0.3404 22.1426 0.442858 22.3335 0.56473 22.5158C0.685522 22.697 0.823571 22.8652 0.978876 23.0205C1.1331 23.1748 1.30135 23.3128 1.48254 23.4336C1.66481 23.5555 1.85678 23.658 2.05846 23.7421C2.26014 23.8252 2.46829 23.8888 2.68292 23.9309C2.89754 23.974 3.11324 23.9956 3.33218 23.9956H20.6692C20.887 23.9956 21.1038 23.974 21.3184 23.9309C21.533 23.8888 21.7412 23.8252 21.9429 23.7421C22.1446 23.658 22.3365 23.5555 22.5177 23.4336C22.7 23.3128 22.8682 23.1748 23.0225 23.0205C23.1767 22.8652 23.3147 22.697 23.4366 22.5158C23.5585 22.3335 23.6609 22.1426 23.744 21.9398C23.8281 21.7381 23.8907 21.53 23.9338 21.3154C23.9759 21.1018 23.9974 20.885 23.9974 20.6661V10.7757C23.9974 10.5201 23.9683 10.2688 23.9112 10.0207C23.8529 9.77267 23.7677 9.5343 23.6545 9.30565C23.5412 9.077 23.4043 8.86344 23.2425 8.66715C23.0807 8.46977 22.8984 8.29397 22.6957 8.13973Z" fill="#FFA000"/>
</g>
<mask id="mask1_409_1904" style="mask-type:luminance" maskUnits="userSpaceOnUse" x="3" y="0" width="18" height="24">
<path d="M3.45508 0H20.297V24H3.45508V0Z" fill="white"/>
</mask>
<g mask="url(#mask1_409_1904)">
<path d="M20.2741 23.9957V0.827251C20.2741 0.718317 20.2536 0.612619 20.2115 0.511235C20.1695 0.409851 20.1091 0.320331 20.0314 0.242675C19.9538 0.165019 19.8643 0.10462 19.7629 0.0636347C19.6615 0.021571 19.5569 0 19.4469 0H4.55378C4.44377 0 4.33915 0.021571 4.23777 0.0636347C4.13639 0.10462 4.04688 0.165019 3.96923 0.242675C3.89157 0.320331 3.83118 0.409851 3.78912 0.511235C3.74705 0.612619 3.72656 0.718317 3.72656 0.827251V23.9957H20.2741Z" fill="#F3F5F9"/>
</g>
<mask id="mask2_409_1904" style="mask-type:luminance" maskUnits="userSpaceOnUse" x="0" y="9" width="24" height="15">
<path d="M0 9.09668H24V24.0001H0V9.09668Z" fill="white"/>
</mask>
<g mask="url(#mask2_409_1904)">
<path d="M23.9974 10.7772V20.6654C23.9974 20.8844 23.9769 21.1001 23.9338 21.3147C23.8917 21.5293 23.8281 21.7375 23.7451 21.9403C23.6609 22.142 23.5585 22.3339 23.4366 22.5162C23.3158 22.6974 23.1778 22.8657 23.0225 23.021C22.8682 23.1752 22.7 23.3133 22.5177 23.4351C22.3365 23.5559 22.1446 23.6584 21.9418 23.7425C21.7401 23.8267 21.532 23.8892 21.3174 23.9324C21.1027 23.9744 20.886 23.996 20.667 23.996H3.33434C3.1154 23.996 2.89862 23.9744 2.684 23.9324C2.46938 23.8892 2.26123 23.8267 2.05955 23.7425C1.85679 23.6584 1.66481 23.5559 1.48362 23.4351C1.30136 23.3133 1.13311 23.1752 0.978883 23.021C0.823578 22.8657 0.685529 22.6974 0.564737 22.5162C0.442866 22.3339 0.340407 22.142 0.256284 21.9403C0.173239 21.7375 0.109607 21.5293 0.0675453 21.3147C0.024405 21.1001 0.00391341 20.8844 0.00391341 20.6654V10.7772C0.00283497 10.2487 0.123628 9.74829 0.365213 9.27804L9.86146 17.7317C10.0103 17.8579 10.1678 17.9701 10.336 18.0683C10.5043 18.1653 10.679 18.2484 10.8612 18.3152C11.0435 18.3821 11.2312 18.4328 11.4221 18.4673C11.613 18.5008 11.806 18.518 12.0001 18.518C12.1953 18.518 12.3884 18.5008 12.5793 18.4673C12.7702 18.4328 12.9579 18.3821 13.1401 18.3152C13.3224 18.2484 13.4971 18.1653 13.6654 18.0683C13.8336 17.9701 13.9911 17.8579 14.1399 17.7317L23.6361 9.27588C23.8777 9.74721 23.9985 10.2477 23.9974 10.7772Z" fill="#FFC107"/>
</g>
<mask id="mask3_409_1904" style="mask-type:luminance" maskUnits="userSpaceOnUse" x="0" y="14" width="24" height="10">
<path d="M0.969727 14.0664H23.3336V23.9999H0.969727V14.0664Z" fill="white"/>
</mask>
<g mask="url(#mask3_409_1904)">
<path d="M23.1615 22.8694C22.8466 23.2285 22.4713 23.5057 22.0367 23.702C21.6009 23.8983 21.1447 23.9954 20.667 23.9954H3.33428C2.89101 23.9964 2.465 23.9123 2.05625 23.7419C1.64642 23.5715 1.28727 23.3277 0.975586 23.0128L9.88081 15.1372C10.0253 15.0099 10.1806 14.8956 10.3467 14.7964C10.5117 14.6961 10.6854 14.6119 10.8666 14.544C11.0478 14.475 11.2333 14.4243 11.4231 14.3887C11.6129 14.3542 11.8049 14.3369 11.999 14.3369C12.1921 14.3369 12.384 14.3542 12.5738 14.3887C12.7637 14.4243 12.9502 14.475 13.1304 14.544C13.3115 14.6119 13.4852 14.6961 13.6502 14.7964C13.8163 14.8956 13.9716 15.0099 14.1161 15.1372L23.1615 22.8694Z" fill="#FFD54F"/>
</g>
<path d="M4.14062 22.3403C4.14062 22.2853 4.15033 22.2325 4.1719 22.1818C4.19239 22.1311 4.22259 22.0869 4.26142 22.048C4.30024 22.0092 4.34446 21.979 4.39515 21.9585C4.44584 21.937 4.49869 21.9272 4.55369 21.9272H6.20812C6.26313 21.9272 6.31597 21.937 6.36666 21.9585C6.41735 21.979 6.46265 22.0092 6.50148 22.048C6.5403 22.0869 6.56942 22.1311 6.59099 22.1818C6.61148 22.2325 6.62227 22.2853 6.62227 22.3403C6.62227 22.3953 6.61148 22.4482 6.59099 22.4989C6.56942 22.5496 6.5403 22.5949 6.50148 22.6326C6.46265 22.6714 6.41735 22.7016 6.36666 22.7232C6.31597 22.7437 6.26313 22.7545 6.20812 22.7545H4.55369C4.49869 22.7545 4.44584 22.7437 4.39515 22.7232C4.34446 22.7016 4.30024 22.6714 4.26142 22.6326C4.22259 22.5949 4.19239 22.5496 4.1719 22.4989C4.15033 22.4482 4.14062 22.3953 4.14062 22.3403Z" fill="white"/>
<path d="M8.27643 22.3403C8.27643 22.3953 8.26673 22.4482 8.24516 22.4989C8.22466 22.5496 8.19447 22.5938 8.15564 22.6326C8.11681 22.6714 8.07152 22.7016 8.02083 22.7232C7.97014 22.7437 7.91837 22.7545 7.86337 22.7545C7.80836 22.7545 7.75551 22.7437 7.70482 22.7232C7.65414 22.7016 7.60884 22.6714 7.57001 22.6326C7.53226 22.5938 7.50207 22.5496 7.4805 22.4989C7.46 22.4482 7.44922 22.3953 7.44922 22.3403C7.44922 22.2853 7.46 22.2325 7.4805 22.1818C7.50207 22.1311 7.53226 22.0869 7.57001 22.048C7.60884 22.0092 7.65414 21.979 7.70482 21.9585C7.75551 21.937 7.80836 21.9272 7.86337 21.9272C7.91837 21.9272 7.97014 21.937 8.02083 21.9585C8.07152 21.979 8.11681 22.0092 8.15564 22.048C8.19447 22.0869 8.22466 22.1311 8.24516 22.1818C8.26673 22.2325 8.27643 22.2853 8.27643 22.3403Z" fill="white"/>
<path d="M11.9995 1.6543C11.8237 1.6543 11.6479 1.66293 11.4732 1.68018C11.2974 1.69744 11.1238 1.72332 10.9512 1.75784C10.7776 1.79235 10.6072 1.83549 10.4389 1.88619C10.2707 1.93796 10.1046 1.99728 9.94171 2.06415C9.77886 2.1321 9.62032 2.20652 9.46501 2.28957C9.30971 2.37261 9.15872 2.46321 9.01204 2.56136C8.86536 2.65951 8.72408 2.76413 8.58819 2.87522C8.4523 2.98739 8.3218 3.10495 8.19669 3.23006C8.07266 3.3541 7.95403 3.4846 7.84294 3.62158C7.73077 3.75748 7.62616 3.89877 7.52802 4.04545C7.43095 4.19106 7.34036 4.34205 7.25731 4.49737C7.17427 4.65268 7.09877 4.8123 7.0319 4.97517C6.96396 5.13803 6.90464 5.30305 6.85395 5.4713C6.80218 5.64063 6.76012 5.81105 6.72561 5.98361C6.69109 6.15618 6.66521 6.33091 6.64795 6.50563C6.6307 6.68144 6.62207 6.85724 6.62207 7.03305C6.62207 7.20885 6.6307 7.38466 6.64795 7.56046C6.66521 7.73519 6.69109 7.90991 6.72561 8.08248C6.76012 8.25505 6.80218 8.42546 6.85395 8.59372C6.90464 8.76305 6.96396 8.92807 7.0319 9.09093C7.09877 9.25379 7.17427 9.41342 7.25731 9.56873C7.34036 9.72404 7.43095 9.87396 7.52802 10.0206C7.62616 10.1673 7.73077 10.3086 7.84294 10.4445C7.95403 10.5815 8.07266 10.7109 8.19669 10.836C8.3218 10.9601 8.4523 11.0787 8.58819 11.1909C8.72408 11.302 8.86536 11.4066 9.01204 11.5047C9.15872 11.6029 9.30971 11.6935 9.46501 11.7765C9.62032 11.8596 9.77886 11.934 9.94171 12.0019C10.1046 12.0688 10.2707 12.1281 10.4389 12.1799C10.6072 12.2306 10.7776 12.2737 10.9512 12.3083C11.1238 12.3417 11.2974 12.3676 11.4732 12.3848C11.6479 12.4021 11.8237 12.4107 11.9995 12.4107C12.0545 12.4107 12.1074 12.401 12.158 12.3794C12.2087 12.3589 12.254 12.3287 12.2929 12.2899C12.3317 12.2511 12.3608 12.2069 12.3824 12.1562C12.4029 12.1055 12.4136 12.0526 12.4136 11.9976C12.4136 11.9426 12.4029 11.8898 12.3824 11.8391C12.3608 11.7884 12.3317 11.7442 12.2929 11.7053C12.254 11.6665 12.2087 11.6363 12.158 11.6147C12.1074 11.5943 12.0545 11.5835 11.9995 11.5835C11.8507 11.5835 11.7018 11.577 11.5541 11.5619C11.4052 11.5468 11.2586 11.5252 11.1119 11.4961C10.9663 11.467 10.8218 11.4314 10.6794 11.3883C10.536 11.344 10.3958 11.2944 10.2588 11.2373C10.1207 11.1801 9.98593 11.1165 9.85435 11.0463C9.72385 10.9762 9.59551 10.8997 9.47148 10.8166C9.34746 10.7336 9.22882 10.6451 9.11342 10.5513C8.99802 10.4564 8.88801 10.3561 8.78232 10.2504C8.67662 10.1458 8.5774 10.0347 8.48249 9.92034C8.38759 9.80493 8.29915 9.68521 8.2161 9.56118C8.13306 9.43715 8.05648 9.30988 7.98638 9.17829C7.91628 9.04671 7.85265 8.91189 7.79549 8.77491C7.73832 8.63686 7.68871 8.49665 7.64557 8.35428C7.60243 8.21191 7.56576 8.06738 7.53664 7.9207C7.50752 7.77509 7.48595 7.62733 7.47085 7.47957C7.45683 7.33073 7.44928 7.18189 7.44928 7.03305C7.44928 6.88421 7.45683 6.73537 7.47085 6.58653C7.48595 6.43876 7.50752 6.291 7.53664 6.1454C7.56576 5.99871 7.60243 5.85419 7.64557 5.71182C7.68871 5.56945 7.73832 5.42924 7.79549 5.29118C7.85265 5.15421 7.91628 5.01939 7.98638 4.8878C8.05648 4.75622 8.13306 4.62895 8.2161 4.50492C8.29915 4.38088 8.38759 4.26116 8.48249 4.14576C8.5774 4.03035 8.67662 3.92034 8.78232 3.81464C8.88801 3.71002 8.99802 3.60972 9.11342 3.5148C9.22882 3.42097 9.34746 3.33145 9.47148 3.24948C9.59551 3.16643 9.72385 3.08985 9.85435 3.01975C9.98593 2.94964 10.1207 2.88601 10.2588 2.82884C10.3958 2.77168 10.536 2.72099 10.6794 2.67785C10.8218 2.6347 10.9663 2.59911 11.1119 2.56999C11.2586 2.54087 11.4052 2.51822 11.5541 2.5042C11.7018 2.4891 11.8507 2.48263 11.9995 2.48263C12.1494 2.48263 12.2982 2.4891 12.446 2.5042C12.5948 2.51822 12.7415 2.54087 12.8882 2.56999C13.0338 2.59911 13.1783 2.6347 13.3207 2.67785C13.4641 2.72099 13.6032 2.77168 13.7413 2.82884C13.8793 2.88601 14.0142 2.94964 14.1447 3.01975C14.2762 3.08985 14.4046 3.16643 14.5286 3.24948C14.6515 3.33145 14.7713 3.42097 14.8867 3.5148C15.0021 3.60972 15.1121 3.71002 15.2178 3.81464C15.3235 3.92034 15.4227 4.03035 15.5176 4.14576C15.6125 4.26116 15.7009 4.38088 15.784 4.50492C15.8659 4.62895 15.9425 4.75622 16.0137 4.8878C16.0838 5.01939 16.1474 5.15421 16.2046 5.29118C16.2607 5.42924 16.3114 5.56945 16.3545 5.71182C16.3977 5.85419 16.4343 5.99871 16.4634 6.1454C16.4926 6.291 16.5141 6.43876 16.5281 6.58653C16.5432 6.73537 16.5508 6.88421 16.5508 7.03305V8.27446C16.5508 8.3834 16.5292 8.4891 16.4872 8.59048C16.4451 8.69186 16.3858 8.78138 16.3081 8.85904C16.2305 8.9367 16.141 8.99602 16.0396 9.03808C15.9382 9.08014 15.8325 9.10172 15.7236 9.10172C15.6136 9.10172 15.5079 9.08014 15.4065 9.03808C15.3051 8.99602 15.2156 8.9367 15.138 8.85904C15.0603 8.78138 15.001 8.69186 14.9589 8.59048C14.9169 8.4891 14.8953 8.3834 14.8953 8.27446V7.03305C14.8964 6.92088 14.8899 6.80763 14.877 6.69654C14.864 6.58437 14.8457 6.47328 14.8198 6.36327C14.7939 6.25433 14.7626 6.14648 14.7238 6.0397C14.6861 5.934 14.6418 5.83046 14.5912 5.73015C14.5415 5.62877 14.4855 5.5317 14.424 5.43679C14.3625 5.34295 14.2956 5.25235 14.2234 5.16607C14.1511 5.07871 14.0745 4.99674 13.9926 4.91908C13.9117 4.84143 13.8254 4.76916 13.7359 4.70121C13.6453 4.63434 13.5515 4.57179 13.4544 4.51462C13.3573 4.45854 13.257 4.40677 13.1535 4.36255C13.05 4.31725 12.9454 4.27842 12.8375 4.24498C12.7297 4.21263 12.6207 4.18566 12.5096 4.16625C12.3985 4.14576 12.2864 4.13282 12.1742 4.12527C12.0621 4.11772 11.9499 4.11772 11.8366 4.12311C11.7245 4.12958 11.6134 4.14144 11.5023 4.16086C11.3912 4.18027 11.2812 4.20508 11.1734 4.23743C11.0655 4.26871 10.9587 4.30646 10.8552 4.35068C10.7517 4.3949 10.6514 4.44452 10.5532 4.5006C10.4551 4.55561 10.3613 4.61709 10.2707 4.68396C10.1801 4.75083 10.0927 4.82309 10.0107 4.89967C9.92877 4.97624 9.85112 5.05714 9.77778 5.14342C9.70444 5.2297 9.63757 5.31922 9.57502 5.41306C9.51247 5.50689 9.45531 5.60396 9.40354 5.70427C9.35285 5.80457 9.30755 5.90704 9.26872 6.01274C9.22882 6.11843 9.19646 6.22629 9.1695 6.33522C9.14254 6.44416 9.12205 6.55525 9.10911 6.66742C9.09509 6.77851 9.08754 6.89068 9.08646 7.00393C9.08538 7.1161 9.09185 7.22827 9.10371 7.34044C9.11665 7.45261 9.13499 7.5637 9.1598 7.67371C9.18568 7.78264 9.21696 7.89158 9.2547 7.99728C9.29245 8.10297 9.33559 8.20652 9.3852 8.3079C9.43589 8.40928 9.4909 8.50635 9.55237 8.60127C9.61277 8.69618 9.67964 8.78678 9.7519 8.87306C9.82308 8.96042 9.89965 9.04239 9.98054 9.12113C10.0625 9.19879 10.1477 9.27213 10.2372 9.34008C10.3278 9.40802 10.4206 9.47058 10.5176 9.52774C10.6147 9.58491 10.715 9.6356 10.8185 9.6809C10.921 9.72728 11.0267 9.7661 11.1345 9.79954C11.2413 9.83298 11.3513 9.85994 11.4613 9.88043C11.5724 9.90092 11.6835 9.91495 11.7967 9.92249C11.9089 9.93005 12.0211 9.93112 12.1332 9.92573C12.2465 9.92034 12.3576 9.9074 12.4687 9.88906C12.5797 9.87072 12.6897 9.84592 12.7976 9.81464C12.9065 9.78336 13.0122 9.74561 13.1158 9.70247C13.2204 9.65825 13.3207 9.60864 13.4188 9.55363C13.517 9.49862 13.6119 9.43715 13.7025 9.37135C13.7941 9.30448 13.8804 9.2333 13.9635 9.15672C14.0454 9.08014 14.1242 8.99925 14.1975 8.91405C14.2708 9.08985 14.3722 9.2484 14.5016 9.38969C14.63 9.53098 14.7788 9.64639 14.9481 9.73591C15.1164 9.82543 15.2954 9.88367 15.4852 9.91171C15.674 9.93867 15.8616 9.93436 16.0493 9.89661C16.237 9.85886 16.4128 9.79091 16.5756 9.69168C16.7395 9.59354 16.8819 9.47058 17.0038 9.32282C17.1246 9.17506 17.2173 9.01112 17.2809 8.831C17.3457 8.65088 17.378 8.46537 17.378 8.27446V7.03305C17.378 6.85724 17.3694 6.68144 17.3511 6.50563C17.3338 6.33091 17.3079 6.15726 17.2734 5.98469C17.2389 5.81105 17.1957 5.64063 17.1451 5.47238C17.0933 5.30413 17.034 5.13803 16.9671 4.97624C16.8992 4.81338 16.8237 4.65484 16.7406 4.49952C16.6576 4.34421 16.567 4.19321 16.4699 4.04653C16.3718 3.89985 16.2672 3.75856 16.155 3.62266C16.0439 3.48676 15.9253 3.35626 15.8012 3.23222C15.6761 3.10711 15.5456 2.98955 15.4097 2.87738C15.2738 2.76629 15.1326 2.66059 14.9859 2.56352C14.8403 2.46537 14.6893 2.37477 14.534 2.29172C14.3787 2.20867 14.2201 2.13318 14.0573 2.0663C13.8944 1.99836 13.7283 1.93904 13.5601 1.88834C13.3919 1.83657 13.2214 1.79343 13.0489 1.75892C12.8763 1.7244 12.7016 1.69852 12.5269 1.68126C12.3522 1.664 12.1764 1.65538 11.9995 1.6543ZM11.9995 9.10172C11.8647 9.10172 11.7299 9.08877 11.5961 9.06181C11.4635 9.03484 11.3341 8.99602 11.209 8.94425C11.0828 8.89248 10.9641 8.82884 10.8509 8.75334C10.7377 8.67784 10.633 8.59156 10.537 8.49557C10.4411 8.39958 10.3559 8.29496 10.2804 8.18171C10.2049 8.06954 10.1412 7.94982 10.0895 7.82471C10.0366 7.69959 9.9978 7.57017 9.97083 7.43643C9.94495 7.30376 9.93201 7.16895 9.93201 7.03305C9.93201 6.89715 9.94495 6.76233 9.97083 6.62967C9.9978 6.49593 10.0366 6.3665 10.0895 6.24139C10.1412 6.11628 10.2049 5.99656 10.2804 5.88331C10.3559 5.77114 10.4411 5.66652 10.537 5.57053C10.633 5.47454 10.7377 5.38825 10.8509 5.31275C10.9641 5.23725 11.0828 5.17362 11.209 5.12185C11.3341 5.07008 11.4635 5.03017 11.5961 5.00429C11.7299 4.97732 11.8647 4.96438 11.9995 4.96438C12.1354 4.96438 12.2702 4.97732 12.4039 5.00429C12.5366 5.03017 12.666 5.07008 12.7911 5.12185C12.9173 5.17362 13.0359 5.23725 13.1492 5.31275C13.2624 5.38825 13.367 5.47454 13.463 5.57053C13.559 5.66652 13.6442 5.77114 13.7197 5.88331C13.7952 5.99656 13.8588 6.11628 13.9106 6.24139C13.9635 6.3665 14.0023 6.49593 14.0282 6.62967C14.0551 6.76233 14.0681 6.89715 14.0681 7.03305C14.0681 7.16895 14.0551 7.30269 14.0282 7.43643C14.0012 7.56909 13.9624 7.69852 13.9106 7.82471C13.8578 7.94982 13.7941 8.06846 13.7186 8.18171C13.6431 8.29496 13.5579 8.3985 13.462 8.49449C13.366 8.59048 13.2614 8.67676 13.1481 8.75226C13.0359 8.82776 12.9162 8.8914 12.7911 8.94317C12.666 8.99494 12.5366 9.03484 12.4029 9.06181C12.2702 9.08769 12.1354 9.10172 11.9995 9.10172Z" fill="#C02027"/>
</svg>
