<svg width="80" height="81" viewBox="0 0 80 81" fill="none" xmlns="http://www.w3.org/2000/svg">
<g clip-path="url(#clip0_267_760)">
<path d="M54.5621 13.7341C52.5574 15.7388 48.8979 22.6936 48.8979 22.6936L48.6197 22.5686L37.0257 17.3372C34.6241 10.4932 35.4178 4.53217 37.796 4.53217C40.1368 4.53217 42.6712 10.3402 42.7509 10.5215C42.7181 10.3011 41.4165 1.71191 45.3291 1.71191C47.1183 1.71191 48.0996 3.05571 48.6386 4.53077C49.2933 6.32458 49.2933 8.31216 49.2933 8.31216C49.2933 8.31216 52.2591 1.57285 55.8327 2.56351C59.4045 3.55417 56.5685 11.7293 54.5621 13.7341Z" fill="#95D6A4"/>
<path d="M48.0056 20.2279C48.4291 21.1514 48.6213 21.9264 48.6197 22.5686L37.0257 17.3372C34.6241 10.4932 35.4178 4.53217 37.796 4.53217C40.1368 4.53217 42.6712 10.3402 42.7509 10.5215C42.7181 10.3011 41.4165 1.71191 45.3291 1.71191C47.1183 1.71191 48.0996 3.05571 48.6386 4.53077L48.6371 4.53233C47.2619 1.71191 43.2477 9.84175 48.0056 20.2279Z" fill="#78C2A4"/>
<path d="M66.3147 40.0902C77.6114 28.7935 82.0719 14.9385 76.2775 9.14415C70.4832 3.3498 56.6281 7.81033 45.3314 19.107C34.0347 30.4037 29.5742 44.2588 35.3686 50.0531C41.1629 55.8475 55.018 51.3869 66.3147 40.0902Z" fill="#E49542"/>
<path d="M35.3748 50.052C29.5797 44.2569 34.0412 30.3994 45.3386 19.102C56.6372 7.80341 70.4947 3.34184 76.2898 9.13705C73.8501 6.69743 62.713 13.8793 51.4143 25.1778C40.117 36.4753 32.9352 47.6125 35.3748 50.052Z" fill="#E28424"/>
<path d="M70.329 23.6117L61.815 15.0978C60.8344 14.1171 59.2445 14.1171 58.2638 15.0978C57.2832 16.0785 57.2832 17.6684 58.2638 18.649L66.7777 27.1629C67.7584 28.1436 69.3483 28.1436 70.329 27.1629C71.3096 26.1823 71.3096 24.5924 70.329 23.6117Z" fill="#E28424"/>
<path d="M35.7386 21.5578C35.6324 23.2688 35.3558 26.7658 34.7433 30.0251C34.5027 31.2986 33.637 32.358 32.4416 32.8565C31.3682 33.3034 30.2119 34.0456 30.2119 35.1613C30.2119 35.5175 30.2822 35.8363 30.4072 36.1207H13.9505C14.0755 35.8363 14.1458 35.5175 14.1458 35.1613C14.1458 34.0456 12.9895 33.3034 11.916 32.8565C10.7207 32.358 9.85502 31.2986 9.61595 30.0251C9.00187 26.7656 8.7253 23.2686 8.61904 21.5578C8.57216 20.8156 8.73936 20.0749 9.10968 19.4296C11.866 14.6388 17.4426 11.6121 17.4426 11.6121V3.90869H26.9163V11.6121C26.9163 11.6121 32.4931 14.6388 35.2478 19.4296C35.6199 20.0749 35.7855 20.8156 35.7386 21.5578Z" fill="#80B4FB"/>
<path d="M20.0961 7.21631V11.6102C20.0961 11.6102 16.0725 14.6385 14.4412 19.4293C14.2209 20.073 14.1224 20.8152 14.1505 21.5575C14.2146 23.2669 14.3771 26.7639 14.7412 30.0248C14.8818 31.2967 15.3943 32.3577 16.1037 32.8562C16.7381 33.3031 17.4225 34.0453 17.4225 35.1609C17.4225 35.5172 17.3819 35.836 17.3069 36.1203H13.9505C14.0755 35.836 14.1459 35.5172 14.1459 35.1609C14.1459 34.0453 12.9896 33.3031 11.9161 32.8562C10.7207 32.3577 9.85508 31.2967 9.616 30.0248C9.00036 26.7653 8.72535 23.2667 8.61909 21.5575C8.57222 20.8152 8.73785 20.073 9.10973 19.4293C11.8645 14.6385 17.4427 11.6102 17.4427 11.6102V7.21631H20.0961Z" fill="#61A2F9"/>
<path d="M25.823 1.84619H18.5356C17.3968 1.84619 16.4736 2.76935 16.4736 3.90814V7.21702H27.885V3.9083C27.885 2.76935 26.9618 1.84619 25.823 1.84619Z" fill="#DB5B6F"/>
<path d="M22.6231 1.84668C21.4844 1.84668 20.5608 2.7689 20.5608 3.90754V7.21688H16.4736V3.90754C16.4736 2.7689 17.3973 1.84668 18.5359 1.84668H22.6231Z" fill="#D54653"/>
<path d="M74.368 43.1411C74.368 43.1411 74.2992 45.4193 74.0726 48.9632C73.7445 54.0806 73.0882 61.837 71.8351 69.1841C70.8772 74.8031 66.0239 78.9218 60.3239 78.9218H19.6759C13.9757 78.9218 9.12259 74.8029 8.16474 69.1841C6.91157 61.837 6.2553 54.0806 5.92716 48.9632C5.70059 45.4193 5.63184 43.1411 5.63184 43.1411H74.368Z" fill="#DB5B6F"/>
<path d="M74.3672 43.1411C74.3672 43.1411 74.2984 45.4193 74.0718 48.9632C73.7109 49.0413 73.339 49.0851 72.9593 49.0929C50.9852 49.5148 29.0128 49.5148 7.03872 49.0929C6.65902 49.0851 6.28713 49.0413 5.92618 48.9632C5.69961 45.4193 5.63086 43.1411 5.63086 43.1411H74.3672Z" fill="#D54653"/>
<path d="M24.697 78.9217H19.675C13.9748 78.9217 9.12161 74.8028 8.16377 69.184C6.04337 56.7508 5.63086 43.1411 5.63086 43.1411H14.1234C14.1234 43.1411 14.4343 56.7508 16.0297 69.184C16.7516 74.8028 20.4048 78.9217 24.697 78.9217Z" fill="#D54653"/>
<path d="M50.5062 18.5131C41.5191 17.5468 32.5321 17.096 23.5452 18.0623C22.5566 26.8469 22.5566 35.6314 23.5452 44.4161C32.5322 45.3824 41.5193 45.3824 50.5062 44.4161C51.4947 35.6316 51.4947 27.2978 50.5062 18.5131Z" fill="#ECECEC"/>
<path d="M26.7066 44.716C25.6534 44.6301 24.5987 44.5301 23.5455 44.416C22.5564 35.6315 22.5564 26.8468 23.5455 18.0622C24.5987 17.9497 25.6534 17.8497 26.7066 17.7622C25.73 26.7468 25.73 35.7313 26.7066 44.716Z" fill="#DADADA"/>
<path d="M72.9596 45.9207C50.9866 46.343 29.0135 46.343 7.04045 45.9207C4.30832 45.8682 1.97636 43.9234 1.43306 41.2454C1.08351 39.5225 1.08351 37.7996 1.43306 36.0766C1.97636 33.3985 4.30848 31.4537 7.04045 31.4012C29.0135 30.9789 50.9866 30.9789 72.9596 31.4012C75.6917 31.4537 78.0237 33.3985 78.567 36.0766C78.9166 37.7994 78.9166 39.5223 78.567 41.2454C78.0237 43.9233 75.6917 45.868 72.9596 45.9207Z" fill="#FFD064"/>
<path d="M12.6563 46.0172C10.7843 45.9891 8.91083 45.9563 7.03889 45.9204C4.30754 45.8672 1.97464 43.9234 1.43243 41.2452C1.08242 39.5217 1.08242 37.7998 1.43243 36.0763C1.97464 33.398 4.30754 31.4526 7.03889 31.4011C8.91083 31.3651 10.7843 31.3323 12.6563 31.3042C10.4265 31.8573 8.65301 33.6512 8.18268 35.9778C7.81861 37.7669 7.81861 39.5545 8.18268 41.3421C8.65301 43.6689 10.4265 45.4643 12.6563 46.0172Z" fill="#FFC250"/>
<path d="M24.5063 52.5923C24.4818 52.5923 24.4574 52.5923 24.4329 52.5923C22.3948 52.5971 20.732 54.2411 20.6709 56.278C20.5759 59.4471 20.5759 62.6161 20.6709 65.7851C20.732 67.8222 22.395 69.466 24.4329 69.4709H24.5063C26.5444 69.466 28.2072 67.8221 28.2683 65.7851C28.3633 62.6161 28.3633 59.4471 28.2683 56.278C28.2072 54.2409 26.5442 52.5971 24.5063 52.5923Z" fill="#365E7D"/>
<path d="M40.0366 52.5923C40.0121 52.5923 39.9877 52.5923 39.9632 52.5923C37.9251 52.5971 36.2622 54.2411 36.2011 56.278C36.1061 59.4471 36.1061 62.6161 36.2011 65.7851C36.2622 67.8222 37.9253 69.466 39.9632 69.4709H40.0366C42.0746 69.466 43.7375 67.8221 43.7986 65.7851C43.8936 62.6161 43.8936 59.4471 43.7986 56.278C43.7375 54.2409 42.0746 52.5971 40.0366 52.5923Z" fill="#365E7D"/>
<path d="M55.5659 52.5923C55.5415 52.5923 55.517 52.5923 55.4924 52.5923C53.4544 52.5971 51.7915 54.2411 51.7304 56.278C51.6354 59.4471 51.6354 62.6161 51.7304 65.7851C51.7915 67.8222 53.4546 69.466 55.4924 69.4709H55.5659C57.6039 69.466 59.2668 67.8221 59.3279 65.7851C59.4229 62.6161 59.4229 59.4471 59.3279 56.278C59.2668 54.2409 57.6038 52.5971 55.5659 52.5923Z" fill="#365E7D"/>
<path d="M20.3853 36.594C19.5617 36.1778 18.7006 35.8643 17.8021 35.6538C15.9467 35.2191 14.0591 36.2434 13.363 38.0173C9.88696 46.876 6.63341 55.8154 3.60189 64.8357C2.99483 66.642 3.78236 68.64 5.48321 69.4998C6.30683 69.916 7.16796 70.2295 8.06643 70.44C9.92181 70.8747 11.8094 69.8504 12.5055 68.0764C15.9816 59.2178 19.2351 50.2784 22.2666 41.2581C22.8735 39.4516 22.086 37.4536 20.3853 36.594Z" fill="#407093"/>
<path d="M6.55466 69.9748C6.18965 69.8353 5.83167 69.6768 5.48212 69.4997C3.78097 68.641 2.99375 66.6419 3.60112 64.8359C6.63295 55.8162 9.8865 46.8771 13.3623 38.0172C14.0578 36.2434 15.9453 35.2193 17.8009 35.6537C18.1824 35.7428 18.5567 35.8523 18.9243 35.9795C17.7184 36.3005 16.6869 37.1838 16.2044 38.4133C12.5833 47.6457 9.19304 56.9608 6.03324 66.3595C5.61182 67.613 5.83526 68.9548 6.55466 69.9748Z" fill="#365E7D"/>
<path d="M62.1973 35.6534C61.2988 35.8639 60.4377 36.1773 59.6141 36.5936C57.9132 37.4531 57.1257 39.4512 57.7327 41.2577C60.7641 50.278 64.0178 59.2175 67.4939 68.076C68.19 69.85 70.0776 70.8744 71.933 70.4395C72.8314 70.229 73.6926 69.9156 74.5162 69.4993C76.217 68.6398 77.0046 66.6417 76.3975 64.8353C73.3661 55.8149 70.1124 46.8754 66.6364 38.0169C65.9404 36.2429 64.0527 35.2185 62.1973 35.6534Z" fill="#407093"/>
<path d="M73.0597 70.1144C72.6905 70.242 72.3144 70.3508 71.9326 70.4397C70.0776 70.8755 68.1895 69.85 67.494 68.0762C64.0188 59.2179 60.7652 50.2788 57.7329 41.2575C57.1255 39.4517 57.9132 37.454 59.6139 36.5938C59.9635 36.4166 60.3205 36.26 60.6839 36.1211C59.9664 37.1422 59.7441 38.4818 60.1647 39.7337C63.3251 49.1341 66.7154 58.449 70.3363 67.6801C70.8193 68.9111 71.8528 69.7953 73.0597 70.1144Z" fill="#365E7D"/>
<path d="M57.4362 14.2688C56.7406 14.9644 56.3574 15.8893 56.3574 16.8731C56.3574 17.8569 56.7406 18.7818 57.4361 19.4774L65.95 27.9913C66.6456 28.687 67.5705 29.07 68.5541 29.07C69.5379 29.07 70.4628 28.6868 71.1583 27.9913C71.8539 27.2957 72.2371 26.3708 72.2371 25.387C72.2371 24.4032 71.8539 23.4784 71.1584 22.7827L62.6445 14.2686C61.2087 12.8328 58.8719 12.8331 57.4362 14.2688ZM69.5012 24.4401C69.754 24.6929 69.8934 25.0293 69.8934 25.387C69.8934 25.7447 69.754 26.0809 69.501 26.3339C69.2482 26.5869 68.9118 26.7261 68.5541 26.7261C68.1965 26.7261 67.8602 26.5869 67.6072 26.3339L59.0933 17.8199C58.8405 17.567 58.7011 17.2306 58.7011 16.8729C58.7011 16.5153 58.8405 16.179 59.0935 15.926C59.3544 15.6649 59.6972 15.5345 60.0404 15.5345C60.3832 15.5345 60.7263 15.6649 60.9873 15.926L69.5012 24.4401Z" fill="black"/>
<path d="M79.7151 35.8438C79.2251 33.423 77.4773 31.4812 75.2416 30.6569C80.7857 21.4074 81.5545 12.7455 77.119 8.30984C75.1733 6.3643 72.3554 5.36817 68.9639 5.43067C68.3168 5.44254 67.8018 5.97678 67.8137 6.62384C67.8254 7.26371 68.3478 7.77435 68.985 7.77435C68.9923 7.77435 68.9997 7.77435 69.007 7.77419C71.7817 7.72279 73.956 8.46125 75.4618 9.96709C77.7905 12.2958 77.8533 15.8339 77.4961 18.3919C76.9908 22.0096 75.3541 26.0893 72.7581 30.2253C65.9989 30.0964 59.2107 30.0074 52.4114 29.9586C52.3672 25.9672 52.1203 21.9272 51.6714 17.9307C51.61 17.385 51.1781 16.955 50.6321 16.8963C50.2826 16.8587 49.9326 16.8253 49.5829 16.7906C54.5301 12.6072 59.8192 9.66036 64.6878 8.40422C65.3145 8.24249 65.6914 7.60341 65.5297 6.97666C65.3681 6.34992 64.7286 5.97288 64.1022 6.13476C62.2365 6.61618 60.3176 7.32621 58.3834 8.2414C58.7601 6.60337 58.9396 4.6397 58.2205 3.17449C57.7874 2.29149 57.0702 1.68944 56.1467 1.43333C54.7784 1.05426 52.6528 1.25333 50.2913 4.35579C50.1771 4.50595 50.0666 4.6572 49.9604 4.80768C49.9476 4.76314 49.9346 4.71877 49.9212 4.67424C49.4571 3.13012 48.2439 0.539551 45.3297 0.539551C44.3177 0.539551 43.4353 0.943003 42.7775 1.70616C41.9188 2.7026 41.5432 4.25031 41.4083 5.79287C40.3828 4.44407 39.1404 3.35997 37.7966 3.35997C36.9236 3.35997 36.1275 3.80467 35.5552 4.6122C34.0473 6.73947 34.0254 11.3496 35.4261 16.1798C35.0753 16.1842 34.7247 16.1922 34.374 16.1995C32.078 13.5203 29.3026 11.6765 28.0886 10.9387V8.36984C28.6388 8.27343 29.0571 7.79451 29.0571 7.21667V3.90796C29.0571 2.12477 27.6064 0.674087 25.8232 0.674087H18.5358C16.7526 0.674087 15.3019 2.12477 15.3019 3.90796V7.21667C15.3019 7.79451 15.7205 8.27343 16.2707 8.36984L16.2698 10.9382C14.6875 11.8992 10.4608 14.7316 8.09524 18.8444C7.61272 19.6798 7.38928 20.6426 7.44975 21.631C7.56319 23.4321 7.84492 26.9338 8.45729 30.2038C7.97742 30.2125 7.49709 30.2205 7.01754 30.2297C3.76242 30.2911 0.930757 32.6523 0.284796 35.8434C-0.0949059 37.713 -0.0949058 39.609 0.284639 41.4776C0.758719 43.823 2.42019 45.7587 4.61464 46.6133C4.7434 48.9988 4.96388 52.3915 5.32483 56.2472C4.35745 58.9872 3.40991 61.7281 2.49081 64.4633C1.7 66.8195 2.75879 69.4344 4.95512 70.5467C5.79078 70.9684 6.66941 71.2958 7.56866 71.5233C8.40916 73.9066 9.90921 75.9628 11.9418 77.4996C14.1862 79.1965 16.8607 80.0934 19.6761 80.0934H60.3241C63.1395 80.0934 65.8139 79.1965 68.0584 77.4996C70.0911 75.9627 71.5912 73.9063 72.4317 71.5227C73.3352 71.2931 74.2136 70.9654 75.0455 70.545C77.2423 69.4348 78.3014 66.8195 77.5092 64.4618C76.5893 61.7248 75.6421 58.9841 74.6755 56.2461C75.0363 52.3905 75.2568 48.9981 75.3855 46.6127C77.5825 45.7561 79.2419 43.8215 79.7152 41.4787C80.0948 39.6088 80.0948 37.7128 79.7151 35.8438ZM49.4433 19.1299C49.8183 22.7285 50.0268 26.3568 50.0677 29.9449C41.3752 29.8944 32.6685 29.9086 23.9847 29.9889C24.0246 26.3869 24.2332 22.7438 24.6096 19.1298C32.8537 18.3072 41.1988 18.3072 49.4433 19.1299ZM37.4673 5.96756C37.5526 5.84725 37.679 5.7038 37.7966 5.7038C38.6404 5.7038 40.4102 8.11108 41.6688 10.9703C41.876 11.4768 42.4098 11.7747 42.9536 11.6804C43.5151 11.5829 43.9252 11.0957 43.9252 10.5257C43.9252 10.4544 43.9184 10.383 43.9053 10.3127C43.3195 6.35273 43.9706 3.91186 44.5532 3.23606C44.7663 2.9887 44.9986 2.88323 45.3299 2.88323C48.0316 2.88323 48.122 8.25874 48.1222 8.31156C48.1222 8.86548 48.5102 9.34331 49.0521 9.45769C49.5949 9.57223 50.1424 9.29113 50.3663 8.78439C51.2042 6.88916 53.5641 3.15027 55.5201 3.69217C55.7986 3.76936 55.9769 3.92343 56.1159 4.20719C56.6145 5.22316 56.3477 7.47028 55.4747 9.7663C52.3753 11.5481 49.2841 13.8272 46.3528 16.5128C43.5323 16.3061 40.7036 16.1933 37.8742 16.1745C36.2413 11.0553 36.6238 7.15761 37.4673 5.96756ZM25.7448 10.4391H18.6139L18.6147 8.38859H25.745L25.7448 10.4391ZM18.5358 3.01777H25.8232C26.314 3.01777 26.7133 3.417 26.7133 3.9078V6.04429H17.6458V3.90796C17.6458 3.41716 18.045 3.01777 18.5358 3.01777ZM10.768 29.8094C10.1738 26.6538 9.89953 23.2385 9.78905 21.4858C9.75702 20.9605 9.87312 20.4525 10.1259 20.0148C12.3612 16.1284 16.6813 13.4157 17.7548 12.7828H26.6036C27.2885 13.186 29.2985 14.4374 31.2444 16.3025C28.6302 16.4209 26.0204 16.6172 23.4213 16.8964C22.8752 16.955 22.4431 17.385 22.3819 17.9308C21.9311 21.946 21.684 26.0041 21.6414 30.0127C18.0431 30.051 14.4491 30.0994 10.8627 30.1602C10.8242 30.0458 10.7908 29.9292 10.768 29.8094ZM6.98848 47.0908C6.99833 47.0911 7.00801 47.0921 7.01786 47.0922L7.05536 47.0928C7.58085 47.1027 8.10634 47.1113 8.63198 47.1207C8.16228 48.3832 7.69585 49.6472 7.2349 50.913C7.13161 49.4853 7.05098 48.1973 6.98848 47.0908ZM60.3239 77.7494H19.676C15.5375 77.7494 11.7901 75.2654 10.1088 71.5597C11.6483 71.1758 12.9834 70.0676 13.5962 68.5047C14.2716 66.7833 14.8852 65.1973 15.4722 63.6564C15.7027 63.0516 15.3993 62.3745 14.7944 62.144C14.1895 61.9137 13.5125 62.217 13.282 62.8219C12.6976 64.3557 12.0866 65.9345 11.4141 67.6491C10.9285 68.8877 9.60467 69.5973 8.33181 69.2982C7.53209 69.1118 6.75129 68.8279 6.01251 68.4549C4.84825 67.8653 4.28947 66.4698 4.71262 65.2094C7.71726 56.2682 10.9947 47.2636 14.4538 38.4463C14.9402 37.2073 16.2649 36.4973 17.5343 36.7946C18.3419 36.9842 19.1228 37.2686 19.8568 37.6405C21.0213 38.2286 21.5796 39.6235 21.1556 40.8853C19.1892 46.7361 17.096 52.6441 14.9338 58.4453C14.7077 59.0517 15.0161 59.7266 15.6226 59.9527C16.2291 60.1789 16.9038 59.8703 17.1299 59.2639C18.6034 55.3105 20.0438 51.3077 21.4354 47.3069C27.5975 47.3738 33.7981 47.4083 39.9999 47.4083C46.2021 47.4083 52.4034 47.3739 58.566 47.3069C61.04 54.4198 63.6657 61.5268 66.4035 68.5036C67.0165 70.0665 68.3517 71.1747 69.8914 71.5587C68.2104 75.265 64.4625 77.7494 60.3239 77.7494ZM73.9881 68.453C73.2512 68.8254 72.4701 69.1097 71.6663 69.298C70.3965 69.5957 69.0717 68.8861 68.5854 67.6474C65.1334 58.8502 61.8561 49.8456 58.8443 40.8839C58.4204 39.6226 58.9788 38.2275 60.1434 37.6391C60.88 37.2667 61.6613 36.9823 62.4651 36.794C62.6599 36.7484 62.856 36.7264 63.0501 36.7264C64.1218 36.7264 65.1344 37.3959 65.546 38.4447C68.998 47.2419 72.2753 56.2465 75.2871 65.2084C75.711 66.4697 75.1526 67.8645 73.9881 68.453ZM71.3688 47.1207C71.8935 47.1113 72.4184 47.1027 72.9431 47.0928L72.985 47.0921C72.9939 47.0919 73.0028 47.091 73.0117 47.0908C72.9491 48.1968 72.8684 49.4843 72.7653 50.9114C72.3043 49.6457 71.8381 48.3824 71.3688 47.1207ZM77.4178 41.0132C77.0634 42.7667 75.7121 44.1785 73.968 44.6113C73.6392 44.6951 73.2917 44.7413 72.9383 44.7487L72.8994 44.7495C72.0984 44.7645 71.2976 44.7784 70.4966 44.792C69.5872 42.3792 68.6645 39.9759 67.7278 37.5886C66.8194 35.273 64.3262 33.9505 61.9304 34.5121C60.9455 34.7429 59.9884 35.0911 59.086 35.5474C56.8892 36.6576 55.8301 39.2729 56.6223 41.6306C56.9964 42.7436 57.3746 43.8573 57.7566 44.971C45.9637 45.0935 34.035 45.0935 22.242 44.971C22.6242 43.8569 23.0036 42.7433 23.3769 41.6322C24.1699 39.2736 23.1106 36.6582 20.9145 35.549C20.0157 35.0936 19.0586 34.745 18.0692 34.5127C15.6733 33.9516 13.1809 35.2744 12.2716 37.59C11.3346 39.9784 10.4122 42.3813 9.50357 44.7921C8.70198 44.7785 7.90023 44.7645 7.09864 44.7496L7.06411 44.749C6.70769 44.7415 6.36049 44.6953 6.02485 44.6098C4.2876 44.1787 2.93599 42.7669 2.58144 41.0123C2.26471 39.4521 2.26471 37.87 2.5816 36.3092C3.01162 34.1853 4.89575 32.6142 7.06192 32.5732C28.9179 32.1537 51.0815 32.1537 72.9378 32.5732C75.1037 32.6142 76.9878 34.1853 77.418 36.3099C77.735 37.8698 77.735 39.4519 77.4178 41.0132Z" fill="black"/>
<path d="M24.5098 51.4199H24.4307C21.7469 51.4263 19.581 53.5447 19.5001 56.2426C19.4049 59.4201 19.4049 62.6424 19.5001 65.8198C19.581 68.5176 21.7467 70.636 24.4317 70.6425H24.5098C27.1936 70.636 29.3595 68.5177 29.4404 65.8198C29.5356 62.6424 29.5356 59.4201 29.4404 56.2426C29.3594 53.5445 27.1936 51.4263 24.5098 51.4199ZM27.0976 65.7495C27.0555 67.1518 25.892 68.2952 24.5051 68.2985H24.4364C23.0483 68.2952 21.8849 67.1516 21.8428 65.7495C21.7489 62.6186 21.7489 59.4437 21.8428 56.3128C21.8849 54.9105 23.0483 53.767 24.4371 53.7638H24.5032H24.504C25.892 53.767 27.0555 54.9105 27.0976 56.3128C27.1915 59.4437 27.1915 62.6186 27.0976 65.7495Z" fill="black"/>
<path d="M40.0391 51.4199H39.96C37.2762 51.4263 35.1103 53.5447 35.0294 56.2426C34.9342 59.4201 34.9342 62.6424 35.0294 65.8198C35.1103 68.5176 37.276 70.636 39.961 70.6425H40.0391C42.7231 70.636 44.8888 68.5176 44.9697 65.8198C45.0649 62.6424 45.0649 59.4201 44.9697 56.2426C44.8888 53.5447 42.7231 51.4263 40.0391 51.4199ZM42.6268 65.7495C42.5848 67.1518 41.4215 68.2952 40.0346 68.2985H39.9658C38.5778 68.2952 37.4143 67.1516 37.3723 65.7495C37.2784 62.6186 37.2784 59.4437 37.3723 56.3128C37.4143 54.9105 38.5778 53.767 39.9666 53.7638H40.0327H40.0335C41.4215 53.767 42.5848 54.9105 42.6268 56.3128C42.7208 59.4437 42.7208 62.6186 42.6268 65.7495Z" fill="black"/>
<path d="M55.5692 51.4199H55.4903C52.8063 51.4263 50.6406 53.5447 50.5597 56.2426C50.4645 59.4201 50.4645 62.6424 50.5597 65.8198C50.6406 68.5176 52.8063 70.6361 55.4912 70.6425H55.5694C58.2534 70.636 60.4191 68.5176 60.5 65.8198C60.5952 62.6424 60.5952 59.4201 60.5 56.2426C60.4191 53.5447 58.2534 51.4263 55.5692 51.4199ZM58.1571 65.7495C58.1151 67.1518 56.9518 68.2952 55.5647 68.2985H55.4961C54.1081 68.2952 52.9447 67.1516 52.9027 65.7495C52.8086 62.6186 52.8086 59.4437 52.9027 56.3128C52.9447 54.9105 54.1081 53.767 55.4969 53.7638H55.563H55.5639C56.9519 53.767 58.1152 54.9105 58.1573 56.3128C58.251 59.4437 58.251 62.6186 58.1571 65.7495Z" fill="black"/>
</g>
<defs>
<clipPath id="clip0_267_760">
<rect width="80" height="80" fill="white" transform="translate(0 0.316406)"/>
</clipPath>
</defs>
</svg>
