<svg width="40" height="40" viewBox="0 0 40 40" fill="none" xmlns="http://www.w3.org/2000/svg">
<path fill-rule="evenodd" clip-rule="evenodd" d="M30.1224 39.8449C26.2386 38.8719 18.2876 36.1285 11.0795 28.9205C3.87144 21.7124 1.12817 13.7615 0.155078 9.87763C-0.404131 7.64566 0.602873 5.49186 2.31036 4.27221L6.78667 1.07485C9.4058 -0.795946 13.0493 -0.161121 14.8814 2.48523L17.6995 6.55587C18.8957 8.28379 18.4832 10.6521 16.773 11.8736L14.5259 13.4786C14.866 14.7795 15.9238 17.451 19.2364 20.7636C22.5491 24.0763 25.2205 25.1339 26.5214 25.474L28.1264 23.2269C29.348 21.5169 31.7163 21.1041 33.4441 22.3004L37.5148 25.1185C40.1611 26.9507 40.796 30.5941 38.9251 33.2133L35.7278 37.6897C34.5081 39.3971 32.3544 40.4042 30.1224 39.8449ZM13.7985 26.2015C20.3535 32.7564 27.5871 35.2456 31.0568 36.115C31.564 36.2419 32.1771 36.0449 32.5987 35.4546L35.7962 30.9782C36.4197 30.1054 36.2082 28.8909 35.326 28.28L31.2554 25.4619L29.533 27.8734C28.8291 28.8589 27.5273 29.6318 26.0115 29.3048C24.1197 28.8966 20.6224 27.5875 16.5175 23.4826C12.4125 19.3776 11.1034 15.8804 10.6952 13.9885C10.3682 12.4728 11.1411 11.171 12.1266 10.4671L14.538 8.7446L11.7199 4.67396C11.1092 3.79183 9.8947 3.58023 9.02166 4.20383L4.54535 7.4012C3.95503 7.82284 3.75795 8.43596 3.88501 8.94311C4.75438 12.4129 7.24358 19.6466 13.7985 26.2015Z" fill="white"/>
<path d="M20.7529 13.6281C23.4608 13.4005 27.2331 16.0751 27.7331 19.6229" stroke="#D9D9D9" stroke-opacity="0.1" stroke-width="3"/>
<path d="M20.7568 6.98007C23.5698 6.74357 33.1618 7.58936 33.814 18.1573" stroke="#D9D9D9" stroke-opacity="0.1" stroke-width="3"/>
</svg>
