<svg width="80" height="81" viewBox="0 0 80 81" fill="none" xmlns="http://www.w3.org/2000/svg">
<path d="M19.6412 38.1541L13.9787 21.8416C13.7392 20.8862 13.1476 20.0566 12.3225 19.5189C11.4973 18.9811 10.4995 18.7749 9.52873 18.9416C9.03094 19.0477 8.55989 19.2538 8.14414 19.5475C7.72839 19.8411 7.3766 20.2161 7.11011 20.6497C6.84361 21.0833 6.66796 21.5666 6.59381 22.0701C6.51966 22.5737 6.54855 23.0871 6.67873 23.5791L12.5037 41.5666L19.6412 38.1541Z" fill="#FFAC96"/>
<path d="M60.3662 38.1541L66.0287 21.8416C66.2682 20.8862 66.8598 20.0566 67.685 19.5189C68.5101 18.9811 69.508 18.7749 70.4787 18.9416C70.9765 19.0477 71.4476 19.2538 71.8633 19.5475C72.2791 19.8411 72.6308 20.2161 72.8973 20.6497C73.1638 21.0833 73.3395 21.5666 73.4136 22.0701C73.4878 22.5737 73.4589 23.0871 73.3287 23.5791L67.5037 41.5666L60.3662 38.1541Z" fill="#FFAC96"/>
<path d="M31.3112 44.9191L20.2612 38.4416C19.4966 38 18.6004 37.8429 17.7312 37.9983C16.8619 38.1536 16.0756 38.6113 15.5112 39.2904L11.4787 26.8416C11.2392 25.8862 10.6476 25.0566 9.82248 24.5189C8.99731 23.9811 7.99946 23.7749 7.02873 23.9416C6.53094 24.0477 6.05989 24.2538 5.64414 24.5475C5.22839 24.8411 4.8766 25.2161 4.61011 25.6497C4.34361 26.0833 4.16796 26.5666 4.09381 27.0701C4.01966 27.5737 4.04855 28.0871 4.17873 28.5791L9.61623 48.8666C9.86566 49.8155 10.3922 50.6684 11.1287 51.3166L19.5787 58.8291C20.1059 59.2985 20.5278 59.8743 20.8165 60.5185C21.1052 61.1627 21.2542 61.8607 21.2537 62.5666V66.5666H36.2537V53.5466C36.2539 51.8024 35.7978 50.0885 34.9307 48.575C34.0637 47.0616 32.8159 45.8012 31.3112 44.9191Z" fill="#FFBCAB"/>
<path d="M72.9789 23.9416C72.0082 23.7749 71.0103 23.9811 70.1852 24.5189C69.36 25.0566 68.7684 25.8862 68.5289 26.8416L64.4914 39.2904C63.927 38.6113 63.1407 38.1536 62.2715 37.9983C61.4022 37.8429 60.506 38 59.7414 38.4416L48.6914 44.9191C47.1876 45.8019 45.9408 47.0625 45.0747 48.5759C44.2086 50.0893 43.7533 51.8029 43.7539 53.5466V66.5666H58.7539V62.5666C58.7534 61.8607 58.9025 61.1627 59.1912 60.5185C59.4799 59.8743 59.9017 59.2985 60.4289 58.8291L68.8789 51.3166C69.6154 50.6684 70.142 49.8155 70.3914 48.8666L75.8289 28.5791C75.9591 28.0871 75.988 27.5737 75.9138 27.0701C75.8397 26.5666 75.664 26.0833 75.3975 25.6497C75.131 25.2161 74.7792 24.8411 74.3635 24.5475C73.9477 24.2538 73.4767 24.0477 72.9789 23.9416Z" fill="#FFBCAB"/>
<path d="M42.5039 66.5664V76.5664H60.0039V66.5664H58.7539H43.7539H42.5039Z" fill="#006DF0"/>
<path d="M37.5039 66.5664H36.2539H21.2539H20.0039V76.5664H37.5039V66.5664Z" fill="#006DF0"/>
<path d="M56.8034 23.5165L55.9159 24.404L40.0034 40.3165L24.0909 24.404L23.2034 23.5165C22.1223 22.48 21.2591 21.2381 20.6644 19.8636C20.0696 18.4891 19.7553 17.0097 19.7399 15.5121C19.7244 14.0145 20.0081 12.5289 20.5744 11.1424C21.1406 9.75597 21.978 8.49651 23.0374 7.43792C24.0968 6.37933 25.357 5.54294 26.7439 4.97777C28.1308 4.41261 29.6166 4.13006 31.1142 4.14669C32.6118 4.16332 34.0909 4.4788 35.465 5.07463C36.839 5.67045 38.0802 6.53463 39.1159 7.61648L40.0034 8.50398L40.8909 7.61648C41.9265 6.53463 43.1677 5.67045 44.5418 5.07463C45.9158 4.4788 47.395 4.16332 48.8925 4.14669C50.3901 4.13006 51.8759 4.41261 53.2628 4.97777C54.6498 5.54294 55.9099 6.37933 56.9693 7.43792C58.0287 8.49651 58.8661 9.75597 59.4324 11.1424C59.9986 12.5289 60.2823 14.0145 60.2669 15.5121C60.2514 17.0097 59.9371 18.4891 59.3424 19.8636C58.7476 21.2381 57.8844 22.48 56.8034 23.5165Z" fill="#D80027"/>
<path d="M56.8039 7.6166C55.6147 6.41469 54.1671 5.49968 52.5712 4.94107C50.9753 4.38247 49.2731 4.19498 47.5939 4.39285C49.6991 4.62616 51.6957 5.44946 53.3534 6.76789C55.0112 8.08633 56.2628 9.84626 56.964 11.8449C57.6653 13.8436 57.7876 15.9998 57.317 18.0649C56.8464 20.1301 55.8019 22.0203 54.3039 23.5178L53.4164 24.4053L38.7539 39.0666L40.0039 40.3166L55.9164 24.4041L56.8039 23.5166C58.9107 21.4072 60.094 18.5479 60.094 15.5666C60.094 12.5853 58.9107 9.72598 56.8039 7.6166Z" fill="#BD0022"/>
<path d="M42.5039 27.8164V22.8164H47.5039V17.8164H42.5039V12.8164H37.5039V17.8164H32.5039V22.8164H37.5039V27.8164H42.5039Z" fill="#F1F2F2"/>
<path d="M63.4962 42.4414L55.1412 47.0664C54.9025 47.2047 54.7254 47.4289 54.6462 47.6932C54.567 47.9575 54.5916 48.2421 54.715 48.4889C54.781 48.6209 54.8732 48.738 54.9862 48.833C55.0991 48.928 55.2302 48.9989 55.3716 49.0412C55.5129 49.0836 55.6614 49.0966 55.808 49.0795C55.9545 49.0623 56.096 49.0153 56.2237 48.9414L63.4962 44.9414C64.2555 44.5013 64.8364 43.8087 65.1376 42.9844C65.4389 42.1601 65.4415 41.2562 65.145 40.4302C64.8558 41.2774 64.2703 41.9916 63.4962 42.4414Z" fill="#FFAC96"/>
<path d="M16.5109 42.4414L24.8659 47.0664C25.1047 47.2047 25.2817 47.4289 25.3609 47.6932C25.4401 47.9575 25.4155 48.2421 25.2921 48.4889C25.2262 48.6209 25.1339 48.738 25.021 48.833C24.908 48.928 24.7769 48.9989 24.6355 49.0412C24.4942 49.0836 24.3457 49.0966 24.1991 49.0795C24.0526 49.0623 23.9111 49.0153 23.7834 48.9414L16.5109 44.9414C15.7516 44.5013 15.1707 43.8087 14.8695 42.9844C14.5682 42.1601 14.5656 41.2562 14.8621 40.4302C15.1513 41.2774 15.7368 41.9916 16.5109 42.4414Z" fill="#FFAC96"/>
<path d="M47.5039 16.5664H43.7539V12.8164C43.7539 12.4849 43.6222 12.1669 43.3878 11.9325C43.1534 11.6981 42.8354 11.5664 42.5039 11.5664H37.5039C37.1724 11.5664 36.8544 11.6981 36.62 11.9325C36.3856 12.1669 36.2539 12.4849 36.2539 12.8164V16.5664H32.5039C32.1724 16.5664 31.8544 16.6981 31.62 16.9325C31.3856 17.1669 31.2539 17.4849 31.2539 17.8164V22.8164C31.2539 23.1479 31.3856 23.4659 31.62 23.7003C31.8544 23.9347 32.1724 24.0664 32.5039 24.0664H36.2539V27.8164C36.2539 28.1479 36.3856 28.4659 36.62 28.7003C36.8544 28.9347 37.1724 29.0664 37.5039 29.0664H42.5039C42.8354 29.0664 43.1534 28.9347 43.3878 28.7003C43.6222 28.4659 43.7539 28.1479 43.7539 27.8164V24.0664H47.5039C47.8354 24.0664 48.1534 23.9347 48.3878 23.7003C48.6222 23.4659 48.7539 23.1479 48.7539 22.8164V17.8164C48.7539 17.4849 48.6222 17.1669 48.3878 16.9325C48.1534 16.6981 47.8354 16.5664 47.5039 16.5664ZM46.2539 21.5664H42.5039C42.1724 21.5664 41.8544 21.6981 41.62 21.9325C41.3856 22.1669 41.2539 22.4849 41.2539 22.8164V26.5664H38.7539V22.8164C38.7539 22.4849 38.6222 22.1669 38.3878 21.9325C38.1534 21.6981 37.8354 21.5664 37.5039 21.5664H33.7539V19.0664H37.5039C37.8354 19.0664 38.1534 18.9347 38.3878 18.7003C38.6222 18.4659 38.7539 18.1479 38.7539 17.8164V14.0664H41.2539V17.8164C41.2539 18.1479 41.3856 18.4659 41.62 18.7003C41.8544 18.9347 42.1724 19.0664 42.5039 19.0664H46.2539V21.5664Z" fill="#231F20"/>
<path d="M74.6664 23.2667C74.6917 23.0468 74.7042 22.8256 74.7039 22.6042C74.6978 21.4584 74.3004 20.3491 73.5774 19.4602C72.8545 18.5713 71.8494 17.9561 70.7289 17.7167C69.4614 17.4755 68.1497 17.7247 67.059 18.4139C65.9683 19.1031 65.1801 20.1809 64.8539 21.4292L59.3539 37.2542C59.2724 37.2866 59.1931 37.3242 59.1164 37.3667L48.0664 43.8417C46.3755 44.835 44.973 46.2522 43.9975 47.9533C43.022 49.6545 42.5071 51.5807 42.5039 53.5417V65.3167C42.1724 65.3167 41.8544 65.4484 41.62 65.6828C41.3856 65.9173 41.2539 66.2352 41.2539 66.5667V76.5667C41.2539 76.8982 41.3856 77.2162 41.62 77.4506C41.8544 77.685 42.1724 77.8167 42.5039 77.8167H60.0039C60.3354 77.8167 60.6534 77.685 60.8878 77.4506C61.1222 77.2162 61.2539 76.8982 61.2539 76.5667V66.5667C61.2539 66.2352 61.1222 65.9173 60.8878 65.6828C60.6534 65.4484 60.3354 65.3167 60.0039 65.3167V62.5667C60.0062 62.0388 60.1186 61.5171 60.3338 61.035C60.5491 60.5529 60.8624 60.121 61.2539 59.7667L69.7039 52.2542C70.6282 51.4455 71.2898 50.3791 71.6039 49.1917L77.0289 28.9042C77.1447 28.4806 77.2036 28.0434 77.2039 27.6042C77.199 26.7221 76.9619 25.8568 76.5165 25.0954C76.071 24.334 75.4329 23.7033 74.6664 23.2667ZM67.2414 22.1667C67.3948 21.5203 67.7863 20.9554 68.3377 20.5847C68.889 20.2141 69.5599 20.0648 70.2164 20.1667C70.7767 20.2841 71.2797 20.5901 71.6415 21.0338C72.0032 21.4774 72.2017 22.0318 72.2039 22.6042V22.6292C71.0873 22.65 70.0081 23.0348 69.1304 23.7253C68.2527 24.4157 67.6245 25.374 67.3414 26.4542L63.8539 37.2167C63.3259 36.9663 62.7598 36.8057 62.1789 36.7417L67.2414 22.1667ZM58.7539 75.3167H43.7539V67.8167H58.7539V75.3167ZM74.6164 28.2542L69.1789 48.5542C68.9908 49.2596 68.5996 49.8942 68.0539 50.3792L59.5914 57.8917C58.9366 58.4822 58.4126 59.2032 58.0531 60.0084C57.6935 60.8135 57.5065 61.685 57.5039 62.5667V65.3167H45.0039V53.5417C45.0101 52.0166 45.4119 50.5193 46.1699 49.1959C46.928 47.8726 48.0165 46.7685 49.3289 45.9917L60.3664 39.5292C60.651 39.3634 60.9655 39.2555 61.292 39.2116C61.6184 39.1677 61.9503 39.1888 62.2686 39.2736C62.5868 39.3584 62.8852 39.5052 63.1465 39.7057C63.4079 39.9062 63.627 40.1563 63.7914 40.4417C64.1161 41.0193 64.2056 41.6998 64.0414 42.3417C63.9546 42.6587 63.8061 42.9554 63.6045 43.215C63.4029 43.4745 63.1521 43.6917 62.8664 43.8542L55.7039 47.9917C55.4318 48.1647 55.2371 48.4361 55.1604 48.7492C55.0837 49.0624 55.1309 49.3931 55.2923 49.6722C55.4536 49.9513 55.7166 50.1573 56.0262 50.2471C56.3359 50.337 56.6682 50.3037 56.9539 50.1542L64.1164 46.0167C64.6889 45.6919 65.1906 45.2558 65.5921 44.7342C65.9935 44.2125 66.2865 43.6158 66.4539 42.9792C66.7942 41.7003 66.6144 40.3386 65.9539 39.1917L65.8789 39.0792L69.7414 27.1667C69.8948 26.5203 70.2863 25.9554 70.8377 25.5847C71.389 25.2141 72.0599 25.0648 72.7164 25.1667C73.2767 25.2841 73.7797 25.5901 74.1415 26.0338C74.5032 26.4774 74.7018 27.0318 74.7039 27.6042C74.7081 27.8241 74.6786 28.0433 74.6164 28.2542Z" fill="#231F20"/>
<path d="M37.5037 65.3168V53.5418C37.5005 51.5808 36.9857 49.6546 36.0101 47.9534C35.0346 46.2523 33.6321 44.8351 31.9412 43.8418L20.8912 37.3543C20.8162 37.3168 20.7287 37.2918 20.6537 37.2543L15.1912 21.5168C14.8737 20.2503 14.0856 19.1524 12.9872 18.4464C11.8888 17.7405 10.5627 17.4796 9.27871 17.7168C8.1582 17.9562 7.15315 18.5714 6.43019 19.4603C5.70723 20.3492 5.30977 21.4585 5.30371 22.6043C5.30339 22.8257 5.31591 23.0469 5.34121 23.2668C4.57467 23.7034 3.93659 24.3341 3.49115 25.0955C3.04571 25.8569 2.80862 26.7222 2.80371 27.6043C2.80614 28.0426 2.86069 28.479 2.96621 28.9043L8.40371 49.1793C8.71444 50.3716 9.37642 51.443 10.3037 52.2543L18.7412 59.7668C19.1366 60.1186 19.4534 60.5498 19.671 61.0322C19.8885 61.5147 20.0019 62.0376 20.0037 62.5668V65.3168C19.6722 65.3168 19.3542 65.4485 19.1198 65.6829C18.8854 65.9174 18.7537 66.2353 18.7537 66.5668V76.5668C18.7537 76.8983 18.8854 77.2163 19.1198 77.4507C19.3542 77.6851 19.6722 77.8168 20.0037 77.8168H37.5037C37.8352 77.8168 38.1532 77.6851 38.3876 77.4507C38.622 77.2163 38.7537 76.8983 38.7537 76.5668V66.5668C38.7537 66.2353 38.622 65.9174 38.3876 65.6829C38.1532 65.4485 37.8352 65.3168 37.5037 65.3168ZM7.80371 22.6043C7.80525 22.0336 8.00201 21.4806 8.36129 21.0372C8.72056 20.5938 9.22074 20.2867 9.77871 20.1668C10.4533 20.0689 11.1399 20.2296 11.701 20.6168C12.262 21.004 12.6559 21.5889 12.8037 22.2543L17.8287 36.7418C17.2478 36.8058 16.6817 36.9664 16.1537 37.2168L12.6912 26.5168C12.4094 25.4259 11.78 24.4564 10.8982 23.755C10.0164 23.0536 8.93009 22.6584 7.80371 22.6293V22.6043ZM20.4037 57.8918L11.9537 50.3793C11.405 49.8917 11.0135 49.2522 10.8287 48.5418L5.37871 28.2543C5.32697 28.0416 5.30178 27.8233 5.30371 27.6043C5.30525 27.0336 5.50201 26.4806 5.86129 26.0372C6.22056 25.5938 6.72074 25.2867 7.27871 25.1668C7.94854 25.0663 8.63159 25.2231 9.19048 25.6058C9.74937 25.9884 10.1426 26.5685 10.2912 27.2293L14.1287 39.0793L14.0537 39.1918C13.3932 40.3387 13.2134 41.7003 13.5537 42.9793C13.7211 43.6159 14.0141 44.2126 14.4155 44.7343C14.817 45.2559 15.3187 45.692 15.8912 46.0168L23.0537 50.1543C23.3394 50.3038 23.6718 50.3371 23.9814 50.2472C24.291 50.1574 24.554 49.9514 24.7153 49.6723C24.8767 49.3931 24.9239 49.0625 24.8472 48.7493C24.7705 48.4362 24.5758 48.1648 24.3037 47.9918L17.1412 43.8543C16.8556 43.6918 16.6047 43.4746 16.4031 43.2151C16.2015 42.9555 16.053 42.6588 15.9662 42.3418C15.802 41.6999 15.8915 41.0194 16.2162 40.4418C16.3795 40.157 16.5974 39.9072 16.8572 39.7065C17.1171 39.5059 17.414 39.3584 17.7309 39.2725C18.0478 39.1866 18.3785 39.164 18.7041 39.2059C19.0297 39.2478 19.3439 39.3535 19.6287 39.5168L30.6787 45.9918C31.9911 46.7686 33.0796 47.8727 33.8377 49.196C34.5957 50.5194 34.9975 52.0167 35.0037 53.5418V65.3168H22.5037V62.5668C22.5016 61.6838 22.3135 60.8111 21.9517 60.0056C21.5898 59.2002 21.0624 58.4799 20.4037 57.8918ZM36.2537 75.3168H21.2537V67.8168H36.2537V75.3168Z" fill="#231F20"/>
<path d="M57.6877 6.73164C56.5273 5.56918 55.149 4.64698 53.6318 4.0178C52.1145 3.38862 50.4881 3.06483 48.8456 3.06494C47.2031 3.06506 45.5767 3.38908 44.0595 4.01847C42.5424 4.64787 41.1642 5.57027 40.004 6.73289C38.8438 5.57024 37.4657 4.64783 35.9486 4.01847C34.4315 3.38911 32.8052 3.06515 31.1627 3.06515C29.5203 3.06515 27.8939 3.38911 26.3768 4.01847C24.8597 4.64783 23.4816 5.57024 22.3215 6.73289C19.9819 9.07749 18.668 12.2544 18.668 15.5666C18.668 18.8788 19.9819 22.0558 22.3215 24.4004L39.1215 41.2004C39.3559 41.4347 39.6738 41.5664 40.0052 41.5664C40.3367 41.5664 40.6546 41.4347 40.889 41.2004L57.689 24.4004C60.0285 22.0554 61.3422 18.8782 61.342 15.5658C61.3417 12.2533 60.0275 9.07628 57.6877 6.73164ZM40.004 38.5491L24.0877 22.6329C22.6904 21.2336 21.7393 19.4515 21.3546 17.5118C20.97 15.5721 21.169 13.5619 21.9267 11.7353C22.6843 9.90875 23.9665 8.34779 25.6111 7.2498C27.2557 6.15181 29.189 5.56607 31.1665 5.56664C32.4801 5.56213 33.7814 5.81921 34.9946 6.32291C36.2078 6.8266 37.3086 7.56682 38.2327 8.50039L39.1202 9.38789C39.3546 9.62223 39.6725 9.75387 40.004 9.75387C40.3354 9.75387 40.6533 9.62223 40.8877 9.38789L41.7777 8.49789C42.7057 7.5682 43.808 6.83064 45.0213 6.32741C46.2347 5.82417 47.5354 5.56514 48.849 5.56514C50.1626 5.56514 51.4632 5.82417 52.6766 6.32741C53.89 6.83064 54.9922 7.5682 55.9202 8.49789C57.7926 10.3729 58.8443 12.9143 58.8443 15.5641C58.8443 18.2139 57.7926 20.7554 55.9202 22.6304L40.004 38.5491Z" fill="#231F20"/>
</svg>
