<svg width="40" height="40" viewBox="0 0 40 40" fill="none" xmlns="http://www.w3.org/2000/svg">
<path d="M1.85272 12.4244C0.988709 14.3429 -0.288438 18.0173 0.224009 22.5855C0.883438 28.4478 4.14682 33.0676 7.31883 35.6658C17.8498 44.281 37.1262 38.7159 39.6785 30.5982C40.1433 29.1256 40.0122 27.7046 39.8513 25.9566C39.3428 20.3995 36.6575 18.7466 34.854 12.8446C33.2094 7.4737 34.8301 6.86923 33.2928 4.48108C29.9619 -0.697547 20.3425 -0.959155 13.7224 1.52413C11.1801 2.47741 5.01083 5.40463 1.85272 12.4244Z" fill="#CADDFF"/>
<path d="M4.68294 8.314C3.85468 8.77776 2.80793 8.47849 2.34514 7.64611C1.88235 6.8157 2.18029 5.76333 3.00854 5.29957C3.8368 4.83582 4.88355 5.1331 5.34634 5.96548C5.80913 6.79787 5.5112 7.85024 4.68294 8.314ZM7.0247 5.41056L6.69896 4.82392L5.99981 5.03202C5.9005 4.90914 5.79324 4.79816 5.67605 4.69708L5.90447 4.00145L5.33045 3.65858L4.82793 4.18774C4.68294 4.13423 4.53397 4.09063 4.38103 4.0609L4.23008 3.34347L3.5627 3.33356L3.39189 4.04505C3.24093 4.07081 3.08998 4.10847 2.94101 4.16L2.45439 3.61498L1.87242 3.94199L2.07899 4.64357C1.95584 4.74267 1.84461 4.85167 1.74331 4.9686L1.05211 4.74069L0.708488 5.31543L1.23683 5.8208C1.1832 5.96746 1.14149 6.1161 1.11169 6.26871L0.39665 6.41933L0.386719 7.0892L1.0958 7.26162C1.11964 7.41423 1.15936 7.56485 1.20902 7.71349L0.666777 8.20301L0.992519 8.78766L1.69167 8.58155C1.79098 8.70244 1.89824 8.81541 2.01543 8.91649L1.789 9.61212L2.36103 9.95499L2.86355 9.42385C3.00854 9.47934 3.1595 9.52294 3.31045 9.55267L3.46141 10.2681L4.12878 10.278L4.2996 9.56852C4.45055 9.54276 4.6015 9.50312 4.75047 9.45357L5.2371 9.99859L5.81906 9.67158L5.61448 8.97C5.73564 8.86892 5.84687 8.7619 5.94817 8.64497L6.63938 8.87289L6.98299 8.29616L6.45466 7.79277C6.50828 7.64611 6.55 7.49548 6.57979 7.34288L7.29483 7.19226L7.30476 6.52239L6.59568 6.35195C6.57184 6.19934 6.53212 6.04674 6.48246 5.8981L7.0247 5.41056Z" fill="white"/>
<path d="M3.52755 5.06179C3.25146 5.06179 2.97736 5.13313 2.72908 5.27186C2.34375 5.48789 2.06568 5.84066 1.94651 6.26478C1.82535 6.6889 1.87898 7.13681 2.0915 7.52129C2.30602 7.90775 2.65758 8.18521 3.08065 8.30611C3.50371 8.427 3.94863 8.37547 4.33197 8.15945C4.7173 7.94541 4.99537 7.59263 5.11455 7.16851C5.23571 6.74241 5.18208 6.29649 4.96955 5.91201C4.75504 5.52554 4.40348 5.2461 3.98041 5.12521C3.83144 5.08359 3.6785 5.06179 3.52755 5.06179ZM3.53351 8.5142C3.36865 8.5142 3.20379 8.4924 3.04092 8.44484C2.5821 8.31404 2.19876 8.01081 1.96637 7.59264C1.73398 7.17248 1.67638 6.68692 1.80747 6.22514C1.93856 5.76337 2.24047 5.38087 2.65758 5.14701C3.07667 4.91315 3.55933 4.85567 4.02013 4.98648C4.47895 5.11728 4.8623 5.4205 5.09468 5.84066C5.32707 6.26082 5.38467 6.74439 5.25358 7.20617C5.12249 7.66993 4.82058 8.05243 4.40348 8.28629C4.13335 8.43691 3.83343 8.5142 3.53351 8.5142ZM3.20379 10.1076L3.75596 10.1156L3.91288 9.46154C3.92082 9.43181 3.94267 9.41001 3.97246 9.40605C4.11944 9.38226 4.26643 9.34461 4.41142 9.29506C4.43923 9.28515 4.46902 9.29308 4.48888 9.31488L4.93579 9.81629L5.41844 9.54676L5.22975 8.90067C5.2218 8.87094 5.22975 8.84121 5.2516 8.82338C5.37077 8.72627 5.48001 8.61924 5.57734 8.50628C5.5972 8.48448 5.62699 8.47655 5.6548 8.48646L6.29238 8.69456L6.57641 8.21891L6.0878 7.75515C6.06794 7.73335 6.05999 7.70362 6.07191 7.67587C6.12355 7.53516 6.16526 7.3885 6.19506 7.23986C6.20102 7.21013 6.22286 7.18833 6.25067 7.18239L6.90811 7.04366L6.91606 6.48873L6.26457 6.33217C6.23677 6.32424 6.21492 6.30244 6.20896 6.27271C6.18513 6.12605 6.14739 5.97741 6.09773 5.83273C6.08979 5.80499 6.09773 5.77328 6.11759 5.75544L6.61812 5.30556L6.34998 4.82L5.70446 5.01026C5.67665 5.02017 5.64686 5.01026 5.62898 4.98648C5.53165 4.86756 5.42638 4.75856 5.31317 4.66145C5.29331 4.64163 5.28338 4.6119 5.29331 4.58416L5.50186 3.94401L5.02715 3.65862L4.56436 4.14814C4.5445 4.16994 4.5147 4.17589 4.4869 4.16598C4.34587 4.11247 4.19889 4.07085 4.05191 4.04112C4.02212 4.03716 4.00027 4.01338 3.99431 3.98563L3.85726 3.32567L3.30509 3.31774L3.14619 3.97176C3.14023 3.9995 3.1164 4.0213 3.08859 4.02725C2.94161 4.05103 2.79463 4.08869 2.64963 4.13823C2.62183 4.14814 2.59203 4.14022 2.57217 4.11842L2.12527 3.617L1.64261 3.88654L1.83131 4.53263C1.83925 4.56037 1.83131 4.5901 1.80747 4.60992C1.69028 4.70703 1.58104 4.81207 1.48372 4.92504C1.46385 4.94684 1.43406 4.95675 1.40625 4.94684L0.768672 4.73676L0.484641 5.21439L0.971267 5.67815C0.993116 5.69797 1.00106 5.72968 0.989143 5.75544C0.937501 5.89814 0.895791 6.04479 0.865997 6.19343C0.860038 6.22118 0.838189 6.24496 0.810382 6.25091L0.15294 6.38964L0.144995 6.94258L0.796479 7.10113C0.824286 7.10708 0.846135 7.13086 0.850107 7.16059C0.875928 7.30725 0.911681 7.45589 0.963322 7.60056C0.971267 7.62831 0.963322 7.65804 0.94346 7.67786L0.44293 8.12774L0.711071 8.6133L1.35461 8.42106C1.38242 8.41313 1.4142 8.42304 1.43207 8.44484C1.5294 8.56375 1.63467 8.67275 1.7459 8.77185C1.76775 8.79167 1.77768 8.82139 1.76775 8.84914L1.55919 9.48929L2.0339 9.77269L2.49669 9.28515C2.51656 9.26335 2.54635 9.25741 2.57416 9.26732C2.71518 9.32083 2.86216 9.36245 3.00914 9.39019C3.03695 9.39614 3.06078 9.41794 3.06674 9.44767L3.20379 10.1076ZM3.81356 10.2602H3.81158L3.1442 10.2503C3.11044 10.2503 3.08263 10.2265 3.07469 10.1928L2.93565 9.52298C2.81052 9.49721 2.68737 9.46154 2.5682 9.41794L2.09746 9.91539C2.07561 9.93917 2.03787 9.94512 2.00808 9.92728L1.43605 9.58442C1.40625 9.56658 1.39433 9.5309 1.40427 9.49919L1.61679 8.84914C1.52344 8.76392 1.43406 8.67275 1.35064 8.57366L0.697167 8.76788C0.665388 8.77779 0.629635 8.76194 0.613746 8.73419L0.288004 8.14756C0.272114 8.11783 0.278073 8.08216 0.303893 8.05837L0.810382 7.60254C0.770658 7.47967 0.738878 7.35481 0.71703 7.22995L0.0556145 7.06942C0.0218487 7.06348 0 7.03375 0 6.99807L0.00993116 6.3282C0.00993116 6.29451 0.0337656 6.26676 0.0675319 6.25884L0.734906 6.11812C0.760727 5.99327 0.796479 5.87039 0.83819 5.7495L0.343618 5.27781C0.319783 5.25601 0.313824 5.21835 0.331701 5.18863L0.673333 4.61388C0.691208 4.58416 0.726961 4.57226 0.75874 4.58217L1.40625 4.79423C1.48967 4.70109 1.58303 4.6119 1.68035 4.52866L1.48769 3.87266C1.47776 3.83897 1.49166 3.80528 1.52145 3.78744L2.10342 3.46043C2.13321 3.44458 2.17095 3.45053 2.1928 3.47629L2.64765 3.98563C2.77079 3.94599 2.89394 3.91428 3.01709 3.89248L3.17797 3.22657C3.18592 3.19486 3.21372 3.17108 3.24749 3.17108C3.24749 3.17108 3.24749 3.17108 3.24948 3.17108L3.91685 3.18099C3.95061 3.18297 3.97842 3.20676 3.98637 3.23847L4.1254 3.90834C4.25054 3.93608 4.37368 3.97176 4.49286 4.01338L4.96359 3.51791C4.98544 3.49413 5.02318 3.48818 5.05099 3.50602L5.62501 3.84888C5.6548 3.86672 5.66672 3.90239 5.65679 3.9341L5.44426 4.58416C5.53761 4.66739 5.62699 4.76054 5.71042 4.85964L6.36389 4.66541C6.39567 4.6555 6.43142 4.66938 6.44731 4.6991L6.77305 5.28376C6.78894 5.31348 6.78298 5.35114 6.75716 5.37294L6.25067 5.83075C6.2904 5.95363 6.32218 6.07849 6.34402 6.20136L7.00544 6.36189C7.03921 6.36982 7.06105 6.39955 7.06105 6.43324L7.05112 7.10311C7.05112 7.1368 7.02729 7.16653 6.99352 7.17446L6.32615 7.31517C6.30033 7.43805 6.26458 7.56291 6.22286 7.68182L6.71744 8.1535C6.74127 8.17729 6.74524 8.21494 6.72935 8.24467L6.38573 8.81941C6.36984 8.84914 6.33409 8.86103 6.30231 8.85112L5.6548 8.63906C5.57138 8.73221 5.47803 8.82139 5.3807 8.90463L5.57337 9.56063C5.5833 9.59432 5.56939 9.62802 5.5396 9.64387L4.95565 9.97088C4.92784 9.98872 4.8901 9.98079 4.86825 9.95701L4.41341 9.44568C4.29026 9.4873 4.16711 9.51901 4.04198 9.54081L3.88308 10.2047C3.87514 10.2384 3.84733 10.2602 3.81356 10.2602Z" fill="black"/>
<path d="M9.68906 5.51953C8.80916 5.5235 8.09213 4.81002 8.08816 3.92611C8.08618 3.04418 8.79526 2.32476 9.67516 2.32079C10.5551 2.31683 11.2721 3.0303 11.2741 3.91422C11.278 4.79615 10.569 5.51557 9.68906 5.51953ZM12.7439 3.23047C12.7379 3.19282 12.7081 3.16507 12.6704 3.16111L12.1282 3.11949C12.0964 3.11751 12.0686 3.0957 12.0586 3.06598C12.0229 2.9649 11.9812 2.86779 11.9335 2.77266C11.9196 2.74491 11.9216 2.71122 11.9415 2.68546L12.2851 2.26134C12.3089 2.23161 12.3089 2.18999 12.2851 2.16026L11.9911 1.78569C11.9673 1.75596 11.9256 1.74605 11.8918 1.76389L11.4012 1.99775C11.3734 2.01162 11.3396 2.00766 11.3158 1.98784C11.2344 1.91847 11.1489 1.85505 11.0616 1.79758C11.0337 1.77974 11.0198 1.74803 11.0258 1.71632L11.1112 1.17725C11.1172 1.1396 11.0953 1.10392 11.0616 1.09005L10.6186 0.911683C10.5829 0.89781 10.5431 0.911683 10.5233 0.941411L10.2154 1.3913C10.1975 1.41904 10.1658 1.43093 10.134 1.42499C10.0307 1.40715 9.92543 1.39526 9.82016 1.38931C9.78838 1.38733 9.76057 1.36751 9.74865 1.33779L9.554 0.826463C9.5401 0.792771 9.50434 0.77097 9.46661 0.776916L8.99587 0.8443C8.95813 0.850245 8.93032 0.881955 8.92635 0.919611L8.88464 1.46463C8.88265 1.49633 8.86081 1.5221 8.83101 1.53399C8.7317 1.56966 8.63438 1.61128 8.54102 1.65885C8.51123 1.67272 8.47746 1.66876 8.45363 1.64894L8.03056 1.30608C8.00275 1.28229 7.96104 1.28229 7.93125 1.30608L7.55784 1.60137C7.52804 1.62516 7.51811 1.66678 7.534 1.70047L7.76838 2.19395C7.78228 2.2217 7.77831 2.25539 7.75845 2.27917C7.68893 2.36043 7.62537 2.44565 7.56777 2.53484C7.55188 2.56258 7.5201 2.57645 7.48832 2.57051L6.95204 2.48529C6.9143 2.47934 6.87855 2.50114 6.86464 2.53484L6.68787 2.98076C6.67396 3.01445 6.68588 3.05607 6.71766 3.07589L7.16456 3.38506C7.19039 3.40289 7.20429 3.4346 7.19833 3.46631C7.17847 3.56937 7.16655 3.67639 7.16258 3.78341C7.16059 3.81512 7.14073 3.84287 7.11094 3.85476L6.60246 4.04898C6.56671 4.06286 6.54685 4.09853 6.5528 4.13619L6.62034 4.60985C6.6263 4.64751 6.65609 4.67525 6.69383 4.67922L7.23607 4.72084C7.26785 4.72282 7.29566 4.74462 7.30559 4.77435C7.34134 4.87542 7.38305 4.97452 7.43072 5.06767C7.44462 5.09541 7.44065 5.13109 7.42079 5.15487L7.07916 5.57899C7.05532 5.60872 7.05532 5.65034 7.07916 5.68006L7.37312 6.05464C7.39695 6.08437 7.43668 6.09427 7.47243 6.07842L7.96303 5.84258C7.99084 5.8287 8.0246 5.83267 8.04844 5.85447C8.12987 5.92185 8.21329 5.98527 8.30267 6.04473C8.3285 6.06058 8.34439 6.09229 8.33843 6.124L8.25302 6.66307C8.24706 6.70073 8.26891 6.73838 8.30267 6.75226L8.7456 6.92864C8.77937 6.94251 8.81909 6.93062 8.84094 6.89891L9.14881 6.44903C9.16669 6.42326 9.19847 6.40939 9.22826 6.41534C9.33154 6.43516 9.43681 6.44705 9.54407 6.45299C9.57585 6.45299 9.60366 6.47281 9.61557 6.50254L9.81022 7.01386C9.82413 7.04954 9.85988 7.06935 9.89762 7.06539L10.3684 6.99603C10.4041 6.99008 10.4339 6.96035 10.4359 6.9227L10.4776 6.37768C10.4816 6.34597 10.5014 6.31823 10.5312 6.30832C10.6325 6.27264 10.7298 6.22904 10.8232 6.18148C10.851 6.1676 10.8848 6.17157 10.9106 6.19139L11.3317 6.53425C11.3615 6.55803 11.4032 6.55803 11.433 6.53425L11.8064 6.23895C11.8362 6.21517 11.8461 6.17553 11.8302 6.13986L11.5939 5.64637C11.58 5.61863 11.5859 5.58493 11.6058 5.56115C11.6753 5.47989 11.7369 5.39467 11.7965 5.30549C11.8123 5.27973 11.8441 5.26387 11.8759 5.26982L12.4122 5.35504C12.4499 5.36098 12.4857 5.34116 12.4996 5.30549L12.6764 4.86155C12.6903 4.82588 12.6783 4.78624 12.6466 4.76444L12.1997 4.45527C12.1719 4.43743 12.1599 4.40572 12.1659 4.37401C12.1838 4.27095 12.1957 4.16591 12.2016 4.05889C12.2036 4.02718 12.2235 3.99746 12.2533 3.98755L12.7618 3.79134C12.7955 3.77747 12.8174 3.74179 12.8114 3.70414L12.7439 3.23047Z" fill="white"/>
<path d="M9.68088 2.39413C9.6789 2.39413 9.67691 2.39413 9.67492 2.39413C9.26973 2.39611 8.88838 2.55665 8.60236 2.846C8.31634 3.13535 8.15943 3.51785 8.16142 3.92612C8.1634 4.33438 8.3223 4.71688 8.6103 5.00426C8.89831 5.28965 9.27768 5.44621 9.68088 5.44621C9.68287 5.44621 9.68486 5.44621 9.68684 5.44621C10.094 5.44621 10.4754 5.28568 10.7614 4.99633C11.0474 4.70499 11.2043 4.32249 11.2023 3.91423C11.2004 3.50596 11.0415 3.12346 10.7534 2.83609C10.4654 2.5507 10.0861 2.39413 9.68088 2.39413ZM9.68088 5.59089C9.23994 5.59089 8.82283 5.42045 8.50901 5.10731C8.1932 4.7922 8.01841 4.37402 8.01642 3.92612C8.01444 3.4802 8.18724 3.06004 8.49908 2.74294C8.8129 2.42584 9.23001 2.25144 9.67492 2.24946C9.67691 2.24946 9.6789 2.24946 9.68287 2.24946C10.1238 2.24946 10.5409 2.4199 10.8547 2.73303C11.1706 3.04815 11.3453 3.46632 11.3473 3.91423C11.3493 4.36015 11.1765 4.7803 10.8647 5.0974C10.5509 5.4145 10.1337 5.59089 9.68883 5.59089C9.68684 5.59089 9.68287 5.59089 9.68088 5.59089ZM9.21412 6.34202C9.22405 6.34202 9.232 6.34202 9.24193 6.344C9.34124 6.36184 9.44452 6.37373 9.54781 6.37967C9.60739 6.38364 9.66102 6.42129 9.68287 6.47679L9.87752 6.98811C9.87951 6.99207 9.88149 6.99405 9.88547 6.99207L10.3562 6.92469C10.3602 6.92271 10.3641 6.92072 10.3641 6.91676L10.4059 6.37175C10.4118 6.31229 10.4515 6.25878 10.5072 6.23896C10.6045 6.20527 10.6998 6.16365 10.7912 6.11807C10.8448 6.09032 10.9084 6.09627 10.956 6.13392L11.3771 6.47877C11.3811 6.48075 11.3851 6.48075 11.3871 6.47877L11.7625 6.18149C11.7644 6.17951 11.7664 6.17554 11.7644 6.17158L11.5301 5.67809C11.5042 5.62458 11.5122 5.55918 11.5499 5.5136C11.6175 5.4363 11.679 5.35108 11.7346 5.26586C11.7684 5.21433 11.828 5.18857 11.8856 5.19848L12.4239 5.2837C12.4278 5.2837 12.4318 5.28172 12.4318 5.27775L12.6086 4.83382C12.6106 4.82985 12.6086 4.82589 12.6066 4.82391L12.1577 4.51473C12.1081 4.48104 12.0842 4.42159 12.0942 4.36213C12.112 4.26105 12.1239 4.158 12.1299 4.05494C12.1339 3.9935 12.1716 3.93999 12.2272 3.92017L12.7357 3.72397C12.7377 3.72199 12.7417 3.71802 12.7397 3.71406L12.6721 3.24039C12.6721 3.23643 12.6682 3.23445 12.6642 3.23445L12.122 3.19084C12.0624 3.18688 12.0107 3.14724 11.9909 3.08977C11.9551 2.99266 11.9154 2.89555 11.8697 2.80636C11.8419 2.75087 11.8479 2.68745 11.8856 2.63988L12.2292 2.21576C12.2312 2.21378 12.2312 2.20982 12.2292 2.20585L11.9333 1.8293C11.9313 1.82732 11.9273 1.82534 11.9233 1.82732L11.4327 2.06316C11.3791 2.08892 11.3136 2.081 11.2679 2.04136C11.1904 1.97596 11.107 1.91254 11.0216 1.85705C10.9719 1.82335 10.9441 1.7639 10.9541 1.70642L11.0395 1.16537C11.0395 1.16141 11.0375 1.15744 11.0335 1.15744L10.5926 0.979076C10.5886 0.977095 10.5846 0.979076 10.5826 0.98304L10.2748 1.43292C10.241 1.48247 10.1814 1.50824 10.1218 1.49634C10.0225 1.47851 9.91923 1.46662 9.81595 1.46067C9.75636 1.45671 9.70273 1.41905 9.68088 1.36356L9.48623 0.852237C9.48425 0.850255 9.48226 0.848273 9.47829 0.848273L9.00556 0.917638C9.00159 0.917638 8.99961 0.91962 8.99961 0.923584L8.9579 1.4686C8.95194 1.52805 8.91221 1.58156 8.8566 1.60138C8.75729 1.63706 8.66195 1.67669 8.57257 1.72228C8.51894 1.75002 8.45339 1.74408 8.40771 1.70642L7.98663 1.36158C7.98266 1.3596 7.97868 1.3596 7.97471 1.36158L7.6013 1.65886C7.59931 1.66084 7.59733 1.6648 7.59931 1.66877L7.83369 2.16225C7.85951 2.21576 7.85156 2.28117 7.81184 2.32675C7.74629 2.40602 7.68472 2.48926 7.62911 2.57448C7.59534 2.62601 7.53575 2.65178 7.47815 2.64187L6.93988 2.55665C6.93591 2.55665 6.93194 2.55863 6.92995 2.56259L6.75516 3.00653C6.75318 3.01049 6.75516 3.01446 6.75715 3.01644L7.20604 3.32561C7.25569 3.3593 7.27953 3.41876 7.2696 3.47822C7.25172 3.57929 7.2398 3.68235 7.23385 3.78739C7.22987 3.84684 7.19214 3.90035 7.13652 3.92215L6.62805 4.11638C6.62407 4.11836 6.62209 4.12232 6.62407 4.12629L6.69161 4.59995C6.69161 4.60392 6.69558 4.6059 6.69955 4.6059L7.24179 4.6495C7.30138 4.65346 7.35302 4.6931 7.37288 4.75058C7.40864 4.84769 7.44836 4.9448 7.49404 5.03597C7.52185 5.08948 7.51391 5.1529 7.47815 5.20046L7.13453 5.62458C7.13255 5.62656 7.13255 5.63251 7.13453 5.63449L7.43048 6.01105C7.43247 6.01303 7.43644 6.01501 7.44041 6.01303L7.93101 5.77719C7.98464 5.75142 8.05019 5.75935 8.09587 5.79899C8.17333 5.86439 8.25676 5.92781 8.34216 5.9833C8.39182 6.01699 8.41963 6.07645 8.4097 6.1359L8.32429 6.67497C8.32429 6.67894 8.32627 6.6829 8.33025 6.68488L8.77119 6.86127C8.77516 6.86325 8.77913 6.86127 8.78112 6.85731L9.08899 6.40742C9.11679 6.3658 9.16446 6.34202 9.21412 6.34202ZM9.88348 7.13873C9.82191 7.13873 9.76629 7.09909 9.74246 7.03964L9.54781 6.52831C9.54582 6.52435 9.54185 6.52435 9.53986 6.52435C9.43062 6.51841 9.32138 6.50651 9.21611 6.4867C9.21412 6.4867 9.21015 6.4867 9.20816 6.49066L8.90029 6.94054C8.86057 7 8.78509 7.0218 8.71756 6.99604L8.27662 6.81965C8.20909 6.7919 8.17135 6.72254 8.18128 6.65317L8.26669 6.11212C8.26867 6.10816 8.2647 6.10618 8.26271 6.10419C8.17333 6.04474 8.08395 5.97934 8.00252 5.90799C8.00053 5.90799 7.99656 5.90601 7.99259 5.90799L7.50199 6.14383C7.43843 6.17356 7.36097 6.15572 7.31727 6.10023L7.02132 5.72368C6.97762 5.66818 6.97762 5.58891 7.02331 5.53342L7.36494 5.1093C7.36692 5.10731 7.36692 5.10335 7.36494 5.09939C7.31727 5.00426 7.27357 4.90318 7.23782 4.79814C7.23583 4.79616 7.23385 4.79418 7.22987 4.7922L6.68763 4.75058C6.61613 4.74463 6.55853 4.69112 6.5486 4.61977L6.48106 4.14611C6.47113 4.07476 6.50887 4.00737 6.5764 3.98161L7.08488 3.78541C7.08885 3.78541 7.08885 3.78144 7.08885 3.77946C7.09481 3.66847 7.10871 3.55947 7.12659 3.45245C7.12858 3.44849 7.12659 3.44651 7.1246 3.44452L6.67572 3.13535C6.61613 3.09571 6.59428 3.0204 6.6201 2.95302L6.79688 2.50908C6.8227 2.4417 6.89023 2.40206 6.96173 2.41395L7.5 2.49917C7.50199 2.49917 7.50596 2.49917 7.50795 2.49521C7.56753 2.40404 7.63308 2.31684 7.7026 2.2336C7.70458 2.22964 7.70458 2.22765 7.70458 2.22369L7.46822 1.73219C7.43843 1.66679 7.4563 1.58949 7.51192 1.54589L7.88533 1.24861C7.94293 1.20501 8.02039 1.20501 8.07601 1.25059L8.49908 1.59346C8.50106 1.59544 8.50503 1.59544 8.50702 1.59346C8.60236 1.54589 8.70366 1.50229 8.80694 1.46463C8.81091 1.46463 8.8129 1.46067 8.8129 1.45869L8.85461 0.913675C8.86057 0.840346 8.9142 0.782871 8.9857 0.772962L9.45644 0.703596C9.52794 0.693687 9.59548 0.733325 9.6213 0.800708L9.81595 1.31203C9.81793 1.31401 9.81992 1.31599 9.82389 1.31599C9.93313 1.32194 10.0424 1.33383 10.1476 1.35365C10.1516 1.35365 10.1536 1.35365 10.1556 1.35167L10.4635 0.899802C10.5032 0.840346 10.5787 0.818545 10.6442 0.844309L11.0871 1.02268C11.1547 1.04844 11.1924 1.11781 11.1825 1.18717L11.0971 1.72822C11.0951 1.73219 11.0971 1.73417 11.101 1.73615C11.1904 1.79561 11.2778 1.86101 11.3612 1.93236C11.3632 1.93434 11.3672 1.93434 11.3692 1.93236L11.8618 1.69651C11.9253 1.66679 12.0028 1.68462 12.0465 1.74011L12.3424 2.11667C12.3861 2.17216 12.3861 2.25144 12.3404 2.30693L11.9988 2.73105C11.9948 2.73501 11.9968 2.73898 11.9968 2.74096C12.0465 2.83609 12.0902 2.93716 12.1259 3.0422C12.1279 3.04617 12.1299 3.04815 12.1339 3.04815L12.6761 3.08977C12.7476 3.09571 12.8032 3.14922 12.8152 3.22057L12.8827 3.69424C12.8926 3.76559 12.8529 3.83297 12.7873 3.85873L12.2789 4.05494C12.2749 4.05494 12.2749 4.0589 12.2749 4.06287C12.2689 4.17187 12.255 4.28087 12.2372 4.38789C12.2352 4.38988 12.2352 4.39384 12.2391 4.39582L12.688 4.70499C12.7476 4.74463 12.7695 4.81994 12.7437 4.88733L12.5669 5.33126C12.5411 5.39865 12.4715 5.43829 12.402 5.42639L11.8638 5.34117C11.8618 5.34117 11.8578 5.34117 11.8558 5.34514C11.7962 5.4363 11.7307 5.52351 11.6612 5.60674C11.6592 5.61071 11.6572 5.61269 11.6592 5.61665L11.8935 6.11014C11.9253 6.17356 11.9074 6.25085 11.8518 6.29644L11.4764 6.59173C11.4208 6.63732 11.3434 6.63534 11.2877 6.58975L10.8647 6.24689C10.8607 6.24491 10.8567 6.24689 10.8567 6.24689C10.7614 6.29445 10.6601 6.33806 10.5568 6.37571C10.5528 6.37769 10.5509 6.37967 10.5509 6.38166L10.5072 6.92667C10.5032 7 10.4496 7.05747 10.3781 7.06738L9.90731 7.13675C9.89937 7.13675 9.89142 7.13873 9.88348 7.13873Z" fill="black"/>
<path d="M33.543 5.98723C33.543 5.98723 30.9927 5.68202 27.916 8.7896C31.2151 9.56451 34.4229 8.41899 34.4229 8.41899L33.543 5.98723Z" fill="black"/>
<path d="M25.8288 28.2476L17.8104 28.2972C17.7587 28.2972 17.7408 28.3467 17.7408 28.3923V35.2416C17.7408 35.8976 13.1844 37.602 13.1407 37.5148L13.1348 38.2402C13.1348 38.375 13.252 38.4939 13.4029 38.4939H13.5042C13.5042 38.4939 13.5042 38.4939 13.5062 38.4939H20.2296C20.5414 38.4939 20.8493 38.4245 21.1313 38.3056L24.8297 36.7439C25.4951 36.4625 25.9142 35.858 25.9142 35.198V28.3427C25.9142 28.2952 25.8824 28.2476 25.8288 28.2476Z" fill="#99B9FF"/>
<path d="M16.9282 27.8988V34.7501C16.9282 35.426 16.4952 36.0403 15.8159 36.3317L13.3212 37.3999C13.1583 37.4693 13.2139 37.6893 13.3947 37.6893H20.2472C20.555 37.6893 20.8589 37.6278 21.139 37.5109L23.9018 36.3436C24.5871 36.0522 25.0241 35.4359 25.0241 34.7561V27.8988C25.0241 27.8711 24.9982 27.8473 24.9665 27.8473H16.9858C16.954 27.8473 16.9282 27.8711 16.9282 27.8988Z" fill="#99B9FF"/>
<path d="M17.0024 27.9206V34.7501C17.0024 35.4497 16.5475 36.0978 15.8444 36.3991L13.3517 37.4673C13.2941 37.4911 13.2961 37.5327 13.3 37.5505C13.306 37.5803 13.3358 37.6179 13.3954 37.6179H20.2479C20.5438 37.6179 20.8437 37.5565 21.1099 37.4435L23.8747 36.2762C24.5282 35.9987 24.9513 35.4022 24.9513 34.7561V27.9206H17.0024ZM20.2479 37.7626H13.3954C13.2782 37.7626 13.1809 37.6873 13.159 37.5783C13.1372 37.4752 13.1928 37.3781 13.2941 37.3345L15.7888 36.2663C16.4383 35.9868 16.8574 35.3923 16.8574 34.7501V27.8988C16.8574 27.8314 16.915 27.7759 16.9865 27.7759H24.9672C25.0387 27.7759 25.0963 27.8314 25.0963 27.8988V34.7561C25.0963 35.4616 24.6394 36.1097 23.9303 36.409L21.1675 37.5763C20.8815 37.6972 20.5637 37.7626 20.2479 37.7626Z" fill="black"/>
<path d="M1.98633 31.7298L36.5507 31.8091C36.8546 31.8091 37.1545 31.5812 37.1943 31.2819L39.9551 9.79842C40.0227 9.27521 39.6155 8.75398 39.0951 8.76785L4.92992 8.9482L1.98633 31.7298Z" fill="#5479F7"/>
<path d="M37.7378 8.70044C38.3317 8.70044 38.868 9.30491 38.7925 9.89947L36.0654 31.272C36.0277 31.5752 35.7059 31.8289 35.402 31.8289L1.4494 31.7734C1.0879 31.7734 0.845581 31.4721 0.891264 31.1094L3.71569 9.34058C3.75342 9.03736 3.95205 8.70044 4.25395 8.70044H37.7378Z" fill="#99B9FF"/>
<path d="M1.53364 31.9181C1.34097 31.9181 1.15625 31.8348 1.02913 31.6902C0.900028 31.5435 0.840441 31.3473 0.866262 31.1551L1.55747 25.8139C1.56144 25.7743 1.59918 25.7465 1.63692 25.7505C1.67664 25.7565 1.70445 25.7921 1.70048 25.8318L1.00927 31.1729C0.989409 31.3255 1.03708 31.4781 1.13639 31.5931C1.23769 31.708 1.38268 31.7734 1.53364 31.7734L35.4644 31.712C35.7286 31.712 35.9809 31.4841 36.0166 31.2145L38.7556 9.84599C38.7894 9.58241 38.7079 9.31684 38.5351 9.11865C38.3604 8.92046 38.1121 8.80749 37.8499 8.80749L23.9463 8.71236C23.9065 8.71236 23.8728 8.68065 23.8748 8.63904C23.8748 8.5994 23.9065 8.56769 23.9463 8.56769L37.8499 8.66282C38.1518 8.66282 38.4418 8.79362 38.6424 9.02352C38.845 9.25342 38.9383 9.55862 38.8986 9.86383L36.1596 31.2343C36.1159 31.5713 35.7981 31.8566 35.4644 31.8566L1.53364 31.9181Z" fill="black"/>
<path d="M26.2516 7.47568H14.8784C14.6937 7.47568 14.5487 7.31317 14.5705 7.12687L14.9857 3.51986C15.0035 3.3633 15.1366 3.24438 15.2955 3.24438H26.6687C26.8534 3.24438 26.9984 3.4069 26.9765 3.59319L26.5614 7.2002C26.5435 7.35677 26.4105 7.47568 26.2516 7.47568Z" fill="#5479F7"/>
<path d="M15.2959 3.31771C15.1747 3.31771 15.0715 3.40888 15.0575 3.52977L14.6424 7.13678C14.6345 7.20416 14.6563 7.27154 14.702 7.32307C14.7457 7.3746 14.8113 7.40235 14.8788 7.40235H26.2539C26.3751 7.40235 26.4764 7.31118 26.4903 7.19029L26.9054 3.58328C26.9134 3.5159 26.8915 3.44851 26.8458 3.39699C26.8021 3.34546 26.7366 3.31771 26.6691 3.31771H15.2959ZM26.2539 7.54702H14.8788C14.7715 7.54702 14.6663 7.50144 14.5948 7.42018C14.5213 7.33694 14.4875 7.22794 14.4994 7.11894L14.9145 3.51193C14.9364 3.31771 15.1012 3.17303 15.2959 3.17303H26.6691C26.7783 3.17303 26.8816 3.21862 26.9551 3.29987C27.0266 3.38311 27.0603 3.49212 27.0484 3.60112L26.6333 7.20812C26.6115 7.40235 26.4466 7.54702 26.2539 7.54702Z" fill="black"/>
<path d="M28.4512 23.404H20.6056C20.5202 23.404 20.4546 23.3287 20.4626 23.2434L20.9174 19.2995C20.9254 19.2262 20.9869 19.1727 21.0584 19.1727H28.906C28.9895 19.1727 29.057 19.246 29.0471 19.3312L28.5922 23.2771C28.5843 23.3485 28.5227 23.404 28.4512 23.404Z" fill="white"/>
<path d="M21.0581 19.244C21.0223 19.244 20.9925 19.2718 20.9885 19.3075L20.5337 23.2534C20.5317 23.2732 20.5377 23.293 20.5516 23.3069C20.5655 23.3227 20.5834 23.3307 20.6052 23.3307H28.4508C28.4866 23.3307 28.5164 23.3049 28.5203 23.2692L28.9732 19.3233C28.9772 19.3035 28.9712 19.2837 28.9573 19.2678C28.9434 19.254 28.9255 19.244 28.9037 19.244H21.0581ZM28.4508 23.4753H20.6052C20.5436 23.4753 20.484 23.4496 20.4443 23.404C20.4046 23.3584 20.3847 23.297 20.3907 23.2355L20.8455 19.2896C20.8575 19.1826 20.9488 19.0994 21.0581 19.0994H28.9037C28.9653 19.0994 29.0248 19.1271 29.0646 19.1727C29.1043 19.2183 29.1241 19.2797 29.1182 19.3392L28.6633 23.2851C28.6494 23.3941 28.5581 23.4753 28.4508 23.4753Z" fill="black"/>
<path d="M22.2183 31.1313H14.9069C14.6626 31.1313 14.4739 30.9192 14.5017 30.6755L14.895 27.2627C14.9189 27.0566 15.0917 26.902 15.3002 26.902H22.6115C22.8538 26.902 23.0445 27.114 23.0167 27.3578L22.6234 30.7706C22.5996 30.9767 22.4248 31.1313 22.2183 31.1313Z" fill="#CADDFF"/>
<path d="M15.298 26.9734C15.1291 26.9734 14.9861 27.1022 14.9663 27.2706L14.573 30.6834C14.5611 30.7785 14.5928 30.8757 14.6564 30.947C14.72 31.0183 14.8093 31.06 14.9067 31.06H22.218C22.3888 31.06 22.5318 30.9311 22.5517 30.7607L22.943 27.3479C22.9549 27.2528 22.9251 27.1577 22.8615 27.0863C22.798 27.015 22.7066 26.9734 22.6113 26.9734H15.298ZM22.218 31.2046H14.9067C14.7696 31.2046 14.6385 31.1452 14.5472 31.0421C14.4578 30.9411 14.4141 30.8043 14.43 30.6676L14.8232 27.2548C14.8511 27.011 15.0556 26.8287 15.298 26.8287H22.6113C22.7463 26.8287 22.8774 26.8881 22.9688 26.9892C23.0601 27.0923 23.1019 27.229 23.088 27.3658L22.6947 30.7785C22.6669 31.0203 22.4603 31.2046 22.218 31.2046Z" fill="black"/>
<path d="M32.8405 31.1411H25.3286C25.1439 31.1411 25.0009 30.9806 25.0227 30.7963L25.4378 27.1833C25.4557 27.0268 25.5888 26.9099 25.7437 26.9099H33.2576C33.4404 26.9099 33.5834 27.0704 33.5635 27.2547L33.1464 30.8676C33.1285 31.0222 32.9974 31.1411 32.8405 31.1411Z" fill="white"/>
<path d="M25.7431 26.9832C25.6239 26.9832 25.5226 27.0724 25.5107 27.1913L25.0936 30.8042C25.0857 30.8716 25.1075 30.939 25.1512 30.9885C25.1969 31.0401 25.2604 31.0678 25.328 31.0678H32.8399C32.9591 31.0678 33.0604 30.9786 33.0743 30.8597L33.4914 27.2468C33.4973 27.1794 33.4775 27.112 33.4318 27.0605C33.3881 27.0109 33.3245 26.9832 33.257 26.9832H25.7431ZM32.8399 31.2125H25.328C25.2187 31.2125 25.1154 31.1669 25.0439 31.0856C24.9724 31.0044 24.9387 30.8954 24.9506 30.7884L25.3657 27.1754C25.3895 26.9832 25.5504 26.8385 25.7431 26.8385H33.257C33.3643 26.8385 33.4676 26.8841 33.5391 26.9653C33.6125 27.0466 33.6463 27.1556 33.6344 27.2626L33.2173 30.8756C33.1954 31.0678 33.0326 31.2125 32.8399 31.2125Z" fill="black"/>
<path d="M38.4753 23.3802H30.6834C30.5821 23.3802 30.5046 23.291 30.5145 23.1919L30.9634 19.2995C30.9734 19.2143 31.0449 19.1489 31.1322 19.1489H38.9242C39.0235 19.1489 39.103 19.238 39.0911 19.3371L38.6422 23.2295C38.6323 23.3148 38.5608 23.3802 38.4753 23.3802Z" fill="#CADDFF"/>
<path d="M31.1302 19.2222C31.0826 19.2222 31.0409 19.2579 31.0349 19.3074L30.586 23.1998C30.584 23.2276 30.592 23.2533 30.6118 23.2751C30.6297 23.2949 30.6555 23.3068 30.6833 23.3068H38.4753C38.525 23.3068 38.5647 23.2712 38.5707 23.2216L39.0196 19.3292C39.0235 19.3015 39.0136 19.2757 38.9957 19.2539C38.9778 19.2321 38.952 19.2222 38.9242 19.2222H31.1302ZM38.4753 23.4515H30.6833C30.6138 23.4515 30.5483 23.4218 30.5026 23.3702C30.4569 23.3207 30.4351 23.2513 30.443 23.182L30.8919 19.2916C30.9058 19.1687 31.0091 19.0775 31.1302 19.0775H38.9242C38.9918 19.0775 39.0573 19.1053 39.103 19.1568C39.1487 19.2083 39.1705 19.2777 39.1626 19.347L38.7137 23.2375C38.6998 23.3603 38.5965 23.4515 38.4753 23.4515Z" fill="black"/>
<path d="M10.3956 10.4405C10.3916 10.4405 10.3896 10.4405 10.3856 10.4405C10.3459 10.4346 10.3181 10.3969 10.324 10.3593L10.3797 9.96489C10.4353 9.58041 10.769 9.297 11.1563 9.30096L17.7863 9.41789C17.7923 9.41789 17.7982 9.41789 17.8042 9.41789C18.2809 9.41789 18.6861 9.06512 18.7496 8.58947L18.841 7.91563C18.847 7.876 18.8827 7.84825 18.9224 7.8542C18.9622 7.86014 18.99 7.89582 18.984 7.93545L18.8926 8.60731C18.8192 9.15628 18.3524 9.56257 17.8042 9.56257C17.7982 9.56257 17.7903 9.56257 17.7843 9.56257L11.1523 9.44564C11.1503 9.44564 11.1463 9.44564 11.1424 9.44564C10.8325 9.44564 10.5664 9.67554 10.5227 9.98471L10.4671 10.3791C10.4611 10.4148 10.4313 10.4405 10.3956 10.4405Z" fill="white"/>
<path d="M31.0268 10.5535C30.991 10.5535 30.9612 10.5277 30.9553 10.4901L30.8996 10.0957C30.856 9.7885 30.5898 9.55662 30.2799 9.55662C30.276 9.55662 30.274 9.55662 30.27 9.55662L23.638 9.67355C23.0818 9.68148 22.6051 9.27321 22.5297 8.72027L22.4383 8.04643C22.4323 8.0068 22.4602 7.97112 22.4999 7.96518C22.5396 7.95923 22.5754 7.98896 22.5813 8.0286L22.6727 8.70045C22.7382 9.18204 23.1514 9.5368 23.636 9.52887L30.266 9.41194C30.272 9.41194 30.276 9.41194 30.2799 9.41194C30.6613 9.41194 30.989 9.69535 31.0427 10.0759L31.0983 10.4703C31.1042 10.5099 31.0764 10.5456 31.0367 10.5515C31.0327 10.5535 31.0307 10.5535 31.0268 10.5535Z" fill="white"/>
<path d="M4.16899 18.5365C4.16502 18.5365 4.16105 18.5365 4.15707 18.5345C4.11933 18.5285 4.09153 18.4909 4.09749 18.4513L4.25043 17.4881C4.29412 17.1353 4.63973 16.8677 5.03697 16.8816L8.03817 16.9767C8.3659 16.9847 8.65191 16.7885 8.71746 16.507L8.89423 15.7638C8.90417 15.7262 8.9419 15.7004 8.98163 15.7103C9.01937 15.7202 9.0432 15.7579 9.03526 15.7975L8.85848 16.5407C8.77903 16.8816 8.44535 17.1214 8.062 17.1214C8.05207 17.1214 8.04214 17.1214 8.03221 17.1214L5.033 17.0263C4.71123 17.0144 4.42919 17.2265 4.39343 17.5079L4.24049 18.475C4.23454 18.5107 4.20474 18.5365 4.16899 18.5365Z" fill="white"/>
<path d="M14.7618 18.5127C14.7618 18.5127 14.7599 18.5127 14.7579 18.5107C14.7182 18.5087 14.6884 18.475 14.6903 18.4354L14.7182 17.9221C14.7281 17.72 14.6566 17.5277 14.5156 17.3811C14.3765 17.2364 14.1858 17.1551 13.9852 17.1611L10.8589 17.2106C10.7199 17.2146 10.5908 17.1551 10.4974 17.054C10.4041 16.951 10.3604 16.8142 10.3762 16.6775L10.4676 15.8451C10.4716 15.8055 10.5073 15.7777 10.5471 15.7817C10.5868 15.7857 10.6146 15.8213 10.6106 15.861L10.5193 16.6933C10.5093 16.7885 10.5391 16.8856 10.6047 16.9569C10.6682 17.0283 10.7596 17.0679 10.8569 17.0659L13.9832 17.0164C13.9872 17.0164 13.9932 17.0164 13.9971 17.0164C14.2335 17.0164 14.454 17.1095 14.6188 17.282C14.7877 17.4564 14.8731 17.6863 14.8612 17.93L14.8334 18.4433C14.8314 18.481 14.7996 18.5127 14.7618 18.5127Z" fill="white"/>
<path d="M23.709 18.5365C23.7051 18.5365 23.7011 18.5365 23.6991 18.5345C23.6594 18.5305 23.6316 18.4929 23.6375 18.4532L23.7567 17.5693C23.8004 17.2146 24.146 16.947 24.5432 16.9609L27.5444 17.056C27.8722 17.064 28.1582 16.8697 28.2237 16.5863L28.4005 15.8431C28.4104 15.8055 28.4482 15.7797 28.4879 15.7896C28.5256 15.7995 28.5495 15.8372 28.5415 15.8768L28.3648 16.62C28.2833 16.9688 27.9337 17.2126 27.5385 17.2007L24.5393 17.1056C24.2155 17.0957 23.9355 17.3077 23.8997 17.5872L23.7805 18.4731C23.7746 18.5087 23.7428 18.5365 23.709 18.5365Z" fill="white"/>
<path d="M34.2687 18.5919C34.2667 18.5919 34.2667 18.5919 34.2647 18.5919C34.225 18.59 34.1952 18.5543 34.1972 18.5147L34.223 18.0013C34.2349 17.7992 34.1634 17.607 34.0224 17.4603C33.8834 17.3156 33.6927 17.2344 33.4921 17.2403L30.3657 17.2899C30.3638 17.2899 30.3618 17.2899 30.3578 17.2899C30.2247 17.2899 30.0956 17.2324 30.0042 17.1333C29.9109 17.0302 29.8672 16.8935 29.8831 16.7567L29.9745 15.9243C29.9784 15.8847 30.0142 15.855 30.0539 15.8609C30.0936 15.8649 30.1214 15.9006 30.1175 15.9402L30.0261 16.7726C30.0162 16.8677 30.046 16.9648 30.1115 17.0362C30.1751 17.1075 30.2684 17.1491 30.3638 17.1452L33.4901 17.0956C33.7304 17.0917 33.9588 17.1848 34.1257 17.3612C34.2945 17.5356 34.3799 17.7675 34.368 18.0093L34.3402 18.5226C34.3382 18.5622 34.3064 18.5919 34.2687 18.5919Z" fill="white"/>
<path d="M18.627 26.6324C18.623 26.6324 18.621 26.6304 18.6171 26.6304C18.5773 26.6245 18.5495 26.5888 18.5555 26.5492L18.6767 25.6653C18.7203 25.3105 19.064 25.043 19.4612 25.0549L22.4624 25.15C22.7882 25.1599 23.0762 24.9637 23.1437 24.6823L23.3205 23.9391C23.3284 23.8994 23.3681 23.8756 23.4059 23.8855C23.4456 23.8955 23.4694 23.9331 23.4595 23.9727L23.2827 24.716C23.2013 25.0648 22.8537 25.3085 22.4584 25.2947L19.4572 25.1995C19.1335 25.1896 18.8534 25.4017 18.8197 25.6831L18.6985 26.569C18.6945 26.6047 18.6627 26.6324 18.627 26.6324Z" fill="white"/>
<path d="M29.188 26.686C29.186 26.686 29.184 26.686 29.184 26.686C29.1443 26.684 29.1125 26.6503 29.1145 26.6107L29.1423 26.0973C29.1522 25.8952 29.0807 25.703 28.9417 25.5563C28.8046 25.4136 28.6199 25.3343 28.4213 25.3343C28.4193 25.3343 28.4133 25.3343 28.4114 25.3343L25.285 25.3859C25.283 25.3859 25.2791 25.3859 25.2771 25.3859C25.142 25.3859 25.0129 25.3284 24.9235 25.2293C24.8302 25.1262 24.7865 24.9895 24.8004 24.8508L24.8937 24.0203C24.8977 23.9807 24.9335 23.951 24.9732 23.9549C25.0129 23.9609 25.0407 23.9966 25.0367 24.0362L24.9434 24.8666C24.9335 24.9637 24.9652 25.0588 25.0288 25.1302C25.0924 25.2015 25.1837 25.2412 25.2771 25.2412C25.2791 25.2412 25.2811 25.2412 25.283 25.2412L28.4074 25.1896C28.6497 25.1877 28.8761 25.2808 29.045 25.4552C29.2138 25.6316 29.2992 25.8615 29.2873 26.1053L29.2595 26.6186C29.2575 26.6562 29.2257 26.686 29.188 26.686Z" fill="white"/>
<path d="M13.6871 15.2307H5.43828C5.3191 15.2307 5.22575 15.1277 5.23966 15.0088L5.6806 11.1778C5.69252 11.0767 5.77792 10.9995 5.87922 10.9995H14.128C14.2472 10.9995 14.3406 11.1045 14.3267 11.2234L13.8857 15.0544C13.8738 15.1554 13.7884 15.2307 13.6871 15.2307Z" fill="white"/>
<path d="M13.8975 15.0088C13.8955 15.0088 13.8935 15.0088 13.8896 15.0088C13.8498 15.0028 13.822 14.9672 13.826 14.9275L14.255 11.2155C14.259 11.1778 14.2471 11.1421 14.2232 11.1164C14.1994 11.0886 14.1656 11.0728 14.1279 11.0728H5.87909C5.81354 11.0728 5.75991 11.1203 5.75197 11.1857L5.68245 11.7902C5.67848 11.8299 5.64272 11.8576 5.603 11.8536C5.56327 11.8497 5.53547 11.814 5.53944 11.7744L5.60896 11.1699C5.62485 11.0312 5.74005 10.9281 5.87909 10.9281H14.1279C14.2054 10.9281 14.2789 10.9618 14.3305 11.0193C14.3821 11.0767 14.406 11.154 14.398 11.2313L13.969 14.9454C13.965 14.981 13.9352 15.0088 13.8975 15.0088Z" fill="black"/>
<path d="M8.09963 23.3564H0.313603C0.210319 23.3564 0.13087 23.2652 0.142787 23.1642L0.589689 19.2777C0.601607 19.1905 0.675097 19.1251 0.762491 19.1251H8.54653C8.64982 19.1251 8.72927 19.2143 8.71735 19.3174L8.27045 23.2038C8.26052 23.291 8.18703 23.3564 8.09963 23.3564Z" fill="#CADDFF"/>
<path d="M5.80519 23.4714L0.31326 23.4278C0.243742 23.4278 0.178196 23.398 0.130526 23.3465C0.0848428 23.295 0.0629944 23.2236 0.0709393 23.1543L0.517841 19.2698C0.533731 19.1469 0.637015 19.0538 0.762148 19.0538H2.6014C2.64112 19.0538 2.6729 19.0855 2.6729 19.1251C2.6729 19.1648 2.64112 19.1984 2.6014 19.1984H0.762148C0.710506 19.1984 0.666809 19.2361 0.662836 19.2857L0.213948 23.1721C0.211962 23.1998 0.219907 23.2276 0.239769 23.2494C0.257645 23.2712 0.285453 23.2831 0.31326 23.2831L5.80519 23.3267C5.84491 23.3267 5.87868 23.3584 5.87669 23.398C5.87669 23.4377 5.84491 23.4714 5.80519 23.4714Z" fill="black"/>
<path d="M18.291 23.3326H10.507C10.4037 23.3326 10.3242 23.2414 10.3361 23.1384L10.783 19.2559C10.793 19.1687 10.8665 19.1013 10.9539 19.1013H18.7379C18.8412 19.1013 18.9226 19.1925 18.9107 19.2955L18.4638 23.18C18.4519 23.2672 18.3784 23.3326 18.291 23.3326Z" fill="#CADDFF"/>
<path d="M12.7912 23.4376C12.7515 23.4376 12.7197 23.4059 12.7197 23.3663C12.7197 23.3267 12.7515 23.293 12.7912 23.293L18.2911 23.2593C18.3427 23.2593 18.3845 23.2216 18.3904 23.1701L18.8393 19.2876C18.8413 19.2579 18.8333 19.2301 18.8135 19.2083C18.7956 19.1865 18.7678 19.1746 18.74 19.1746H16.573C16.5333 19.1746 16.4995 19.141 16.4995 19.1013C16.4995 19.0617 16.5333 19.03 16.573 19.03H18.74C18.8095 19.03 18.8751 19.0597 18.9207 19.1112C18.9684 19.1647 18.9903 19.2341 18.9823 19.3035L18.5354 23.1879C18.5195 23.3108 18.4162 23.404 18.2911 23.404L12.7912 23.4376Z" fill="black"/>
<path d="M27.3087 37.4336C27.2749 37.4336 27.2431 37.4079 27.2372 37.3742C27.2312 37.3346 27.257 37.2969 27.2968 37.289C28.2382 37.1225 29.1757 36.8629 30.0795 36.522C31.5235 35.973 32.8701 35.2199 34.0817 34.2785C34.1115 34.2547 34.1572 34.2607 34.183 34.2924C34.2069 34.3241 34.2009 34.3697 34.1691 34.3935C32.9476 35.3428 31.589 36.1038 30.1291 36.6568C29.2175 37.0016 28.274 37.2632 27.3206 37.4317C27.3166 37.4336 27.3127 37.4336 27.3087 37.4336Z" fill="black"/>
<path d="M35.8353 34.3261C35.8154 34.3261 35.7956 34.3181 35.7817 34.3023C35.7558 34.2726 35.7578 34.227 35.7876 34.2012C35.9545 34.0506 36.1193 33.896 36.2782 33.7394C36.308 33.7117 36.3537 33.7117 36.3815 33.7394C36.4093 33.7692 36.4073 33.8147 36.3795 33.8425C36.2186 34.001 36.0518 34.1576 35.883 34.3082C35.871 34.3201 35.8532 34.3261 35.8353 34.3261Z" fill="black"/>
<path d="M30.0915 37.6813C30.0597 37.6813 30.0319 37.6615 30.022 37.6318C30.0101 37.5941 30.0299 37.5525 30.0677 37.5406C30.2663 37.4733 30.4669 37.4019 30.6616 37.3266C32.5604 36.6072 34.2864 35.5548 35.788 34.2012C35.8178 34.1734 35.8635 34.1754 35.8893 34.2071C35.9171 34.2349 35.9152 34.2824 35.8854 34.3082C34.3679 35.6757 32.6279 36.736 30.7132 37.4633C30.5146 37.5387 30.314 37.61 30.1134 37.6774C30.1054 37.6794 30.0975 37.6813 30.0915 37.6813Z" fill="black"/>
<path d="M26.5138 37.5941L26.9269 37.7309L26.8197 37.2116L26.5138 37.5941ZM27.1196 37.9449L26.2715 37.6655L26.8991 36.8826L27.1196 37.9449Z" fill="black"/>
<path d="M28.9687 2.07509C28.9509 2.07509 28.933 2.06915 28.9191 2.05527C28.8893 2.02753 28.8893 1.98195 28.9171 1.95222L29.1435 1.71439C29.1713 1.68665 29.215 1.68466 29.2448 1.71241C29.2726 1.74016 29.2746 1.78574 29.2468 1.81547L29.0204 2.05329C29.0065 2.06717 28.9866 2.07509 28.9687 2.07509Z" fill="black"/>
<path d="M28.1748 2.90943C28.1569 2.90943 28.139 2.90151 28.1251 2.88962C28.0953 2.86187 28.0953 2.81629 28.1232 2.78656L28.3496 2.54873C28.3774 2.51901 28.4231 2.51901 28.4509 2.54675C28.4807 2.5745 28.4807 2.62008 28.4529 2.64783L28.2264 2.88763C28.2125 2.90151 28.1927 2.90943 28.1748 2.90943Z" fill="black"/>
<path d="M28.3967 2.08898C28.3788 2.08898 28.3609 2.08105 28.345 2.06718L28.1146 1.83926C28.0868 1.81152 28.0868 1.76593 28.1146 1.73819C28.1424 1.70846 28.1881 1.70846 28.2179 1.73621L28.4463 1.96412C28.4761 1.99187 28.4761 2.03745 28.4483 2.06718C28.4344 2.08105 28.4145 2.08898 28.3967 2.08898Z" fill="black"/>
<path d="M29.2033 2.88564C29.1854 2.88564 29.1656 2.87969 29.1516 2.86582L28.9212 2.6379C28.8934 2.61016 28.8934 2.56259 28.9212 2.53485C28.9491 2.5071 28.9947 2.5071 29.0225 2.53485L29.2529 2.76276C29.2808 2.79051 29.2827 2.83609 29.2529 2.86384C29.239 2.87969 29.2212 2.88564 29.2033 2.88564Z" fill="black"/>
<path d="M26.6369 1.10198C26.6071 1.10198 26.5774 1.10594 26.5495 1.11387C26.4622 1.13567 26.3887 1.19314 26.343 1.27044C26.2496 1.43295 26.3052 1.64105 26.4661 1.73618C26.629 1.82932 26.8356 1.77383 26.9289 1.61132C27.0223 1.44881 26.9667 1.24071 26.8058 1.14756C26.7541 1.11585 26.6945 1.10198 26.6369 1.10198ZM26.635 1.92644C26.5535 1.92644 26.4701 1.90464 26.3946 1.86103C26.1642 1.72627 26.0848 1.42899 26.2178 1.19909C26.2834 1.08612 26.3867 1.00685 26.5118 0.973157C26.6369 0.939465 26.766 0.957302 26.8773 1.02072C27.1077 1.15549 27.1871 1.45277 27.0541 1.68267C26.9647 1.83923 26.8018 1.92644 26.635 1.92644Z" fill="black"/>
<path d="M23.6994 38.6564C23.5823 38.6564 23.4671 38.7179 23.4055 38.8269C23.3121 38.9894 23.3677 39.1975 23.5286 39.2906C23.6081 39.3362 23.6994 39.3481 23.7868 39.3243C23.8742 39.3006 23.9457 39.2451 23.9914 39.1658C24.0371 39.0885 24.049 38.9953 24.0252 38.9081C24.0014 38.8209 23.9457 38.7476 23.8683 38.702C23.8146 38.6703 23.757 38.6564 23.6994 38.6564ZM23.6975 39.4809C23.614 39.4809 23.5306 39.4591 23.4571 39.4155C23.2267 39.2827 23.1473 38.9854 23.2803 38.7536C23.4134 38.5217 23.7094 38.4424 23.9398 38.5772C24.051 38.6406 24.1324 38.7456 24.1642 38.8705C24.198 38.9953 24.1801 39.1262 24.1166 39.2391C24.051 39.3501 23.9477 39.4314 23.8226 39.4651C23.7809 39.475 23.7392 39.4809 23.6975 39.4809Z" fill="black"/>
<path d="M31.7216 15.1098H23.4211C23.298 15.1098 23.2026 15.0028 23.2185 14.8819L23.6615 11.0311C23.6734 10.9281 23.7608 10.8488 23.8641 10.8488H32.1645C32.2877 10.8488 32.383 10.9558 32.3691 11.0787L31.9262 14.9295C31.9143 15.0325 31.8269 15.1098 31.7216 15.1098Z" fill="white"/>
<path d="M23.8641 10.9221C23.7965 10.9221 23.7409 10.9717 23.733 11.0391L23.29 14.8898C23.2841 14.9275 23.296 14.9652 23.3218 14.9929C23.3476 15.0226 23.3834 15.0385 23.4211 15.0385H31.7216C31.7891 15.0385 31.8467 14.987 31.8547 14.9196L32.2976 11.0708C32.3016 11.0311 32.2897 10.9955 32.2638 10.9657C32.238 10.938 32.2042 10.9221 32.1645 10.9221H23.8641ZM31.7216 15.1832H23.4211C23.3417 15.1832 23.2662 15.1495 23.2146 15.09C23.1609 15.0306 23.1371 14.9513 23.145 14.874L23.59 11.0232C23.6059 10.8825 23.723 10.7775 23.8641 10.7775H32.1645C32.244 10.7775 32.3195 10.8112 32.3711 10.8706C32.4247 10.9301 32.4486 11.0074 32.4406 11.0866L31.9977 14.9374C31.9798 15.0781 31.8626 15.1832 31.7216 15.1832Z" fill="black"/>
<path d="M33.1538 5.82478C31.5846 5.82478 32.0375 5.85649 30.667 6.11215L33.0783 7.85818C33.5609 8.20897 34.0853 8.49238 34.6414 8.70642C35.0387 8.85902 35.3605 9.1781 35.426 9.60619C35.5412 10.3276 41.5972 9.82221 35.3744 6.04873C34.8123 5.70785 33.4894 5.82478 33.1538 5.82478Z" fill="black"/>
<path d="M33.1283 7.29333C33.0827 7.28144 33.0409 7.25964 33.0052 7.22991L32.457 6.77408C32.3994 6.73841 32.3239 6.74237 32.2723 6.78795L31.879 7.12091C31.8293 7.16253 31.7559 7.16649 31.7022 7.12884L31.2077 6.78795L30.9653 6.86525C30.9455 6.87119 30.9256 6.86128 30.9197 6.84345L30.7608 6.39554C30.6932 6.24096 30.4608 5.9853 30.5204 5.92782C30.5204 5.92782 31.2315 4.34827 32.0121 4.7169C32.1253 4.77041 32.2127 4.86752 32.2623 4.98247L32.3676 5.22228C32.4729 5.46406 33.0092 6.01701 33.5713 6.1597C33.6467 6.17952 33.8414 6.19538 33.9924 6.20528C34.1056 6.21123 34.181 6.32221 34.1493 6.43122C34.1135 6.56004 34.046 6.74039 33.9228 6.9465C33.758 7.21802 33.4422 7.36468 33.1343 7.29333C33.1323 7.29333 33.1303 7.29333 33.1283 7.29333Z" fill="white"/>
<path d="M33.1444 7.22197L33.1503 7.22395C33.4244 7.28737 33.7084 7.16053 33.8594 6.90884C33.9845 6.70074 34.0481 6.52435 34.0799 6.41139C34.0898 6.37968 34.0838 6.34598 34.066 6.32022C34.0461 6.29446 34.0183 6.2786 33.9865 6.27662C33.7641 6.26275 33.6191 6.24689 33.5535 6.23104C32.9517 6.07645 32.4114 5.50369 32.3022 5.25199L32.1969 5.01219C32.1512 4.90913 32.0758 4.82787 31.9804 4.78229C31.8533 4.72283 31.7222 4.71689 31.5812 4.7704C31.035 4.97255 30.592 5.94763 30.5861 5.95754C30.5861 5.95952 30.5861 5.9615 30.5841 5.9615C30.594 5.99916 30.6556 6.09032 30.6973 6.15176C30.747 6.22509 30.7986 6.30238 30.8264 6.36778C30.8284 6.36778 30.8284 6.36977 30.8284 6.37175L30.9754 6.78596L31.1839 6.71858C31.2058 6.71263 31.2296 6.71461 31.2475 6.72848L31.7441 7.06937C31.7719 7.08919 31.8076 7.0872 31.8334 7.0654L32.2247 6.73245C32.3022 6.66705 32.4114 6.65912 32.4968 6.71263C32.4988 6.71461 32.5008 6.71659 32.5048 6.71858L33.051 7.17441C33.0808 7.19819 33.1106 7.21404 33.1444 7.22197ZM33.2913 7.38448C33.2337 7.38448 33.1761 7.37854 33.1185 7.36467L33.1106 7.36268C33.057 7.35079 33.0053 7.32305 32.9596 7.28539L32.4154 6.83352C32.3856 6.81569 32.3459 6.81965 32.3181 6.84343L31.9268 7.17639C31.8513 7.23981 31.7421 7.24377 31.6626 7.18828L31.1959 6.86722L30.9873 6.9346C30.9317 6.95244 30.8721 6.92271 30.8522 6.86722L30.6933 6.42328C30.6695 6.36977 30.6238 6.3004 30.5781 6.23302C30.4788 6.08438 30.3974 5.96546 30.461 5.88817C30.5126 5.77322 30.9535 4.84769 31.5315 4.63365C31.7083 4.56825 31.8791 4.57419 32.042 4.65148C32.1691 4.71094 32.2704 4.81796 32.328 4.95273L32.4333 5.19452C32.5346 5.4264 33.0629 5.95556 33.5893 6.09032C33.6429 6.1042 33.7879 6.11807 33.9964 6.13194C34.0719 6.13591 34.1395 6.17554 34.1832 6.23698C34.2268 6.29842 34.2408 6.37571 34.2189 6.45102C34.1692 6.62543 34.0918 6.80578 33.9845 6.98415C33.8316 7.23584 33.5674 7.38448 33.2913 7.38448Z" fill="black"/>
<path d="M29.3678 5.30355C29.5505 4.95672 29.8544 5.11329 30.0292 4.1283C30.1345 3.53572 30.6072 4.14812 30.6489 3.99552C30.7979 3.43861 30.7919 3.45843 30.9925 3.26421C31.1256 3.13538 31.4673 3.20673 31.6599 3.36528C31.9161 3.57338 32.1704 4.15407 32.4703 4.7189C32.6252 5.01023 32.4941 5.47003 31.9459 5.38084C31.7731 5.3531 31.7632 5.08554 31.6122 5.11527C31.221 5.19653 31.5427 5.5275 31.3123 5.64443C31.0919 5.75542 30.9747 5.78713 30.6906 5.87433C30.347 5.97937 30.3589 6.38565 29.8127 6.23899C29.5267 6.1617 29.1175 5.7792 29.3678 5.30355Z" fill="black"/>
<path d="M32.9337 12.361C32.9337 12.361 36.1475 11.6455 35.8614 8.73615L38.0602 9.18405C38.0602 9.18405 38.7454 12.9001 33.2317 13.0665C33.2317 13.0665 32.3041 13.6888 32.0538 13.673C31.8036 13.6551 31.1283 13.3083 31.1302 13.1934L30.8959 12.9635C30.87 12.9357 30.8522 12.902 30.8482 12.8644C30.8402 12.7693 30.9217 12.692 31.015 12.7038L31.9625 12.8386C32.0141 12.8465 32.0677 12.8366 32.1114 12.8089C32.2167 12.7475 32.2763 12.6642 32.1929 12.573L32.2425 11.9943L32.9337 12.361Z" fill="white"/>
<path d="M31.2013 13.1854C31.2549 13.2786 31.823 13.5838 32.0593 13.5996C32.2222 13.6115 32.8399 13.2409 33.1915 13.0071C33.2014 12.9991 33.2153 12.9952 33.2292 12.9952C35.2016 12.9337 36.5919 12.4165 37.3646 11.4553C38.1074 10.5317 38.026 9.47734 37.9962 9.24348L35.9404 8.82531C36.0497 10.3058 35.2472 11.2036 34.5461 11.699C33.7754 12.2421 32.9829 12.4224 32.9492 12.4303C32.9333 12.4343 32.9154 12.4323 32.9015 12.4244L32.3036 12.1093L32.2679 12.5512C32.3056 12.6028 32.3076 12.6503 32.3036 12.684C32.2917 12.7534 32.2401 12.8168 32.1487 12.8703C32.0891 12.906 32.0196 12.9199 31.9521 12.9099L31.0047 12.7772C30.9828 12.7732 30.961 12.7811 30.9431 12.797C30.9272 12.8128 30.9192 12.8346 30.9212 12.8584C30.9232 12.8782 30.9312 12.8961 30.9451 12.9099L31.1814 13.1418C31.1914 13.1537 31.1993 13.1696 31.2013 13.1854ZM32.0633 13.7443C32.0574 13.7443 32.0534 13.7443 32.0494 13.7443C31.8309 13.7285 31.1576 13.4272 31.0682 13.235L30.8438 13.015C30.806 12.9753 30.7822 12.9258 30.7762 12.8703C30.7703 12.8029 30.7961 12.7375 30.8438 12.6919C30.8934 12.6444 30.959 12.6246 31.0265 12.6325L31.9719 12.7672C32.0077 12.7712 32.0435 12.7653 32.0752 12.7454C32.1348 12.7118 32.1567 12.68 32.1606 12.6622C32.1606 12.6523 32.1547 12.6384 32.1408 12.6226C32.1269 12.6087 32.1189 12.5869 32.1209 12.5671L32.1706 11.9884C32.1726 11.9646 32.1865 11.9428 32.2063 11.9309C32.2282 11.919 32.254 11.919 32.2758 11.9309L32.9432 12.2837C33.0842 12.248 33.7953 12.0538 34.4667 11.5781C35.4598 10.8746 35.9047 9.9193 35.7895 8.74207C35.7875 8.71829 35.7954 8.69649 35.8133 8.68063C35.8292 8.66676 35.853 8.65883 35.8749 8.66478L38.0737 9.11268C38.1034 9.11863 38.1253 9.14043 38.1313 9.17015C38.1412 9.22168 38.3557 10.4524 37.4778 11.5464C36.6793 12.5393 35.2592 13.0744 33.2531 13.1379C33.0644 13.2647 32.3295 13.7443 32.0633 13.7443Z" fill="black"/>
<path d="M34.8429 8.37146L37.9175 8.12769C39.0795 9.75876 38.0943 13.0269 35.0335 13.2132L34.4277 11.2947C35.6016 10.5515 35.8618 9.58832 34.8429 8.37146Z" fill="black"/>
<path d="M13.0734 21.6262C13.0734 21.6262 13.3177 22.4665 9.67095 22.6727C6.02621 22.8768 6.63599 21.8363 6.63599 21.8363L10.4635 20.7166L13.0734 21.6262Z" fill="black"/>
<path d="M8.91767 34.7482C9.015 34.7442 8.58398 36.9223 8.58398 36.9223L9.50758 37.0333L10.0101 34.5797L8.91767 34.7482Z" fill="white"/>
<path d="M8.67207 36.8589L9.45068 36.954L9.91943 34.6669L9.00377 34.8076C9.00576 34.9285 8.97199 35.204 8.85282 35.8818C8.78132 36.2901 8.70385 36.6944 8.67207 36.8589ZM9.50828 37.1046C9.50629 37.1046 9.50232 37.1046 9.50033 37.1046L8.57673 36.9936C8.55687 36.9917 8.539 36.9818 8.52708 36.9659C8.51516 36.9481 8.51119 36.9282 8.51516 36.9084C8.69591 35.9888 8.87467 34.9543 8.86077 34.7918C8.85282 34.7819 8.84885 34.768 8.84686 34.7541C8.84289 34.7165 8.8707 34.6828 8.90844 34.6768L10.0009 34.5084C10.0227 34.5044 10.0465 34.5143 10.0624 34.5302C10.0803 34.548 10.0863 34.5718 10.0823 34.5956L9.57978 37.0472C9.57184 37.0808 9.54204 37.1046 9.50828 37.1046Z" fill="black"/>
<path d="M8.17319 37.6913C8.25264 37.2216 8.3738 36.5914 8.4751 36.4645C8.63996 36.2544 9.08885 36.7103 9.08885 36.7103C9.08885 36.7103 9.29541 36.0364 9.73834 36.1256C10.072 36.193 11.1962 37.0115 11.7881 37.6636C11.9828 37.8776 11.8298 38.2185 11.5418 38.2185H8.6201C8.34004 38.2185 8.12751 37.9668 8.17319 37.6913Z" fill="#5479F7"/>
<path d="M8.2442 37.7032C8.22632 37.8142 8.25612 37.9271 8.32961 38.0124C8.40111 38.0976 8.50638 38.1471 8.6196 38.1471H11.5413C11.6665 38.1471 11.7459 38.0659 11.7797 37.9906C11.8214 37.8934 11.8055 37.7904 11.736 37.7131C11.1501 37.069 10.0378 36.2604 9.72394 36.197C9.34855 36.1217 9.15985 36.7261 9.15787 36.7321C9.14992 36.7559 9.13006 36.7737 9.10623 36.7816C9.08239 36.7876 9.05657 36.7796 9.03869 36.7618C8.92746 36.6488 8.70699 36.4744 8.58583 36.4824C8.562 36.4824 8.54412 36.4923 8.53022 36.5101C8.49844 36.5497 8.4031 36.7499 8.2442 37.7032ZM11.5413 38.2918H8.6196C8.46467 38.2918 8.31968 38.2244 8.21838 38.1055C8.11907 37.9866 8.07736 37.832 8.10318 37.6794C8.28591 36.5874 8.38522 36.4606 8.417 36.4189C8.45673 36.3694 8.51234 36.3416 8.57789 36.3377C8.74076 36.3297 8.94534 36.4843 9.05856 36.5834C9.14198 36.3833 9.36245 35.977 9.75175 36.0543C10.1212 36.1296 11.2732 36.9897 11.8413 37.614C11.9505 37.7349 11.9763 37.9014 11.9128 38.05C11.8452 38.1987 11.7042 38.2918 11.5413 38.2918Z" fill="black"/>
<path d="M11.3767 37.7864H8.47486C8.43513 37.7864 8.40137 37.7527 8.40137 37.7131C8.40137 37.6734 8.43513 37.6417 8.47486 37.6417H11.3767C11.4165 37.6417 11.4502 37.6734 11.4502 37.7131C11.4502 37.7527 11.4165 37.7864 11.3767 37.7864Z" fill="white"/>
<path d="M5.06455 34.8988L4.00788 37.0016L3.41797 36.9401L3.94233 34.6887L5.06455 34.8988Z" fill="white"/>
<path d="M3.5071 36.8768L3.96592 36.9243L4.95705 34.9524L3.9977 34.772L3.5071 36.8768ZM4.00763 37.073C4.00564 37.073 4.00366 37.073 3.99969 37.073L3.40978 37.0115C3.38991 37.0095 3.37005 36.9996 3.35813 36.9818C3.34622 36.9659 3.34224 36.9441 3.34622 36.9243L3.87257 34.6709C3.88051 34.6333 3.91825 34.6095 3.95599 34.6174L5.07821 34.8275C5.10006 34.8315 5.11992 34.8473 5.12985 34.8671C5.13978 34.887 5.13978 34.9107 5.12787 34.9325L4.07318 37.0333C4.05927 37.0571 4.03544 37.073 4.00763 37.073Z" fill="black"/>
<path d="M3.92419 36.6884C3.92419 36.6884 3.62426 36.2306 3.13367 36.5814C3.13367 36.5814 2.41266 38.1986 2.26767 39.4512C2.22596 39.8039 2.62519 40.0418 2.91518 39.8376C3.59646 39.36 4.63128 38.4305 5.05237 36.9936C5.05237 36.9936 4.7445 36.4922 4.36712 36.304L3.92419 36.6884Z" fill="#5479F7"/>
<path d="M3.19171 36.629C3.11227 36.8094 2.47468 38.3037 2.33962 39.4591C2.32373 39.5939 2.38729 39.7207 2.50249 39.7901C2.62167 39.8615 2.76269 39.8555 2.8759 39.7782C3.60882 39.2629 4.5642 38.3671 4.97336 37.0036C4.90782 36.9045 4.6655 36.5557 4.3775 36.3912L3.9723 36.744C3.95641 36.7578 3.93655 36.7638 3.9147 36.7618C3.89484 36.7578 3.87696 36.746 3.86505 36.7301C3.86306 36.7261 3.75183 36.5616 3.56513 36.5279C3.44794 36.5061 3.32082 36.5398 3.19171 36.629ZM2.68125 39.9863C2.59386 39.9863 2.50845 39.9625 2.429 39.915C2.26414 39.8159 2.17476 39.6335 2.19661 39.4413C2.34161 38.1947 3.06062 36.5676 3.06658 36.5517C3.07254 36.5398 3.08049 36.5299 3.0924 36.522C3.26123 36.4011 3.43006 36.3555 3.59293 36.3853C3.7558 36.417 3.87299 36.518 3.93457 36.5854L4.31989 36.2505C4.34174 36.2307 4.37352 36.2267 4.39934 36.2406C4.79063 36.4328 5.10048 36.9342 5.11439 36.954C5.12432 36.9719 5.12829 36.9937 5.12233 37.0135C4.70522 38.4345 3.71608 39.366 2.95734 39.8971C2.87392 39.9546 2.77659 39.9863 2.68125 39.9863Z" fill="black"/>
<path d="M2.52862 39.6057C2.49089 39.6057 2.45911 39.576 2.45712 39.5364C2.45513 39.4967 2.48691 39.463 2.52664 39.4611C2.53855 39.4611 3.65084 39.3758 4.74724 37.0511C4.76512 37.0135 4.80683 36.9976 4.84258 37.0154C4.88032 37.0333 4.89423 37.0749 4.87834 37.1125C3.73824 39.5304 2.58027 39.6038 2.5326 39.6057C2.53061 39.6057 2.53061 39.6057 2.52862 39.6057Z" fill="white"/>
<path d="M5.25512 35.2496L3.4834 35.1902L5.90064 25.5999C6.28796 24.0659 6.91561 22.6013 7.76174 21.2636L11.4641 21.2616C11.4641 21.2616 12.8306 26.4957 10.326 35.1109H8.4748C8.4748 35.1109 9.1958 27.2508 9.13621 24.9935C9.13621 24.9935 7.39429 31.4484 5.25512 35.2496Z" fill="black"/>
<path d="M8.93394 26.1152C8.92599 26.1152 8.92003 26.1132 8.91407 26.1112C8.87633 26.1013 8.8525 26.0617 8.86442 26.022L9.51789 23.6913C9.52385 23.6656 9.54172 23.6477 9.56556 23.6398L10.0661 23.4872C10.1038 23.4753 10.1436 23.4971 10.1555 23.5348C10.1674 23.5744 10.1455 23.614 10.1078 23.6259L9.64501 23.7666L9.00345 26.0617C8.99352 26.0934 8.96572 26.1152 8.93394 26.1152Z" fill="#CADDFF"/>
<path d="M18.4517 15.0742L17.0832 15.8154C17.0832 15.8154 16.245 18.0113 15.0433 18.1441C13.8437 18.2769 12.6559 16.6081 12.6559 16.6081L11.8574 18.3205C11.8574 18.3205 13.0293 20.1378 14.8844 19.8445C16.7416 19.5532 17.2481 16.7528 17.2481 16.7528C17.2461 16.7548 17.687 16.7964 17.8519 16.3663C17.9929 15.9997 17.9353 15.7837 17.9353 15.7837C17.9353 15.7837 18.5947 15.4309 18.4517 15.0742Z" fill="white"/>
<path d="M11.9409 18.3145C12.1098 18.5543 13.2221 20.0328 14.8746 19.7731C16.6582 19.4917 17.1707 16.7666 17.1766 16.7409C17.1826 16.7092 17.2064 16.6874 17.2362 16.6814C17.2442 16.6794 17.2521 16.6794 17.2601 16.6814C17.2839 16.6834 17.6454 16.7032 17.7844 16.3405C17.9135 16.0056 17.8659 15.8054 17.8659 15.8034C17.8559 15.7717 17.8718 15.7361 17.9016 15.7202C18.0486 15.6409 18.3922 15.4071 18.4002 15.1851L17.1409 15.8669C17.0396 16.1265 16.2252 18.0866 15.0514 18.2154C15.0037 18.2213 14.9541 18.2233 14.9064 18.2233C13.8894 18.2233 12.938 17.0956 12.6699 16.7488L11.9409 18.3145ZM14.4853 19.9495C12.8427 19.9495 11.8098 18.3779 11.7979 18.3601C11.784 18.3402 11.782 18.3125 11.794 18.2907L12.5904 16.5784C12.6004 16.5546 12.6242 16.5387 12.65 16.5367C12.6739 16.5348 12.6997 16.5466 12.7136 16.5665C12.7255 16.5823 13.8914 18.1975 15.0375 18.0727C16.1796 17.9458 17.0078 15.8114 17.0158 15.7896C17.0237 15.7737 17.0336 15.7598 17.0495 15.7519L18.418 15.0107C18.4359 15.0008 18.4578 14.9988 18.4776 15.0047C18.4975 15.0127 18.5114 15.0285 18.5193 15.0464C18.6604 15.4031 18.1698 15.7301 18.0148 15.8233C18.0248 15.9144 18.0268 16.1146 17.9195 16.3921C17.7924 16.721 17.5222 16.8023 17.3733 16.8221C17.3475 16.8241 17.3256 16.8261 17.3058 16.8281C17.2184 17.2542 16.6483 19.6403 14.8965 19.9158C14.7554 19.9396 14.6184 19.9495 14.4853 19.9495Z" fill="black"/>
<path d="M17.2085 16.5923C17.1767 16.5923 17.1489 16.5724 17.139 16.5407C17.1271 16.5031 17.1489 16.4615 17.1867 16.4496C17.1887 16.4496 17.3992 16.3822 17.421 16.2157C17.4409 16.0809 17.5184 15.9779 17.5799 15.9164C17.6157 15.8808 17.6375 15.8372 17.6495 15.7896L17.2919 15.9343C17.2542 15.9482 17.2125 15.9303 17.1986 15.8927C17.1827 15.855 17.2026 15.8134 17.2383 15.7995L17.7011 15.6132C17.723 15.6053 17.7468 15.6073 17.7667 15.6211C17.7865 15.635 17.7984 15.6568 17.7984 15.6806V15.7341C17.7984 15.8431 17.7567 15.9442 17.6812 16.0195C17.6356 16.0651 17.578 16.1404 17.5641 16.2355C17.5283 16.4932 17.2423 16.5843 17.2304 16.5883C17.2224 16.5903 17.2145 16.5923 17.2085 16.5923Z" fill="black"/>
<path d="M7.97233 18.4216C7.97233 18.4216 7.12818 20.3281 5.75172 20.7166C4.37725 21.107 3.4179 19.9298 3.42386 18.7169L3.89261 18.5603C3.89261 18.5603 4.37129 19.8049 5.44187 19.4799C6.51245 19.1568 7.01099 16.626 7.01099 16.626L7.97233 18.4216Z" fill="white"/>
<path d="M3.49757 18.7684C3.5075 19.4185 3.80345 20.0388 4.2722 20.3955C4.56219 20.6175 5.0508 20.8414 5.73407 20.6472C6.96553 20.2984 7.77393 18.6733 7.8931 18.4255L7.03902 16.8321C6.898 17.4386 6.39747 19.2678 5.46394 19.5512C5.33285 19.5889 5.21169 19.6067 5.09649 19.6067C4.35761 19.6067 3.95639 18.8715 3.85311 18.6495L3.49757 18.7684ZM5.22361 20.8672C4.7628 20.8672 4.41521 20.6888 4.18481 20.5124C3.66839 20.1161 3.3486 19.4284 3.35258 18.7149C3.35258 18.6852 3.37244 18.6574 3.40223 18.6475L3.869 18.4909C3.90673 18.4791 3.94447 18.4989 3.95838 18.5345C3.97824 18.5821 4.42911 19.7118 5.42223 19.4105C6.43918 19.1033 6.93574 16.6359 6.93971 16.6121C6.94567 16.5824 6.9695 16.5586 6.9993 16.5547C7.02909 16.5487 7.05888 16.5646 7.07477 16.5903L8.03611 18.3879C8.04604 18.4077 8.04803 18.4315 8.0381 18.4513C8.00433 18.5306 7.16415 20.3935 5.77181 20.7879C5.57517 20.8434 5.39244 20.8672 5.22361 20.8672Z" fill="black"/>
<path d="M13.0731 16.5824C13.0731 16.5824 12.227 15.4745 9.83755 15.6826C6.98135 15.9283 6.76485 16.4952 6.76485 16.4952L7.50968 18.0113L6.63574 21.8363C6.63574 21.8363 7.2336 22.3337 8.6319 22.0543C10.0322 21.7749 12.4375 21.434 13.0731 21.6262L12.1873 17.9756L13.0731 16.5824Z" fill="#5479F7"/>
<path d="M6.71714 21.8066C6.86015 21.8997 7.45801 22.2149 8.61797 21.983C10.0123 21.7055 12.2031 21.3983 12.9758 21.5291L12.1157 17.9935C12.1117 17.9737 12.1157 17.9538 12.1257 17.936L12.9837 16.5903C12.8089 16.402 11.9111 15.5756 9.84347 15.754C7.42821 15.964 6.93166 16.3981 6.84625 16.4991L7.57519 17.9796C7.58115 17.9935 7.58314 18.0113 7.57917 18.0272L6.71714 21.8066ZM7.82149 22.2129C6.98727 22.2129 6.60989 21.9096 6.59002 21.8918C6.56818 21.876 6.55824 21.8482 6.5642 21.8205L7.43417 18.0192L6.69927 16.5269C6.69132 16.5091 6.68934 16.4873 6.69728 16.4694C6.72112 16.406 7.01309 15.8531 9.83155 15.6093C12.2329 15.4012 13.0949 16.4932 13.1307 16.5388C13.1486 16.5626 13.1505 16.5963 13.1347 16.622L12.2647 17.9895L13.1426 21.6084C13.1486 21.6342 13.1426 21.6599 13.1227 21.6778C13.1049 21.6976 13.0771 21.7035 13.0532 21.6956C12.4434 21.5113 10.0639 21.8442 8.64577 22.1257C8.33394 22.1891 8.05984 22.2129 7.82149 22.2129Z" fill="black"/>
<path d="M4.13919 20.0289L7.54558 20.1676C7.66078 20.1676 7.73228 20.0407 7.67071 19.9417L5.464 15.8947C5.42229 15.8253 5.3488 15.7837 5.26737 15.7837L1.82324 15.863L4.13919 20.0289Z" fill="white"/>
<path d="M3.89273 20.1676H7.57123L5.15796 15.7837H1.48145L3.89273 20.1676Z" fill="white"/>
<path d="M3.93467 20.0962H7.44832L5.11648 15.855H1.60284L3.93467 20.0962ZM7.57146 20.2409H3.89296C3.86714 20.2409 3.84331 20.225 3.8294 20.2032L1.41812 15.8193C1.4062 15.7955 1.4062 15.7698 1.41812 15.746C1.43202 15.7242 1.45586 15.7103 1.48168 15.7103H5.15819C5.18401 15.7103 5.20983 15.7262 5.22175 15.748L7.63502 20.1319C7.64694 20.1557 7.64694 20.1834 7.63304 20.2052C7.61913 20.227 7.59728 20.2409 7.57146 20.2409Z" fill="black"/>
<path d="M3.80746 20.0289C3.80746 20.0289 3.87698 19.6662 3.80746 19.4244C3.73993 19.1806 3.31091 18.4592 3.18776 18.3086C3.0666 18.158 2.96133 19.7693 3.80746 20.0289Z" fill="white"/>
<path d="M3.19129 18.4374C3.16547 18.6118 3.16547 19.0121 3.30252 19.3827C3.40382 19.6582 3.55278 19.8425 3.74942 19.9297C3.76531 19.8128 3.78319 19.5988 3.73949 19.4442C3.68189 19.244 3.35615 18.6772 3.19129 18.4374ZM3.80702 20.1022C3.80106 20.1022 3.79312 20.1002 3.78716 20.0982C3.25882 19.9357 3.05225 19.2797 3.03438 18.7188C3.02842 18.5167 3.04232 18.2689 3.14164 18.2313C3.16944 18.2214 3.21115 18.2233 3.24293 18.263C3.37402 18.4235 3.80702 19.1568 3.87654 19.4045C3.95003 19.6602 3.8825 20.0269 3.87853 20.0427C3.87455 20.0625 3.86264 20.0804 3.84476 20.0923C3.83284 20.0982 3.82093 20.1022 3.80702 20.1022Z" fill="black"/>
<path d="M2.63592 12.4918C2.17313 12.7752 2.09964 13.3162 2.09368 13.3618C2.02218 13.9762 2.45716 14.6104 2.93187 14.7055C3.33905 14.7868 3.48007 14.4142 3.99053 14.438C4.56058 14.4657 4.68571 15.3496 5.22994 15.4685C6.03039 15.6449 6.23299 15.2109 7.15261 15.2763C7.85971 15.3258 7.96697 15.5815 8.73763 15.5894C8.82502 15.5894 9.55595 14.9949 10.0168 14.4578C10.4776 13.9187 10.4875 13.1002 10.1459 12.5572C10.1101 12.4997 9.73471 11.919 9.23617 11.9329C8.92433 11.9408 8.86077 12.1767 8.56482 12.1707C8.106 12.1628 8.01464 11.6039 7.61342 11.5801C7.15063 11.5524 7.04734 12.2876 6.42367 12.3907C5.95293 12.47 5.81985 12.0835 5.31535 12.1727C4.79098 12.2658 4.76516 12.7098 4.32223 12.7237C3.89519 12.7375 3.77801 12.3352 3.22782 12.3312C3.11063 12.3312 2.87228 12.3471 2.63592 12.4918Z" fill="black"/>
<path d="M11.031 14.6877C11.0628 14.6362 10.9138 14.3647 10.9079 14.2636C10.9019 14.1645 10.9794 14.0813 11.0131 13.9762C11.0449 13.8712 11.0092 13.6849 11.0092 13.6849C10.9635 12.4383 9.61085 12.7336 9.61085 12.7336C9.29901 12.8287 9.11628 13.1795 9.05669 13.4134C8.94149 13.8632 9.15402 14.4102 9.15402 14.4102C9.14607 14.4301 8.92362 15.8907 8.91369 15.9105C8.77266 16.1801 9.71612 16.3584 10.0121 16.0849C10.1134 15.9918 9.98426 15.314 10.0121 15.314C10.1233 15.31 10.2603 15.4309 10.3994 15.3933C10.606 15.3378 10.7609 14.8205 10.7907 14.7809C10.8046 14.763 10.8522 14.7511 10.9019 14.7412C10.9575 14.7273 11.0151 14.7135 11.031 14.6877Z" fill="white"/>
<path d="M9.22439 14.4301C9.21644 14.4678 9.16083 14.8185 9.11316 15.1277C8.99001 15.9224 8.98803 15.9264 8.97809 15.9423C8.97214 15.9561 8.96022 15.9799 9.01583 16.0215C9.19658 16.1623 9.76464 16.2158 9.96525 16.0315C10.003 15.976 9.96525 15.6331 9.95135 15.5043C9.93347 15.3259 9.9295 15.2982 9.95731 15.2664C9.97121 15.2526 9.99107 15.2427 10.0109 15.2407C10.0725 15.2387 10.1321 15.2625 10.1897 15.2863C10.2572 15.314 10.3228 15.3378 10.3824 15.3239C10.5075 15.2902 10.6386 14.9612 10.6882 14.8384C10.7141 14.773 10.722 14.7531 10.7339 14.7373C10.7637 14.6977 10.8154 14.6858 10.8829 14.6719C10.9047 14.6659 10.9405 14.658 10.9623 14.6501C10.9544 14.6124 10.9246 14.5411 10.9067 14.4935C10.873 14.4063 10.8392 14.3251 10.8372 14.2676C10.8312 14.1863 10.867 14.1209 10.8988 14.0555C10.9167 14.0218 10.9345 13.9881 10.9445 13.9544C10.9663 13.8851 10.9464 13.7444 10.9385 13.7008C10.9385 13.6968 10.9365 13.6928 10.9365 13.6889C10.9266 13.3658 10.8213 13.126 10.6267 12.9734C10.2572 12.6861 9.67328 12.7951 9.62958 12.805C9.3376 12.8961 9.17672 13.241 9.12706 13.4312C9.01782 13.8534 9.22042 14.3786 9.2224 14.3825C9.22836 14.3984 9.22836 14.4142 9.22439 14.4301ZM9.53623 16.295C9.29589 16.295 9.0496 16.2316 8.92645 16.1365C8.8331 16.0651 8.80529 15.974 8.847 15.8848C8.85892 15.8253 8.92049 15.427 8.97015 15.1059C9.04563 14.6283 9.06946 14.4717 9.08138 14.4162C9.04165 14.3092 8.87878 13.8197 8.98803 13.3956C9.04364 13.1736 9.23432 12.7733 9.58985 12.6662C9.59184 12.6643 9.59383 12.6643 9.59581 12.6643C9.62362 12.6583 10.2791 12.5196 10.7141 12.8585C10.9445 13.0388 11.0676 13.3123 11.0815 13.677C11.0875 13.7166 11.1173 13.8871 11.0815 13.9981C11.0676 14.0436 11.0458 14.0853 11.0279 14.1229C11.0021 14.1744 10.9782 14.218 10.9802 14.2597C10.9822 14.2933 11.014 14.3746 11.0398 14.44C11.1014 14.5946 11.1292 14.6699 11.0934 14.7254C11.0597 14.7789 10.9882 14.7948 10.9186 14.8106C10.8948 14.8166 10.863 14.8245 10.8471 14.8304C10.8412 14.8443 10.8312 14.8681 10.8213 14.8919C10.7498 15.0722 10.6147 15.4111 10.4181 15.4627C10.3148 15.4904 10.2155 15.4527 10.1361 15.421C10.1202 15.4131 10.1023 15.4072 10.0864 15.4012C10.0884 15.429 10.0924 15.4587 10.0944 15.4884C10.1361 15.8709 10.142 16.0651 10.0626 16.1385C9.94142 16.2495 9.74081 16.295 9.53623 16.295Z" fill="black"/>
<path d="M11.5756 12.8168C11.4385 12.6781 11.2995 12.8168 10.7593 12.7395C10.3104 12.6761 10.1793 12.5493 9.83963 12.6048C9.74429 12.6206 9.57347 12.6503 9.40464 12.7732C9.15438 12.9575 9.06103 13.2152 9.01137 13.4074C8.91603 13.782 9.0352 14.22 9.09082 14.3865C9.10472 14.4261 9.14246 14.4519 9.18616 14.4499C9.29937 14.44 9.40067 14.4241 9.49005 14.4043C9.53176 14.3964 9.5556 14.3508 9.53971 14.3112C9.53574 14.2993 9.53176 14.2874 9.52779 14.2755C9.48409 14.1169 9.55957 13.9584 9.69662 13.9187C9.83566 13.8791 9.98264 13.9742 10.0283 14.1328C10.0303 14.1447 10.0343 14.1546 10.0363 14.1665C10.2349 14.0159 10.3362 13.8434 10.5189 13.7523C10.5408 13.7404 10.6381 13.6968 10.7851 13.6928C11.1049 13.6809 11.2101 13.8712 11.3611 13.8335C11.6253 13.7701 11.8199 13.0646 11.5756 12.8168Z" fill="black"/>
<path d="M10.0438 15.3853C10.0378 15.3853 10.0299 15.3853 10.0239 15.3833C9.5214 15.2248 9.44394 14.8878 9.44195 14.874C9.43401 14.8363 9.45784 14.7967 9.49757 14.7888C9.53531 14.7788 9.57304 14.8046 9.58297 14.8423C9.58496 14.8561 9.65051 15.1138 10.0656 15.2446C10.1034 15.2565 10.1252 15.2981 10.1133 15.3358C10.1034 15.3655 10.0756 15.3853 10.0438 15.3853Z" fill="black"/>
</svg>
