<svg width="105" height="117" viewBox="0 0 105 117" fill="none" xmlns="http://www.w3.org/2000/svg">
<mask id="mask0_323_5669" style="mask-type:luminance" maskUnits="userSpaceOnUse" x="28" y="0" width="77" height="117">
<path d="M104.667 0.316406H28.377V116.316H104.667V0.316406Z" fill="white"/>
</mask>
<g mask="url(#mask0_323_5669)">
<path d="M55.7443 24.1477C55.7443 19.3929 51.9207 15.5353 47.2078 15.5353C42.4948 15.5353 38.6712 19.3929 38.6712 24.1477C38.6712 28.9025 42.4948 32.7601 47.2078 32.7601C51.9207 32.7601 55.7443 28.9025 55.7443 24.1477ZM45.3453 49.2024C36.5243 34.8505 21.3136 14.8919 32.4432 4.44587C38.6652 1.78452 45.5101 0.316406 52.6932 0.316406C54.4867 0.316406 56.2563 0.407031 58.005 0.585259C76.8087 11.6355 63.3766 22.3775 57.1546 37.3638C49.3426 56.1775 53.313 67.4271 83.1954 69.4238C74.8834 73.8463 48.0461 76.3837 53.7352 94.3939C57.8912 77.0483 90.8786 81.6823 90.8786 69.2818C90.8756 56.25 64.8917 65.8531 60.3465 54.3378C52.6422 34.8232 92.4686 14.6049 59.9691 0.829947C85.2285 4.40056 104.667 26.2804 104.667 52.7489C104.667 81.7095 81.3959 105.184 52.6932 105.184C51.7381 105.184 50.7888 105.157 49.8457 105.103C48.8366 110.864 48.5431 116.328 48.5431 116.328C47.3395 110.939 46.9592 107.583 46.9442 104.864C46.9353 104.861 46.9263 104.861 46.9143 104.858C46.9263 104.65 46.9383 104.438 46.9503 104.227C46.9802 102.405 47.1689 100.831 47.3665 99.052C47.4203 98.5324 47.4742 98.0099 47.5341 97.4873V97.4842C49.4025 80.773 53.7711 62.9139 45.3453 49.2024Z" fill="#2923FF"/>
</g>
<mask id="mask1_323_5669" style="mask-type:luminance" maskUnits="userSpaceOnUse" x="0" y="1" width="46" height="104">
<path d="M45.4127 1.89624H0.666992V104.749H45.4127V1.89624Z" fill="white"/>
</mask>
<g mask="url(#mask1_323_5669)">
<path d="M17.5404 14.1336C18.9537 5.51514 31.4306 2.18921 31.4306 2.18921C27.574 3.71774 24.6217 8.6145 24.6217 8.6145C18.9057 18.4986 30.4515 34.4637 41.605 55.0022C48.7013 68.0764 40.8803 89.6783 44.6022 104.55C19.7411 100.629 0.71875 78.9332 0.71875 52.7487C0.71875 37.4694 7.20426 23.7187 17.5404 14.1336Z" fill="#3B9639"/>
</g>
<path d="M47.4695 34.3705C52.6389 34.3705 56.8296 30.0824 56.8296 24.7928C56.8296 19.5032 52.6389 15.2151 47.4695 15.2151C42.3 15.2151 38.1094 19.5032 38.1094 24.7928C38.1094 30.0824 42.3 34.3705 47.4695 34.3705Z" fill="#FF7635"/>
</svg>
