<svg xmlns="http://www.w3.org/2000/svg" viewBox="0 0 71.87 43.27"><defs><style>.cls-1,.cls-4{opacity:0.84;}.cls-2{fill:#231f20;}.cls-3{fill:#00aeef;}.cls-4{font-size:6.56px;fill:#3a3c98;font-family:CarterOne, Carter One;letter-spacing:-0.02em;}.cls-5{letter-spacing:-0.02em;}.cls-6{fill:#4059a8;}.cls-6,.cls-7{stroke:#231f20;stroke-miterlimit:10;stroke-width:0.5px;}.cls-7{fill:#489dd6;}</style></defs><title>LOgo 0</title><g id="Layer_2" data-name="Layer 2"><g id="Layer_1-2" data-name="Layer 1"><g class="cls-1"><path class="cls-2" d="M33.33,24.81l.09-.3a.23.23,0,0,1,.17-.13L35.25,24a.47.47,0,0,1,.17,0,.14.14,0,0,1,.12.06.5.5,0,0,1,0,.22,2.81,2.81,0,0,0-.07.47c0,.21,0,.44,0,.69s0,.51,0,.76v1c0,.26,0,.55,0,.86s0,.63,0,.95l0,1c0,.31,0,.6,0,.87l0,1.1a.13.13,0,0,0,0,.06v.14a1,1,0,0,0,0,.19v.13a.37.37,0,0,1,0,.11.19.19,0,0,1,0,.1l-.1.1-.19.13-.21.13c-.1.06-.21.12-.32.2l-.38.22-.35.21-.36.21-3-4.58L30.13,33a.43.43,0,0,1,0,.11.13.13,0,0,1-.09.09l-.2.08-.32.12-.4.15-.4.13a3,3,0,0,1-.33.1.7.7,0,0,1-.19,0,.21.21,0,0,1-.23-.24q.07-.8.15-1.74c.06-.63.11-1.28.16-1.94l.15-2c0-.66.08-1.29.11-1.88a.91.91,0,0,0-.08-.17l-.18-.31c-.07-.12-.13-.22-.18-.32a.84.84,0,0,1-.08-.19.14.14,0,0,1,.05-.09l.15-.1,1.71-1H30l.11,0a.18.18,0,0,1,.09.1l3.1,5.6Z"/><path class="cls-2" d="M39.93,33.77a1.57,1.57,0,0,0-.09-.17l-.23-.43-.3-.58L39,32l-.48.64c-.15.22-.29.41-.42.58s-.23.32-.31.43a1.48,1.48,0,0,0-.12.17.15.15,0,0,1-.13.06h0a3.89,3.89,0,0,0-.41-.17l-.46-.13-.47-.12-.46-.11s-.06,0-.06-.06a.28.28,0,0,1,0-.12l.16-.21,1.78-2.44a.92.92,0,0,0,.06-1l-.48-.88c-.25-.46-.51-.93-.77-1.42,0-.08-.08-.15-.11-.2a.28.28,0,0,1,0-.12s0-.06.09-.07l1-.23a5.34,5.34,0,0,0,.93-.31h.06a.11.11,0,0,1,.11.06l.29.53a.91.91,0,0,0,1.51.12l.5-.65a.14.14,0,0,1,.12-.06h.05a4.24,4.24,0,0,0,.87.31l.94.23s.06,0,.06.05a.27.27,0,0,1,0,.13,1.8,1.8,0,0,0-.16.21l-1.08,1.41-.71.94a.92.92,0,0,0-.07,1L42,32.9c0,.08.08.14.1.19a.21.21,0,0,1,0,.12s0,.07-.08.08l-1,.23a5.64,5.64,0,0,0-.93.3H40A.13.13,0,0,1,39.93,33.77Z"/><path class="cls-2" d="M46.12,28.46c-.06.45-.12.89-.17,1.34a11.63,11.63,0,0,0-.1,1.25,1.66,1.66,0,0,0,0,.42.57.57,0,0,0,.11.26.49.49,0,0,0,.18.14.53.53,0,0,0,.23,0,1.85,1.85,0,0,0,.44-.06,2.81,2.81,0,0,0,.49-.16l.13-.05h.1a.08.08,0,0,1,.08.06.79.79,0,0,1,.05.2c0,.09,0,.22.06.38s.08.37.15.62V33a.12.12,0,0,1-.06.12,1,1,0,0,1-.22.09l-.56.19-.57.17-.55.12a2.91,2.91,0,0,1-.46,0,2,2,0,0,1-1.56-.53,2.33,2.33,0,0,1-.49-1.62c0-.13,0-.25,0-.38l0-.41c0-.43.08-.83.11-1.22s.07-.74.1-1.09H43a2.91,2.91,0,0,1-.5,0q-.15,0-.15-.12a.52.52,0,0,1,.06-.14l.17-.27.21-.33.22-.34.18-.27.1-.14h.45c0-.33.07-.6.1-.82s0-.4.05-.55,0-.25,0-.33A.6.6,0,0,1,44,25a.09.09,0,0,1,.06-.07l.09,0,.56-.11.53-.1a5.41,5.41,0,0,0,.55-.12l.58-.15h0s.08,0,.08.05v0c0,.23-.06.56-.1,1s-.1.89-.15,1.42H48a.16.16,0,0,1,.09,0,.13.13,0,0,1,0,.12,1.05,1.05,0,0,1-.07.23c-.06.13-.13.31-.22.52l-.23.52a.39.39,0,0,1-.1.14.32.32,0,0,1-.19.06Z"/><path class="cls-3" d="M48.25,29.26a5.46,5.46,0,0,1,.65-2.68,5,5,0,0,1,.76-1.06,4.85,4.85,0,0,1,1-.82A4.73,4.73,0,0,1,53.2,24a5.75,5.75,0,0,1,1,.07,4,4,0,0,1,.74.19,2.49,2.49,0,0,1,.54.24,2.89,2.89,0,0,1,.35.26v0c0,.07,0,.19,0,.36s0,.36,0,.57,0,.42,0,.63,0,.41,0,.56a.15.15,0,0,1,0,.09.14.14,0,0,1-.13.05l-.14,0a1.64,1.64,0,0,1-.34-.18l-.48-.29a3.11,3.11,0,0,0-.61-.26,2.11,2.11,0,0,0-.73-.12,2,2,0,0,0-.95.22,2.15,2.15,0,0,0-.73.61,3.07,3.07,0,0,0-.47.94,4,4,0,0,0-.17,1.17,5,5,0,0,0,.11,1.05,2.62,2.62,0,0,0,.31.84,1.63,1.63,0,0,0,.51.56,1.27,1.27,0,0,0,.73.2,2.77,2.77,0,0,0,.91-.17l.15-.9H52.64c.1-.52.18-.92.25-1.22a5.28,5.28,0,0,1,.19-.66.58.58,0,0,1,.19-.29.48.48,0,0,1,.22-.05h3.37a.56.56,0,0,1,.21,0s.07.05.07.13a.76.76,0,0,1,0,.14c0,.05,0,.12,0,.19L56.78,30c0,.14-.07.24-.1.32a.4.4,0,0,1-.1.16.24.24,0,0,1-.15.07h-.29c-.07,0-.11,0-.12.08l0,.17c0,.19-.05.38-.08.56s0,.36-.07.52-.05.3-.08.42a1.43,1.43,0,0,1-.07.27l-.79.48a5.17,5.17,0,0,1-.71.35,4.5,4.5,0,0,1-.74.21,6,6,0,0,1-.9.07,4.32,4.32,0,0,1-1.69-.33,4,4,0,0,1-1.37-.92,4.13,4.13,0,0,1-.91-1.41A4.82,4.82,0,0,1,48.25,29.26Z"/><path class="cls-3" d="M61.14,26.25a2.64,2.64,0,0,1,1.1.22,2.93,2.93,0,0,1,.85.59,2.84,2.84,0,0,1,.55.81,2.24,2.24,0,0,1,.19.9,1.54,1.54,0,0,1-.24.8,2.43,2.43,0,0,1-.68.72,3.81,3.81,0,0,1-1,.52,4.51,4.51,0,0,1-1.36.2,4.61,4.61,0,0,1-.8-.08.91.91,0,0,0,.16.47,1.07,1.07,0,0,0,.34.33,1.35,1.35,0,0,0,.46.19,2.35,2.35,0,0,0,.54.06,3.81,3.81,0,0,0,.59-.05,4.94,4.94,0,0,0,.55-.15,4.34,4.34,0,0,0,.5-.2,4.91,4.91,0,0,0,.46-.22l.1,0h.08v.39c0,.13,0,.28,0,.45s0,.37,0,.58a.36.36,0,0,1,0,.07v0c0,.05,0,.11-.14.17a2,2,0,0,1-.36.18,5.19,5.19,0,0,1-.52.19l-.6.16-.58.12c-.19,0-.35,0-.49,0a3.83,3.83,0,0,1-1.34-.24,3.57,3.57,0,0,1-1.16-.69,3.33,3.33,0,0,1-1.1-2.53,4.29,4.29,0,0,1,.29-1.57,3.77,3.77,0,0,1,.81-1.28,3.88,3.88,0,0,1,1.24-.86A4,4,0,0,1,61.14,26.25ZM61.06,28a1.09,1.09,0,0,0-.48.11,1.52,1.52,0,0,0-.41.32,2.23,2.23,0,0,0-.31.5,3.1,3.1,0,0,0-.22.65,9.55,9.55,0,0,0,1.09-.25,3.6,3.6,0,0,0,.7-.26,1,1,0,0,0,.37-.26.34.34,0,0,0,0-.47.79.79,0,0,0-.22-.18,1.18,1.18,0,0,0-.28-.12A1.47,1.47,0,0,0,61.06,28Z"/><path class="cls-3" d="M69.69,33.63l-.19.06a.85.85,0,0,1-.22,0,.3.3,0,0,1-.16,0,.18.18,0,0,1-.07-.15v0c0-.23,0-.42.07-.58s0-.31,0-.44l0-.39c0-.13,0-.28,0-.46s0-.37.06-.61,0-.53.08-.89l.06-.66q0-.34,0-.63a2,2,0,0,0,0-.36,1,1,0,0,0-.1-.28.46.46,0,0,0-.21-.18.72.72,0,0,0-.32-.07,2.05,2.05,0,0,0-.41.07,2,2,0,0,0-.52.21,1.67,1.67,0,0,0-.45.39,1,1,0,0,0-.22.59c0,.32,0,.59-.07.81s-.05.41-.06.57,0,.28,0,.38,0,.18,0,.25,0,.07,0,.14,0,.17,0,.28a3.18,3.18,0,0,0,0,.34l0,.34c0,.1,0,.19,0,.27a1.13,1.13,0,0,0,0,.14v.16a.08.08,0,0,1,0,.08.56.56,0,0,1-.21.08l-1.7.59-.18.06a.62.62,0,0,1-.23,0,.25.25,0,0,1-.15,0,.16.16,0,0,1-.07-.15L64.87,27a1.19,1.19,0,0,1,0-.29.17.17,0,0,1,.14-.1l1.2-.24a11.69,11.69,0,0,0,1.2-.3s.05,0,.06,0,0,0,0,0v0a.71.71,0,0,0,0,.12c0,.06,0,.15-.05.27s0,.29-.08.51a6.33,6.33,0,0,1,.83-.41,5.28,5.28,0,0,1,.73-.25,4,4,0,0,1,.65-.11l.56,0a1.51,1.51,0,0,1,1.31.55,2.73,2.73,0,0,1,.41,1.64v.31l0,.34-.29,2.76a2.85,2.85,0,0,0,0,.49c0,.15,0,.33,0,.53V33a.13.13,0,0,1,0,.06.11.11,0,0,1-.05.09l-.22.08Z"/></g><text class="cls-4" transform="translate(27.07 40.41)">S<tspan class="cls-5" x="3.36" y="0">olutions</tspan></text><circle class="cls-2" cx="39.52" cy="25.68" r="1.04"/><polyline class="cls-6" points="5.65 1.87 36.76 2.28 36.76 10.36"/><path class="cls-7" d="M1.87,2.85,2,12.64,15.23,13v28h9.2V12.66l13.31-.11"/><circle class="cls-2" cx="37.03" cy="12.63" r="1.87"/><circle class="cls-2" cx="1.87" cy="1.87" r="1.87"/></g></g></svg>