<svg width="36" height="40" viewBox="0 0 36 40" fill="none" xmlns="http://www.w3.org/2000/svg">
<mask id="mask0_313_3531" style="mask-type:luminance" maskUnits="userSpaceOnUse" x="6" y="37" width="5" height="3">
<path d="M6.96875 37.7202H10.6107V40H6.96875V37.7202Z" fill="white"/>
</mask>
<g mask="url(#mask0_313_3531)">
<path fill-rule="evenodd" clip-rule="evenodd" d="M8.47181 38.8524L8.49314 37.7653C8.49314 37.7653 8.07821 37.7653 7.24597 37.7641C7.23649 38.5999 7.23175 39.0184 7.23175 39.0184C7.14521 39.3669 7.13691 39.6941 7.20804 40H10.4042C10.6461 39.2934 9.99994 38.9117 8.47181 38.8524Z" fill="#FC9B7A"/>
</g>
<mask id="mask1_313_3531" style="mask-type:luminance" maskUnits="userSpaceOnUse" x="6" y="38" width="5" height="2">
<path d="M6.96875 38.6307H10.6107V40H6.96875V38.6307Z" fill="white"/>
</mask>
<g mask="url(#mask1_313_3531)">
<path fill-rule="evenodd" clip-rule="evenodd" d="M10.4042 40C10.6461 39.2934 9.99994 38.9117 8.47181 38.8524L8.46469 39.169L7.23175 39.0184C7.14521 39.3669 7.13691 39.6941 7.20804 40H10.4042Z" fill="#1F5794"/>
</g>
<mask id="mask2_313_3531" style="mask-type:luminance" maskUnits="userSpaceOnUse" x="0" y="37" width="4" height="3">
<path d="M0.300781 37.7202H3.94271V40H0.300781V37.7202Z" fill="white"/>
</mask>
<g mask="url(#mask2_313_3531)">
<path fill-rule="evenodd" clip-rule="evenodd" d="M1.68763 38.8524L1.70897 37.7653C1.70897 37.7653 1.29403 37.7653 0.462981 37.7641C0.452311 38.5999 0.447569 39.0184 0.447569 39.0184C0.361026 39.3669 0.352727 39.6941 0.423858 40H3.62121C3.86188 39.2934 3.21814 38.9117 1.68763 38.8524Z" fill="#FC9B7A"/>
</g>
<mask id="mask3_313_3531" style="mask-type:luminance" maskUnits="userSpaceOnUse" x="0" y="38" width="4" height="2">
<path d="M0.300781 38.6307H3.94271V40H0.300781V38.6307Z" fill="white"/>
</mask>
<g mask="url(#mask3_313_3531)">
<path fill-rule="evenodd" clip-rule="evenodd" d="M3.62121 40C3.86188 39.2934 3.21814 38.9117 1.68763 38.8524L1.6817 39.169L0.447569 39.0184C0.361026 39.3669 0.352727 39.6941 0.423858 40H3.62121Z" fill="#1F5794"/>
</g>
<mask id="mask4_313_3531" style="mask-type:luminance" maskUnits="userSpaceOnUse" x="4" y="0" width="11" height="10">
<path d="M4.49316 0H14.4915V9.63398H4.49316V0Z" fill="white"/>
</mask>
<g mask="url(#mask4_313_3531)">
<path fill-rule="evenodd" clip-rule="evenodd" d="M6.94551 4.81148C6.94551 3.3474 8.14175 2.16025 9.61695 2.16025C11.0933 2.16025 12.2895 3.3474 12.2895 4.81148C12.2895 6.27555 11.0933 7.4638 9.61695 7.4638C8.14175 7.4638 6.94551 6.27555 6.94551 4.81148ZM8.91059 1.00952C8.70639 1.04703 8.50664 1.10109 8.31471 1.16839L7.80475 0.293477L6.58173 0.995173L7.09058 1.87009C6.93547 2.00138 6.78929 2.14591 6.65315 2.30258L5.7716 1.79837L5.06524 3.0131L5.94679 3.51841C5.91666 3.60226 5.88988 3.68832 5.86533 3.77548H5.86422L5.86087 3.78982C5.83074 3.89574 5.80731 4.00276 5.78722 4.10978H4.76953V5.51207H5.78722C5.82516 5.71618 5.87872 5.91367 5.94679 6.10564L5.06524 6.60985L5.7716 7.82458L6.65315 7.31927C6.78594 7.47373 6.93101 7.61936 7.09058 7.75286L6.58173 8.62778L7.80475 9.32837L8.31471 8.45346C8.4051 8.48656 8.49772 8.51524 8.59257 8.54062L8.60931 8.54503L8.62604 8.55055C8.63832 8.55275 8.64948 8.55606 8.66175 8.55937C8.74433 8.57923 8.8269 8.59799 8.91059 8.61343V9.62295H10.3244V8.61233C10.5297 8.57592 10.7284 8.52296 10.9203 8.45346L11.4303 9.32837L12.6544 8.62778L12.1444 7.75286C12.2996 7.62157 12.4457 7.47704 12.5819 7.31927L13.4634 7.82458L14.1698 6.60985L13.2882 6.10564C13.3251 6.00193 13.3574 5.89712 13.3853 5.7912L13.3875 5.78127L13.3898 5.77465C13.4132 5.68749 13.4311 5.60033 13.4478 5.51207H14.4655V4.10978H13.4478C13.4099 3.90677 13.3563 3.70928 13.2882 3.51841L14.1698 3.0131L13.4634 1.79837L12.5819 2.30258C12.4491 2.14922 12.3029 2.00359 12.1444 1.87009L12.6544 0.995173L11.4303 0.293477L10.9203 1.16839C10.8288 1.13639 10.7362 1.10661 10.6413 1.08233L10.6268 1.07792L10.6079 1.07351C10.5141 1.04813 10.4193 1.02717 10.3244 1.00952V0H8.91059V1.00952Z" fill="#CBB5DC"/>
</g>
<path fill-rule="evenodd" clip-rule="evenodd" d="M10.0421 4.46173H23.6916C24.9001 4.46173 25.8899 5.44256 25.8899 6.64184V36.87C25.8899 38.0703 24.9001 39.0512 23.6916 39.0512H10.0421C8.83243 39.0512 7.84375 38.0703 7.84375 36.87V6.64184C7.84375 5.44256 8.83243 4.46173 10.0421 4.46173Z" fill="#4A3674"/>
<path fill-rule="evenodd" clip-rule="evenodd" d="M10.005 4.74969H23.7282C24.7213 4.74969 25.5348 5.55731 25.5348 6.54255V36.7795C25.5348 37.7669 24.7213 38.5723 23.7282 38.5723H10.005C9.01075 38.5723 8.19727 37.7669 8.19727 36.7795V6.54255C8.19727 5.55731 9.01075 4.74969 10.005 4.74969Z" fill="#ECEBFD"/>
<path fill-rule="evenodd" clip-rule="evenodd" d="M13.317 6.31308C12.8873 6.31308 12.5358 5.96333 12.5358 5.53746C12.5358 5.44809 12.5503 5.36203 12.5793 5.28149H10.2449C9.54413 5.28149 8.97168 5.8519 8.97168 6.54698V36.2301C8.97168 37.1292 9.71263 37.8651 10.6187 37.8651H23.1312C24.0373 37.8651 24.7782 37.1292 24.7782 36.2301V6.55359C24.7782 5.85411 24.2024 5.28149 23.4972 5.28149H20.9898C21.0188 5.36203 21.0344 5.44809 21.0344 5.53746C21.0344 5.96333 20.6829 6.31308 20.2533 6.31308H13.317Z" fill="#F6F6FE"/>
<path fill-rule="evenodd" clip-rule="evenodd" d="M14.2314 5.32233H19.7238C19.8488 5.32233 19.9503 5.42383 19.9503 5.5485C19.9503 5.67207 19.8488 5.77357 19.7238 5.77357H14.2314C14.1075 5.77357 14.0049 5.67207 14.0049 5.5485C14.0049 5.42383 14.1075 5.32233 14.2314 5.32233Z" fill="#4A3674"/>
<path fill-rule="evenodd" clip-rule="evenodd" d="M11.655 8.24384H22.0964C22.9556 8.24384 23.6586 8.94112 23.6586 9.79397V21.0399C23.6586 21.8927 22.9556 22.59 22.0964 22.59H11.655C10.7958 22.59 10.0928 21.8927 10.0928 21.0399V9.79397C10.0928 8.94112 10.7958 8.24384 11.655 8.24384Z" fill="#6F59A2"/>
<path fill-rule="evenodd" clip-rule="evenodd" d="M11.0837 24.1434H22.6677C23.2123 24.1434 23.6586 24.5859 23.6586 25.1265V31.6966C23.6586 32.2372 23.2123 32.6796 22.6677 32.6796H11.0837C10.5391 32.6796 10.0928 32.2372 10.0928 31.6966V25.1265C10.0928 24.5859 10.5391 24.1434 11.0837 24.1434Z" fill="#6F59A2"/>
<path d="M11.8193 33.9683V34.1393H11.6463V33.9683H11.8193ZM11.268 33.9936C11.2089 34.0025 11.1486 34.0135 11.0906 34.0278L11.1319 34.1944C11.1832 34.1801 11.2413 34.1713 11.2926 34.1635L11.268 33.9936ZM10.6934 34.4217H10.8652V34.5938H10.6934V34.4217ZM10.6934 35.1069H10.8652V35.279H10.6934V35.1069ZM10.6934 35.7931H10.8652C10.8652 35.8008 10.8641 35.8494 10.8652 35.8538V35.8527L10.8663 35.8538C10.8697 35.8637 10.8819 35.8737 10.8886 35.8792L10.7782 36.0127C10.7291 35.9718 10.6945 35.92 10.6934 35.8527V35.7931ZM11.3116 36.1859C11.3707 36.1925 11.4298 36.198 11.489 36.2013L11.499 36.0303C11.4432 36.027 11.3886 36.0226 11.3328 36.016L11.3116 36.1859ZM12.0112 36.2057V36.0347H12.1842V36.2057H12.0112ZM12.702 36.2057V36.0347H12.8749V36.2057H12.702ZM13.3938 36.2057V36.0347H13.5657V36.2057H13.3938ZM14.0834 36.2057V36.0347H14.2564V36.2057H14.0834ZM14.7742 36.2057V36.0347H14.9471V36.2057H14.7742ZM15.4649 36.2057V36.0347H15.6367V36.2057H15.4649ZM16.1556 36.2057V36.0347H16.3275V36.2057H16.1556ZM16.8464 36.2057V36.0347H17.0182V36.2057H16.8464ZM17.5371 36.2057V36.0347H17.709V36.2057H17.5371ZM18.2267 36.2057V36.0347H18.3997V36.2057H18.2267ZM18.9175 36.2057V36.0347H19.0904V36.2057H18.9175ZM19.6082 36.2057V36.0347H19.7812V36.2057H19.6082ZM20.2989 36.2057V36.0347H20.4719V36.2057H20.2989ZM20.9897 36.2057V36.0347H21.1626V36.2057H20.9897ZM21.6793 36.2057V36.0347H21.8534V36.2057H21.6793ZM22.3845 36.1671C22.4437 36.1561 22.5028 36.1429 22.5608 36.1252L22.5106 35.9619C22.4593 35.9763 22.4057 35.9895 22.3522 35.9994L22.3845 36.1671ZM22.8811 35.6773H22.7093V35.5063H22.8811V35.6773ZM22.8811 34.991H22.7093V34.82H22.8811V34.991ZM22.8789 34.2915C22.8644 34.2066 22.7896 34.1492 22.7182 34.1117L22.6378 34.2628C22.6568 34.2728 22.7003 34.2981 22.7093 34.3191V34.3213L22.8789 34.2915ZM22.1859 33.9793C22.129 33.9738 22.0609 33.976 22.0085 33.9683L22.004 34.1404C22.0587 34.1426 22.1145 34.1448 22.1703 34.1503L22.1859 33.9793ZM21.4874 33.9683V34.1393H21.3144V33.9683H21.4874ZM20.7977 33.9683V34.1393H20.6248V33.9683H20.7977ZM20.107 33.9683V34.1393H19.934V33.9683H20.107ZM19.4163 33.9683V34.1393H19.2433V33.9683H19.4163ZM18.7244 33.9683V34.1393H18.5526V33.9683H18.7244ZM18.0348 33.9683V34.1393H17.8618V33.9683H18.0348ZM17.3441 33.9683V34.1393H17.1711V33.9683H17.3441ZM16.6533 33.9683V34.1393H16.4815V33.9683H16.6533ZM15.9626 33.9683V34.1393H15.7907V33.9683H15.9626ZM15.2719 33.9683V34.1393H15.1V33.9683H15.2719ZM14.5811 33.9683V34.1393H14.4093V33.9683H14.5811ZM13.8915 33.9683V34.1393H13.7185V33.9683H13.8915ZM13.2008 33.9683V34.1393H13.0278V33.9683H13.2008ZM12.51 33.9683V34.1393H12.3371V33.9683H12.51Z" fill="#4A3674"/>
<path fill-rule="evenodd" clip-rule="evenodd" d="M10.9542 25.2578H22.7972C23.2703 25.2578 23.6586 25.6428 23.6586 26.1128V31.8257C23.6586 32.2957 23.2703 32.6796 22.7972 32.6796H10.9542C10.4811 32.6796 10.0928 32.2957 10.0928 31.8257V26.1128C10.0928 25.6428 10.4811 25.2578 10.9542 25.2578Z" fill="#5C4C89"/>
<path fill-rule="evenodd" clip-rule="evenodd" d="M11.4402 26.7759H14.6785C14.9742 26.7759 15.2164 27.0164 15.2164 27.3099V30.3748C15.2164 30.6683 14.9742 30.9088 14.6785 30.9088H11.4402C11.1445 30.9088 10.9023 30.6683 10.9023 30.3748V27.3099C10.9023 27.0164 11.1445 26.7759 11.4402 26.7759Z" fill="#F6F6FE"/>
<path fill-rule="evenodd" clip-rule="evenodd" d="M16.3066 26.9999H22.4117V27.6619H16.3066V26.9999Z" fill="#F6F6FE"/>
<path fill-rule="evenodd" clip-rule="evenodd" d="M16.3066 28.0049H21.433V28.6669H16.3066V28.0049Z" fill="#F6F6FE"/>
<path fill-rule="evenodd" clip-rule="evenodd" d="M16.3066 29.0101H20.4689V29.672H16.3066V29.0101Z" fill="#F6F6FE"/>
<path fill-rule="evenodd" clip-rule="evenodd" d="M16.3066 30.014H22.4117V30.6771H16.3066V30.014Z" fill="#F6F6FE"/>
<path fill-rule="evenodd" clip-rule="evenodd" d="M20.5139 24.5671C20.6065 24.5671 20.6802 24.641 20.6802 24.7326C20.6802 24.8241 20.6065 24.8981 20.5139 24.8981C20.4224 24.8981 20.3477 24.8241 20.3477 24.7326C20.3477 24.641 20.4224 24.5671 20.5139 24.5671Z" fill="#F6F6FE"/>
<path fill-rule="evenodd" clip-rule="evenodd" d="M21.2669 24.5671C21.3595 24.5671 21.4331 24.641 21.4331 24.7326C21.4331 24.8241 21.3595 24.8981 21.2669 24.8981C21.1754 24.8981 21.1006 24.8241 21.1006 24.7326C21.1006 24.641 21.1754 24.5671 21.2669 24.5671Z" fill="#F6F6FE"/>
<path fill-rule="evenodd" clip-rule="evenodd" d="M22.0209 24.5671C22.1124 24.5671 22.1872 24.641 22.1872 24.7326C22.1872 24.8241 22.1124 24.8981 22.0209 24.8981C21.9283 24.8981 21.8535 24.8241 21.8535 24.7326C21.8535 24.641 21.9283 24.5671 22.0209 24.5671Z" fill="#F6F6FE"/>
<path fill-rule="evenodd" clip-rule="evenodd" d="M27.8676 7.45825H31.7955C32.2798 7.45825 32.6749 7.85103 32.6749 8.33096V12.1594C32.6749 12.6404 32.2798 13.0343 31.7955 13.0343H27.8676C27.3833 13.0343 26.9883 12.6404 26.9883 12.1594V8.33096C26.9883 7.85103 27.3833 7.45825 27.8676 7.45825Z" fill="#422C73"/>
<path fill-rule="evenodd" clip-rule="evenodd" d="M27.6275 7.2608H31.5554C32.0397 7.2608 32.4348 7.65468 32.4348 8.13572V11.9642C32.4348 12.4441 32.0397 12.8369 31.5554 12.8369H27.6275C27.1432 12.8369 26.7471 12.4441 26.7471 11.9642V8.13572C26.7471 7.65468 27.1432 7.2608 27.6275 7.2608Z" fill="#6A52A0"/>
<path d="M29.2911 8.70724C29.3112 8.63994 29.3826 8.60132 29.4507 8.62118C29.5176 8.64104 29.5578 8.71165 29.5366 8.77895L29.3324 9.46962L30.2865 9.47844L30.5063 8.72158C30.5264 8.65428 30.5978 8.61566 30.6647 8.63552C30.7328 8.65538 30.773 8.72489 30.7529 8.7933L30.552 9.48065L31.0118 9.48506C31.0832 9.48617 31.1401 9.54354 31.139 9.61415C31.139 9.68366 31.081 9.74103 31.0107 9.73992L30.4784 9.73441L30.2072 10.6667L30.9705 10.6777C31.0408 10.6788 31.0977 10.7373 31.0977 10.8068C31.0966 10.8763 31.0386 10.9337 30.9671 10.9326L30.1336 10.9205L29.9193 11.6541C29.8992 11.7225 29.8278 11.7601 29.7598 11.7402C29.6917 11.7214 29.6537 11.6508 29.6727 11.5835L29.868 10.916L28.9072 10.9017L28.6751 11.6828C28.655 11.7501 28.5836 11.7887 28.5155 11.7689C28.4486 11.749 28.4084 11.6784 28.4296 11.6111L28.6405 10.8984L28.1551 10.8896C28.0837 10.8885 28.0279 10.8322 28.029 10.7616C28.029 10.691 28.087 10.6358 28.1573 10.6358L28.7164 10.6446L28.9909 9.72006L28.1272 9.71124C28.0558 9.71124 28 9.65387 28 9.58436C28.0011 9.51375 28.058 9.45748 28.1294 9.45748L29.0657 9.46631L29.2911 8.70724ZM29.9416 10.6634L30.2117 9.7322L29.2576 9.72337L28.982 10.649L29.9416 10.6634Z" fill="#F7F6FE"/>
<path fill-rule="evenodd" clip-rule="evenodd" d="M24.8545 31.9128H32.0676V39.6955H24.8545V31.9128Z" fill="#6A52A0"/>
<path fill-rule="evenodd" clip-rule="evenodd" d="M24.8545 31.9128H29.7008V39.6955H24.8545V31.9128Z" fill="#5C4C89"/>
<path fill-rule="evenodd" clip-rule="evenodd" d="M30.2324 32.4954H31.6976V32.6973H30.2324V32.4954Z" fill="#F6F6FE"/>
<path fill-rule="evenodd" clip-rule="evenodd" d="M30.2324 33.1397H31.6976V33.3416H30.2324V33.1397Z" fill="#F6F6FE"/>
<path fill-rule="evenodd" clip-rule="evenodd" d="M30.2324 33.7829H31.6976V33.9848H30.2324V33.7829Z" fill="#F6F6FE"/>
<path fill-rule="evenodd" clip-rule="evenodd" d="M30.2324 34.4272H31.6976V34.6291H30.2324V34.4272Z" fill="#F6F6FE"/>
<mask id="mask5_313_3531" style="mask-type:luminance" maskUnits="userSpaceOnUse" x="17" y="16" width="15" height="24">
<path d="M17.6348 16.9775H31.6325V40H17.6348V16.9775Z" fill="white"/>
</mask>
<g mask="url(#mask5_313_3531)">
<path fill-rule="evenodd" clip-rule="evenodd" d="M23.9118 24.7933C23.7645 25.1342 23.6897 25.4321 23.6853 25.6859C20.9781 25.6859 19.6246 25.6859 19.6246 25.6859C19.4817 25.7168 19.4192 25.7918 19.4415 25.9109C20.2327 28.7983 20.63 30.2414 20.63 30.2414C19.8901 30.3981 19.4828 30.7908 19.4036 31.4186C19.3177 36.5114 19.273 39.0578 19.273 39.0578C19.282 39.0611 19.2909 39.0644 19.2998 39.0667C19.0856 39.2288 18.8624 39.3392 18.6292 39.3976C18.1281 39.5212 17.828 39.7088 17.7275 39.9625C19.5342 39.9449 20.438 39.9372 20.438 39.9372C20.5061 39.711 20.4737 39.4363 20.3387 39.1119C20.3454 39.1119 20.351 39.1097 20.3577 39.1075C20.5731 37.5507 20.9134 35.396 21.3821 32.6411C21.7704 32.5936 22.2101 32.5627 22.7011 32.5462C23.2043 34.9756 23.4777 36.2555 23.5212 36.3867C23.8102 37.7857 23.9866 38.6849 24.0524 39.0854C24.0591 39.0887 24.0647 39.092 24.0714 39.0942C23.8683 39.241 23.6585 39.3425 23.4387 39.3976C22.9376 39.5212 22.6375 39.7088 22.537 39.9625C24.3436 39.9449 25.2475 39.9372 25.2475 39.9372C25.3178 39.7033 25.2799 39.4175 25.1337 39.0788C25.1248 39.0534 25.108 39.0313 25.0824 39.0137C25.0935 39.006 25.1058 38.9971 25.117 38.9894C25.1024 38.2988 25.0868 37.4007 25.0679 36.2941C25.0679 36.2941 25.06 35.642 25.0455 34.339C25.0734 34.0235 25.0132 33.4575 24.8603 32.6433C27.351 32.6135 28.9556 32.3741 29.672 31.925C30.0023 31.3447 30.0246 30.4609 29.7379 29.276C29.7791 29.1094 29.7646 28.9627 29.6954 28.8347C29.6508 28.763 29.6084 28.4905 29.5682 28.0127C29.8506 27.9167 30.3125 27.717 30.9564 27.4125C31.2867 27.3044 31.4452 27.1786 31.4329 27.0352C31.3615 26.2662 31.2398 25.4785 31.0669 24.6686C31.1439 24.64 31.184 24.5914 31.1829 24.5241C30.9564 23.8423 30.6785 23.1902 30.3516 22.5658C30.2132 22.1642 29.8015 21.8166 29.1185 21.5242C28.8172 21.4139 28.4144 21.3444 27.91 21.3124C27.8163 21.2297 27.7772 20.9296 27.7917 20.4132C28.0384 20.2852 28.2347 19.5769 28.3776 18.2916C28.4178 17.9507 28.2705 17.7741 27.9379 17.7631C27.8598 17.0636 27.0285 16.9158 25.4428 17.3163C24.8134 17.1773 24.6126 17.3571 24.8424 17.8547C24.8514 18.1636 24.9842 18.371 25.2408 18.4769C25.3346 18.9536 25.4026 19.2228 25.4461 19.2834C25.6559 20.1848 25.8624 20.7045 26.0655 20.8424C26.3255 20.9075 26.5498 20.8777 26.7439 20.7541C26.7316 21.0002 26.7272 21.1237 26.7272 21.1237C26.0677 21.3698 25.6035 21.6004 25.3346 21.8166C24.9049 22.0031 24.5534 22.4554 24.2856 23.1737C24.0334 23.8279 23.8817 24.3498 23.8292 24.7381C23.8839 24.7746 23.9118 24.7933 23.9118 24.7933ZM29.7791 26.2022C29.7635 26.2894 29.7524 26.3688 29.7468 26.4394C29.787 26.4107 29.8282 26.381 29.8695 26.3501C29.8383 26.307 29.8082 26.2574 29.7791 26.2022Z" fill="#012C56"/>
</g>
<path fill-rule="evenodd" clip-rule="evenodd" d="M25.2474 25.6781C25.4003 25.6814 25.4762 25.6814 25.4762 25.6814C25.7016 25.6726 25.8243 25.7542 25.8433 25.9286C26.3644 27.7644 26.7126 28.9924 26.8866 29.6114C28.556 29.6588 29.5067 29.5463 29.7377 29.276C29.779 29.1094 29.7645 28.9626 29.6953 28.8346C29.6507 28.7629 29.6083 28.4904 29.5681 28.0127C29.8504 27.9167 30.3124 27.717 30.9563 27.4125C31.2866 27.3044 31.445 27.1786 31.4328 27.0352C31.3614 26.2662 31.2397 25.4784 31.0668 24.6686C31.1438 24.6399 31.1839 24.5914 31.1828 24.5241C30.9563 23.8422 30.6784 23.1902 30.3515 22.5657C30.2131 22.1641 29.8013 21.8166 29.1184 21.5242C28.8539 21.4271 28.5114 21.362 28.0907 21.3267C28.017 21.9578 27.5774 22.2325 26.7717 22.1498C26.4247 22.1597 26.3086 21.8563 26.4247 21.2418C25.9236 21.4437 25.561 21.6345 25.3344 21.8166C24.9048 22.003 24.5533 22.4554 24.2855 23.1736C24.0333 23.8279 23.8815 24.3497 23.8291 24.7381C23.8838 24.7745 23.9117 24.7933 23.9117 24.7933C24.5343 25.1287 24.9896 25.2997 25.2764 25.3096C25.2563 25.5556 25.2474 25.6781 25.2474 25.6781ZM29.7467 26.4394C29.7868 26.4107 29.8281 26.3809 29.8694 26.35C29.8382 26.307 29.808 26.2573 29.779 26.2022C29.7634 26.2893 29.7522 26.3688 29.7467 26.4394Z" fill="#9083C9"/>
<path fill-rule="evenodd" clip-rule="evenodd" d="M26.0651 20.8423C26.3251 20.9074 26.5494 20.8777 26.7435 20.7541C26.7313 21.0001 26.7268 21.1237 26.7268 21.1237C26.6208 21.1634 26.5203 21.202 26.4244 21.2417C26.3083 21.8563 26.4244 22.1597 26.7714 22.1498C27.5771 22.2325 28.0168 21.9578 28.0904 21.3267C28.0324 21.3212 27.9721 21.3168 27.9096 21.3123C27.8159 21.2296 27.7768 20.9295 27.7913 20.4132C28.038 20.2852 28.2344 19.5769 28.3772 18.2915C28.4174 17.9506 28.2701 17.7741 27.9375 17.763C27.8594 17.0636 27.0281 16.9157 25.4424 17.3162C24.813 17.1772 24.6122 17.357 24.8421 17.8546C24.851 18.1635 24.9838 18.371 25.2404 18.4758C25.3342 18.9535 25.4022 19.2227 25.4457 19.2834C25.6555 20.1848 25.862 20.7044 26.0651 20.8423Z" fill="#FC9B7A"/>
<path fill-rule="evenodd" clip-rule="evenodd" d="M23.6855 25.6858C24.7267 25.6814 25.2478 25.6781 25.2478 25.6781C25.2478 25.6781 25.2567 25.5557 25.2768 25.3096C24.99 25.2997 24.5347 25.1287 23.9121 24.7933C23.7648 25.1342 23.69 25.4321 23.6855 25.6858Z" fill="#FC9B7A"/>
<path fill-rule="evenodd" clip-rule="evenodd" d="M29.1982 28.1616C29.2083 28.5268 29.225 28.8986 29.2462 29.2749C29.158 29.3984 29.071 29.4889 28.9873 29.5452C29.3834 29.4878 29.6334 29.3973 29.7372 29.276C29.7785 29.1094 29.764 28.9626 29.6948 28.8347C29.6501 28.7629 29.6077 28.4904 29.5676 28.0127C29.4292 28.069 29.3064 28.1175 29.1982 28.1616Z" fill="#5C4C89"/>
<path fill-rule="evenodd" clip-rule="evenodd" d="M29.7464 26.4394C29.7519 26.3688 29.7631 26.2893 29.7787 26.2022C29.6537 25.9605 29.5544 25.6075 29.4808 25.1452C29.4127 25.1463 29.3435 25.1452 29.2721 25.143C28.9563 24.2019 28.7979 23.7319 28.7979 23.7319C29.1025 25.2313 29.2297 26.2595 29.1851 26.8156C29.3402 26.7207 29.5265 26.5949 29.7464 26.4394Z" fill="#5C4C89"/>
<path fill-rule="evenodd" clip-rule="evenodd" d="M24.958 25.2534C25.17 25.2898 25.276 25.3096 25.276 25.3096C25.247 25.1905 25.2191 24.7337 25.1946 23.9371C25.0372 24.8143 24.958 25.2534 24.958 25.2534Z" fill="#5C4C89"/>
<path fill-rule="evenodd" clip-rule="evenodd" d="M26.5456 28.5356C26.2041 28.7728 26.1729 28.9814 26.4518 29.1623C26.6493 29.148 26.8513 29.0575 27.06 28.8887C27.5666 28.7431 28.1346 28.5577 28.7639 28.3337C28.861 28.2962 29.0061 28.2388 29.198 28.1616C29.3063 28.1175 29.429 28.0689 29.5674 28.0127C29.8497 27.9167 30.3117 27.717 30.9556 27.4125C31.2859 27.3044 31.4443 27.1786 31.432 27.0351C31.3606 26.2662 31.239 25.4784 31.066 24.6686C30.6353 24.9775 30.1064 25.1364 29.4804 25.1452C29.5707 25.7145 29.7002 26.1161 29.8687 26.35C29.5964 26.5475 29.3688 26.7042 29.1846 26.8156C28.5441 27.2889 28.1681 27.5559 28.0554 27.6166C27.6135 27.9233 27.2832 28.1373 27.0611 28.2598C26.8279 28.3723 26.656 28.465 26.5456 28.5356Z" fill="#FC9B7A"/>
<path fill-rule="evenodd" clip-rule="evenodd" d="M28.2731 30.1068C28.2731 30.1068 27.8558 30.099 27.0211 30.0836C27.0211 30.0836 26.9765 29.9269 26.8861 29.6114C26.712 28.9924 26.3638 27.7645 25.8427 25.9286C25.8237 25.7542 25.701 25.6726 25.4756 25.6814C25.6084 25.8182 25.6675 25.9396 25.653 26.0466C26.288 28.3735 26.6819 29.8111 26.8325 30.3638C27.2889 30.3649 27.7732 30.366 28.2809 30.3671C28.3468 30.3572 28.3936 30.2998 28.3925 30.2336C28.3903 30.1674 28.339 30.1134 28.2731 30.1068Z" fill="#5C4C89"/>
<path fill-rule="evenodd" clip-rule="evenodd" d="M25.4757 25.6814C25.4757 25.6814 25.3998 25.6814 25.2469 25.6781C25.2469 25.6781 24.7258 25.6814 23.6847 25.6858C20.9775 25.6858 19.6239 25.6858 19.6239 25.6858C19.4811 25.7167 19.4186 25.7917 19.4409 25.9109C20.2321 28.7982 20.6294 30.2413 20.6294 30.2413C20.645 30.3031 20.6852 30.3395 20.7488 30.3517C20.7488 30.3517 22.7774 30.355 26.8326 30.3638C26.6819 29.811 26.288 28.3735 25.6531 26.0466C25.6676 25.9396 25.6085 25.8182 25.4757 25.6814Z" fill="#CBB5DC"/>
<path fill-rule="evenodd" clip-rule="evenodd" d="M25.2839 18.6171C25.6779 18.7616 26.1376 18.7461 26.6632 18.5718C26.787 19.1146 26.9511 19.3982 27.1564 19.4236C27.0883 19.3 27.1129 19.15 27.2178 19.0529C27.3216 18.9547 27.4811 18.9348 27.6095 19.001C27.7389 19.0661 27.807 19.204 27.778 19.3408C27.7869 19.9355 27.7925 20.2919 27.7947 20.4121C28.0402 20.2808 28.2343 19.5736 28.3772 18.2916C28.4174 17.9507 28.2701 17.7741 27.9375 17.7631C27.8594 17.0636 27.0281 16.9158 25.4424 17.3163C24.813 17.1773 24.6122 17.3571 24.8421 17.8547C24.851 18.1636 24.9838 18.3699 25.2404 18.4758C25.2694 18.6204 25.2951 18.745 25.3185 18.8521C25.3096 18.766 25.2984 18.6877 25.2839 18.6171Z" fill="#012C56" stroke="#373435" stroke-width="0.0586364" stroke-miterlimit="2.613"/>
<path fill-rule="evenodd" clip-rule="evenodd" d="M19.5879 4.01156C22.1332 4.00163 23.4065 3.99611 23.4065 3.99611C23.922 3.70815 24.1072 3.06162 23.8227 2.54748C23.5381 2.03335 22.8887 1.84248 22.3676 2.12051C22.2883 1.51921 21.736 1.09224 21.1289 1.16285C20.523 1.23456 20.0856 1.77518 20.1481 2.37868C19.7363 2.34006 19.3513 2.58831 19.2185 2.97556C19.0857 3.36392 19.2375 3.79311 19.5879 4.01156Z" fill="#CBB5DC"/>
<path fill-rule="evenodd" clip-rule="evenodd" d="M11.4402 10.0554H14.6785C14.9742 10.0554 15.2164 10.2948 15.2164 10.5894V13.6544C15.2164 13.9478 14.9742 14.1884 14.6785 14.1884H11.4402C11.1445 14.1884 10.9023 13.9478 10.9023 13.6544V10.5894C10.9023 10.2948 11.1445 10.0554 11.4402 10.0554Z" fill="#F6F6FE"/>
<path fill-rule="evenodd" clip-rule="evenodd" d="M11.083 15.1902H20.9954V15.8522H11.083V15.1902Z" fill="#F6F6FE"/>
<path fill-rule="evenodd" clip-rule="evenodd" d="M11.083 16.8517H17.8286V17.5137H11.083V16.8517Z" fill="#F6F6FE"/>
<path fill-rule="evenodd" clip-rule="evenodd" d="M11.083 18.424H17.8286V19.087H11.083V18.424Z" fill="#F6F6FE"/>
<path fill-rule="evenodd" clip-rule="evenodd" d="M2.56938 24.1809C4.08252 22.0317 5.8222 22.0262 7.78504 24.1611C7.78504 24.1611 8.11981 28.9439 8.78934 38.5083C8.11981 38.6782 7.57637 38.6794 7.16015 38.5128C6.88229 37.1502 6.15585 33.7973 4.97747 28.4518C3.50338 33.7112 2.57049 37.0443 2.17993 38.451C1.25263 38.5856 0.615457 38.5139 0.269531 38.2369L1.53272 31.3336C1.53272 31.3336 1.87864 28.9494 2.56938 24.1809Z" fill="#163561"/>
<path fill-rule="evenodd" clip-rule="evenodd" d="M2.42285 25.2544L2.47641 24.887C2.98526 24.4909 3.3602 23.9945 3.60123 23.3976C3.75188 23.338 3.86235 23.4108 3.93377 23.6138C3.65702 24.4656 3.15376 25.0128 2.42285 25.2544Z" fill="#5C4C89"/>
<path fill-rule="evenodd" clip-rule="evenodd" d="M11.0924 18.2971C11.0333 18.2397 10.8268 18.0378 10.4697 17.6892C10.4697 17.6892 10.7409 17.3913 11.2843 16.7955C11.2531 16.5715 11.3022 16.3343 11.4316 16.0817C11.4863 15.8224 11.5142 15.6922 11.5142 15.6922C11.5276 15.6569 11.5666 15.6359 11.6046 15.6458C11.6414 15.6558 11.6648 15.6933 11.6593 15.7319C11.6626 15.9404 11.6637 16.0452 11.6637 16.0452C11.7921 16.0452 11.8467 16.0408 11.8278 16.032C12.1168 15.6514 12.2618 15.4605 12.2618 15.4605C12.3188 15.4307 12.3902 15.4484 12.4248 15.5024C12.4605 15.5554 12.4504 15.6271 12.4013 15.6679C12.2049 15.9404 12.1067 16.0772 12.1067 16.0772C12.1034 16.1931 12.1525 16.2626 12.2529 16.288C12.3333 16.3089 12.36 16.3718 12.3355 16.4788C12.4527 16.5517 12.4705 16.6168 12.3913 16.6697C12.2228 16.9533 12.0387 17.0956 11.8389 17.0912C11.3613 17.8039 11.1114 18.2055 11.0924 18.2971Z" fill="#FC9B7A"/>
<path fill-rule="evenodd" clip-rule="evenodd" d="M2.67052 22.5867C2.67052 22.5867 2.65378 21.7824 2.61919 20.1749C2.15275 20.7828 1.83361 21.2528 1.66511 21.5882C1.98871 21.9103 2.32348 22.2424 2.67052 22.5867ZM2.67499 24.16C2.65378 24.2085 2.63258 24.2593 2.61026 24.3122C2.50872 24.3122 2.42279 24.2979 2.35249 24.2681C2.18511 24.1975 2.11146 24.0419 2.12932 23.8014C2.0512 23.7473 1.97421 23.6922 1.89833 23.6381C1.89386 23.6348 1.8894 23.6315 1.88382 23.6282C1.15738 23.1008 0.571535 22.5547 0.126295 21.9887C-0.161604 21.4646 0.0426037 20.4408 0.740034 18.9171C1.34038 17.1915 2.36365 16.278 3.80984 16.1732C4.22384 16.0916 4.75389 16.0706 5.4011 16.107C6.38085 16.0772 7.20773 16.3288 7.88172 16.8639C8.47872 17.3328 9.01881 17.8403 9.49864 18.3842C9.73633 18.2651 10.1012 17.8745 10.5989 17.2158C11.2115 17.7553 11.5173 18.0256 11.5173 18.0256C10.7105 19.4522 10.0811 20.1771 9.62809 20.2024C9.62809 20.2024 8.97195 19.9454 7.65743 19.429C7.40747 21.7217 7.4655 23.3193 7.83151 24.2262C7.74112 24.2328 7.65297 24.2405 7.56704 24.2482C6.8194 24.3166 6.22016 24.4159 5.77046 24.5494C4.86659 24.7006 4.23611 24.385 3.88349 23.6006C3.7719 23.5123 3.66589 23.455 3.56212 23.4296C3.62014 23.744 3.46057 24.0706 3.08563 24.4071C2.94503 24.3255 2.80889 24.2427 2.67499 24.16Z" fill="#9083C9"/>
<path fill-rule="evenodd" clip-rule="evenodd" d="M6.06366 16.1324C5.72777 16.641 5.55927 16.8948 5.55927 16.8948C5.24125 16.7337 5.08167 16.6531 5.08167 16.6531L4.44673 16.9003C4.21128 16.6311 3.97806 16.3906 3.74707 16.1787C3.76827 16.1765 3.78836 16.1743 3.80956 16.1732C4.22355 16.0916 4.7536 16.0706 5.40082 16.107C5.62957 16.1004 5.85052 16.1092 6.06366 16.1324Z" fill="#5C4C89"/>
<path fill-rule="evenodd" clip-rule="evenodd" d="M3.56231 23.4296C3.62033 23.744 3.46076 24.0706 3.08582 24.4071C2.94522 24.3255 2.80908 24.2427 2.67517 24.16C2.48659 24.0419 2.3047 23.9228 2.12951 23.8014C2.05139 23.7473 1.9744 23.6922 1.89852 23.6381C1.89405 23.6348 1.88959 23.6315 1.88401 23.6282C1.87508 23.5675 2.13732 23.22 2.67071 22.5867C2.67071 22.5867 2.96754 22.868 3.56231 23.4296Z" fill="#FC9B7A"/>
<path fill-rule="evenodd" clip-rule="evenodd" d="M5.40107 14.9916H4.43359C4.43359 15.4561 4.43359 15.9206 4.43359 16.3839C4.75609 16.6565 5.07858 16.673 5.40107 16.3839V14.9916Z" fill="#FC9B7A"/>
<path fill-rule="evenodd" clip-rule="evenodd" d="M4.66793 15.4638C4.64338 15.8411 4.89111 16.3542 5.10201 16.5594C4.82527 16.6256 4.6936 16.5693 4.43359 16.3365V15.1428C4.659 15.2145 4.92012 15.2476 5.21583 15.2399C5.17454 15.3888 4.99154 15.4627 4.66793 15.4638Z" fill="#F09476"/>
<path fill-rule="evenodd" clip-rule="evenodd" d="M4.41002 14.2148C4.37766 14.3175 4.29731 14.387 4.16898 14.4212C4.14332 14.2303 4.10203 14.1122 4.044 14.067C4.0083 14.003 3.94692 13.9556 3.87551 13.9368C3.80297 13.9181 3.72598 13.928 3.66237 13.9655C3.38228 13.5683 3.46374 13.0222 3.84872 12.7221C4.15113 12.3348 4.61757 12.1064 5.11303 12.1064C5.60625 12.1064 6.07381 12.3348 6.37621 12.7221C6.56703 12.9141 6.56703 13.223 6.37621 13.4139C6.0102 13.597 5.57835 13.5904 5.21792 13.394C4.72023 13.0751 4.4513 13.3477 4.41002 14.2148Z" fill="#30334D"/>
<path fill-rule="evenodd" clip-rule="evenodd" d="M4.16977 14.4212C4.2981 14.387 4.37844 14.3175 4.4108 14.2149C4.45209 13.3477 4.72102 13.0752 5.21871 13.394C5.54231 13.5694 5.92395 13.5937 6.26318 13.4635C6.32009 14.772 6.02773 15.4417 5.3872 15.4737C4.96094 15.4506 4.69759 15.4042 4.59716 15.3347C4.34496 15.1273 4.15526 14.8989 4.02805 14.6518C3.88522 14.6132 3.76582 14.5172 3.69663 14.387C3.62745 14.2579 3.61629 14.1056 3.66316 13.9655C3.72676 13.928 3.80376 13.9181 3.87629 13.9368C3.94771 13.9556 4.00908 14.003 4.04479 14.067C4.10282 14.1123 4.1441 14.2303 4.16977 14.4212Z" fill="#FC9B7A"/>
<mask id="mask6_313_3531" style="mask-type:luminance" maskUnits="userSpaceOnUse" x="30" y="15" width="6" height="7">
<path d="M30.2041 15.5653H36V21.4966H30.2041V15.5653Z" fill="white"/>
</mask>
<g mask="url(#mask6_313_3531)">
<path fill-rule="evenodd" clip-rule="evenodd" d="M31.1781 15.6624H35.1061C35.5904 15.6624 35.9854 16.0552 35.9854 16.5362V20.3636C35.9854 20.8446 35.5904 21.2385 35.1061 21.2385H31.1781C30.6939 21.2385 30.2988 20.8446 30.2988 20.3636V16.5362C30.2988 16.0552 30.6939 15.6624 31.1781 15.6624Z" fill="#6A52A0"/>
</g>
<path fill-rule="evenodd" clip-rule="evenodd" d="M32.444 17.8149H33.8288V17.5082C33.8288 17.1474 33.532 16.8529 33.1682 16.8529H33.1046C32.7419 16.8529 32.444 17.1474 32.444 17.5082V17.8149ZM33.1514 18.1029C33.3199 18.1029 33.4561 18.2541 33.4561 18.4416C33.4561 18.5828 33.3791 18.7042 33.2686 18.7549C33.2686 18.7814 33.2742 18.8101 33.2865 18.841C33.3523 18.9226 33.3478 19.0473 33.2775 19.1234C33.205 19.1996 33.0934 19.1996 33.022 19.1234C32.9517 19.0473 32.9461 18.9226 33.012 18.841C33.0265 18.8167 33.0365 18.7891 33.0443 18.7605C32.9272 18.7108 32.8457 18.5872 32.8457 18.4416C32.8457 18.2541 32.9818 18.1029 33.1514 18.1029ZM34.0877 17.8149H34.1089C34.2551 17.8149 34.3767 17.9341 34.3767 18.0808V19.2669C34.3767 19.4125 34.2551 19.5328 34.1089 19.5328H32.1996C32.0512 19.5328 31.9307 19.4125 31.9307 19.2669V18.0808C31.9307 17.9385 32.0445 17.8227 32.1851 17.8149V17.4884C32.1851 16.993 32.5935 16.5881 33.0934 16.5881H33.1805C33.6793 16.5881 34.0877 16.993 34.0877 17.4884V17.8149Z" fill="#F7F6FE"/>
<path fill-rule="evenodd" clip-rule="evenodd" d="M30.2324 34.9349H31.6973V35.153H30.2324V34.9349Z" fill="#F6F6FE"/>
<path fill-rule="evenodd" clip-rule="evenodd" d="M30.2324 35.6272H31.6973V35.8441H30.2324V35.6272Z" fill="#F6F6FE"/>
<path fill-rule="evenodd" clip-rule="evenodd" d="M30.2324 36.3184H31.6973V36.5365H30.2324V36.3184Z" fill="#F6F6FE"/>
<path fill-rule="evenodd" clip-rule="evenodd" d="M30.2324 37.0107H31.6973V37.2289H30.2324V37.0107Z" fill="#F6F6FE"/>
<path fill-rule="evenodd" clip-rule="evenodd" d="M30.2324 37.7031H31.6973V37.9212H30.2324V37.7031Z" fill="#F6F6FE"/>
<path fill-rule="evenodd" clip-rule="evenodd" d="M30.2324 38.3954H31.6973V38.6123H30.2324V38.3954Z" fill="#F6F6FE"/>
<path fill-rule="evenodd" clip-rule="evenodd" d="M30.2324 39.0699H31.6973V39.2869H30.2324V39.0699Z" fill="#F6F6FE"/>
<mask id="mask7_313_3531" style="mask-type:luminance" maskUnits="userSpaceOnUse" x="17" y="38" width="4" height="2">
<path d="M17.5107 38.6307H20.5457V40H17.5107V38.6307Z" fill="white"/>
</mask>
<g mask="url(#mask7_313_3531)">
<path fill-rule="evenodd" clip-rule="evenodd" d="M20.3681 39.0101C20.3207 38.8619 19.9899 38.8323 19.3746 38.9212C19.1197 39.1369 18.8494 39.2816 18.5673 39.3527C18.035 39.4855 17.7161 39.687 17.6094 39.9597C19.5287 39.9407 20.489 39.9324 20.489 39.9324C20.5637 39.6811 20.5234 39.374 20.3681 39.0101Z" fill="#052637"/>
</g>
<mask id="mask8_313_3531" style="mask-type:luminance" maskUnits="userSpaceOnUse" x="22" y="38" width="4" height="2">
<path d="M22.3691 38.6307H25.4041V40H22.3691V38.6307Z" fill="white"/>
</mask>
<g mask="url(#mask8_313_3531)">
<path fill-rule="evenodd" clip-rule="evenodd" d="M25.1767 39.0101C25.1293 38.8619 24.7973 38.8323 24.1832 38.9212C23.9271 39.1369 23.658 39.2816 23.3759 39.3527C22.8436 39.4855 22.5247 39.687 22.418 39.9597C24.3373 39.9407 25.2976 39.9324 25.2976 39.9324C25.3723 39.6811 25.332 39.374 25.1767 39.0101Z" fill="#052637"/>
</g>
</svg>
