<svg width="40" height="40" viewBox="0 0 40 40" fill="none" xmlns="http://www.w3.org/2000/svg">
<path d="M18.3693 0.50778C19.3569 -0.0574683 20.6431 -0.0600215 21.6298 0.50778C26.5936 3.3126 31.559 6.11303 36.522 8.91955C37.4554 9.44537 38.0798 10.4842 38.0703 11.5598V28.4347C38.0773 29.5549 37.3912 30.6186 36.4064 31.1325C31.4588 33.9218 26.5139 36.7146 21.5672 39.5039C20.5593 40.0803 19.2472 40.0359 18.2708 39.4123C16.7875 38.5525 15.3017 37.6969 13.8183 36.8379C13.5152 36.6571 13.1735 36.5133 12.9594 36.2194C13.1486 35.9644 13.4869 35.9326 13.7618 35.8213C14.381 35.6244 14.9496 35.3083 15.5184 35.0017C15.6623 34.9032 15.8379 34.941 15.9757 35.0291C17.2441 35.7563 18.5013 36.5047 19.7739 37.2249C20.0454 37.3817 20.3203 37.1736 20.5523 37.0442C25.4074 34.3003 30.2684 31.5666 35.1225 28.8218C35.3024 28.7353 35.4018 28.5444 35.3872 28.3474C35.3906 22.7807 35.3881 17.213 35.3889 11.6464C35.4095 11.4228 35.2801 11.2173 35.078 11.1258C30.1476 8.3492 25.2198 5.56835 20.2903 2.79104C20.2049 2.73233 20.1038 2.70082 20.0001 2.70067C19.8965 2.70052 19.7952 2.73173 19.7096 2.79019C14.7801 5.56835 9.85317 8.35175 4.92367 11.1282C4.72225 11.2198 4.58707 11.422 4.61105 11.6464C4.6119 17.213 4.61105 22.7807 4.61105 28.3482C4.6025 28.4443 4.62361 28.5408 4.67154 28.6245C4.71947 28.7083 4.79192 28.7754 4.87913 28.8167C6.19459 29.5627 7.51175 30.3034 8.82807 31.0468C9.56963 31.4459 10.4801 31.6831 11.2971 31.3773C12.0181 31.1187 12.5235 30.383 12.5098 29.6174C12.5166 24.0832 12.5064 18.5482 12.5149 13.0149C12.4969 12.7692 12.7299 12.5662 12.9688 12.5893C13.6008 12.5851 14.2337 12.5808 14.8658 12.591C15.1296 12.5851 15.3112 12.8496 15.2786 13.0971C15.276 18.6664 15.2854 24.2357 15.2743 29.8049C15.276 31.2892 14.6662 32.9042 13.2933 33.6305C11.602 34.5066 9.51147 34.3208 7.84055 33.4807C6.39402 32.7587 5.0136 31.9066 3.59275 31.1332C2.60537 30.6221 1.92268 29.5542 1.92963 28.4349V11.5598C1.91927 10.462 2.56849 9.40423 3.53105 8.88608C8.47771 6.09445 13.4235 3.30069 18.3693 0.50778Z" fill="#8CC84B"/>
<path d="M22.6848 12.1971C24.8422 12.0582 27.1519 12.1148 29.0933 13.1777C30.5964 13.9921 31.4297 15.7015 31.4563 17.3714C31.4143 17.5967 31.1788 17.7209 30.9638 17.7055C30.3378 17.7046 29.7117 17.714 29.0858 17.7012C28.8202 17.7114 28.6659 17.4666 28.6326 17.2318C28.4527 16.4328 28.017 15.6415 27.2649 15.2561C26.1105 14.6781 24.7719 14.7072 23.513 14.7192C22.594 14.768 21.6058 14.8476 20.8272 15.388C20.2295 15.7974 20.0479 16.6238 20.2612 17.2893C20.4624 17.7672 21.014 17.9213 21.4653 18.0635C24.0653 18.7435 26.8205 18.6758 29.3709 19.5707C30.4268 19.9355 31.4597 20.6448 31.8211 21.7503C32.2939 23.232 32.0866 25.0031 31.0324 26.1926C30.1775 27.1714 28.9324 27.7042 27.6906 27.9935C26.0385 28.3619 24.3241 28.3713 22.6463 28.2077C21.0687 28.0279 19.427 27.6134 18.2092 26.5385C17.1678 25.6343 16.6591 24.2253 16.7096 22.8655C16.7217 22.6358 16.9503 22.4757 17.1703 22.4945C17.8007 22.4894 18.431 22.4877 19.0614 22.4954C19.3131 22.4774 19.4998 22.695 19.5127 22.9323C19.629 23.6935 19.9151 24.4926 20.579 24.9439C21.8601 25.7704 23.4676 25.7138 24.9346 25.737C26.1499 25.6831 27.5141 25.6667 28.5059 24.8635C29.0292 24.4053 29.1842 23.6388 29.0428 22.9794C28.8896 22.4226 28.3072 22.1632 27.807 21.9935C25.2404 21.1816 22.4544 21.4762 19.9126 20.5581C18.8807 20.1934 17.8828 19.5039 17.4863 18.4438C16.9331 16.9433 17.1866 15.0874 18.3513 13.9381C19.4869 12.7948 21.1262 12.3547 22.6848 12.1971Z" fill="#8CC84B"/>
</svg>
