<svg width="76" height="81" viewBox="0 0 76 81" fill="none" xmlns="http://www.w3.org/2000/svg">
<path d="M48.2962 18.0604C48.2962 14.4376 50.5109 11.3332 53.6593 10.0251V7.34682C53.6593 6.09307 52.6432 5.07666 51.3898 5.07666H21.1645V21.3931C21.1645 21.8245 20.8147 22.1743 20.3834 22.1743H14.9023V57.987H20.4656C20.8969 57.987 21.2466 58.3368 21.2466 58.7682V70.7123C21.2466 71.1437 20.8969 71.4935 20.4656 71.4935H14.9023V74.5684C14.9023 75.8221 15.9185 76.8385 17.1719 76.8385H47.6147V61.0098C47.6147 60.5784 47.9642 60.2285 48.3957 60.2285H53.6595V26.0956C50.5109 24.7874 48.2962 21.6832 48.2962 18.0604Z" fill="#ACACAC"/>
<path d="M19.5885 74.5685V71.4937H14.9023V74.5685C14.9023 75.8222 15.9185 76.8386 17.1719 76.8386H21.858C20.6045 76.8386 19.5885 75.8222 19.5885 74.5685Z" fill="#9C9C9C"/>
<path d="M48.2962 18.0605C48.2962 17.6854 48.3226 17.3168 48.3687 16.9541H21.1645V21.3933C21.1645 21.8247 20.8147 22.1746 20.3834 22.1746H14.9023V57.9872H20.4656C20.8969 57.9872 21.2466 58.3371 21.2466 58.7685V64.1869H47.6147V61.0099C47.6147 60.5785 47.9642 60.2286 48.3957 60.2286H53.6595V26.0957C50.5109 24.7875 48.2962 21.6833 48.2962 18.0605Z" fill="#6CF5C2"/>
<path d="M14.9023 22.1743H19.5885V53.7715H14.9023V22.1743Z" fill="#00F2A6"/>
<path d="M20.4656 57.987C20.8969 57.987 21.2466 58.3368 21.2466 58.7682V64.1866H47.6147V61.0096C47.6147 60.5782 47.9642 60.2284 48.3957 60.2284H53.6595V53.7715H14.9023V57.987H20.4656Z" fill="white"/>
<path d="M14.9023 53.7715H19.5885V57.987H14.9023V53.7715Z" fill="#EAF6FF"/>
<path d="M20.465 71.4939H4.05935C3.62807 71.4939 3.27832 71.144 3.27832 70.7126V58.7686C3.27832 58.3371 3.62807 57.9873 4.05935 57.9873H20.4652C20.8965 57.9873 21.2462 58.3371 21.2462 58.7686V70.7126C21.246 71.1442 20.8965 71.4939 20.465 71.4939Z" fill="#FED402"/>
<path d="M6.40244 70.7126V58.7686C6.40244 58.3371 6.75218 57.9873 7.18346 57.9873H4.05935C3.62807 57.9873 3.27832 58.3371 3.27832 58.7686V70.7126C3.27832 71.144 3.62807 71.4939 4.05935 71.4939H7.18346C6.75202 71.4939 6.40244 71.144 6.40244 70.7126Z" fill="#FAC600"/>
<path d="M12.7702 65.5021L20.9977 58.2073C20.858 58.0718 20.6715 57.9873 20.4649 57.9873H4.05919C3.85253 57.9873 3.66602 58.0718 3.52637 58.2073L11.7539 65.502C12.0463 65.7614 12.4777 65.7614 12.7702 65.5021Z" fill="#FED402"/>
<path d="M65.6872 18.0604C65.6872 22.8643 61.7941 26.7584 56.9916 26.7584C52.1892 26.7584 48.2959 22.8642 48.2959 18.0604C48.2959 13.2567 52.189 9.3623 56.9916 9.3623C61.7941 9.36215 65.6872 13.2565 65.6872 18.0604Z" fill="#D8ECFE"/>
<path d="M60.2186 25.1961C55.4161 25.1961 51.523 21.3019 51.523 16.4981C51.523 13.6975 52.8476 11.2076 54.9028 9.6167C51.1095 10.5526 48.2959 13.9772 48.2959 18.0606C48.2959 22.8645 52.189 26.7586 56.9916 26.7586C58.9943 26.7586 60.8373 26.0797 62.3074 24.9417C61.6384 25.1069 60.939 25.1961 60.2186 25.1961Z" fill="#C4E2FF"/>
<path d="M37.8874 26.3057H30.6737C26.5947 26.3057 23.2881 29.7271 23.2881 33.9475C23.2881 37.0335 25.0565 39.6907 27.6017 40.8968C28.2153 41.1875 28.6125 41.8166 28.6125 42.5149V45.2404C28.6125 45.6939 29.125 45.9404 29.4601 45.6479L33.6289 42.0083C33.9388 41.7379 34.3311 41.5894 34.7366 41.5894H37.8874C41.9664 41.5894 45.273 38.168 45.273 33.9475C45.273 29.7269 41.9664 26.3057 37.8874 26.3057Z" fill="white"/>
<path d="M31.7366 40.9524C31.7366 40.2541 31.3394 39.6249 30.7258 39.3343C28.1808 38.1282 26.4122 35.471 26.4122 32.3851C26.4122 30.0054 27.4636 27.8799 29.1119 26.4785C25.7833 27.2202 23.2881 30.2818 23.2881 33.9476C23.2881 37.0335 25.0565 39.6907 27.6017 40.8968C28.2153 41.1876 28.6125 41.8166 28.6125 42.5149V45.2404C28.6125 45.694 29.125 45.9404 29.4601 45.6479L31.7366 43.6604V40.9524Z" fill="#EAF6FF"/>
<path d="M66.7052 31.3589C67.0072 31.3589 67.3141 31.3754 67.6175 31.4081C71.2749 31.8025 74.2768 34.7175 74.7556 38.3397C74.9926 40.1323 74.6464 41.8965 73.7545 43.4419L67.5166 54.1953C67.2727 54.6151 66.8682 54.6604 66.7056 54.6604C66.5429 54.6604 66.1382 54.6151 65.8942 54.1948L59.6555 43.44C58.9542 42.2248 58.583 40.8383 58.583 39.4325C58.583 37.2759 59.4279 35.2483 60.962 33.7234C62.496 32.1987 64.5357 31.3589 66.7052 31.3589C66.7051 31.3589 66.7051 31.3589 66.7052 31.3589Z" fill="#FE646F"/>
<path d="M62.9077 41.8774C62.2064 40.6622 61.8352 39.2756 61.8352 37.8699C61.8352 35.7133 62.6801 33.6856 64.2141 32.1608C64.4287 31.9475 64.6543 31.7491 64.8876 31.563C63.4126 31.8966 62.0578 32.6341 60.9619 33.7233C59.4278 35.2483 58.583 37.2758 58.583 39.4324C58.583 40.8383 58.9543 42.2247 59.6555 43.4399L65.8944 54.1947C66.1385 54.615 66.5431 54.6603 66.7057 54.6603C66.8683 54.6603 67.2731 54.615 67.5167 54.1952L68.7848 52.0091L62.9077 41.8774Z" fill="#FD4755"/>
<path d="M66.7055 41.9907C68.2574 41.9907 69.5155 40.7323 69.5155 39.1799C69.5155 37.6276 68.2574 36.3691 66.7055 36.3691C65.1536 36.3691 63.8955 37.6276 63.8955 39.1799C63.8955 40.7323 65.1536 41.9907 66.7055 41.9907Z" fill="white"/>
<path d="M65.1146 79.1443H48.3953C47.964 79.1443 47.6143 78.7945 47.6143 78.363V61.0098C47.6143 60.5784 47.964 60.2285 48.3953 60.2285H65.1146C65.5459 60.2285 65.8956 60.5784 65.8956 61.0098V78.363C65.8956 78.7945 65.5459 79.1443 65.1146 79.1443Z" fill="#0593FC"/>
<path d="M50.7384 78.363V61.0098C50.7384 60.5784 51.088 60.2285 51.5194 60.2285H48.3953C47.9638 60.2285 47.6143 60.5784 47.6143 61.0098V78.363C47.6143 78.7945 47.9638 79.1443 48.3953 79.1443H51.5194C51.088 79.1443 50.7384 78.7945 50.7384 78.363Z" fill="#0182FC"/>
<path d="M60.6611 69.2842L54.286 65.4757C53.9736 65.2892 53.5771 65.5142 53.5771 65.8782V73.4951C53.5771 73.859 53.9738 74.0842 54.286 73.8976L60.6611 70.0892C60.9655 69.9071 60.9655 69.466 60.6611 69.2842Z" fill="white"/>
<path d="M20.3835 22.1747H1.9529C1.52162 22.1747 1.17188 21.8248 1.17188 21.3934V2.26953C1.17188 1.83813 1.52162 1.48828 1.9529 1.48828H20.3835C20.8148 1.48828 21.1645 1.83813 21.1645 2.26953V21.3934C21.1645 21.8248 20.8148 22.1747 20.3835 22.1747Z" fill="#FEDBA6"/>
<path d="M4.29599 21.3934V2.26953C4.29599 1.83813 4.64574 1.48828 5.07702 1.48828H1.9529C1.52162 1.48828 1.17188 1.83813 1.17188 2.26953V21.3934C1.17188 21.8248 1.52162 22.1747 1.9529 22.1747H5.07702C4.64574 22.1747 4.29599 21.8248 4.29599 21.3934Z" fill="#FECE85"/>
<path d="M11.1678 17.2205C11.0372 17.2205 10.9066 17.1694 10.8065 17.0671C9.9855 16.2285 7.80799 13.9846 6.01397 12.1327C4.75698 10.8321 4.75714 8.71615 6.01397 7.41568C6.62036 6.78834 7.42982 6.44287 8.29333 6.44287C9.15683 6.44287 9.96629 6.78834 10.5727 7.41568L11.1677 8.03131L11.7627 7.41568C12.369 6.78834 13.1785 6.44287 14.042 6.44287C14.9055 6.44287 15.715 6.78834 16.3214 7.41568C17.5782 8.71615 17.5782 10.8322 16.3214 12.1327C14.5273 13.9846 12.35 16.2282 11.5288 17.0671C11.4288 17.1694 11.2984 17.2205 11.1678 17.2205Z" fill="#FE646F"/>
<path d="M9.13809 10.5702C8.06355 9.4585 7.91093 7.75256 8.67322 6.46787C8.54794 6.45287 8.42157 6.44287 8.29333 6.44287C7.42982 6.44287 6.62036 6.78834 6.01397 7.41568C4.75714 8.71615 4.75698 10.8321 6.01397 12.1327C7.80799 13.9846 9.98566 16.2285 10.8065 17.0671C10.9066 17.1694 11.0372 17.2205 11.1678 17.2205C11.2984 17.2205 11.429 17.1694 11.5291 17.0671C11.9284 16.6593 12.6493 15.9183 13.4897 15.0529C12.4823 14.0194 10.6716 12.153 9.13809 10.5702Z" fill="#FD4755"/>
<path d="M31.4557 71.0396H37.1062C37.7533 71.0396 38.2777 70.515 38.2777 69.8677C38.2777 69.2203 37.7533 68.6958 37.1062 68.6958H31.4557C30.8086 68.6958 30.2842 69.2203 30.2842 69.8677C30.2842 70.515 30.8087 71.0396 31.4557 71.0396Z" fill="black"/>
<path d="M29.8747 12.105H38.6869C39.334 12.105 39.8584 11.5804 39.8584 10.9331C39.8584 10.2858 39.334 9.76123 38.6869 9.76123H29.8747C29.2275 9.76123 28.7031 10.2858 28.7031 10.9331C28.7031 11.5804 29.2277 12.105 29.8747 12.105Z" fill="black"/>
<path d="M26.1885 11.9844C26.8357 11.9844 27.3604 11.4597 27.3604 10.8125C27.3604 10.1653 26.8357 9.64062 26.1885 9.64062C25.5413 9.64062 25.0166 10.1653 25.0166 10.8125C25.0166 11.4597 25.5413 11.9844 26.1885 11.9844Z" fill="black"/>
<path d="M42.373 11.9844C43.0203 11.9844 43.5449 11.4597 43.5449 10.8125C43.5449 10.1653 43.0203 9.64062 42.373 9.64062C41.7258 9.64062 41.2012 10.1653 41.2012 10.8125C41.2012 11.4597 41.7258 11.9844 42.373 11.9844Z" fill="black"/>
<path d="M34.2812 59.9258C34.9285 59.9258 35.4531 59.4011 35.4531 58.7539C35.4531 58.1067 34.9285 57.582 34.2812 57.582C33.634 57.582 33.1094 58.1067 33.1094 58.7539C33.1094 59.4011 33.634 59.9258 34.2812 59.9258Z" fill="black"/>
<path d="M26.71 59.9258C27.3572 59.9258 27.8818 59.4011 27.8818 58.7539C27.8818 58.1067 27.3572 57.582 26.71 57.582C26.0628 57.582 25.5381 58.1067 25.5381 58.7539C25.5381 59.4011 26.0628 59.9258 26.71 59.9258Z" fill="black"/>
<path d="M41.3936 59.9258C42.0408 59.9258 42.5654 59.4011 42.5654 58.7539C42.5654 58.1067 42.0408 57.582 41.3936 57.582C40.7463 57.582 40.2217 58.1067 40.2217 58.7539C40.2217 59.4011 40.7463 59.9258 41.3936 59.9258Z" fill="black"/>
<path d="M56.9919 19.2327H60.5427C61.1899 19.2327 61.7143 18.7082 61.7143 18.0609C61.7143 17.4135 61.1899 16.889 60.5427 16.889H58.1634V13.2402C58.1634 12.5929 57.639 12.0684 56.9919 12.0684C56.3447 12.0684 55.8203 12.5929 55.8203 13.2402V18.0609C55.8203 18.708 56.3447 19.2327 56.9919 19.2327Z" fill="black"/>
<path d="M37.8871 25.1338H30.6732C25.9548 25.1338 22.1162 29.0875 22.1162 33.9474C22.1162 37.3775 24.0722 40.521 27.0996 41.9555C27.3068 42.0538 27.4406 42.2732 27.4406 42.5147V45.2402C27.4406 45.9102 27.8313 46.5205 28.4358 46.7954C28.6611 46.8979 28.8979 46.9482 29.1323 46.948C29.5271 46.948 29.9153 46.8057 30.23 46.5307L34.399 42.8911C34.4949 42.8072 34.6147 42.7611 34.7361 42.7611H37.8869C42.6053 42.7611 46.444 38.8072 46.444 33.9474C46.444 29.0875 42.6054 25.1338 37.8871 25.1338ZM37.8871 40.4174H34.7362C34.0481 40.4174 33.381 40.6688 32.8583 41.1254L29.7837 43.8096V42.5147C29.7837 41.3722 29.1239 40.3214 28.1028 39.8374C25.8894 38.7886 24.4593 36.4766 24.4593 33.9474C24.4593 30.3799 27.2469 27.4775 30.6732 27.4775H37.8871C41.3136 27.4775 44.1011 30.3799 44.1011 33.9474C44.1012 37.515 41.3136 40.4174 37.8871 40.4174Z" fill="black"/>
<path d="M37.4583 30.4653H31.1032C30.456 30.4653 29.9316 30.9899 29.9316 31.6372C29.9316 32.2846 30.456 32.8091 31.1032 32.8091H37.4583C38.1054 32.8091 38.6298 32.2846 38.6298 31.6372C38.6298 30.9899 38.1054 30.4653 37.4583 30.4653Z" fill="black"/>
<path d="M35.6549 35.0059H31.1032C30.456 35.0059 29.9316 35.5304 29.9316 36.1777C29.9316 36.8251 30.456 37.3496 31.1032 37.3496H35.6549C36.302 37.3496 36.8264 36.8251 36.8264 36.1777C36.8264 35.5304 36.302 35.0059 35.6549 35.0059Z" fill="black"/>
<path d="M75.9171 38.1862C75.3686 34.0353 71.9308 30.6947 67.7429 30.2429C67.3977 30.2059 67.0487 30.187 66.7052 30.187H66.7049C64.2237 30.187 61.891 31.1476 60.136 32.8922C58.3788 34.6389 57.4111 36.9617 57.4111 39.4326C57.4111 41.0439 57.8363 42.6322 58.6419 44.0281L64.8811 54.7837C65.2625 55.4404 65.9447 55.8325 66.7054 55.8325C67.4663 55.8325 68.1482 55.4406 68.53 54.7834L74.769 44.0278C75.7912 42.257 76.1883 40.237 75.9171 38.1862ZM72.7412 42.8537L66.7054 53.2587L60.6697 42.8542C60.0709 41.8161 59.7542 40.6329 59.7542 39.4326C59.7542 37.5904 60.4764 35.8579 61.7875 34.5547C63.1006 33.2494 64.847 32.5308 66.7052 32.5308C66.9652 32.5308 67.2298 32.5451 67.4919 32.5733C70.6191 32.9104 73.1854 35.4003 73.5941 38.4933C73.7971 40.0278 73.5016 41.5364 72.7412 42.8537Z" fill="black"/>
<path d="M66.7052 35.1973C64.5097 35.1973 62.7236 36.984 62.7236 39.1799C62.7236 41.3762 64.5098 43.1627 66.7052 43.1627C68.9008 43.1627 70.6868 41.376 70.6868 39.1799C70.6868 36.984 68.9006 35.1973 66.7052 35.1973ZM66.7052 40.8191C65.8017 40.8191 65.0667 40.0838 65.0667 39.1801C65.0667 38.2763 65.8017 37.5412 66.7052 37.5412C67.6087 37.5412 68.3438 38.2763 68.3438 39.1801C68.3438 40.0838 67.6087 40.8191 66.7052 40.8191Z" fill="black"/>
<path d="M54.8863 64.4694C54.3805 64.1673 53.748 64.1602 53.2358 64.4513C52.7235 64.742 52.4053 65.2888 52.4053 65.8781V73.495C52.4053 74.0842 52.7235 74.6311 53.2357 74.9219C53.4864 75.0641 53.766 75.1352 54.0453 75.1352C54.3366 75.1352 54.6281 75.0578 54.8864 74.9036L61.2617 71.0952C61.762 70.7961 62.0608 70.2697 62.0608 69.6866C62.0608 69.1034 61.762 68.5767 61.2617 68.2778L54.8863 64.4694ZM54.7484 72.2559V67.1169L59.0496 69.6864L54.7484 72.2559Z" fill="black"/>
<path d="M12.3664 17.8869C13.2276 17.0074 15.4886 14.6768 17.1644 12.9472C18.855 11.1977 18.855 8.35084 17.1643 6.60115C16.3351 5.7435 15.2267 5.271 14.0426 5.271C12.9728 5.271 11.9645 5.65678 11.1683 6.36396C10.372 5.65678 9.36365 5.271 8.29395 5.271C7.11022 5.271 6.00148 5.74318 5.17218 6.60131C3.48141 8.35084 3.48157 11.1977 5.17327 12.9483C6.84764 14.6765 9.10841 17.0069 9.97066 17.8876C10.2898 18.213 10.7153 18.3922 11.1685 18.3922C11.6221 18.3924 12.0474 18.2129 12.3664 17.8869ZM6.8567 11.3182C6.03381 10.4669 6.03381 9.08162 6.85639 8.23021C7.24034 7.83334 7.75082 7.61475 8.2938 7.61475C8.83677 7.61475 9.34725 7.83334 9.73089 8.23006L10.3259 8.84568C10.5466 9.07412 10.8506 9.20318 11.1683 9.20318C11.486 9.20318 11.7898 9.07428 12.0106 8.84584L12.6057 8.23021C12.9893 7.83334 13.4998 7.6149 14.0428 7.6149C14.5861 7.6149 15.0964 7.83334 15.4799 8.23021C16.3028 9.08178 16.3028 10.4671 15.481 11.3174C14.06 12.7841 12.2169 14.6841 11.1685 15.7602C10.1195 14.6835 8.27661 12.7838 6.8567 11.3182Z" fill="black"/>
<path d="M65.1147 59.0567H54.8307V27.6892C55.5266 27.8455 56.2492 27.9305 56.9915 27.9305C62.4323 27.9305 66.8587 23.5028 66.8587 18.0605C66.8587 12.6181 62.4323 8.19047 56.9915 8.19047C56.2492 8.19047 55.5266 8.27562 54.8307 8.43172V7.34687C54.8307 5.44906 53.2871 3.905 51.3897 3.905H22.3357V2.26953C22.3357 1.1925 21.4599 0.316406 20.3831 0.316406H1.95257C0.875846 0.316406 0 1.1925 0 2.26953V21.3934C0 22.4705 0.875846 23.3466 1.95257 23.3466H6.02595C6.67311 23.3466 7.19749 22.822 7.19749 22.1747C7.19749 21.5273 6.67311 21.0028 6.02595 21.0028H2.34309V2.66016H19.9926V21.0028H11.5975C10.9503 21.0028 10.426 21.5273 10.426 22.1747C10.426 22.822 10.9503 23.3466 11.5975 23.3466H13.7305V56.8155H4.05963C2.98291 56.8155 2.10706 57.6916 2.10706 58.7686V70.7127C2.10706 71.7897 2.98291 72.6658 4.05963 72.6658H13.7305V74.5689C13.7305 76.4667 15.2741 78.0108 17.1714 78.0108H46.4428V78.3633C46.4428 79.4403 47.3186 80.3164 48.3954 80.3164H65.1147C66.1914 80.3164 67.0673 79.4403 67.0673 78.3633V73.5977C67.0673 72.9503 66.5429 72.4258 65.8957 72.4258C65.2486 72.4258 64.7242 72.9503 64.7242 73.5977V77.9727H48.7859V61.4005H64.7242V68.0247C64.7242 68.672 65.2486 69.1966 65.8957 69.1966C66.5429 69.1966 67.0673 68.672 67.0673 68.0247V61.0098C67.0673 59.933 66.1914 59.0567 65.1147 59.0567ZM64.5156 18.0606C64.5156 22.2106 61.1403 25.5869 56.9915 25.5869C52.8427 25.5869 49.4674 22.2106 49.4674 18.0606C49.4674 13.9106 52.8427 10.5344 56.9915 10.5344C61.1403 10.5344 64.5156 13.9106 64.5156 18.0606ZM51.3897 6.24891C51.9951 6.24891 52.4876 6.74156 52.4876 7.34703V9.28328C49.9594 10.5866 48.0645 12.9495 47.3925 15.7825H22.3357V6.24891H51.3897ZM18.1584 59.1592L12.2623 64.3867L6.36632 59.1592H18.1584ZM4.45015 70.322V60.5919L10.9769 66.3789C11.3435 66.7041 11.8029 66.8666 12.2625 66.8666C12.7219 66.8666 13.1814 66.7041 13.5477 66.3791L20.0748 60.5919V70.322H4.45015ZM46.4428 75.667H17.1714C16.5661 75.667 16.0736 75.1744 16.0736 74.5689V72.6658H20.4653C21.542 72.6658 22.4179 71.7897 22.4179 70.7127V65.3589H46.4428V75.667ZM48.6183 54.9436H52.4876V59.0567H48.3954C47.3186 59.0567 46.4428 59.9328 46.4428 61.0098V63.0152H22.4179V58.7684C22.4179 57.6914 21.542 56.8153 20.4653 56.8153H16.0736V54.9436H43.099C43.7462 54.9436 44.2706 54.4191 44.2706 53.7717C44.2706 53.1244 43.7462 52.5998 43.099 52.5998H16.0736V23.3466H20.3831C21.4599 23.3466 22.3357 22.4705 22.3357 21.3934V18.1263H47.126C47.151 21.9183 49.3246 25.2073 52.4876 26.838V52.6H48.6183C47.9711 52.6 47.4467 53.1245 47.4467 53.7719C47.4467 54.4192 47.9711 54.9436 48.6183 54.9436Z" fill="black"/>
</svg>
