<svg width="125" height="74" viewBox="0 0 125 74" fill="none" xmlns="http://www.w3.org/2000/svg">
<mask id="mask0_369_800" style="mask-type:luminance" maskUnits="userSpaceOnUse" x="0" y="11" width="125" height="63">
<path d="M0 11.9938H125V74H0V11.9938Z" fill="white"/>
</mask>
<g mask="url(#mask0_369_800)">
<path d="M124.995 13.0431C90.2599 7.365 92.2949 29.3264 69.5578 41.6083C56.0014 48.9321 40.1046 36.2079 25.7146 59.1568C20.5779 67.3498 9.25331 59.8357 0 74H10.0507C10.1232 73.9434 10.1854 73.8765 10.263 73.8251C17.1189 69.1397 21.7533 73.1822 28.3658 67.8487C31.2396 65.5343 34.3569 59.3985 36.8942 57.2949C50.4453 46.0725 62.0184 54.2142 74.099 53.993C82.3322 53.8387 91.4095 44.2776 96.9811 37.7252C104.039 29.4241 114.98 26.7291 124.798 30.6224C124.871 30.6482 124.922 30.6687 124.995 30.6996V13.0431Z" fill="#C7E1FF"/>
</g>
<path d="M79.236 15.5118C78.6146 13.83 76.9317 12.6213 74.9485 12.6213C72.9653 12.6213 71.2824 13.83 70.661 15.5118C69.0144 15.5427 67.6836 16.8182 67.6836 18.392H82.2134C82.2134 16.8182 80.8826 15.5427 79.236 15.5118Z" fill="#F4F4F4"/>
<path d="M47.6393 45.1776H47.3027V33.8678H47.6393V45.1776Z" fill="#1F3B80"/>
<path d="M58.8138 45.1776H58.4824V33.8678H58.8138V45.1776Z" fill="#1F3B80"/>
<path d="M42.1034 21.5242C40.0735 6.73241 63.8618 5.06602 63.8826 20.1715C63.8929 26.8679 58.6009 32.2426 58.6009 32.2426C58.3575 35.2307 56.0636 34.6033 52.9567 34.6033C49.7048 34.6084 47.5249 34.917 47.3074 32.2528C47.3074 32.2528 42.8749 27.1817 42.1034 21.5242Z" fill="#FCC62B"/>
<path d="M56.7469 21.0767C55.209 20.3155 50.0412 20.0018 48.4412 21.3442C47.9026 21.7968 48.1305 22.3831 48.8036 24.1318C49.5286 26.0193 50.6263 28.8686 50.6729 31.3631L51.7396 32.2425C51.2995 29.0744 50.0723 25.8804 49.2127 23.638C49.0522 23.2266 48.8865 22.7894 48.7467 22.4088C48.6224 22.0693 48.814 21.6888 49.1661 21.5962C50.9836 21.1076 54.339 21.1539 56.3016 21.6065C56.6847 21.6939 56.9126 22.0899 56.809 22.4705C56.6744 22.9694 56.4828 23.5917 56.3016 24.1678C55.6905 26.1222 54.8154 28.9046 54.3442 32.222L54.4685 32.2425C54.8413 32.2425 55.1572 31.9545 55.1883 31.5739C55.4264 28.6166 56.2187 26.1016 56.7417 24.4352C57.332 22.558 57.653 21.5242 56.7469 21.0767Z" fill="white"/>
<path d="M42.7868 11.7933L36.9873 7.54502C36.6663 7.30844 36.2106 7.3753 35.9724 7.69932C35.7394 8.02334 35.8067 8.47594 36.1278 8.71252L41.9273 12.9608C42.0567 13.0534 42.2069 13.0997 42.3571 13.0997C42.5797 13.0997 42.7972 12.9968 42.9422 12.8065C43.1804 12.4825 43.1079 12.0299 42.7868 11.7933Z" fill="#FCC62B"/>
<mask id="mask1_369_800" style="mask-type:luminance" maskUnits="userSpaceOnUse" x="45" y="0" width="5" height="9">
<path d="M45.9404 0H49.9172V8.59425H45.9404V0Z" fill="white"/>
</mask>
<g mask="url(#mask1_369_800)">
<path d="M47.3952 0.596608C47.2709 0.221156 46.8618 0.0102857 46.4786 0.133722C46.0955 0.257158 45.8883 0.663468 46.0126 1.04406L48.2185 7.8742C48.3169 8.18279 48.6017 8.37823 48.9124 8.37823C48.9849 8.37823 49.0574 8.36794 49.135 8.34223C49.513 8.21879 49.7253 7.81248 49.6011 7.43189L47.3952 0.596608Z" fill="#FCC62B"/>
</g>
<mask id="mask2_369_800" style="mask-type:luminance" maskUnits="userSpaceOnUse" x="55" y="0" width="6" height="9">
<path d="M55.2197 0H60.5221V8.59425H55.2197V0Z" fill="white"/>
</mask>
<g mask="url(#mask2_369_800)">
<path d="M59.7245 0.210899C59.3414 0.0823199 58.9323 0.288047 58.8028 0.663498L56.4986 7.46792C56.3691 7.84337 56.5762 8.25483 56.9542 8.3834C57.0319 8.40912 57.1096 8.41941 57.1873 8.41941C57.4876 8.41941 57.7724 8.22911 57.876 7.93081L60.1802 1.13153C60.3045 0.750933 60.1026 0.339479 59.7245 0.210899Z" fill="#FCC62B"/>
</g>
<path d="M63.639 13.1459C63.784 13.1459 63.9342 13.0996 64.0637 13.0071L69.8787 8.77423C70.1997 8.53764 70.2722 8.08504 70.034 7.76103C69.801 7.43701 69.3453 7.37014 69.0191 7.60673L63.2093 11.8344C62.8882 12.071 62.8157 12.5236 63.0487 12.8476C63.1937 13.0431 63.4164 13.1459 63.639 13.1459Z" fill="#FCC62B"/>
<path d="M73.3633 19.6829L66.1709 19.6006C66.1657 19.6006 66.1657 19.6006 66.1605 19.6006C65.767 19.6006 65.4408 19.9247 65.4356 20.3207C65.4304 20.7219 65.7515 21.0459 66.1554 21.051L73.3478 21.1282H73.353C73.7517 21.1282 74.0779 20.8093 74.0831 20.4133C74.0831 20.0121 73.762 19.6829 73.3633 19.6829Z" fill="#FCC62B"/>
<path d="M69.8379 31.6049L64.0384 27.3617C63.7122 27.1251 63.2617 27.192 63.0235 27.516C62.7853 27.8401 62.8578 28.2927 63.1788 28.5292L68.9835 32.7724C69.113 32.8649 69.2631 32.9112 69.4081 32.9112C69.636 32.9112 69.8534 32.8084 69.9933 32.6181C70.2314 32.294 70.1641 31.8414 69.8379 31.6049Z" fill="#FCC62B"/>
<path d="M41.8917 27.3256L36.0818 31.5585C35.7556 31.7899 35.6883 32.2476 35.9213 32.5665C36.0663 32.762 36.289 32.8648 36.5116 32.8648C36.6566 32.8648 36.8068 32.8185 36.9362 32.726L42.7461 28.4983C43.0723 28.2617 43.1448 27.8091 42.9066 27.4851C42.6684 27.161 42.2179 27.089 41.8917 27.3256Z" fill="#FCC62B"/>
<path d="M39.7944 20.727C40.1931 20.727 40.5141 20.4081 40.5193 20.0121C40.5245 19.6109 40.2034 19.2818 39.8047 19.2766L32.6123 19.1995C32.6071 19.1995 32.6071 19.1995 32.602 19.1995C32.2032 19.1995 31.8822 19.5132 31.877 19.9144C31.8718 20.3155 32.1929 20.6396 32.5968 20.6447L39.7892 20.727H39.7944Z" fill="#FCC62B"/>
<path d="M59.6732 35.2153H46.2722C45.9719 35.2153 45.7285 34.9736 45.7285 34.6753V31.7848C45.7285 31.4865 45.9719 31.2448 46.2722 31.2448H59.6732C59.9735 31.2448 60.2117 31.4865 60.2117 31.7848V34.6753C60.2117 34.9736 59.9735 35.2153 59.6732 35.2153Z" fill="#3A67C1"/>
<path d="M50.4404 22.7173C50.2903 22.7173 50.1401 22.6402 50.0521 22.4962L48.7627 20.408C48.6281 20.192 48.6954 19.9143 48.9129 19.7806C49.1252 19.6468 49.41 19.7137 49.5394 19.9297L50.8288 22.0179C50.9634 22.2339 50.8961 22.5167 50.6838 22.6453C50.6061 22.6916 50.5233 22.7173 50.4404 22.7173Z" fill="white"/>
<path d="M52.1224 22.4808C51.967 22.4808 51.8169 22.4036 51.7288 22.2648L50.4395 20.1715C50.3049 19.9606 50.3722 19.6778 50.5897 19.544C50.8071 19.4155 51.0868 19.4772 51.2214 19.6932L52.5107 21.7813C52.6402 21.9973 52.5729 22.2802 52.3606 22.4088C52.2829 22.4551 52.2 22.4808 52.1224 22.4808Z" fill="white"/>
<path d="M53.9303 22.2493C53.7802 22.2493 53.63 22.1722 53.542 22.0282L52.2526 19.9401C52.1232 19.7292 52.1853 19.4463 52.4028 19.3126C52.6151 19.184 52.8999 19.2457 53.0293 19.4617L54.3239 21.5499C54.4533 21.7659 54.386 22.0488 54.1737 22.1773C54.096 22.2236 54.0132 22.2493 53.9303 22.2493Z" fill="white"/>
<path d="M55.8984 22.4808C55.7483 22.4808 55.5981 22.4036 55.5101 22.2648L54.2207 20.1715C54.0861 19.9606 54.1534 19.6778 54.3709 19.544C54.5832 19.4155 54.868 19.4772 54.9975 19.6932L56.2868 21.7813C56.4214 21.9973 56.3541 22.2802 56.1418 22.4088C56.0642 22.4551 55.9813 22.4808 55.8984 22.4808Z" fill="white"/>
<path fill-rule="evenodd" clip-rule="evenodd" d="M60.8481 23.0928C60.9154 23.2111 60.8378 23.7717 60.7756 23.8489C60.729 23.9157 60.5064 24.1112 60.351 24.2397C60.2526 24.3169 60.1025 24.3323 59.9575 24.2706C59.828 24.2192 59.7297 24.1163 59.6986 23.998C59.6416 23.7974 59.595 23.4683 59.74 23.17C59.7711 23.1134 60.0352 22.2493 60.0455 23.1597C60.0455 23.2265 60.206 23.1237 60.2112 22.8408C60.2112 22.6042 60.7394 22.8974 60.8481 23.0928Z" fill="#ED996F"/>
<path d="M59.3315 33.3998C59.984 32.3609 61.0973 29.2595 61.2112 28.9407C61.4546 28.2412 60.7918 24.8724 60.6986 24.1472C60.6675 23.9055 59.5645 23.8746 59.5594 24.1575C59.5283 27.1046 59.8338 28.1795 59.8338 28.1795L58.705 30.5762C58.6221 34.341 59.3315 33.3998 59.3315 33.3998Z" fill="#27458C"/>
<path d="M64.2814 34.0529L51.8125 15.7689L51.9161 15.7021L64.385 33.9861L64.2814 34.0529Z" fill="#3A67C1"/>
<path d="M65.7255 34.2227C65.5546 33.8832 65.3009 34.4438 64.8504 34.0941C63.1934 32.8186 64.084 27.2485 62.6911 25.181C62.1733 24.533 61.583 24.0083 60.5059 23.5917C60.2988 23.5146 60.3402 23.5866 60.3454 23.3552C60.3661 20.3001 58.5797 19.5595 55.4832 18.032C54.8721 17.7337 54.0592 17.3376 53.5258 16.9673C53.5569 16.9879 51.5426 15.625 52.2934 14.9358C52.5627 14.7043 52.2624 14.4266 52.0501 14.5963C50.9937 15.445 52.2572 16.7462 53.2824 17.5331C56.467 19.8115 59.9363 20.1715 59.1907 23.8489C59.1286 24.1472 59.3409 24.4507 59.6567 24.4867C60.4593 24.5792 61.7487 25.2684 62.1526 26.1582C62.7325 27.3668 62.9448 30.4013 63.2607 31.9288C64.0737 35.5908 65.9378 34.6599 65.7255 34.2227Z" fill="#ED404E"/>
<path d="M57.3017 38.8001L57.2655 39.9059C57.2655 39.9059 58.0422 45.5377 58.4875 47.2452C58.5548 47.5024 58.6273 48.027 58.6118 48.0784C58.3891 48.7368 56.7373 47.8624 56.7373 47.8624L55.0596 41.4643L56.0331 38.615L57.3017 38.8001Z" fill="#1F3B80"/>
<path d="M54.0554 38.327C53.3822 39.659 50.3271 50.0123 50.3271 50.0123L51.6579 50.2077C51.6579 50.2077 52.9214 48.1401 52.9783 47.559C53.0353 46.9778 55.5933 41.634 55.5933 41.634L56.0645 41.0889L56.6393 38.7024L54.0554 38.327Z" fill="#27458C"/>
<path d="M56.4625 30.463L55.7894 30.9825L54.0547 38.3269C54.0547 38.3269 56.8198 39.263 57.3014 38.8001C58.4975 37.648 59.0464 31.862 59.0464 31.862L58.4975 30.7613L57.7519 31.1213L56.4625 30.463Z" fill="#C9DEF7"/>
<path d="M56.4625 30.463C56.7421 31.3836 56.4573 34.0323 56.0741 35.3593C55.6909 36.6862 54.3343 42.0403 54.1634 42.1637C53.9977 42.2871 51.7607 41.814 51.7607 41.814C51.7607 41.814 53.2676 37.828 53.5265 37.0617C53.6611 36.6811 54.267 34.3461 53.9252 32.5768C53.6145 30.9567 54.8883 29.4909 55.3388 30.0567C55.5563 30.3292 56.4625 30.463 56.4625 30.463Z" fill="#1F3B80"/>
<path d="M53.9254 32.5768C53.5992 31.399 52.8328 28.7349 52.8121 28.3903C52.7759 27.6548 54.3863 24.6152 54.6814 23.9517C54.7798 23.7254 55.8465 24.0083 55.7688 24.286C54.9507 27.1148 54.35 28.056 54.35 28.056L55.3391 30.0567C54.3345 33.6826 53.9254 32.5768 53.9254 32.5768Z" fill="#27458C"/>
<path fill-rule="evenodd" clip-rule="evenodd" d="M55.5094 22.7791C55.3799 22.7946 54.9864 23.2009 54.9605 23.2935C54.9346 23.3706 54.9087 23.6638 54.8984 23.8644C54.888 23.9878 54.9657 24.1164 55.09 24.1884C55.2039 24.2604 55.3385 24.2758 55.4524 24.2295C55.6389 24.1472 55.9237 23.9826 56.0738 23.6895C56.0997 23.6278 56.6279 22.8974 55.9133 23.4426C55.8563 23.4838 55.8512 23.2935 56.0686 23.1186C56.2499 22.9746 55.7269 22.7431 55.5094 22.7791Z" fill="#ED996F"/>
<path d="M57.2859 29.4704C56.561 28.74 55.7532 27.84 56.1934 27.0685C56.6335 26.3022 58.275 25.2015 58.275 25.2015L58.6064 25.4433L58.8342 25.3558C58.8342 25.3558 59.2226 25.8341 59.1449 26.7291C59.0672 27.624 58.8653 28.4675 58.8653 28.4675L57.2859 29.4704Z" fill="#1A2F5B"/>
<path d="M58.5182 28.8224L58.425 30.5814L58.1247 31.2088L57.1512 31.0185C57.1512 31.0185 56.7059 30.3705 56.8923 30.2162C57.2806 29.9025 57.5085 28.5704 57.5085 28.5704L58.5182 28.8224Z" fill="#ED996F"/>
<path d="M58.497 30.7613C59.4239 33.8678 57.8032 36.8406 57.3009 38.8001L57.2646 39.9059L57.5184 41.6649L59.5637 41.5826C59.5637 41.5826 60.0557 33.6724 58.9061 30.5762L58.497 30.7613Z" fill="#1D3870"/>
<path d="M58.4971 30.7613C58.5747 31.3682 59.5638 41.5826 59.5638 41.5826C59.5638 41.5826 60.0557 33.6724 58.9061 30.5762H58.7042L58.4971 30.7613Z" fill="#1F3B80"/>
<path d="M57.9122 30.9567L58.1296 30.9876L58.4662 31.3167C58.4662 31.3167 58.3575 31.6562 57.9329 31.5945C57.5083 31.5328 57.1406 31.0904 57.1406 31.0904L57.9122 30.9567Z" fill="#8BB2E0"/>
<path d="M56.4629 30.463L56.9445 30.0258L57.9128 30.9567L57.3846 31.5893L56.4629 30.463Z" fill="#FAFAFA"/>
<path d="M58.1299 30.9876L58.4561 30.3859L58.4975 30.7613L58.5545 31.2808L58.3474 31.6562L58.1299 30.9876Z" fill="#FAFAFA"/>
<path d="M59.1293 27.4594C58.7306 26.4462 58.192 26.4976 57.871 27.0171C57.7778 27.1714 57.5914 27.732 57.6173 28.2206C57.5137 28.1537 57.4102 28.0972 57.3635 28.1074C57.1875 28.1434 57.0943 28.3286 57.2859 28.6218C57.405 28.8069 57.5966 28.9921 57.7364 29.0538C57.7416 29.0744 57.7519 29.0898 57.7623 29.0949C58.1817 29.9076 58.9584 30.1699 59.2846 29.9898C59.4969 29.8716 59.4814 28.3337 59.1293 27.4594Z" fill="#ED996F"/>
<path d="M56.7679 30.1904L56.0534 30.4064C56.0534 30.4064 55.8048 32.0677 55.7686 32.2426L56.3796 32.402L55.8307 32.7723L56.0741 35.3593C56.0741 35.3593 56.5867 33.7186 56.7265 32.3094C56.856 30.967 56.7679 30.1904 56.7679 30.1904Z" fill="#27458C"/>
<path d="M58.4824 30.6122L58.7362 31.0391L59.2591 32.5203L58.8035 32.6746L59.2333 32.8855L59.0417 36.172C59.0417 36.172 58.7776 33.7135 58.7051 32.8752C58.6222 31.9597 58.4824 30.6122 58.4824 30.6122Z" fill="#27458C"/>
<path fill-rule="evenodd" clip-rule="evenodd" d="M60.3206 22.7535C60.1912 22.738 59.9685 22.7072 59.9789 22.8975C59.9944 23.0878 59.9633 23.4375 60.3724 23.5455C60.7763 23.6587 60.3206 22.7535 60.3206 22.7535Z" fill="#ED996F"/>
<path d="M58.3528 54.2296H47.5926C46.5622 54.2296 45.7285 53.3964 45.7285 52.373V42.8221C45.7285 42.5238 45.9719 42.282 46.2722 42.282H59.668C59.9684 42.282 60.2117 42.5238 60.2117 42.8221V52.373C60.2117 53.3964 59.3781 54.2296 58.3528 54.2296Z" fill="#3A67C1"/>
<path d="M46.3389 53.7513C46.6651 54.0496 47.1001 54.2297 47.5764 54.2297H58.3677C58.8389 54.2297 59.2738 54.0496 59.6001 53.7513H46.3389Z" fill="#27458C"/>
<path d="M45.7285 50.6808V51.4215H60.2117V50.6808H45.7285Z" fill="#27458C"/>
<path d="M45.7285 52.2186V52.3832C45.7285 52.5838 45.7596 52.7792 45.8217 52.9592H60.1237C60.1807 52.7792 60.2117 52.5838 60.2117 52.3832V52.2186H45.7285Z" fill="#27458C"/>
<path d="M45.7285 49.1431V49.8837H60.2117V49.1431H45.7285Z" fill="#27458C"/>
<path d="M45.7285 42.9969V43.7376H60.2117V42.9969H45.7285Z" fill="#27458C"/>
<path d="M45.7285 47.6104V48.3459H60.2117V47.6104H45.7285Z" fill="#27458C"/>
<path d="M45.7285 44.5347V45.2753H60.2117V44.5347H45.7285Z" fill="#27458C"/>
<path d="M45.7285 46.0726V46.8132H60.2117V46.0726H45.7285Z" fill="#27458C"/>
<path d="M106.799 19.4824H104.992V45.5531H106.717C106.742 45.5531 106.768 45.5531 106.799 45.5531C110.906 45.5531 114.24 39.7156 114.24 32.5203C114.24 25.3199 110.906 19.4824 106.799 19.4824Z" fill="#1F3B80"/>
<path d="M97.7168 32.5203C97.7168 39.7156 101.046 45.5531 105.158 45.5531C109.264 45.5531 112.599 39.7156 112.599 32.5203C112.599 25.3199 109.264 19.4824 105.158 19.4824C101.046 19.4824 97.7168 25.3199 97.7168 32.5203Z" fill="#ED404E"/>
<path d="M98.3848 32.5203C98.3848 38.6972 101.243 43.7015 104.764 43.7015C108.291 43.7015 111.149 38.6972 111.149 32.5203C111.149 26.3433 108.291 21.3339 104.764 21.3339C101.243 21.3339 98.3848 26.3433 98.3848 32.5203Z" fill="white"/>
<path d="M99.1152 32.5203C99.1152 37.7303 101.528 41.9529 104.5 41.9529C107.473 41.9529 109.886 37.7303 109.886 32.5203C109.886 27.3103 107.473 23.0826 104.5 23.0826C101.528 23.0826 99.1152 27.3103 99.1152 32.5203Z" fill="#ED404E"/>
<path d="M99.9229 32.5203C99.9229 36.712 101.865 40.1065 104.257 40.1065C106.649 40.1065 108.586 36.712 108.586 32.5203C108.586 28.3287 106.649 24.929 104.257 24.929C101.865 24.929 99.9229 28.3287 99.9229 32.5203Z" fill="white"/>
<path d="M100.787 32.5203C100.787 35.6371 102.232 38.1675 104.013 38.1675C105.794 38.1675 107.234 35.6371 107.234 32.5203C107.234 29.3984 105.794 26.8731 104.013 26.8731C102.232 26.8731 100.787 29.3984 100.787 32.5203Z" fill="#ED404E"/>
<path d="M101.703 32.5203C101.703 34.5673 102.651 36.2234 103.816 36.2234C104.986 36.2234 105.934 34.5673 105.934 32.5203C105.934 30.4733 104.986 28.8121 103.816 28.8121C102.651 28.8121 101.703 30.4733 101.703 32.5203Z" fill="white"/>
<path d="M102.698 32.5203C102.698 33.518 103.164 34.3307 103.734 34.3307C104.303 34.3307 104.764 33.518 104.764 32.5203C104.764 31.5173 104.303 30.7047 103.734 30.7047C103.164 30.7047 102.698 31.5173 102.698 32.5203Z" fill="#ED404E"/>
<path d="M101.367 33.7906L101.74 30.6893L103.723 32.2734C103.858 32.3659 103.848 32.5614 103.708 32.6385L101.367 33.7906Z" fill="#FCC62B"/>
<path d="M101.916 32.3095C102.045 31.4454 101.962 30.7202 101.74 30.6894C101.517 30.6534 101.232 31.3271 101.108 32.1912C100.984 33.0501 101.061 33.7753 101.284 33.8113C101.507 33.8421 101.791 33.1684 101.916 32.3095Z" fill="#F99D3A"/>
<path d="M101.123 32.6026C101.107 32.6026 101.092 32.6026 101.071 32.6026L81.5289 30.0207C81.3166 29.9899 81.1665 29.7944 81.1924 29.5835C81.2234 29.3675 81.4202 29.2235 81.6325 29.2492L101.175 31.8311C101.387 31.8568 101.537 32.0523 101.511 32.2683C101.485 32.4637 101.315 32.6026 101.123 32.6026Z" fill="#FCC62B"/>
<path d="M86.2265 37.7149L83.9222 35.8274C83.9067 35.812 83.8808 35.812 83.8601 35.8171L81.1467 37.0566C81.1053 37.0772 81.0587 37.0412 81.0639 37L82.0684 29.2801C82.0684 29.2493 82.0995 29.2235 82.1306 29.2287L87.2724 29.8922C87.3035 29.8973 87.3294 29.9282 87.3242 29.959L86.3248 37.6789C86.3197 37.7201 86.2627 37.7406 86.2265 37.7149Z" fill="#ED404E"/>
<path d="M55.0438 52.5941C55.9344 52.5941 56.7629 52.8616 57.4775 53.3142C58.5649 49.8477 61.5838 47.343 65.1515 47.343C68.4241 47.343 71.2306 49.4465 72.5148 52.4707C73.3485 51.9564 74.3064 51.6581 75.3317 51.6581C77.5479 51.6581 79.469 53.0365 80.4063 55.0474C80.8878 54.7028 81.4626 54.5023 82.084 54.5023C83.7772 54.5023 85.1546 55.9886 85.1546 57.8299H50.2178C50.2178 54.9394 52.3771 52.5941 55.0438 52.5941Z" fill="#F4F4F4"/>
<path d="M111.221 44.8536C110.802 44.8536 110.408 44.9667 110.072 45.1673C109.559 43.6552 108.125 42.5649 106.437 42.5649C104.888 42.5649 103.558 43.4804 102.947 44.797C102.553 44.5759 102.103 44.4421 101.616 44.4421C100.565 44.4421 99.6584 45.0439 99.2131 45.9234C98.9853 45.7691 98.7108 45.6816 98.4157 45.6816C97.6131 45.6816 96.9658 46.3348 96.9658 47.132H113.51C113.51 45.8719 112.485 44.8536 111.221 44.8536Z" fill="#F4F4F4"/>
<path d="M45.4016 59.6248C44.0553 59.5786 43.2009 60.1546 42.7607 60.5712C42.5847 60.3757 42.3102 60.1443 41.9063 59.8871C41.3316 59.5683 40.9743 59.4448 40.1924 59.4088C40.094 59.4037 40.0733 59.5477 40.1717 59.5683C41.7303 59.9026 42.041 60.6895 42.419 61.2501C42.4708 61.3581 42.5743 61.4352 42.6934 61.4404C42.8436 61.4558 42.9989 61.3838 43.0455 61.2295C43.0559 61.2192 43.0611 61.2089 43.0714 61.1935C43.5892 60.3655 44.3918 59.918 45.4068 59.7843C45.5051 59.7688 45.5 59.63 45.4016 59.6248Z" fill="#3A67C1"/>
<path d="M105.95 54.0908C104.909 54.1628 104.283 54.6462 103.972 54.9754C103.822 54.8468 103.594 54.708 103.268 54.5588C102.807 54.3839 102.522 54.3222 101.916 54.3582C101.844 54.3634 101.839 54.4662 101.911 54.4765C103.133 54.5845 103.418 55.1143 103.744 55.4846C103.791 55.5514 103.874 55.5977 103.967 55.5926C104.086 55.5926 104.2 55.5309 104.226 55.4177C104.231 55.4074 104.236 55.3971 104.247 55.3869C104.599 54.7594 105.189 54.3788 105.966 54.1988C106.038 54.1833 106.028 54.0856 105.95 54.0908Z" fill="#3A67C1"/>
<path d="M57.8294 65.3441C55.1367 64.5469 53.169 65.4058 52.2422 65.9819C51.8227 65.6476 51.1444 65.2772 50.0881 64.9121C48.8816 64.5881 48.1566 64.5263 46.6912 64.8092C46.51 64.8452 46.541 65.1178 46.7275 65.1127C49.7929 65.0304 50.725 66.3625 51.6829 67.2317C51.7036 67.2522 51.7192 67.2677 51.7399 67.2831C51.7502 67.2934 51.7606 67.3037 51.7709 67.3088C51.7865 67.3242 51.802 67.3345 51.8176 67.3448C51.8383 67.3602 51.8642 67.3705 51.89 67.3808C51.8952 67.3859 51.9004 67.3911 51.9056 67.3911C52.2007 67.5197 52.5736 67.4117 52.7341 67.1545C52.7444 67.1494 52.7548 67.1442 52.7652 67.1339C54.1684 65.807 55.8927 65.411 57.7672 65.6424C57.9536 65.6681 58.0054 65.3955 57.8294 65.3441Z" fill="#3A67C1"/>
</svg>
