<svg width="160" height="74" viewBox="0 0 160 74" fill="none" xmlns="http://www.w3.org/2000/svg">
<mask id="mask0_369_799" style="mask-type:luminance" maskUnits="userSpaceOnUse" x="37" y="0" width="123" height="54">
<path d="M37.4678 0H159.999V53.107H37.4678V0Z" fill="white"/>
</mask>
<g mask="url(#mask0_369_799)">
<path d="M151.851 36.7557C151.115 36.7557 150.404 36.8535 149.724 37.0386C146.596 33.2015 141.015 26.8493 133.602 20.4456C126.78 14.5562 119.819 9.85505 112.909 6.47061C104.148 2.1809 95.4382 0.00518799 87.0294 0.00518799C78.1953 0.00518799 69.0447 2.40207 59.8371 7.12898C52.6992 10.7912 45.5354 15.8421 38.5324 22.143C37.2978 23.254 37.1993 25.1519 38.3197 26.3864C39.435 27.6157 41.344 27.7134 42.5786 26.6024C53.0156 17.2103 69.2003 6.01283 87.0294 6.01283C104.049 6.01283 119.544 16.2845 129.545 24.8999C136.517 30.9024 141.871 36.9718 144.89 40.6494C144.132 41.8838 143.697 43.3292 143.697 44.8722C143.697 49.3574 147.348 52.9939 151.851 52.9939C156.349 52.9939 160.001 49.3574 160.001 44.8722C160.001 40.3922 156.349 36.7557 151.851 36.7557Z" fill="#7CD5F7"/>
</g>
<mask id="mask1_369_799" style="mask-type:luminance" maskUnits="userSpaceOnUse" x="0" y="21" width="123" height="53">
<path d="M0 21.0062H122.475V74H0V21.0062Z" fill="white"/>
</mask>
<g mask="url(#mask1_369_799)">
<path d="M8.1494 37.2495C8.88602 37.2495 9.59669 37.1466 10.2711 36.9666C13.3991 40.8037 18.9807 47.1508 26.3987 53.5545C33.2201 59.449 40.1816 64.1502 47.0912 67.5346C55.8527 71.8243 64.5572 74 72.9712 74C81.8001 74 90.9507 71.6031 100.158 66.8762C107.296 63.214 114.465 58.1631 121.463 51.8623C122.698 50.7513 122.796 48.8481 121.681 47.6188C120.56 46.3895 118.657 46.2918 117.422 47.4028C106.98 56.7949 90.8002 67.9924 72.9712 67.9924C55.9461 67.9924 40.4513 57.7207 30.45 49.1053C23.4782 43.0977 18.1248 37.0335 15.1109 33.3507C15.8631 32.1214 16.2988 30.676 16.2988 29.1278C16.2988 24.6478 12.6469 21.0114 8.1494 21.0114C3.64674 21.0114 0 24.6478 0 29.1278C0 33.613 3.64674 37.2495 8.1494 37.2495Z" fill="#4BA7E2"/>
</g>
<path d="M80.0001 53.4104C70.9014 53.4104 63.5249 46.0655 63.5249 37.0026C63.5249 27.9396 70.9014 20.5947 80.0001 20.5947C89.0936 20.5947 96.4701 27.9396 96.4701 37.0026C96.4701 46.0655 89.0936 53.4104 80.0001 53.4104ZM80.0001 13.5635C67.0005 13.5635 56.4648 24.0563 56.4648 37.0026C56.4648 49.9488 67.0005 60.4416 80.0001 60.4416C92.9945 60.4416 103.53 49.9488 103.53 37.0026C103.53 24.0563 92.9945 13.5635 80.0001 13.5635Z" fill="#3168BB"/>
<path d="M80.3423 25.661C77.0898 25.5684 74.133 26.8286 72.0061 28.922C71.7053 29.2152 71.8816 29.7141 72.2966 29.7707L72.333 29.7758C73.8425 29.9816 75.0408 31.2263 75.1912 32.7385C75.3883 34.7291 73.8217 36.4059 71.8609 36.4059C70.9479 36.4059 70.1179 36.0407 69.5162 35.4492C69.2205 35.1611 68.7225 35.3463 68.6758 35.7526C68.6291 36.1641 68.6084 36.5807 68.6084 37.0025C68.6084 43.2673 73.7076 48.3491 79.9999 48.3491C86.3493 48.3491 91.49 43.1645 91.3863 36.8173C91.2877 30.7891 86.3908 25.8359 80.3423 25.661Z" fill="#7CD5F7"/>
<path d="M87.7497 36.1591C87.703 33.3301 85.8615 30.8201 83.1641 29.9045L83.7191 28.2792C87.1013 29.4262 89.4149 32.5843 89.4719 36.1282L87.7497 36.1591Z" fill="#DFF5FD"/>
<path d="M125.597 33.1038H120.877V28.4026H125.597V33.1038Z" fill="#7CD5F7"/>
<path d="M133.695 44.6406H128.975V39.9395H133.695V44.6406Z" fill="#3168BB"/>
<path d="M109.444 33.1038H104.724V28.4026H109.444V33.1038Z" fill="#7CD5F7"/>
<path d="M114.164 28.4025H109.443V23.7014H114.164V28.4025Z" fill="#3168BB"/>
<path d="M115.642 38.9417H110.927V34.2405H115.642V38.9417Z" fill="#4BA7E2"/>
</svg>
