<svg width="40" height="40" viewBox="0 0 40 40" fill="none" xmlns="http://www.w3.org/2000/svg">
<mask id="mask0_313_4764" style="mask-type:luminance" maskUnits="userSpaceOnUse" x="0" y="0" width="13" height="21">
<path d="M0 0H12.0135V20.6056H0V0Z" fill="white"/>
</mask>
<g mask="url(#mask0_313_4764)">
<path d="M1.59127 -0.0090332H10.1617C10.3685 -0.0090332 10.5684 0.0326715 10.7578 0.11608C10.949 0.197676 11.1176 0.315536 11.2636 0.467848C11.4096 0.620159 11.5226 0.796044 11.6025 0.995499C11.6808 1.19496 11.7207 1.40348 11.7207 1.61925V18.6564C11.7207 18.8722 11.6808 19.0807 11.6025 19.2802C11.5226 19.4796 11.4096 19.6555 11.2636 19.8078C11.1176 19.9601 10.949 20.078 10.7578 20.1614C10.5684 20.243 10.3685 20.2847 10.1617 20.2847H1.59127C1.38444 20.2847 1.1863 20.243 0.995116 20.1614C0.803929 20.078 0.635337 19.9601 0.489338 19.8078C0.343341 19.6555 0.230366 19.4796 0.150415 19.2802C0.0722018 19.0807 0.0322266 18.8722 0.0322266 18.6564V1.61925C0.0322266 1.40348 0.0722018 1.19496 0.150415 0.995499C0.230366 0.796044 0.343341 0.620159 0.489338 0.467848C0.635337 0.315536 0.803929 0.197676 0.995116 0.11608C1.1863 0.0326715 1.38444 -0.0090332 1.59127 -0.0090332Z" fill="#DBECFF"/>
</g>
<path d="M10.024 2.25387V18.0236C10.024 18.087 10.0118 18.1505 9.98748 18.2085C9.96315 18.2684 9.93013 18.3228 9.88667 18.3681C9.84322 18.4134 9.79282 18.4479 9.73546 18.4733C9.67811 18.4987 9.61727 18.5113 9.55644 18.5113H2.1992C2.13837 18.5113 2.07754 18.4987 2.02018 18.4733C1.96456 18.4479 1.91242 18.4134 1.86897 18.3681C1.82552 18.3228 1.79249 18.2684 1.76816 18.2085C1.74383 18.1505 1.7334 18.087 1.7334 18.0236V2.25387C1.7334 2.1886 1.74383 2.12695 1.76816 2.06711C1.79249 2.00727 1.82552 1.95469 1.86897 1.90755C1.91242 1.86221 1.96456 1.82776 2.02018 1.80238C2.07754 1.77699 2.13837 1.76611 2.1992 1.76611H9.55644C9.61727 1.76611 9.67811 1.77699 9.73546 1.80238C9.79282 1.82776 9.84322 1.86221 9.88667 1.90755C9.93013 1.95469 9.96315 2.00727 9.98748 2.06711C10.0118 2.12695 10.024 2.1886 10.024 2.25387Z" fill="white"/>
<path d="M2.69223 3.6283H9.06225C9.14741 3.6283 9.22736 3.64462 9.30557 3.67725C9.38205 3.7117 9.45157 3.75885 9.51067 3.8205C9.56976 3.88396 9.61495 3.95468 9.64797 4.03627C9.67926 4.11606 9.6949 4.20128 9.6949 4.28831V7.62285C9.6949 7.7117 9.67926 7.79511 9.64797 7.87671C9.61495 7.95649 9.56976 8.02902 9.51067 8.09067C9.45157 8.15232 9.38205 8.20128 9.30557 8.23391C9.22736 8.26655 9.14741 8.28469 9.06225 8.28469H2.69223C2.6088 8.28469 2.52711 8.26655 2.4489 8.23391C2.37242 8.20128 2.3029 8.15232 2.24381 8.09067C2.18471 8.02902 2.13952 7.95649 2.1065 7.87671C2.07521 7.79511 2.05957 7.7117 2.05957 7.62285V4.28831C2.05957 4.20128 2.07521 4.11606 2.1065 4.03627C2.13952 3.95468 2.18471 3.88396 2.24381 3.8205C2.3029 3.75885 2.37242 3.7117 2.4489 3.67725C2.52711 3.64462 2.6088 3.6283 2.69223 3.6283Z" fill="#DBECFF"/>
<path d="M2.69223 10.4297H9.06225C9.14741 10.4297 9.22736 10.4479 9.30557 10.4805C9.38205 10.515 9.45157 10.5621 9.51067 10.6238C9.56976 10.6854 9.61495 10.7579 9.64797 10.8377C9.67926 10.9193 9.6949 11.0045 9.6949 11.0916V14.4261C9.6949 14.5132 9.67926 14.5984 9.64797 14.68C9.61495 14.7598 9.56976 14.8323 9.51067 14.8939C9.45157 14.9556 9.38205 15.0027 9.30557 15.0372C9.22736 15.0698 9.14741 15.0861 9.06225 15.0861H2.69223C2.6088 15.0861 2.52711 15.0698 2.4489 15.0372C2.37242 15.0027 2.3029 14.9556 2.24381 14.8939C2.18471 14.8323 2.13952 14.7598 2.1065 14.68C2.07521 14.5984 2.05957 14.5132 2.05957 14.4261V11.0916C2.05957 11.0045 2.07521 10.9193 2.1065 10.8377C2.13952 10.7579 2.18471 10.6854 2.24381 10.6238C2.3029 10.5621 2.37242 10.515 2.4489 10.4805C2.52711 10.4479 2.6088 10.4297 2.69223 10.4297Z" fill="#DBECFF"/>
<path d="M11.7217 17.6155V18.6708C11.7217 18.8866 11.6817 19.0933 11.6035 19.2928C11.5236 19.4922 11.4106 19.6681 11.2646 19.8204C11.1186 19.9727 10.95 20.0906 10.7588 20.174C10.5694 20.2556 10.3695 20.2973 10.1627 20.2973H1.59225C1.38542 20.2973 1.18728 20.2556 0.996093 20.174C0.804905 20.0906 0.636313 19.9727 0.490315 19.8204C0.344318 19.6681 0.231343 19.4922 0.151392 19.2928C0.0731784 19.0933 0.0332031 18.8866 0.0332031 18.6708V17.6155H11.7217Z" fill="#777DBA"/>
<path d="M10.024 17.6155V18.0235C10.024 18.087 10.0118 18.1504 9.98748 18.2085C9.96315 18.2683 9.93013 18.3227 9.88667 18.368C9.84322 18.4134 9.79282 18.4478 9.73546 18.4732C9.67811 18.4986 9.61727 18.5113 9.55644 18.5113H2.1992C2.13837 18.5113 2.07754 18.4986 2.02018 18.4732C1.96456 18.4478 1.91242 18.4134 1.86897 18.368C1.82552 18.3227 1.79249 18.2683 1.76816 18.2085C1.74383 18.1504 1.7334 18.087 1.7334 18.0235V17.6155H10.024Z" fill="#95AAE2"/>
<path d="M15.7104 8.00909H24.2808C24.4877 8.00909 24.6858 8.0508 24.877 8.13239C25.0682 8.2158 25.2368 8.33366 25.3828 8.48598C25.5288 8.63829 25.6417 8.81417 25.7199 9.01363C25.7999 9.21308 25.8399 9.4216 25.8399 9.63738V26.6745C25.8399 26.8903 25.7999 27.0988 25.7199 27.2983C25.6417 27.4978 25.5288 27.6736 25.3828 27.8259C25.2368 27.9783 25.0682 28.0961 24.877 28.1777C24.6858 28.2611 24.4877 28.3028 24.2808 28.3028H15.7104C15.5036 28.3028 15.3037 28.2611 15.1125 28.1777C14.9231 28.0961 14.7545 27.9783 14.6067 27.8259C14.4607 27.6736 14.3495 27.4978 14.2696 27.2983C14.1913 27.0988 14.1514 26.8903 14.1514 26.6745V9.63738C14.1514 9.4216 14.1913 9.21308 14.2696 9.01363C14.3495 8.81417 14.4607 8.63829 14.6067 8.48598C14.7545 8.33366 14.9231 8.2158 15.1125 8.13239C15.3037 8.0508 15.5036 8.00909 15.7104 8.00909Z" fill="#619FFF"/>
<path d="M24.1402 10.4225V25.8894C24.1402 25.9746 24.1245 26.0562 24.0933 26.1342C24.0637 26.2121 24.0185 26.281 23.9612 26.3409C23.9038 26.4007 23.8378 26.4479 23.763 26.4805C23.6883 26.5113 23.6101 26.5276 23.5284 26.5276H16.4614C16.3797 26.5276 16.3032 26.5113 16.2268 26.4805C16.152 26.4479 16.086 26.4007 16.0286 26.3409C15.9713 26.281 15.9278 26.2121 15.8965 26.1342C15.8653 26.0562 15.8496 25.9746 15.8496 25.8894V10.4225C15.8496 10.3373 15.8653 10.2557 15.8965 10.1777C15.9278 10.0997 15.9713 10.0308 16.0286 9.97099C16.086 9.91115 16.152 9.86401 16.2268 9.83137C16.3032 9.79873 16.3797 9.78241 16.4614 9.78241H23.5284C23.6101 9.78241 23.6883 9.79873 23.763 9.83137C23.8378 9.86401 23.9038 9.91115 23.9612 9.97099C24.0185 10.0308 24.0637 10.0997 24.0933 10.1777C24.1245 10.2557 24.1402 10.3373 24.1402 10.4225Z" fill="#7FC7FF"/>
<mask id="mask1_313_4764" style="mask-type:luminance" maskUnits="userSpaceOnUse" x="28" y="19" width="13" height="21">
<path d="M28.0322 19.6772H40.0006V40H28.0322V19.6772Z" fill="white"/>
</mask>
<g mask="url(#mask1_313_4764)">
<path d="M29.8276 19.7172H38.3998C38.6066 19.7172 38.8047 19.7589 38.9959 19.8405C39.1871 19.9239 39.3557 20.0417 39.5017 20.194C39.6477 20.3464 39.7607 20.5222 39.8389 20.7217C39.9188 20.9212 39.9571 21.1279 39.9571 21.3436V38.3826C39.9571 38.5984 39.9188 38.8051 39.8389 39.0045C39.7607 39.204 39.6477 39.3799 39.5017 39.5322C39.3557 39.6863 39.1871 39.8042 38.9959 39.8858C38.8047 39.9692 38.6066 40.0091 38.3998 40.0091H29.8276C29.6208 40.0091 29.4226 39.9692 29.2314 39.8858C29.0403 39.8042 28.8717 39.6863 28.7257 39.5322C28.5797 39.3799 28.4667 39.204 28.3885 39.0045C28.3085 38.8051 28.2686 38.5984 28.2686 38.3826V21.3436C28.2686 21.1279 28.3085 20.9212 28.3885 20.7217C28.4667 20.5222 28.5797 20.3464 28.7257 20.194C28.8717 20.0417 29.0403 19.9239 29.2314 19.8405C29.4226 19.7589 29.6208 19.7172 29.8276 19.7172Z" fill="#A9BAEB"/>
</g>
<path d="M38.4377 21.9873V37.7389C38.4377 37.806 38.4255 37.8676 38.4012 37.9293C38.3769 37.9909 38.3421 38.0435 38.2969 38.0907C38.2535 38.1378 38.2013 38.1722 38.144 38.1976C38.0849 38.223 38.024 38.2357 37.9615 38.2357H30.2653C30.2027 38.2357 30.1419 38.223 30.0828 38.1976C30.0254 38.1722 29.9733 38.1378 29.9281 38.0907C29.8847 38.0435 29.8499 37.9909 29.8256 37.9293C29.8012 37.8676 29.7891 37.806 29.7891 37.7389V21.9873C29.7891 21.922 29.8012 21.8586 29.8256 21.7969C29.8499 21.7371 29.8847 21.6827 29.9281 21.6355C29.9733 21.5902 30.0254 21.5539 30.0828 21.5286C30.1419 21.5032 30.2027 21.4905 30.2653 21.4905H37.9615C38.024 21.4905 38.0849 21.5032 38.144 21.5286C38.2013 21.5539 38.2535 21.5902 38.2969 21.6355C38.3421 21.6827 38.3769 21.7371 38.4012 21.7969C38.4255 21.8586 38.4377 21.922 38.4377 21.9873Z" fill="#BDCEFF"/>
<path d="M25.8399 25.6319V26.6745C25.8399 26.8903 25.7999 27.0988 25.7199 27.2983C25.6417 27.4977 25.5288 27.6736 25.3828 27.8259C25.2368 27.9782 25.0682 28.0961 24.877 28.1777C24.6858 28.2611 24.4877 28.3028 24.2808 28.3028H15.7104C15.5036 28.3028 15.3037 28.2611 15.1125 28.1777C14.9231 28.0961 14.7545 27.9782 14.6067 27.8259C14.4607 27.6736 14.3495 27.4977 14.2696 27.2983C14.1913 27.0988 14.1514 26.8903 14.1514 26.6745V25.6319H25.8399Z" fill="#777DBA"/>
<path d="M24.1402 25.6319V25.8894C24.1402 25.9746 24.1245 26.0562 24.0933 26.1342C24.062 26.2121 24.0168 26.281 23.9594 26.3409C23.9038 26.4007 23.8378 26.446 23.763 26.4787C23.6883 26.5113 23.6101 26.5276 23.5284 26.5276H16.4614C16.3815 26.5276 16.3032 26.5113 16.2285 26.4787C16.1538 26.446 16.0877 26.4007 16.0304 26.3409C15.973 26.281 15.9296 26.2121 15.8983 26.1342C15.867 26.0562 15.8513 25.9746 15.8496 25.8894V25.6319H24.1402Z" fill="#95AAE2"/>
<mask id="mask2_313_4764" style="mask-type:luminance" maskUnits="userSpaceOnUse" x="28" y="37" width="13" height="3">
<path d="M28.0322 37.3164H40.0006V40H28.0322V37.3164Z" fill="white"/>
</mask>
<g mask="url(#mask2_313_4764)">
<path d="M39.9571 37.34V38.3826C39.9571 38.5984 39.9188 38.8051 39.8389 39.0045C39.7607 39.204 39.6477 39.3799 39.5017 39.5322C39.3557 39.6863 39.1871 39.8042 38.9959 39.8857C38.8047 39.9692 38.6066 40.009 38.3998 40.009H29.8276C29.6208 40.009 29.4226 39.9692 29.2314 39.8857C29.0403 39.8042 28.8717 39.6863 28.7257 39.5322C28.5797 39.3799 28.4667 39.204 28.3885 39.0045C28.3085 38.8051 28.2686 38.5984 28.2686 38.3826V37.34H39.9571Z" fill="#777DBA"/>
</g>
<path d="M38.4377 37.34V37.7389C38.4359 37.806 38.4238 37.8694 38.3995 37.9311C38.3751 37.9909 38.3404 38.0453 38.2952 38.0925C38.25 38.1396 38.1978 38.1759 38.1405 38.2013C38.0814 38.2266 38.0206 38.2393 37.9562 38.2411H30.2653C30.2027 38.2393 30.1419 38.2266 30.0828 38.2013C30.0254 38.1759 29.9733 38.1396 29.9281 38.0925C29.8847 38.0453 29.8499 37.9909 29.8256 37.9293C29.8012 37.8694 29.7891 37.806 29.7891 37.7389V37.34H38.4377Z" fill="#9BB4E3"/>
<path d="M30.9276 30.2574H37.2993C37.3828 30.2574 37.4627 30.2756 37.5409 30.3082C37.6191 30.3409 37.6869 30.3898 37.746 30.4515C37.8051 30.5131 37.852 30.5856 37.8833 30.6654C37.9163 30.747 37.932 30.8304 37.932 30.9193V34.2538C37.932 34.3409 37.9163 34.4261 37.8833 34.5059C37.852 34.5875 37.8051 34.6582 37.746 34.7216C37.6869 34.7833 37.6191 34.8304 37.5409 34.8649C37.4627 34.8975 37.3828 34.9138 37.2993 34.9138H30.9276C30.8442 34.9138 30.7625 34.8975 30.686 34.8649C30.6078 34.8304 30.54 34.7833 30.4809 34.7216C30.4218 34.6582 30.3749 34.5875 30.3436 34.5059C30.3106 34.4261 30.2949 34.3409 30.2949 34.2538V30.9193C30.2949 30.8304 30.3106 30.747 30.3436 30.6654C30.3749 30.5856 30.4218 30.5131 30.4809 30.4515C30.54 30.3898 30.6078 30.3409 30.686 30.3082C30.7625 30.2756 30.8442 30.2574 30.9276 30.2574Z" fill="#DBECFF"/>
<path d="M30.9276 23.3037H32.9542C33.0376 23.3037 33.1193 23.3218 33.1958 23.3545C33.274 23.3889 33.3418 23.4361 33.4008 23.4977C33.4599 23.5594 33.5069 23.6319 33.5382 23.7117C33.5712 23.7933 33.5868 23.8767 33.5868 23.9655V27.3001C33.5868 27.3871 33.5712 27.4723 33.5382 27.5521C33.5069 27.6337 33.4599 27.7044 33.4008 27.7679C33.3418 27.8295 33.274 27.8767 33.1958 27.9111C33.1193 27.9438 33.0376 27.9601 32.9542 27.9601H30.9276C30.8442 27.9601 30.7625 27.9438 30.686 27.9111C30.6078 27.8767 30.54 27.8295 30.4809 27.7679C30.4218 27.7044 30.3749 27.6337 30.3436 27.5521C30.3106 27.4723 30.2949 27.3871 30.2949 27.3001V23.9655C30.2949 23.8767 30.3106 23.7933 30.3436 23.7117C30.3749 23.6319 30.4218 23.5594 30.4809 23.4977C30.54 23.4361 30.6078 23.3889 30.686 23.3545C30.7625 23.3218 30.8442 23.3037 30.9276 23.3037Z" fill="#619FFF"/>
<path d="M23.1806 11.5739H16.8106C16.6924 11.5739 16.5916 11.5322 16.5099 11.4451C16.4265 11.3581 16.3848 11.2529 16.3848 11.1314C16.3848 11.0081 16.4265 10.9048 16.5099 10.8177C16.5916 10.7307 16.6924 10.6872 16.8106 10.6872H23.1806C23.2971 10.6872 23.3979 10.7307 23.4813 10.8177C23.563 10.9048 23.6047 11.0081 23.6047 11.1314C23.6047 11.2529 23.563 11.3581 23.4813 11.4451C23.3979 11.5322 23.2971 11.5739 23.1806 11.5739Z" fill="#5955A1"/>
<path d="M23.1806 13.7389H16.8106C16.6924 13.7389 16.5916 13.6954 16.5099 13.6084C16.4265 13.5231 16.3848 13.418 16.3848 13.2947C16.3848 13.1732 16.4265 13.068 16.5099 12.981C16.5916 12.8958 16.6924 12.8522 16.8106 12.8522H23.1806C23.2971 12.8522 23.3979 12.8958 23.4813 12.981C23.563 13.068 23.6047 13.1732 23.6047 13.2947C23.6047 13.418 23.563 13.5231 23.4813 13.6084C23.3979 13.6954 23.2971 13.7389 23.1806 13.7389Z" fill="#5955A1"/>
<path d="M23.1806 15.8985H16.8106C16.6924 15.8985 16.5916 15.8549 16.5099 15.7679C16.4265 15.6827 16.3848 15.5775 16.3848 15.4542C16.3848 15.3327 16.4265 15.2276 16.5099 15.1423C16.5916 15.0553 16.6924 15.0118 16.8106 15.0118H23.1806C23.2971 15.0118 23.3979 15.0553 23.4813 15.1423C23.563 15.2276 23.6047 15.3327 23.6047 15.4542C23.6047 15.5775 23.563 15.6827 23.4813 15.7679C23.3979 15.8549 23.2971 15.8985 23.1806 15.8985Z" fill="#5955A1"/>
<path d="M19.0388 18.058H16.8106C16.6924 18.058 16.5916 18.0145 16.5099 17.9274C16.4265 17.8422 16.3848 17.7371 16.3848 17.6156C16.3848 17.4923 16.4265 17.3871 16.5099 17.3019C16.5916 17.2148 16.6924 17.1713 16.8106 17.1713H19.0388C19.157 17.1713 19.2561 17.2148 19.3395 17.3019C19.4229 17.3871 19.4646 17.4923 19.4646 17.6156C19.4646 17.7371 19.4229 17.8422 19.3395 17.9274C19.2561 18.0145 19.157 18.058 19.0388 18.058Z" fill="#5955A1"/>
<path d="M19.9946 8.4696C19.8781 8.4696 19.7773 8.42789 19.6939 8.34086C19.6122 8.25382 19.5705 8.14865 19.5705 8.02717V6.30641C19.5705 6.17585 19.5462 6.05255 19.4975 5.93288C19.4506 5.81321 19.381 5.70804 19.2941 5.61556C19.2055 5.5249 19.1047 5.45419 18.99 5.40523C18.8753 5.35627 18.7553 5.33089 18.6319 5.33089H9.71217C9.59572 5.33089 9.49492 5.28737 9.41149 5.20033C9.3298 5.11511 9.28809 5.00994 9.28809 4.88664C9.28809 4.76516 9.3298 4.65999 9.41149 4.57295C9.49492 4.48773 9.59572 4.44421 9.71217 4.44421H18.6319C18.7484 4.44421 18.8648 4.45509 18.9796 4.47867C19.0943 4.50405 19.2072 4.5385 19.315 4.58565C19.4228 4.63279 19.527 4.689 19.6244 4.7579C19.7217 4.82499 19.8121 4.90296 19.8938 4.98818C19.9772 5.07522 20.0519 5.16951 20.1162 5.27105C20.1823 5.37259 20.2379 5.47957 20.2831 5.59381C20.3283 5.70623 20.3613 5.82227 20.3839 5.94195C20.4082 6.06343 20.4187 6.18311 20.4204 6.30641V8.02717C20.4204 8.14865 20.3787 8.25382 20.2953 8.34086C20.2118 8.42789 20.1128 8.4696 19.9946 8.4696Z" fill="#5955A1"/>
<path d="M20.9001 8.00909C20.9001 8.1342 20.8776 8.25569 20.8306 8.36992C20.7854 8.48597 20.7194 8.58932 20.6342 8.67636C20.5491 8.76521 20.4517 8.83411 20.3405 8.88125C20.231 8.93021 20.1145 8.95378 19.9946 8.95378C19.8747 8.95378 19.76 8.93021 19.6487 8.88125C19.5375 8.83411 19.4402 8.76521 19.355 8.67636C19.2698 8.58932 19.2055 8.48597 19.1586 8.36992C19.1134 8.25569 19.0908 8.1342 19.0908 8.00909C19.0908 7.88397 19.1134 7.7643 19.1586 7.64825C19.2055 7.53221 19.2698 7.43067 19.355 7.34182C19.4402 7.25297 19.5375 7.18407 19.6487 7.13692C19.76 7.08796 19.8747 7.06439 19.9946 7.06439C20.1145 7.06439 20.231 7.08796 20.3405 7.13692C20.4517 7.18407 20.5491 7.25297 20.6342 7.34182C20.7194 7.43067 20.7854 7.53221 20.8306 7.64825C20.8776 7.7643 20.9001 7.88397 20.9001 8.00909Z" fill="#5955A1"/>
<path d="M28.2679 33.0299H19.4298C19.3029 33.0299 19.1778 33.0172 19.0526 32.99C18.9292 32.9646 18.8076 32.9265 18.6911 32.8758C18.5729 32.825 18.4617 32.7633 18.3574 32.689C18.2514 32.6165 18.1541 32.5331 18.0637 32.4388C17.9733 32.3445 17.8933 32.2429 17.8238 32.1323C17.7526 32.0235 17.6935 31.9057 17.6448 31.7842C17.5961 31.6609 17.5596 31.5358 17.5353 31.4052C17.5092 31.2747 17.4971 31.1441 17.4971 31.0118V22.4043C17.4971 22.281 17.5388 22.1777 17.6222 22.0906C17.7056 22.0036 17.8047 21.9601 17.9229 21.9601C18.0393 21.9601 18.1402 22.0036 18.2236 22.0906C18.3053 22.1777 18.347 22.281 18.347 22.4043V31.0118C18.347 31.1623 18.3748 31.3055 18.4304 31.4433C18.486 31.5829 18.5642 31.7044 18.6651 31.8096C18.7676 31.9166 18.884 31.9982 19.0161 32.0562C19.1482 32.1124 19.2873 32.1414 19.4298 32.1432H28.2679C28.3861 32.1432 28.4869 32.1867 28.5686 32.272C28.652 32.359 28.6937 32.4642 28.6937 32.5856C28.6937 32.7089 28.652 32.8123 28.5686 32.8993C28.4869 32.9864 28.3861 33.0299 28.2679 33.0299Z" fill="#5955A1"/>
<path d="M29.1736 32.5857C29.1736 32.7108 29.151 32.8323 29.1041 32.9483C29.0589 33.0626 28.9928 33.1659 28.9094 33.2548C28.8242 33.3418 28.7252 33.4107 28.6157 33.4597C28.5044 33.5068 28.388 33.5304 28.2681 33.5304C28.1481 33.5304 28.0334 33.5068 27.9222 33.4597C27.8127 33.4107 27.7136 33.3418 27.6284 33.2548C27.545 33.1659 27.479 33.0626 27.4338 32.9483C27.3869 32.8323 27.3643 32.7108 27.3643 32.5857C27.3643 32.4606 27.3869 32.3409 27.4338 32.2249C27.479 32.1088 27.545 32.0073 27.6284 31.9184C27.7136 31.8296 27.8127 31.7607 27.9222 31.7135C28.0334 31.6664 28.1481 31.641 28.2681 31.641C28.388 31.641 28.5044 31.6664 28.6157 31.7135C28.7252 31.7607 28.8242 31.8296 28.9094 31.9184C28.9928 32.0073 29.0589 32.1088 29.1041 32.2249C29.151 32.3409 29.1736 32.4606 29.1736 32.5857Z" fill="#5955A1"/>
<path d="M1.3889 32.2538H10.366C10.5468 32.2538 10.7188 32.2901 10.8857 32.3608C11.0508 32.4334 11.1986 32.5349 11.3254 32.6673C11.4523 32.7996 11.5496 32.9538 11.6192 33.126C11.6869 33.3001 11.7217 33.4814 11.7217 33.6682V36.9936C11.7217 37.1822 11.6869 37.3617 11.6192 37.5358C11.5496 37.7081 11.4523 37.8622 11.3254 37.9945C11.1986 38.1269 11.0508 38.2303 10.8857 38.301C10.7188 38.3735 10.5468 38.408 10.366 38.408H1.3889C1.20814 38.408 1.03607 38.3735 0.869214 38.301C0.704097 38.2303 0.556361 38.1269 0.429483 37.9945C0.302604 37.8622 0.205272 37.7081 0.135749 37.5358C0.0679644 37.3617 0.0332031 37.1822 0.0332031 36.9936V33.6682C0.0332031 33.4814 0.0679644 33.3001 0.135749 33.126C0.205272 32.9538 0.302604 32.7996 0.429483 32.6673C0.556361 32.5349 0.704097 32.4334 0.869214 32.3608C1.03607 32.2901 1.20814 32.2538 1.3889 32.2538Z" fill="#619FFF"/>
<path d="M9.25308 34.6709H2.50417C2.38772 34.6709 2.28691 34.6273 2.20348 34.5403C2.12179 34.4533 2.08008 34.3499 2.08008 34.2266C2.08008 34.1051 2.12179 34 2.20348 33.9129C2.28691 33.8259 2.38772 33.7842 2.50417 33.7842H9.25308C9.37127 33.7842 9.47034 33.8259 9.55377 33.9129C9.6372 34 9.67891 34.1051 9.67891 34.2266C9.67891 34.3499 9.6372 34.4533 9.55377 34.5403C9.47034 34.6273 9.37127 34.6709 9.25308 34.6709Z" fill="#5955A1"/>
<path d="M9.25308 36.8522H2.50417C2.38772 36.8522 2.28691 36.8087 2.20348 36.7217C2.12179 36.6365 2.08008 36.5313 2.08008 36.408C2.08008 36.2865 2.12179 36.1814 2.20348 36.0961C2.28691 36.0091 2.38772 35.9656 2.50417 35.9656H9.25308C9.37127 35.9656 9.47034 36.0091 9.55377 36.0961C9.6372 36.1814 9.67891 36.2865 9.67891 36.408C9.67891 36.5313 9.6372 36.6365 9.55377 36.7217C9.47034 36.8087 9.37127 36.8522 9.25308 36.8522Z" fill="#5955A1"/>
<path d="M5.87798 32.6926C5.75979 32.6926 5.65898 32.6491 5.57729 32.5621C5.49386 32.4769 5.45215 32.3717 5.45215 32.2484V14.0145C5.45215 13.8912 5.49386 13.786 5.57729 13.7008C5.65898 13.6138 5.75979 13.5703 5.87798 13.5703C5.99443 13.5703 6.09523 13.6138 6.17692 13.7008C6.26035 13.786 6.30206 13.8912 6.30206 14.0145V32.2484C6.30206 32.3717 6.26035 32.4769 6.17692 32.5621C6.09523 32.6491 5.99443 32.6926 5.87798 32.6926Z" fill="#5955A1"/>
<path d="M6.78198 32.2538C6.78198 32.379 6.75939 32.4986 6.71246 32.6147C6.66727 32.7307 6.60123 32.8323 6.5178 32.9211C6.43263 33.01 6.33356 33.0789 6.22407 33.126C6.11283 33.175 5.99812 33.1985 5.87819 33.1985C5.75826 33.1985 5.64181 33.175 5.53058 33.126C5.42108 33.0789 5.32201 33.01 5.23684 32.9211C5.15342 32.8323 5.08737 32.7307 5.04218 32.6147C4.99525 32.4986 4.97266 32.379 4.97266 32.2538C4.97266 32.1287 4.99525 32.0072 5.04218 31.8912C5.08737 31.777 5.15342 31.6736 5.23684 31.5848C5.32201 31.4977 5.42108 31.4288 5.53058 31.3817C5.64181 31.3327 5.75826 31.3091 5.87819 31.3091C5.99812 31.3091 6.11283 31.3327 6.22407 31.3817C6.33356 31.4288 6.43263 31.4977 6.5178 31.5848C6.60123 31.6736 6.66727 31.777 6.71246 31.8912C6.75939 32.0072 6.78198 32.1287 6.78198 32.2538Z" fill="#5955A1"/>
<path d="M17.179 20.2847H18.8476C18.9501 20.2847 19.037 20.3227 19.11 20.3971C19.1813 20.4732 19.2178 20.5639 19.2178 20.6709V22.0181C19.2178 22.1251 19.1813 22.2158 19.11 22.2919C19.037 22.3663 18.9501 22.4043 18.8476 22.4043H17.179C17.0765 22.4043 16.9896 22.3663 16.9183 22.2919C16.8453 22.2158 16.8105 22.1251 16.8105 22.0181V20.6709C16.8105 20.5639 16.8453 20.4732 16.9183 20.3971C16.9896 20.3227 17.0765 20.2847 17.179 20.2847Z" fill="white"/>
<path d="M21.1417 20.2847H22.8102C22.9128 20.2847 22.9997 20.3227 23.0727 20.3971C23.1439 20.4732 23.1804 20.5639 23.1804 20.6709V22.0181C23.1804 22.1251 23.1439 22.2158 23.0727 22.2919C22.9997 22.3663 22.9128 22.4043 22.8102 22.4043H21.1417C21.0391 22.4043 20.9522 22.3663 20.881 22.2919C20.808 22.2158 20.7715 22.1251 20.7715 22.0181V20.6709C20.7715 20.5639 20.808 20.4732 20.881 20.3971C20.9522 20.3227 21.0391 20.2847 21.1417 20.2847Z" fill="white"/>
<path d="M2.69223 2.55847H9.06225C9.14741 2.55847 9.22736 2.5766 9.30557 2.60924C9.38205 2.64369 9.45157 2.69084 9.51067 2.75249C9.56976 2.81414 9.61495 2.88667 9.64797 2.96645C9.67926 3.04805 9.6949 3.13145 9.6949 3.2203V6.55484C9.6949 6.64188 9.67926 6.7271 9.64797 6.80688C9.61495 6.88848 9.56976 6.95919 9.51067 7.02266C9.45157 7.08431 9.38205 7.13145 9.30557 7.1659C9.22736 7.19854 9.14741 7.21486 9.06225 7.21486H2.69223C2.6088 7.21486 2.52711 7.19854 2.4489 7.1659C2.37242 7.13145 2.3029 7.08431 2.24381 7.02266C2.18471 6.95919 2.13952 6.88848 2.1065 6.80688C2.07521 6.7271 2.05957 6.64188 2.05957 6.55484V3.2203C2.05957 3.13145 2.07521 3.04805 2.1065 2.96645C2.13952 2.88667 2.18471 2.81414 2.24381 2.75249C2.3029 2.69084 2.37242 2.64369 2.4489 2.60924C2.52711 2.5766 2.6088 2.55847 2.69223 2.55847Z" fill="#FFAB57"/>
<path d="M8.42131 3.88574V5.8803H3.33398V3.88574H8.42131Z" fill="#FFC46B"/>
<path d="M2.69223 9.35809H9.06225C9.14741 9.35809 9.22736 9.37441 9.30557 9.40705C9.38205 9.4415 9.45157 9.48865 9.51067 9.5503C9.56976 9.61376 9.61495 9.68448 9.64797 9.76607C9.67926 9.84585 9.6949 9.93108 9.6949 10.0181V13.3527C9.6949 13.4415 9.67926 13.5249 9.64797 13.6065C9.61495 13.6863 9.56976 13.7588 9.51067 13.8205C9.45157 13.8821 9.38205 13.9293 9.30557 13.9637C9.22736 13.9964 9.14741 14.0145 9.06225 14.0145H2.69223C2.6088 14.0145 2.52711 13.9964 2.4489 13.9637C2.37242 13.9293 2.3029 13.8821 2.24381 13.8205C2.18471 13.7588 2.13952 13.6863 2.1065 13.6065C2.07521 13.5249 2.05957 13.4415 2.05957 13.3527V10.0181C2.05957 9.93108 2.07521 9.84585 2.1065 9.76607C2.13952 9.68448 2.18471 9.61376 2.24381 9.5503C2.3029 9.48865 2.37242 9.4415 2.4489 9.40705C2.52711 9.37441 2.6088 9.35809 2.69223 9.35809Z" fill="#00B496"/>
<path d="M8.42131 10.6872V12.6836H3.33398V10.6872H8.42131Z" fill="#00D796"/>
</svg>
