<svg width="40" height="40" viewBox="0 0 40 40" fill="none" xmlns="http://www.w3.org/2000/svg">
<path d="M30.1238 2.5H11.0463V37.5H11.1363H37.1838V9.86L30.21 2.59L30.1238 2.5Z" fill="#070444"/>
<path d="M28.2 4.36621H2.81625V14.1712H28.2V4.36621Z" fill="#5BC3F6"/>
<path d="M30.1237 2.5V9.86H37.1837L30.1237 2.5Z" fill="#5BC3F6"/>
<path d="M8.875 6.23372C9.38676 6.13829 9.90706 6.09639 10.4275 6.10872C10.6952 6.08488 10.9649 6.11605 11.22 6.20032C11.4752 6.28459 11.7104 6.42017 11.9113 6.59872C12.2783 7.01343 12.4705 7.55415 12.4475 8.10747C12.475 8.6541 12.3173 9.19403 12 9.63997C11.8041 9.8586 11.5614 10.0303 11.2901 10.1424C11.0187 10.2545 10.7256 10.3041 10.4325 10.2875C10.3297 10.2873 10.227 10.281 10.125 10.2687V12.3937H8.875V6.23372ZM10.125 8.99122C10.2194 9.00421 10.3147 9.01048 10.41 9.00997C10.5229 9.01454 10.6354 8.99441 10.7397 8.95099C10.844 8.90757 10.9376 8.84191 11.0139 8.75859C11.0902 8.67527 11.1474 8.5763 11.1815 8.46858C11.2155 8.36087 11.2257 8.24702 11.2113 8.13497C11.2246 8.03562 11.2159 7.93455 11.1858 7.83894C11.1556 7.74334 11.1048 7.65554 11.0369 7.5818C10.969 7.50805 10.8857 7.45017 10.7929 7.41226C10.7001 7.37435 10.6001 7.35735 10.5 7.36247C10.3739 7.35869 10.2479 7.37129 10.125 7.39997V8.99122Z" fill="#070444"/>
<path d="M13.8538 10.7225C14.2152 10.9644 14.6377 11.0991 15.0725 11.1112C15.5038 11.1112 15.7138 10.9162 15.7138 10.6025C15.7138 10.2887 15.5 10.125 14.975 9.87497C14.5894 9.73582 14.256 9.4811 14.0205 9.14555C13.7849 8.80999 13.6586 8.40995 13.6588 7.99997C13.6396 7.74526 13.6744 7.48939 13.7608 7.24903C13.8472 7.00868 13.9833 6.78923 14.1602 6.605C14.3371 6.42077 14.5509 6.2759 14.7876 6.17984C15.0242 6.08377 15.2785 6.03867 15.5338 6.04747C15.9806 6.03486 16.4221 6.14697 16.8088 6.37122L16.55 7.70497C16.2425 7.51403 15.8882 7.41153 15.5263 7.40872C15.1438 7.40872 14.9338 7.59372 14.9338 7.87122C14.9338 8.18622 15.1838 8.31497 15.7763 8.61122C16.1504 8.75717 16.4697 9.01629 16.6895 9.35242C16.9094 9.68855 17.0188 10.0849 17.0025 10.4862C17.0223 10.7539 16.9841 11.0227 16.8906 11.2744C16.7971 11.526 16.6504 11.7545 16.4606 11.9443C16.2708 12.1341 16.0423 12.2808 15.7907 12.3743C15.539 12.4678 15.2702 12.506 15.0025 12.4862C14.5172 12.4852 14.0415 12.3507 13.6275 12.0975L13.8538 10.7225Z" fill="#070444"/>
<path d="M19.525 11.2249H19.4V7.1937H19.4175C19.6878 7.1632 19.961 7.2123 20.2038 7.33495C20.3824 7.4778 20.5279 7.65779 20.63 7.86245C20.7401 8.07716 20.8036 8.31273 20.8163 8.5537C20.8288 8.84245 20.8163 9.07495 20.8163 9.2762C20.8214 9.50163 20.8068 9.72708 20.7725 9.94995C20.7323 10.1804 20.6573 10.4033 20.55 10.6112C20.4292 10.8036 20.2658 10.9657 20.0725 11.0849C19.9105 11.1896 19.7186 11.2383 19.5263 11.2237M19.7663 6.04745C19.62 6.04745 19.4788 6.0587 19.3788 6.06245L19.07 6.0712H18.045V12.3887H19.25C19.7116 12.4015 20.1711 12.3234 20.6025 12.1587C20.9508 12.0213 21.2593 11.7992 21.5 11.5124C21.7331 11.2237 21.9003 10.8875 21.99 10.5274C22.0935 10.119 22.144 9.69883 22.14 9.27745C22.1654 8.78039 22.1267 8.28214 22.025 7.79495C21.9272 7.43596 21.7451 7.10553 21.4938 6.8312C21.2982 6.60854 21.0586 6.42891 20.79 6.3037C20.5599 6.19679 20.3177 6.11789 20.0688 6.0687C19.9696 6.05227 19.8692 6.04474 19.7688 6.0462" fill="#070444"/>
<path d="M20 24.5638C19.6246 24.5743 19.2488 24.5613 18.875 24.525V20.1625C19.0138 20.1425 19.5 20.1238 20.175 20.1238C21.8 20.1238 22.5163 20.8063 22.5163 22.3625C22.5163 24.3075 21.37 24.5638 20 24.5638ZM20.175 18.275C18.8575 18.275 17.5563 18.295 16.8975 18.3138C16.8113 18.3138 16.7938 18.3525 16.7938 18.45V30.8625C16.7938 30.96 16.8288 30.9988 16.9188 30.9988H18.75C18.8363 30.9988 18.875 30.96 18.875 30.8425V26.4125H19.95C22.4988 26.4125 24.5975 25.59 24.5975 22.4975C24.58 20.2413 23.575 18.275 20.175 18.275Z" fill="#5BC3F6"/>
<path d="M28.8438 21.5225C28.4451 21.4741 28.0407 21.511 27.6575 21.6308C27.2742 21.7506 26.9208 21.9505 26.6206 22.2173C26.3205 22.4841 26.0805 22.8117 25.9166 23.1783C25.7527 23.5449 25.6687 23.9422 25.67 24.3437C25.67 25.7637 26.295 26.5225 28.08 27.3437C29.33 27.9075 29.6412 28.2 29.6412 28.705C29.6412 29.1325 29.3638 29.58 28.5663 29.58C27.5456 29.52 26.5667 29.1536 25.7575 28.5287C25.7454 28.5192 25.7304 28.5139 25.715 28.5137C25.6738 28.5137 25.6363 28.5537 25.6363 28.6262V30.4162C25.6323 30.4553 25.6401 30.4947 25.6585 30.5295C25.677 30.5642 25.7054 30.5926 25.74 30.6112C26.5439 31.118 27.4772 31.3815 28.4275 31.37C28.8448 31.4206 29.268 31.3798 29.668 31.2504C30.0679 31.1211 30.4348 30.9062 30.7434 30.6207C31.0519 30.3353 31.2946 29.9861 31.4546 29.5974C31.6146 29.2087 31.6881 28.7899 31.67 28.37C31.67 26.9687 30.9075 26.245 29.1213 25.4325C27.8213 24.8487 27.595 24.5962 27.595 24.1287C27.595 23.7537 27.82 23.3112 28.67 23.3112C29.5252 23.3359 30.3579 23.5912 31.08 24.05C31.0989 24.0638 31.1216 24.0716 31.145 24.0725C31.1988 24.0725 31.2363 24.0187 31.2363 23.9325V22.34C31.2415 22.2929 31.2347 22.2453 31.2166 22.2016C31.1984 22.1579 31.1695 22.1195 31.1325 22.09C30.4389 21.6878 29.6448 21.4922 28.8438 21.5262" fill="#5BC3F6"/>
</svg>
