<svg width="80" height="81" viewBox="0 0 80 81" fill="none" xmlns="http://www.w3.org/2000/svg">
<g clip-path="url(#clip0_267_689)">
<path d="M21.0758 54.4099V70.6144H14.2773V54.4072" fill="#C97523"/>
<path d="M17.3097 54.4099V70.6144H14.2773V54.4072" fill="#A85613"/>
<path d="M17.6761 57.9655C26.7851 57.9655 34.1695 46.3567 34.1695 32.0365C34.1695 17.7163 26.7851 6.10742 17.6761 6.10742C8.56698 6.10742 1.18262 17.7163 1.18262 32.0365C1.18262 46.3567 8.56698 57.9655 17.6761 57.9655Z" fill="#8CC928"/>
<path d="M17.6761 57.9659C8.56606 57.9659 1.18262 46.3563 1.18262 32.0368C1.18262 17.7173 8.56606 6.10791 17.6761 6.10791C13.6428 6.10791 10.3748 17.7174 10.3748 32.037C10.3748 46.3565 13.6428 57.9659 17.6761 57.9659Z" fill="#82B20B"/>
<path d="M72.2455 41.5114V74.5245H28.9346V41.5114L50.7122 20.3857L72.2455 41.5114Z" fill="#E9EAEF"/>
<path d="M61.6484 29.8554V23.7573H72.4763V40.1672" fill="#9EB1B7"/>
<path d="M78.8113 67.6069H52.6641V74.5247H78.8113V67.6069Z" fill="#85C10D"/>
<path d="M30.8001 67.6069H1.18262V74.5247H30.8001V67.6069Z" fill="#85C10D"/>
<path d="M72.2455 42.807V48.9777L50.59 28.3012L28.9346 48.9777V42.807L48.8703 23.8203L50.59 22.2227L52.3086 23.8203L72.2455 42.807Z" fill="#D2D4D8"/>
<path d="M50.5901 24.8673L25.9338 48.4075L22.4863 45.5133L48.8709 20.3854L50.5901 18.7886L52.3091 20.3854L78.6938 45.5133L75.2463 48.4075L50.5901 24.8673Z" fill="#EA4756"/>
<path d="M48.5155 49.79H34.2324V74.5238H48.5155V49.79Z" fill="#C97523"/>
<path d="M68.9308 49.79H52.665V64.0732H68.9308V49.79Z" fill="#A0D9F2"/>
<path d="M68.9308 49.79H52.665V54.1304H68.9308V49.79Z" fill="#C97523"/>
<path d="M50.5903 42.726C52.7846 42.726 54.5634 40.9472 54.5634 38.7529C54.5634 36.5586 52.7846 34.7798 50.5903 34.7798C48.396 34.7798 46.6172 36.5586 46.6172 38.7529C46.6172 40.9472 48.396 42.726 50.5903 42.726Z" fill="#413740"/>
<path d="M52.6633 65.259H68.9288C69.5838 65.259 70.1146 64.7281 70.1146 64.0732V49.7898C70.1146 49.1349 69.5838 48.604 68.9288 48.604H52.6633C52.0083 48.604 51.4775 49.1349 51.4775 49.7898V64.0732C51.4775 64.7282 52.0085 65.259 52.6633 65.259ZM53.8491 62.8874V55.3159H67.743V62.8874H53.8491ZM67.743 50.9756V52.9445H53.8491V50.9756H67.743Z" fill="black"/>
<path d="M78.8113 66.4208H73.4318V56.2766C73.4318 55.6217 72.9008 55.0908 72.246 55.0908C71.5911 55.0908 71.0602 55.6217 71.0602 56.2766V66.4208H52.6638C52.0089 66.4208 51.478 66.9517 51.478 67.6066V73.3385H49.7027V49.7897C49.7027 49.1349 49.1718 48.6039 48.5169 48.6039H34.2335C33.5786 48.6039 33.0477 49.1349 33.0477 49.7897V73.3385H31.9864V67.6066C31.9864 66.9517 31.4555 66.4208 30.8007 66.4208H30.1205V46.0494L50.5899 26.5069L71.06 46.0503V50.7427C71.06 51.3975 71.591 51.9285 72.2458 51.9285C72.9007 51.9285 73.4316 51.3975 73.4316 50.7427V48.3145L74.4274 49.2652C74.8646 49.6825 75.5457 49.7042 76.0085 49.3158L79.4302 46.4435C79.5889 46.3102 79.7211 46.1444 79.7964 45.9513C79.9782 45.4856 79.8527 44.9795 79.5116 44.6547L73.6621 39.0839V23.7572C73.6621 23.1024 73.1311 22.5714 72.4763 22.5714H61.6486C60.9938 22.5714 60.4628 23.1024 60.4628 23.7572V26.5135L53.1163 19.5169L51.3972 17.92C50.9424 17.4974 50.2386 17.4974 49.7832 17.92L48.0533 19.5272L35.3511 31.6242C35.2619 22.6088 32.2579 14.2428 27.3977 9.34736C26.916 8.86221 26.121 8.89346 25.6702 9.40783C25.2582 9.87768 25.2841 10.5839 25.7246 11.0274C30.2252 15.5552 32.9841 23.4733 32.9841 32.0372C32.9841 32.6691 32.965 33.3005 32.9353 33.9249L21.6686 44.6549C21.3277 44.9797 21.2022 45.4856 21.3839 45.9514C21.4593 46.1446 21.5914 46.3103 21.75 46.4436L25.1716 49.316C25.3927 49.5016 25.6635 49.5936 25.9338 49.5936C26.2294 49.5936 26.5243 49.4836 26.7527 49.2655L27.7494 48.3141V50.6139C24.9438 54.5935 21.378 56.7808 17.6764 56.7808C13.6911 56.7808 9.90473 54.2786 7.01457 49.7353C4.01879 45.0255 2.36879 38.7403 2.36879 32.0374C2.36879 25.3344 4.01879 19.0492 7.01473 14.3396C9.90457 9.79627 13.6911 7.29408 17.6766 7.29408C19.0608 7.29408 20.4263 7.59596 21.7486 8.19252C22.3018 8.44205 22.9541 8.21971 23.2539 7.69205V7.69189C23.5991 7.08424 23.3466 6.31064 22.7096 6.02393C21.0849 5.29236 19.3971 4.92236 17.6766 4.92236C12.8514 4.92236 8.35426 7.81455 5.01379 13.0664C1.77863 18.1516 -0.00292969 24.8889 -0.00292969 32.0371C-0.00292969 39.1852 1.77863 45.9224 5.01348 51.0078C7.26504 54.5477 10.0425 57.0136 13.0913 58.2463V66.4206H9.48332V64.6563C9.48332 64.0069 8.98285 63.4408 8.33395 63.4213C7.66254 63.4011 7.11176 63.9396 7.11176 64.6066V66.4208H5.67441V64.6564C5.67441 64.007 5.17395 63.441 4.52504 63.4214C3.85363 63.4013 3.30285 63.9397 3.30285 64.6067V66.421H1.18285C0.528008 66.421 -0.00292969 66.9519 -0.00292969 67.6067V74.5246C-0.00292969 75.1794 0.528008 75.7103 1.18285 75.7103H30.8008C30.8019 75.7103 30.8029 75.7102 30.8038 75.7102H34.2335H48.5169H52.6607C52.6618 75.7102 52.6627 75.7103 52.6636 75.7103H78.8111C79.466 75.7103 79.9969 75.1794 79.9969 74.5246V67.6067C79.9971 66.9516 79.4661 66.4208 78.8113 66.4208ZM62.8343 24.9428H71.2905V36.8253L62.8343 28.7721V24.9428ZM25.883 46.8166L24.2643 45.4577L49.678 21.2546L50.5902 20.4072L51.4916 21.2444L76.9163 45.4577L75.2974 46.8167L51.4089 24.0097C51.1799 23.791 50.8852 23.6816 50.5902 23.6816C50.2955 23.6816 50.0005 23.791 49.7714 24.0097L25.883 46.8166ZM27.7491 54.3633V66.4208H26.191V64.6066C26.191 63.9517 25.6602 63.4208 25.0052 63.4208C24.3502 63.4208 23.8194 63.9517 23.8194 64.6066V66.4208H22.2613V58.2422C24.2238 57.446 26.0775 56.1372 27.7491 54.3633ZM15.4629 58.9456C16.1908 59.0822 16.9296 59.1517 17.6763 59.1517C18.4221 59.1517 19.1608 59.0806 19.8897 58.9428V66.4206H15.4629V58.9456ZM2.36863 68.7924H14.2633C14.2679 68.7924 14.2725 68.793 14.2771 68.793H21.0755C21.08 68.793 21.0847 68.7924 21.0893 68.7924H29.6152V73.3385H28.935L2.36863 73.3386V68.7924ZM35.4194 73.3385V50.9755H47.3313V73.3385H35.4194ZM77.6255 73.3386H72.246L53.8496 73.3385V68.7924H77.6255V73.3386Z" fill="black"/>
<path d="M45.7024 60.8921H43.6291C42.9741 60.8921 42.4434 61.423 42.4434 62.0779C42.4434 62.7327 42.9741 63.2637 43.6291 63.2637H45.7024C46.3574 63.2637 46.8882 62.7327 46.8882 62.0779C46.8882 61.423 46.3574 60.8921 45.7024 60.8921Z" fill="black"/>
<path d="M55.7499 38.7533C55.7499 35.9084 53.4352 33.5938 50.5902 33.5938C47.7454 33.5938 45.4307 35.9084 45.4307 38.7533C45.4307 41.5983 47.7454 43.9128 50.5902 43.9128C53.4352 43.9128 55.7499 41.5983 55.7499 38.7533ZM50.59 41.5412C49.0527 41.5412 47.8021 40.2905 47.8021 38.7533C47.8021 37.2161 49.0527 35.9653 50.59 35.9653C52.1274 35.9653 53.3782 37.2161 53.3782 38.7533C53.3783 40.2906 52.1275 41.5412 50.59 41.5412Z" fill="black"/>
</g>
<defs>
<clipPath id="clip0_267_689">
<rect width="80" height="80" fill="white" transform="translate(-0.00292969 0.316406)"/>
</clipPath>
</defs>
</svg>
