<svg width="80" height="81" viewBox="0 0 80 81" fill="none" xmlns="http://www.w3.org/2000/svg">
<g clip-path="url(#clip0_267_736)">
<path d="M29.3034 61.6411C21.4705 61.6411 15.1211 67.9905 15.1211 75.8219V79.1444H23.0548L24.2603 78.1703L25.3986 79.1444H31.5364L44.2553 61.6411H29.3034Z" fill="#D7D9CC"/>
<path d="M50.6968 61.6411H44.255L37.781 66.941L31.5361 72.0147V79.1444H54.6018L55.7736 78.2485L56.9455 79.1444H64.8793V75.8219C64.8791 67.9905 58.5297 61.6411 50.6968 61.6411Z" fill="#F3F5E6"/>
<path d="M65.488 36.1826L39.9998 33.8457L14.5117 36.1826V46.9679H65.488V36.1826Z" fill="#A8503C"/>
<path d="M62.8785 52.3947C65.8393 52.3947 68.2395 49.9946 68.2395 47.0338C68.2395 44.073 65.8393 41.6729 62.8785 41.6729C59.9178 41.6729 57.5176 44.073 57.5176 47.0338C57.5176 49.9946 59.9178 52.3947 62.8785 52.3947Z" fill="#E3B098"/>
<path d="M40.0002 67.0385C52.89 67.0385 63.3393 57.3238 63.3393 45.34C63.3393 33.3563 52.89 23.6416 40.0002 23.6416C27.1104 23.6416 16.6611 33.3563 16.6611 45.34C16.6611 57.3238 27.1104 67.0385 40.0002 67.0385Z" fill="#FBC4AC"/>
<path d="M21.3481 45.3402C21.3481 34.0921 30.5545 24.8433 42.3441 23.7505C41.5731 23.679 40.7914 23.6421 40.0003 23.6421C28.4537 23.6421 18.867 31.4376 16.9936 41.676C14.0927 41.7444 11.7617 44.1158 11.7617 47.0332C11.7617 49.9937 14.1617 52.3937 17.1222 52.3937C17.4153 52.3937 17.6709 52.3693 17.8961 52.324C21.0233 60.8813 29.7381 67.0387 40.0003 67.0387C40.7914 67.0387 41.5731 67.0016 42.3441 66.9302C30.5545 65.8371 21.3481 56.5885 21.3481 45.3402Z" fill="#E3B098"/>
<path d="M58.2391 1.48828C54.1784 1.48828 50.6858 3.91 49.1197 7.38672C47.5536 3.91 44.0609 1.48828 40.0003 1.48828C35.9397 1.48828 32.447 3.91 30.8809 7.38672C29.3148 3.91 25.822 1.48828 21.7614 1.48828C16.2387 1.48828 11.7617 5.96531 11.7617 11.488C11.7617 14.1573 12.8077 16.5823 14.512 18.3756L14.5122 18.3758V31.5091L40.0003 33.8458L65.4884 31.5091V18.3758L65.4886 18.3756C67.193 16.5823 68.2389 14.1573 68.2389 11.488C68.2387 5.96531 63.7619 1.48828 58.2391 1.48828Z" fill="#F3F5E6"/>
<path d="M19.1997 31.5089V18.3756C17.4953 16.5823 16.4492 14.1572 16.4492 11.488C16.4492 6.77203 19.7147 2.82125 24.1072 1.76672C23.3547 1.58563 22.5695 1.48828 21.7614 1.48828C16.2387 1.48828 11.7617 5.96531 11.7617 11.488C11.7617 14.1572 12.8077 16.5823 14.512 18.3756L14.5122 31.5091L40.0003 33.8456L42.3441 33.6308L19.1997 31.5089Z" fill="#D7D9CC"/>
<path d="M40.0002 53.8713C42.639 57.1699 46.5271 55.8029 48.5777 54.7196C49.0751 54.457 49.1105 53.7662 48.6496 53.4437C47.4741 52.6212 46.7898 50.8202 45.8188 49.9152C44.3104 48.5093 41.7116 47.6552 40.0002 49.207C38.2888 47.6552 35.6901 48.5093 34.1816 49.9152C33.2107 50.8201 32.5263 52.6212 31.3508 53.4437C30.8901 53.7662 30.9254 54.4568 31.4227 54.7196C33.4734 55.8029 37.3613 57.1698 40.0002 53.8713Z" fill="#A8503C"/>
<path d="M54.568 51.751H51.1611C50.5139 51.751 49.9893 51.2263 49.9893 50.5791C49.9893 49.9319 50.5139 49.4072 51.1611 49.4072H54.568C55.2152 49.4072 55.7399 49.9319 55.7399 50.5791C55.7399 51.2263 55.2152 51.751 54.568 51.751Z" fill="#F98084"/>
<path d="M28.8387 51.751H25.4316C24.7845 51.751 24.2598 51.2263 24.2598 50.5791C24.2598 49.9319 24.7845 49.4072 25.4316 49.4072H28.8387C29.4859 49.4072 30.0105 49.9319 30.0105 50.5791C30.0105 51.2263 29.486 51.751 28.8387 51.751Z" fill="#F98084"/>
<path d="M65.4893 31.5088H14.5127V36.1824H65.4893V31.5088Z" fill="#D7D9CC"/>
<path d="M19.2002 31.5088H14.5127V36.1822H19.2002V31.5088Z" fill="#BDBFB4"/>
<path d="M49.3215 52.4834C48.8433 52.1489 48.3991 51.4689 47.9696 50.8114C47.5641 50.1908 47.1449 49.549 46.6179 49.0579C45.374 47.8987 43.7265 47.2065 42.2105 47.2065C41.408 47.2065 40.6583 47.3992 40.0002 47.77C39.3422 47.3992 38.5926 47.2065 37.7899 47.2065C36.274 47.2065 34.6263 47.8986 33.3826 49.0579C32.8555 49.5492 32.4363 50.1908 32.0308 50.8114C31.6013 51.4689 31.1571 52.1489 30.679 52.4834C30.1229 52.8725 29.8162 53.5078 29.8583 54.1826C29.9001 54.8533 30.2804 55.4412 30.8755 55.7556C32.0502 56.3761 33.851 57.1159 35.7596 57.1159C35.7596 57.1159 35.7596 57.1159 35.7599 57.1159C37.3733 57.1159 38.8179 56.5817 40.0002 55.5584C41.1827 56.5815 42.6274 57.1159 44.241 57.1159C46.1494 57.1159 47.9505 56.3762 49.1252 55.7556C49.7204 55.4412 50.1005 54.8533 50.1424 54.1826C50.1843 53.5078 49.8774 52.8725 49.3215 52.4834ZM44.2408 54.7723C42.8822 54.7723 41.7944 54.2381 40.9152 53.1392C40.6929 52.8612 40.3562 52.6994 40.0002 52.6994C39.6443 52.6994 39.3076 52.8612 39.0852 53.1392C38.2062 54.2381 37.1183 54.7723 35.7599 54.7723H35.7597C34.6002 54.7723 33.4455 54.382 32.549 53.9694C33.1308 53.4131 33.5833 52.7206 33.993 52.0934C34.3371 51.5669 34.6619 51.0695 34.9805 50.7725C35.7772 50.0301 36.8799 49.5503 37.7899 49.5503C38.358 49.5503 38.8235 49.722 39.213 50.075C39.6596 50.48 40.3407 50.48 40.7872 50.075C41.1768 49.7219 41.6422 49.5503 42.2104 49.5503C43.1204 49.5503 44.2232 50.03 45.0197 50.7725C45.3383 51.0694 45.6633 51.5667 46.0072 52.0934C46.4171 52.7206 46.8694 53.4131 47.4513 53.9694C46.5547 54.382 45.4002 54.7723 44.2408 54.7723Z" fill="black"/>
<path d="M52.8643 48.0742C53.5114 48.0742 54.0361 47.5495 54.0361 46.9023V44.4009C54.0361 43.7537 53.5114 43.229 52.8643 43.229C52.2171 43.229 51.6924 43.7537 51.6924 44.4009V46.9023C51.6924 47.5495 52.2171 48.0742 52.8643 48.0742Z" fill="black"/>
<path d="M27.1357 48.0742C27.7829 48.0742 28.3076 47.5495 28.3076 46.9023V44.4009C28.3076 43.7537 27.7829 43.229 27.1357 43.229C26.4886 43.229 25.9639 43.7537 25.9639 44.4009V46.9023C25.9639 47.5495 26.4886 48.0742 27.1357 48.0742Z" fill="black"/>
<path d="M40 28.0712C40.6472 28.0712 41.1719 27.5465 41.1719 26.8993V13.8188C41.1719 13.1717 40.6472 12.647 40 12.647C39.3528 12.647 38.8281 13.1717 38.8281 13.8188V26.8993C38.8281 27.5465 39.3528 28.0712 40 28.0712Z" fill="black"/>
<path d="M28.2529 28.0712C28.9001 28.0712 29.4248 27.5465 29.4248 26.8993V13.8188C29.4248 13.1717 28.9001 12.647 28.2529 12.647C27.6057 12.647 27.0811 13.1717 27.0811 13.8188V26.8993C27.0811 27.5465 27.6057 28.0712 28.2529 28.0712Z" fill="black"/>
<path d="M51.7471 28.0712C52.3943 28.0712 52.9189 27.5465 52.9189 26.8993V13.8188C52.9189 13.1717 52.3943 12.647 51.7471 12.647C51.0999 12.647 50.5752 13.1717 50.5752 13.8188V26.8993C50.5752 27.5465 51.0997 28.0712 51.7471 28.0712Z" fill="black"/>
<path d="M36.9734 75.5029C37.7666 75.5029 38.4096 74.8598 38.4096 74.0666C38.4096 73.2734 37.7666 72.6304 36.9734 72.6304C36.1801 72.6304 35.5371 73.2734 35.5371 74.0666C35.5371 74.8598 36.1801 75.5029 36.9734 75.5029Z" fill="black"/>
<path d="M48.9734 75.5029C49.7666 75.5029 50.4096 74.8598 50.4096 74.0666C50.4096 73.2734 49.7666 72.6304 48.9734 72.6304C48.1801 72.6304 47.5371 73.2734 47.5371 74.0666C47.5371 74.8598 48.1801 75.5029 48.9734 75.5029Z" fill="black"/>
<path d="M13.3403 41.7259C11.68 42.9177 10.5898 44.863 10.5898 47.0333C10.5898 50.6352 13.5203 53.5656 17.1222 53.5656C17.1245 53.5656 17.1269 53.5655 17.1292 53.5655C18.4325 56.7095 20.4594 59.5198 23.0194 61.8175C20.6955 62.8659 18.6313 64.4933 17.0784 66.5331C15.0312 69.2223 13.9492 72.4347 13.9492 75.8225V79.1445C13.9492 79.7917 14.4739 80.3164 15.1211 80.3164H64.8794C65.5266 80.3164 66.0513 79.7917 66.0513 79.1445V75.822C66.0513 72.4342 64.9692 69.222 62.9222 66.5327C61.3694 64.4928 59.3052 62.8656 56.9813 61.817C59.5412 59.5194 61.5681 56.7092 62.8714 53.565C62.8737 53.565 62.8761 53.5652 62.8784 53.5652C66.4803 53.5652 69.4108 50.6348 69.4108 47.0328C69.4108 44.8625 68.3206 42.9172 66.6603 41.7255L66.6605 18.8287C68.4375 16.7933 69.4108 14.2048 69.4108 11.4877C69.4106 5.32797 64.3992 0.316406 58.2391 0.316406C54.5798 0.316406 51.1897 2.11687 49.1197 5.03828C47.0498 2.11687 43.6597 0.316406 40.0003 0.316406C36.3411 0.316406 32.9509 2.11687 30.8809 5.03828C28.8111 2.11687 25.4209 0.316406 21.7616 0.316406C15.6016 0.316406 10.59 5.32797 10.59 11.488C10.59 14.2052 11.5633 16.7938 13.3405 18.8292L13.3403 41.7259ZM64.3166 35.0106H15.6841V32.6809H64.3166V35.0106ZM15.6841 40.663V37.3545H17.0255C16.6011 38.4137 16.2656 39.4959 16.0166 40.597C16.0102 40.5981 16.0039 40.5997 15.9975 40.6008C15.9923 40.6017 15.9872 40.603 15.982 40.6039C15.8823 40.6216 15.783 40.6406 15.6841 40.663ZM16.2834 51.1373C14.3744 50.7478 12.9336 49.0556 12.9336 47.0331C12.9336 45.2772 14.0456 43.7498 15.6023 43.135C15.5845 43.3092 15.5687 43.4839 15.5552 43.6591C15.3897 45.8036 15.5517 47.9558 16.0136 50.0553C16.0952 50.4177 16.1831 50.7789 16.2834 51.1373ZM16.2931 75.822C16.2931 70.2681 19.8897 65.2836 25.1072 63.5053C27.7314 65.3816 30.7073 66.7277 33.8747 67.4873C34.2339 67.5738 34.5953 67.6542 34.9581 67.7248L30.7977 71.1052C30.5237 71.3277 30.3647 71.6619 30.3647 72.0147V77.9727H25.3988V72.1425C25.3988 71.4953 24.8741 70.9706 24.2269 70.9706C23.5797 70.9706 23.055 71.4953 23.055 72.1425V77.9727H16.2931V75.822ZM54.8933 63.5053C60.1109 65.2834 63.7077 70.2681 63.7077 75.822V77.9727H56.9459V72.1425C56.9459 71.4953 56.4212 70.9706 55.7741 70.9706C55.1269 70.9706 54.6022 71.4953 54.6022 72.1425V77.9727H32.7084V72.5727L38.1566 68.1461C38.4378 68.1656 38.7208 68.1795 39.0047 68.1902C43.0353 68.3408 47.0912 67.5655 50.7612 65.8853C52.2094 65.2222 53.5966 64.4311 54.8933 63.5053ZM50.1763 63.5725C45.0047 66.0573 38.9036 66.5323 33.3969 64.9367C25.4303 62.6302 19.3817 56.2645 18.0892 48.4672C18.0887 48.4639 18.0881 48.4608 18.0877 48.4575C17.7383 46.3119 17.6108 44.035 18.1434 41.9045L18.1445 41.8995C18.1477 41.8856 18.1505 41.8716 18.153 41.8575C18.4383 40.3136 18.9175 38.802 19.5789 37.3545H60.4216C61.0831 38.8022 61.5623 40.3136 61.8477 41.8575C61.8503 41.8716 61.8531 41.8855 61.8562 41.8995L61.8572 41.9041C62.2497 44.0613 62.2706 46.2948 61.913 48.4583C61.9125 48.4611 61.912 48.4639 61.9116 48.4667C60.8206 55.0495 56.3394 60.6114 50.1763 63.5725ZM63.7172 51.1373C64.3962 48.7133 64.6391 46.17 64.4455 43.6608C64.4319 43.4852 64.4159 43.3098 64.3981 43.135C65.9548 43.75 67.0667 45.277 67.0667 47.0331C67.0669 49.0556 65.6262 50.7478 63.7172 51.1373ZM64.0028 40.6006C63.9964 40.5995 63.9903 40.598 63.9839 40.5969C63.7348 39.4958 63.3994 38.4136 62.975 37.3544H64.3164V40.6628C64.2187 40.6408 64.1202 40.6219 64.0214 40.6042C64.0153 40.6033 64.0091 40.6019 64.0028 40.6006ZM12.9337 11.488C12.9337 6.62031 16.8939 2.66016 21.7616 2.66016C25.2272 2.66016 28.3873 4.70437 29.8123 7.86781C30.2194 8.77141 31.5431 8.76953 31.9494 7.86797C33.3745 4.70438 36.5347 2.66016 40.0003 2.66016C43.4659 2.66016 46.6261 4.70437 48.0511 7.86781C48.4584 8.77219 49.7812 8.77109 50.1881 7.86812C51.6133 4.70438 54.7734 2.66016 58.2391 2.66016C63.1067 2.66016 67.0669 6.62031 67.0669 11.488C67.0669 13.7617 66.2045 15.9211 64.6389 17.5684C64.4319 17.7863 64.3166 18.0753 64.3166 18.3758V30.3372H15.6841L15.6839 18.3756C15.6839 18.0752 15.5684 17.7861 15.3616 17.5683C13.7959 15.9211 12.9337 13.7616 12.9337 11.488Z" fill="black"/>
</g>
<defs>
<clipPath id="clip0_267_736">
<rect width="80" height="80" fill="white" transform="translate(0 0.316406)"/>
</clipPath>
</defs>
</svg>
