<svg width="181" height="29" viewBox="0 0 181 29" fill="none" xmlns="http://www.w3.org/2000/svg">
<path d="M0.908447 0.0582886H180.908L172.46 15.1501L180.908 28.0573H0.908447L10.9826 15.1501L0.908447 0.0582886Z" fill="white"/>
<path d="M34.9084 5.67584L36.6781 11.1221L36.7903 11.4676H37.1536H42.8802L38.2473 14.8336L37.9534 15.0472L38.0656 15.3926L39.8352 20.839L35.2023 17.473L34.9084 17.2594L34.6146 17.473L29.9817 20.839L31.7513 15.3926L31.8635 15.0472L31.5696 14.8336L26.9367 11.4676H32.6633H33.0266L33.1388 11.1221L34.9084 5.67584Z" stroke="#4F5D81" stroke-opacity="0.4"/>
<path d="M62.9084 5.67584L64.6781 11.1221L64.7903 11.4676H65.1536H70.8802L66.2473 14.8336L65.9534 15.0472L66.0656 15.3926L67.8352 20.839L63.2023 17.473L62.9084 17.2594L62.6146 17.473L57.9817 20.839L59.7513 15.3926L59.8635 15.0472L59.5696 14.8336L54.9367 11.4676H60.6633H61.0266L61.1388 11.1221L62.9084 5.67584Z" stroke="#4F5D81" stroke-opacity="0.4"/>
<path d="M90.9084 5.67584L92.6781 11.1221L92.7903 11.4676H93.1536H98.8802L94.2473 14.8336L93.9534 15.0472L94.0656 15.3926L95.8352 20.839L91.2023 17.473L90.9084 17.2594L90.6146 17.473L85.9817 20.839L87.7513 15.3926L87.8635 15.0472L87.5696 14.8336L82.9367 11.4676H88.6633H89.0266L89.1388 11.1221L90.9084 5.67584Z" stroke="#4F5D81" stroke-opacity="0.4"/>
<path d="M118.908 5.67584L120.678 11.1221L120.79 11.4676H121.154H126.88L122.247 14.8336L121.953 15.0472L122.066 15.3926L123.835 20.839L119.202 17.473L118.908 17.2594L118.615 17.473L113.982 20.839L115.751 15.3926L115.864 15.0472L115.57 14.8336L110.937 11.4676H116.663H117.027L117.139 11.1221L118.908 5.67584Z" stroke="#4F5D81" stroke-opacity="0.4"/>
<path d="M146.908 5.67584L148.678 11.1221L148.79 11.4676H149.154H154.88L150.247 14.8336L149.953 15.0472L150.066 15.3926L151.835 20.839L147.202 17.473L146.908 17.2594L146.615 17.473L141.982 20.839L143.751 15.3926L143.864 15.0472L143.57 14.8336L138.937 11.4676H144.663H145.027L145.139 11.1221L146.908 5.67584Z" stroke="#4F5D81" stroke-opacity="0.4"/>
</svg>
