<svg xmlns="http://www.w3.org/2000/svg" xmlns:xlink="http://www.w3.org/1999/xlink" width="500" zoomAndPan="magnify" viewBox="0 0 375 374.999991" height="500" preserveAspectRatio="xMidYMid meet" version="1.0"><defs><g/><clipPath id="f2c97b9f6c"><path d="M 0 37 L 371.25 37 L 371.25 316 L 0 316 Z M 0 37 " clip-rule="nonzero"/></clipPath></defs><g clip-path="url(#f2c97b9f6c)"><path fill="#ff0000" d="M 80.375 76.414062 C 80.25 112.550781 79.820312 149.117188 79.386719 151.222656 C 79.261719 151.71875 77.097656 152.460938 74.558594 152.894531 C -3.09375 165.886719 -27.410156 263.773438 35.765625 309.066406 L 44.796875 315.5625 L 371.25 315.5625 L 371.25 227.265625 C 371.25 122.015625 371.683594 124.800781 352.933594 107.476562 C 335.671875 91.511719 336.414062 91.574219 227.453125 91.574219 L 137.363281 91.574219 L 137.363281 132.351562 L 225.535156 132.660156 C 322.183594 133.09375 317.914062 132.722656 324.535156 140.269531 C 330.414062 147.015625 330.414062 146.765625 330.414062 217.800781 L 330.414062 284.6875 L 202.023438 284.316406 L 73.632812 284.007812 L 66.640625 280.480469 C 31.988281 262.90625 32.484375 213.222656 67.503906 197.195312 C 71.21875 195.523438 75.488281 194.289062 77.035156 194.535156 L 79.820312 194.90625 L 79.820312 231.042969 C 79.878906 254.925781 80.3125 267.671875 81.179688 268.539062 C 84.027344 271.382812 276.703125 269.527344 284.8125 266.558594 C 337.15625 247.375 338.828125 173.992188 287.410156 153.203125 L 280.292969 150.355469 L 201.402344 149.984375 L 122.511719 149.675781 L 122.511719 37.125 L 80.4375 37.125 Z M 275.652344 195.523438 C 287.90625 202.949219 287.347656 220.398438 274.726562 226.773438 C 270.765625 228.75 264.390625 228.9375 196.453125 228.9375 L 122.511719 228.9375 L 122.511719 193.050781 L 197.070312 193.050781 C 269.28125 193.050781 271.753906 193.113281 275.652344 195.523438 Z M 275.652344 195.523438 " fill-opacity="1" fill-rule="nonzero"/></g><path fill="#ff0000" d="M 3.09375 94.359375 C 2.722656 95.90625 2.535156 104.941406 2.722656 114.46875 L 3.09375 131.792969 L 33.722656 132.101562 L 64.351562 132.472656 L 64.351562 91.574219 L 3.773438 91.574219 Z M 3.09375 94.359375 " fill-opacity="1" fill-rule="nonzero"/><g fill="#7b024d" fill-opacity="0.302"><g transform="translate(130.275882, 357.735797)"><g><path d="M 6.75 -8.421875 C 6.75 -6.109375 7.734375 -4.953125 9.703125 -4.953125 C 11.859375 -4.953125 13.3125 -5.695312 14.0625 -7.1875 C 14.320312 -7.71875 14.453125 -8.398438 14.453125 -9.234375 C 14.453125 -10.078125 14.253906 -10.859375 13.859375 -11.578125 C 13.191406 -12.722656 12.046875 -13.988281 10.421875 -15.375 C 7.734375 -17.664062 6.390625 -20.039062 6.390625 -22.5 C 6.390625 -24.96875 7.160156 -26.863281 8.703125 -28.1875 C 10.242188 -29.519531 12.015625 -30.1875 14.015625 -30.1875 C 16.015625 -30.1875 17.597656 -29.679688 18.765625 -28.671875 C 19.941406 -27.660156 20.53125 -26.144531 20.53125 -24.125 C 20.53125 -22.789062 20.082031 -21.628906 19.1875 -20.640625 C 18.300781 -19.660156 17.125 -19.050781 15.65625 -18.8125 C 16.320312 -18.25 16.988281 -17.675781 17.65625 -17.09375 C 18.289062 -16.507812 18.875 -15.867188 19.40625 -15.171875 C 20.582031 -13.597656 21.171875 -11.722656 21.171875 -9.546875 C 21.171875 -8.023438 20.816406 -6.648438 20.109375 -5.421875 C 19.398438 -4.203125 18.476562 -3.171875 17.34375 -2.328125 C 16.21875 -1.492188 14.945312 -0.847656 13.53125 -0.390625 C 12.125 0.0546875 10.804688 0.28125 9.578125 0.28125 C 6.972656 0.28125 4.953125 -0.316406 3.515625 -1.515625 C 1.835938 -2.867188 1 -4.828125 1 -7.390625 C 1 -9.066406 1.539062 -10.6875 2.625 -12.25 C 3.71875 -13.820312 4.878906 -14.609375 6.109375 -14.609375 C 7.066406 -14.609375 7.546875 -14.316406 7.546875 -13.734375 C 7.546875 -12.878906 7.410156 -12.03125 7.140625 -11.1875 C 6.878906 -10.351562 6.75 -9.429688 6.75 -8.421875 Z M 14.5 -19.765625 C 16.019531 -21.285156 16.78125 -22.867188 16.78125 -24.515625 C 16.78125 -25.023438 16.507812 -25.453125 15.96875 -25.796875 C 15.382812 -26.117188 14.773438 -26.28125 14.140625 -26.28125 C 12.703125 -26.28125 11.660156 -25.8125 11.015625 -24.875 C 11.335938 -23.726562 11.8125 -22.753906 12.4375 -21.953125 C 13.0625 -21.160156 13.75 -20.429688 14.5 -19.765625 Z M 14.5 -19.765625 "/></g></g></g><g fill="#7b024d" fill-opacity="0.302"><g transform="translate(153.040285, 357.735797)"><g><path d="M 13.625 -16.859375 C 13.625 -18.640625 15.003906 -19.53125 17.765625 -19.53125 C 18.460938 -19.53125 18.894531 -19.300781 19.0625 -18.84375 C 19.238281 -18.394531 19.328125 -17.707031 19.328125 -16.78125 C 19.328125 -15.46875 19.035156 -13.441406 18.453125 -10.703125 C 17.867188 -7.960938 17.585938 -6.113281 17.609375 -5.15625 C 17.609375 -4.695312 17.753906 -4.46875 18.046875 -4.46875 C 18.453125 -4.46875 18.945312 -4.71875 19.53125 -5.21875 C 20.113281 -5.726562 20.695312 -6.28125 21.28125 -6.875 C 21.875 -7.476562 22.414062 -8.035156 22.90625 -8.546875 C 23.394531 -9.054688 23.734375 -9.3125 23.921875 -9.3125 C 24.296875 -9.3125 24.484375 -8.859375 24.484375 -7.953125 C 24.484375 -6.085938 23.5625 -4.289062 21.71875 -2.5625 C 18.632812 -0.75 16.679688 0.15625 15.859375 0.15625 C 15.773438 0.15625 15.707031 0.144531 15.65625 0.125 C 14.644531 0.125 13.929688 -0.207031 13.515625 -0.875 C 13.109375 -1.539062 12.847656 -2.378906 12.734375 -3.390625 C 12.203125 -2.410156 11.46875 -1.566406 10.53125 -0.859375 C 9.601562 -0.148438 8.539062 0.203125 7.34375 0.203125 C 5.238281 0.203125 3.617188 -0.195312 2.484375 -1 C 1.359375 -1.800781 0.796875 -2.984375 0.796875 -4.546875 C 0.796875 -5.242188 0.894531 -5.882812 1.09375 -6.46875 C 1.289062 -7.050781 1.617188 -7.769531 2.078125 -8.625 L 3.234375 -18.453125 C 4.054688 -19.085938 5.242188 -19.40625 6.796875 -19.40625 C 8.015625 -19.40625 8.703125 -18.609375 8.859375 -17.015625 C 8.992188 -15.710938 8.9375 -14.546875 8.6875 -13.515625 C 8.4375 -12.492188 8.097656 -11.203125 7.671875 -9.640625 C 7.242188 -8.085938 7.03125 -6.710938 7.03125 -5.515625 C 7.03125 -4.554688 7.628906 -4.078125 8.828125 -4.078125 C 10.128906 -4.078125 11.257812 -5.222656 12.21875 -7.515625 C 12.96875 -9.265625 13.472656 -11.21875 13.734375 -13.375 C 13.710938 -13.59375 13.691406 -13.867188 13.671875 -14.203125 C 13.660156 -14.535156 13.648438 -14.859375 13.640625 -15.171875 C 13.628906 -15.492188 13.625 -15.816406 13.625 -16.140625 Z M 13.625 -16.859375 "/></g></g></g><g fill="#7b024d" fill-opacity="0.302"><g transform="translate(174.327004, 357.735797)"><g><path d="M 7.03125 -6.703125 L 7.265625 -1.84375 C 7.265625 -1.195312 6.929688 -0.617188 6.265625 -0.109375 C 5.597656 0.390625 4.691406 0.640625 3.546875 0.640625 C 2.890625 0.640625 2.429688 0.296875 2.171875 -0.390625 C 1.921875 -1.085938 1.796875 -2.101562 1.796875 -3.4375 C 1.796875 -6.226562 1.9375 -8.414062 2.21875 -10 C 2.5 -11.582031 3.050781 -13.1875 3.875 -14.8125 C 2.644531 -15.988281 2.03125 -17.003906 2.03125 -17.859375 C 2.03125 -19.640625 2.988281 -20.53125 4.90625 -20.53125 C 5.894531 -20.53125 6.765625 -20.007812 7.515625 -18.96875 C 8.046875 -18.25 8.429688 -17.410156 8.671875 -16.453125 C 9.035156 -16.316406 9.5 -16.25 10.0625 -16.25 C 10.832031 -16.25 11.722656 -16.503906 12.734375 -17.015625 L 13.78125 -17.53125 C 14.09375 -17.6875 14.367188 -17.765625 14.609375 -17.765625 C 15.390625 -17.765625 16.164062 -16.632812 16.9375 -14.375 C 16.695312 -13.332031 16.4375 -12.332031 16.15625 -11.375 C 15.875 -10.414062 15.546875 -9.257812 15.171875 -7.90625 C 14.796875 -6.550781 14.601562 -5.640625 14.59375 -5.171875 C 14.582031 -4.703125 14.722656 -4.46875 15.015625 -4.46875 C 15.410156 -4.46875 15.898438 -4.71875 16.484375 -5.21875 C 17.078125 -5.726562 17.664062 -6.28125 18.25 -6.875 C 18.832031 -7.476562 19.367188 -8.035156 19.859375 -8.546875 C 20.359375 -9.054688 20.703125 -9.3125 20.890625 -9.3125 C 21.265625 -9.3125 21.453125 -8.859375 21.453125 -7.953125 C 21.453125 -6.109375 20.644531 -4.296875 19.03125 -2.515625 C 17.414062 -0.734375 15.570312 0.144531 13.5 0.125 C 12.269531 0.125 11.347656 -0.363281 10.734375 -1.34375 C 10.128906 -2.332031 9.8125 -3.535156 9.78125 -4.953125 C 9.78125 -7.742188 10.40625 -10.394531 11.65625 -12.90625 C 11.070312 -12.664062 10.414062 -12.546875 9.6875 -12.546875 C 8.957031 -12.546875 8.429688 -12.570312 8.109375 -12.625 C 7.867188 -11.613281 7.628906 -10.59375 7.390625 -9.5625 C 7.148438 -8.539062 7.03125 -7.585938 7.03125 -6.703125 Z M 7.03125 -6.703125 "/></g></g></g><g fill="#7b024d" fill-opacity="0.302"><g transform="translate(192.578464, 357.735797)"><g><path d="M 5.984375 0.125 C 3.328125 0.125 2 -2.363281 2 -7.34375 C 2 -10.0625 2.332031 -12.523438 3 -14.734375 C 4.03125 -18.140625 5.203125 -19.84375 6.515625 -19.84375 C 7.285156 -19.84375 7.894531 -19.328125 8.34375 -18.296875 C 8.71875 -17.492188 8.890625 -16.707031 8.859375 -15.9375 C 8.859375 -14.875 8.539062 -12.992188 7.90625 -10.296875 C 7.289062 -7.960938 6.984375 -6.515625 6.984375 -5.953125 C 6.984375 -5.390625 7.125 -5 7.40625 -4.78125 C 7.6875 -4.570312 8.019531 -4.46875 8.40625 -4.46875 C 8.789062 -4.46875 9.273438 -4.71875 9.859375 -5.21875 C 10.453125 -5.726562 11.039062 -6.28125 11.625 -6.875 C 12.207031 -7.476562 12.742188 -8.035156 13.234375 -8.546875 C 13.734375 -9.054688 14.070312 -9.3125 14.25 -9.3125 C 14.625 -9.3125 14.8125 -8.859375 14.8125 -7.953125 C 14.8125 -6.085938 13.875 -4.269531 12 -2.5 C 10.125 -0.726562 8.117188 0.144531 5.984375 0.125 Z M 7.625 -23.078125 C 6.90625 -24.148438 6.546875 -25.296875 6.546875 -26.515625 C 6.546875 -27.742188 6.738281 -28.765625 7.125 -29.578125 C 7.507812 -30.390625 7.875 -30.988281 8.21875 -31.375 C 8.570312 -31.757812 8.972656 -31.953125 9.421875 -31.953125 C 10.171875 -31.953125 10.847656 -31.398438 11.453125 -30.296875 C 12.066406 -29.191406 12.375 -28.265625 12.375 -27.515625 C 12.375 -26.128906 11.890625 -25.039062 10.921875 -24.25 C 9.953125 -23.46875 8.851562 -23.078125 7.625 -23.078125 Z M 7.625 -23.078125 "/></g></g></g><g fill="#7b024d" fill-opacity="0.302"><g transform="translate(204.200293, 357.735797)"><g><path d="M 5.71875 -24.15625 C 4.8125 -24.75 4.363281 -25.660156 4.375 -26.890625 C 4.382812 -28.128906 4.851562 -29.148438 5.78125 -29.953125 C 6.71875 -30.753906 7.828125 -31.15625 9.109375 -31.15625 C 9.828125 -31.15625 10.457031 -30.953125 11 -30.546875 C 11.550781 -30.148438 11.828125 -29.460938 11.828125 -28.484375 C 11.828125 -27.515625 11.617188 -26.519531 11.203125 -25.5 C 10.785156 -24.476562 10.222656 -23.539062 9.515625 -22.6875 C 8.816406 -21.832031 8.007812 -21.125 7.09375 -20.5625 C 6.175781 -20.007812 5.222656 -19.734375 4.234375 -19.734375 C 3.859375 -19.734375 3.457031 -19.804688 3.03125 -19.953125 C 2.601562 -20.097656 2.390625 -20.367188 2.390625 -20.765625 C 2.390625 -21.160156 2.53125 -21.460938 2.8125 -21.671875 C 3.09375 -21.890625 3.421875 -22.097656 3.796875 -22.296875 C 4.171875 -22.503906 4.535156 -22.738281 4.890625 -23 C 5.253906 -23.269531 5.53125 -23.65625 5.71875 -24.15625 Z M 5.71875 -24.15625 "/></g></g></g><g fill="#7b024d" fill-opacity="0.302"><g transform="translate(218.018689, 357.735797)"><g><path d="M 10.296875 -19.34375 C 12.085938 -19.363281 13.421875 -19.03125 14.296875 -18.34375 C 15.171875 -17.664062 15.609375 -16.691406 15.609375 -15.421875 C 15.609375 -14.160156 15.226562 -13.082031 14.46875 -12.1875 C 13.71875 -11.300781 12.796875 -10.671875 11.703125 -10.296875 C 12.472656 -9.503906 13.171875 -8.691406 13.796875 -7.859375 C 14.421875 -7.035156 14.734375 -6.171875 14.734375 -5.265625 C 14.734375 -3.484375 14.023438 -2.109375 12.609375 -1.140625 C 11.203125 -0.171875 9.238281 0.3125 6.71875 0.3125 C 4.207031 0.3125 2.328125 -0.179688 1.078125 -1.171875 C -0.171875 -2.171875 -0.796875 -3.300781 -0.796875 -4.5625 C -0.796875 -5.832031 -0.484375 -6.984375 0.140625 -8.015625 C 0.765625 -9.054688 1.4375 -9.578125 2.15625 -9.578125 C 2.582031 -9.578125 2.890625 -9.425781 3.078125 -9.125 C 3.265625 -8.820312 3.609375 -7.9375 4.109375 -6.46875 C 4.296875 -5.9375 4.601562 -5.429688 5.03125 -4.953125 C 6.019531 -3.859375 7.578125 -3.3125 9.703125 -3.3125 C 9.378906 -4.320312 8.863281 -5.191406 8.15625 -5.921875 C 7.457031 -6.660156 6.757812 -7.375 6.0625 -8.0625 C 5.375 -8.757812 4.765625 -9.5 4.234375 -10.28125 C 3.703125 -11.070312 3.4375 -12 3.4375 -13.0625 C 3.4375 -14.976562 4.15625 -16.535156 5.59375 -17.734375 C 6.945312 -18.796875 8.515625 -19.332031 10.296875 -19.34375 Z M 10.140625 -11.9375 C 11.203125 -13.082031 11.734375 -14.003906 11.734375 -14.703125 C 11.734375 -15.015625 11.617188 -15.296875 11.390625 -15.546875 C 11.171875 -15.804688 10.847656 -15.9375 10.421875 -15.9375 C 9.992188 -15.9375 9.585938 -15.878906 9.203125 -15.765625 C 8.816406 -15.660156 8.503906 -15.582031 8.265625 -15.53125 C 8.265625 -14.519531 8.890625 -13.320312 10.140625 -11.9375 Z M 10.140625 -11.9375 "/></g></g></g><g fill="#7b024d" fill-opacity="0.502"><g transform="translate(128.510616, 355.970513)"><g><path d="M 6.75 -8.421875 C 6.75 -6.109375 7.734375 -4.953125 9.703125 -4.953125 C 11.859375 -4.953125 13.3125 -5.695312 14.0625 -7.1875 C 14.320312 -7.71875 14.453125 -8.398438 14.453125 -9.234375 C 14.453125 -10.078125 14.253906 -10.859375 13.859375 -11.578125 C 13.191406 -12.722656 12.046875 -13.988281 10.421875 -15.375 C 7.734375 -17.664062 6.390625 -20.039062 6.390625 -22.5 C 6.390625 -24.96875 7.160156 -26.863281 8.703125 -28.1875 C 10.242188 -29.519531 12.015625 -30.1875 14.015625 -30.1875 C 16.015625 -30.1875 17.597656 -29.679688 18.765625 -28.671875 C 19.941406 -27.660156 20.53125 -26.144531 20.53125 -24.125 C 20.53125 -22.789062 20.082031 -21.628906 19.1875 -20.640625 C 18.300781 -19.660156 17.125 -19.050781 15.65625 -18.8125 C 16.320312 -18.25 16.988281 -17.675781 17.65625 -17.09375 C 18.289062 -16.507812 18.875 -15.867188 19.40625 -15.171875 C 20.582031 -13.597656 21.171875 -11.722656 21.171875 -9.546875 C 21.171875 -8.023438 20.816406 -6.648438 20.109375 -5.421875 C 19.398438 -4.203125 18.476562 -3.171875 17.34375 -2.328125 C 16.21875 -1.492188 14.945312 -0.847656 13.53125 -0.390625 C 12.125 0.0546875 10.804688 0.28125 9.578125 0.28125 C 6.972656 0.28125 4.953125 -0.316406 3.515625 -1.515625 C 1.835938 -2.867188 1 -4.828125 1 -7.390625 C 1 -9.066406 1.539062 -10.6875 2.625 -12.25 C 3.71875 -13.820312 4.878906 -14.609375 6.109375 -14.609375 C 7.066406 -14.609375 7.546875 -14.316406 7.546875 -13.734375 C 7.546875 -12.878906 7.410156 -12.03125 7.140625 -11.1875 C 6.878906 -10.351562 6.75 -9.429688 6.75 -8.421875 Z M 14.5 -19.765625 C 16.019531 -21.285156 16.78125 -22.867188 16.78125 -24.515625 C 16.78125 -25.023438 16.507812 -25.453125 15.96875 -25.796875 C 15.382812 -26.117188 14.773438 -26.28125 14.140625 -26.28125 C 12.703125 -26.28125 11.660156 -25.8125 11.015625 -24.875 C 11.335938 -23.726562 11.8125 -22.753906 12.4375 -21.953125 C 13.0625 -21.160156 13.75 -20.429688 14.5 -19.765625 Z M 14.5 -19.765625 "/></g></g></g><g fill="#7b024d" fill-opacity="0.502"><g transform="translate(151.275018, 355.970513)"><g><path d="M 13.625 -16.859375 C 13.625 -18.640625 15.003906 -19.53125 17.765625 -19.53125 C 18.460938 -19.53125 18.894531 -19.300781 19.0625 -18.84375 C 19.238281 -18.394531 19.328125 -17.707031 19.328125 -16.78125 C 19.328125 -15.46875 19.035156 -13.441406 18.453125 -10.703125 C 17.867188 -7.960938 17.585938 -6.113281 17.609375 -5.15625 C 17.609375 -4.695312 17.753906 -4.46875 18.046875 -4.46875 C 18.453125 -4.46875 18.945312 -4.71875 19.53125 -5.21875 C 20.113281 -5.726562 20.695312 -6.28125 21.28125 -6.875 C 21.875 -7.476562 22.414062 -8.035156 22.90625 -8.546875 C 23.394531 -9.054688 23.734375 -9.3125 23.921875 -9.3125 C 24.296875 -9.3125 24.484375 -8.859375 24.484375 -7.953125 C 24.484375 -6.085938 23.5625 -4.289062 21.71875 -2.5625 C 18.632812 -0.75 16.679688 0.15625 15.859375 0.15625 C 15.773438 0.15625 15.707031 0.144531 15.65625 0.125 C 14.644531 0.125 13.929688 -0.207031 13.515625 -0.875 C 13.109375 -1.539062 12.847656 -2.378906 12.734375 -3.390625 C 12.203125 -2.410156 11.46875 -1.566406 10.53125 -0.859375 C 9.601562 -0.148438 8.539062 0.203125 7.34375 0.203125 C 5.238281 0.203125 3.617188 -0.195312 2.484375 -1 C 1.359375 -1.800781 0.796875 -2.984375 0.796875 -4.546875 C 0.796875 -5.242188 0.894531 -5.882812 1.09375 -6.46875 C 1.289062 -7.050781 1.617188 -7.769531 2.078125 -8.625 L 3.234375 -18.453125 C 4.054688 -19.085938 5.242188 -19.40625 6.796875 -19.40625 C 8.015625 -19.40625 8.703125 -18.609375 8.859375 -17.015625 C 8.992188 -15.710938 8.9375 -14.546875 8.6875 -13.515625 C 8.4375 -12.492188 8.097656 -11.203125 7.671875 -9.640625 C 7.242188 -8.085938 7.03125 -6.710938 7.03125 -5.515625 C 7.03125 -4.554688 7.628906 -4.078125 8.828125 -4.078125 C 10.128906 -4.078125 11.257812 -5.222656 12.21875 -7.515625 C 12.96875 -9.265625 13.472656 -11.21875 13.734375 -13.375 C 13.710938 -13.59375 13.691406 -13.867188 13.671875 -14.203125 C 13.660156 -14.535156 13.648438 -14.859375 13.640625 -15.171875 C 13.628906 -15.492188 13.625 -15.816406 13.625 -16.140625 Z M 13.625 -16.859375 "/></g></g></g><g fill="#7b024d" fill-opacity="0.502"><g transform="translate(172.561737, 355.970513)"><g><path d="M 7.03125 -6.703125 L 7.265625 -1.84375 C 7.265625 -1.195312 6.929688 -0.617188 6.265625 -0.109375 C 5.597656 0.390625 4.691406 0.640625 3.546875 0.640625 C 2.890625 0.640625 2.429688 0.296875 2.171875 -0.390625 C 1.921875 -1.085938 1.796875 -2.101562 1.796875 -3.4375 C 1.796875 -6.226562 1.9375 -8.414062 2.21875 -10 C 2.5 -11.582031 3.050781 -13.1875 3.875 -14.8125 C 2.644531 -15.988281 2.03125 -17.003906 2.03125 -17.859375 C 2.03125 -19.640625 2.988281 -20.53125 4.90625 -20.53125 C 5.894531 -20.53125 6.765625 -20.007812 7.515625 -18.96875 C 8.046875 -18.25 8.429688 -17.410156 8.671875 -16.453125 C 9.035156 -16.316406 9.5 -16.25 10.0625 -16.25 C 10.832031 -16.25 11.722656 -16.503906 12.734375 -17.015625 L 13.78125 -17.53125 C 14.09375 -17.6875 14.367188 -17.765625 14.609375 -17.765625 C 15.390625 -17.765625 16.164062 -16.632812 16.9375 -14.375 C 16.695312 -13.332031 16.4375 -12.332031 16.15625 -11.375 C 15.875 -10.414062 15.546875 -9.257812 15.171875 -7.90625 C 14.796875 -6.550781 14.601562 -5.640625 14.59375 -5.171875 C 14.582031 -4.703125 14.722656 -4.46875 15.015625 -4.46875 C 15.410156 -4.46875 15.898438 -4.71875 16.484375 -5.21875 C 17.078125 -5.726562 17.664062 -6.28125 18.25 -6.875 C 18.832031 -7.476562 19.367188 -8.035156 19.859375 -8.546875 C 20.359375 -9.054688 20.703125 -9.3125 20.890625 -9.3125 C 21.265625 -9.3125 21.453125 -8.859375 21.453125 -7.953125 C 21.453125 -6.109375 20.644531 -4.296875 19.03125 -2.515625 C 17.414062 -0.734375 15.570312 0.144531 13.5 0.125 C 12.269531 0.125 11.347656 -0.363281 10.734375 -1.34375 C 10.128906 -2.332031 9.8125 -3.535156 9.78125 -4.953125 C 9.78125 -7.742188 10.40625 -10.394531 11.65625 -12.90625 C 11.070312 -12.664062 10.414062 -12.546875 9.6875 -12.546875 C 8.957031 -12.546875 8.429688 -12.570312 8.109375 -12.625 C 7.867188 -11.613281 7.628906 -10.59375 7.390625 -9.5625 C 7.148438 -8.539062 7.03125 -7.585938 7.03125 -6.703125 Z M 7.03125 -6.703125 "/></g></g></g><g fill="#7b024d" fill-opacity="0.502"><g transform="translate(190.813197, 355.970513)"><g><path d="M 5.984375 0.125 C 3.328125 0.125 2 -2.363281 2 -7.34375 C 2 -10.0625 2.332031 -12.523438 3 -14.734375 C 4.03125 -18.140625 5.203125 -19.84375 6.515625 -19.84375 C 7.285156 -19.84375 7.894531 -19.328125 8.34375 -18.296875 C 8.71875 -17.492188 8.890625 -16.707031 8.859375 -15.9375 C 8.859375 -14.875 8.539062 -12.992188 7.90625 -10.296875 C 7.289062 -7.960938 6.984375 -6.515625 6.984375 -5.953125 C 6.984375 -5.390625 7.125 -5 7.40625 -4.78125 C 7.6875 -4.570312 8.019531 -4.46875 8.40625 -4.46875 C 8.789062 -4.46875 9.273438 -4.71875 9.859375 -5.21875 C 10.453125 -5.726562 11.039062 -6.28125 11.625 -6.875 C 12.207031 -7.476562 12.742188 -8.035156 13.234375 -8.546875 C 13.734375 -9.054688 14.070312 -9.3125 14.25 -9.3125 C 14.625 -9.3125 14.8125 -8.859375 14.8125 -7.953125 C 14.8125 -6.085938 13.875 -4.269531 12 -2.5 C 10.125 -0.726562 8.117188 0.144531 5.984375 0.125 Z M 7.625 -23.078125 C 6.90625 -24.148438 6.546875 -25.296875 6.546875 -26.515625 C 6.546875 -27.742188 6.738281 -28.765625 7.125 -29.578125 C 7.507812 -30.390625 7.875 -30.988281 8.21875 -31.375 C 8.570312 -31.757812 8.972656 -31.953125 9.421875 -31.953125 C 10.171875 -31.953125 10.847656 -31.398438 11.453125 -30.296875 C 12.066406 -29.191406 12.375 -28.265625 12.375 -27.515625 C 12.375 -26.128906 11.890625 -25.039062 10.921875 -24.25 C 9.953125 -23.46875 8.851562 -23.078125 7.625 -23.078125 Z M 7.625 -23.078125 "/></g></g></g><g fill="#7b024d" fill-opacity="0.502"><g transform="translate(202.435026, 355.970513)"><g><path d="M 5.71875 -24.15625 C 4.8125 -24.75 4.363281 -25.660156 4.375 -26.890625 C 4.382812 -28.128906 4.851562 -29.148438 5.78125 -29.953125 C 6.71875 -30.753906 7.828125 -31.15625 9.109375 -31.15625 C 9.828125 -31.15625 10.457031 -30.953125 11 -30.546875 C 11.550781 -30.148438 11.828125 -29.460938 11.828125 -28.484375 C 11.828125 -27.515625 11.617188 -26.519531 11.203125 -25.5 C 10.785156 -24.476562 10.222656 -23.539062 9.515625 -22.6875 C 8.816406 -21.832031 8.007812 -21.125 7.09375 -20.5625 C 6.175781 -20.007812 5.222656 -19.734375 4.234375 -19.734375 C 3.859375 -19.734375 3.457031 -19.804688 3.03125 -19.953125 C 2.601562 -20.097656 2.390625 -20.367188 2.390625 -20.765625 C 2.390625 -21.160156 2.53125 -21.460938 2.8125 -21.671875 C 3.09375 -21.890625 3.421875 -22.097656 3.796875 -22.296875 C 4.171875 -22.503906 4.535156 -22.738281 4.890625 -23 C 5.253906 -23.269531 5.53125 -23.65625 5.71875 -24.15625 Z M 5.71875 -24.15625 "/></g></g></g><g fill="#7b024d" fill-opacity="0.502"><g transform="translate(216.253423, 355.970513)"><g><path d="M 10.296875 -19.34375 C 12.085938 -19.363281 13.421875 -19.03125 14.296875 -18.34375 C 15.171875 -17.664062 15.609375 -16.691406 15.609375 -15.421875 C 15.609375 -14.160156 15.226562 -13.082031 14.46875 -12.1875 C 13.71875 -11.300781 12.796875 -10.671875 11.703125 -10.296875 C 12.472656 -9.503906 13.171875 -8.691406 13.796875 -7.859375 C 14.421875 -7.035156 14.734375 -6.171875 14.734375 -5.265625 C 14.734375 -3.484375 14.023438 -2.109375 12.609375 -1.140625 C 11.203125 -0.171875 9.238281 0.3125 6.71875 0.3125 C 4.207031 0.3125 2.328125 -0.179688 1.078125 -1.171875 C -0.171875 -2.171875 -0.796875 -3.300781 -0.796875 -4.5625 C -0.796875 -5.832031 -0.484375 -6.984375 0.140625 -8.015625 C 0.765625 -9.054688 1.4375 -9.578125 2.15625 -9.578125 C 2.582031 -9.578125 2.890625 -9.425781 3.078125 -9.125 C 3.265625 -8.820312 3.609375 -7.9375 4.109375 -6.46875 C 4.296875 -5.9375 4.601562 -5.429688 5.03125 -4.953125 C 6.019531 -3.859375 7.578125 -3.3125 9.703125 -3.3125 C 9.378906 -4.320312 8.863281 -5.191406 8.15625 -5.921875 C 7.457031 -6.660156 6.757812 -7.375 6.0625 -8.0625 C 5.375 -8.757812 4.765625 -9.5 4.234375 -10.28125 C 3.703125 -11.070312 3.4375 -12 3.4375 -13.0625 C 3.4375 -14.976562 4.15625 -16.535156 5.59375 -17.734375 C 6.945312 -18.796875 8.515625 -19.332031 10.296875 -19.34375 Z M 10.140625 -11.9375 C 11.203125 -13.082031 11.734375 -14.003906 11.734375 -14.703125 C 11.734375 -15.015625 11.617188 -15.296875 11.390625 -15.546875 C 11.171875 -15.804688 10.847656 -15.9375 10.421875 -15.9375 C 9.992188 -15.9375 9.585938 -15.878906 9.203125 -15.765625 C 8.816406 -15.660156 8.503906 -15.582031 8.265625 -15.53125 C 8.265625 -14.519531 8.890625 -13.320312 10.140625 -11.9375 Z M 10.140625 -11.9375 "/></g></g></g><g fill="#000000" fill-opacity="1"><g transform="translate(126.745349, 354.205261)"><g><path d="M 6.75 -8.421875 C 6.75 -6.109375 7.734375 -4.953125 9.703125 -4.953125 C 11.859375 -4.953125 13.3125 -5.695312 14.0625 -7.1875 C 14.320312 -7.71875 14.453125 -8.398438 14.453125 -9.234375 C 14.453125 -10.078125 14.253906 -10.859375 13.859375 -11.578125 C 13.191406 -12.722656 12.046875 -13.988281 10.421875 -15.375 C 7.734375 -17.664062 6.390625 -20.039062 6.390625 -22.5 C 6.390625 -24.96875 7.160156 -26.863281 8.703125 -28.1875 C 10.242188 -29.519531 12.015625 -30.1875 14.015625 -30.1875 C 16.015625 -30.1875 17.597656 -29.679688 18.765625 -28.671875 C 19.941406 -27.660156 20.53125 -26.144531 20.53125 -24.125 C 20.53125 -22.789062 20.082031 -21.628906 19.1875 -20.640625 C 18.300781 -19.660156 17.125 -19.050781 15.65625 -18.8125 C 16.320312 -18.25 16.988281 -17.675781 17.65625 -17.09375 C 18.289062 -16.507812 18.875 -15.867188 19.40625 -15.171875 C 20.582031 -13.597656 21.171875 -11.722656 21.171875 -9.546875 C 21.171875 -8.023438 20.816406 -6.648438 20.109375 -5.421875 C 19.398438 -4.203125 18.476562 -3.171875 17.34375 -2.328125 C 16.21875 -1.492188 14.945312 -0.847656 13.53125 -0.390625 C 12.125 0.0546875 10.804688 0.28125 9.578125 0.28125 C 6.972656 0.28125 4.953125 -0.316406 3.515625 -1.515625 C 1.835938 -2.867188 1 -4.828125 1 -7.390625 C 1 -9.066406 1.539062 -10.6875 2.625 -12.25 C 3.71875 -13.820312 4.878906 -14.609375 6.109375 -14.609375 C 7.066406 -14.609375 7.546875 -14.316406 7.546875 -13.734375 C 7.546875 -12.878906 7.410156 -12.03125 7.140625 -11.1875 C 6.878906 -10.351562 6.75 -9.429688 6.75 -8.421875 Z M 14.5 -19.765625 C 16.019531 -21.285156 16.78125 -22.867188 16.78125 -24.515625 C 16.78125 -25.023438 16.507812 -25.453125 15.96875 -25.796875 C 15.382812 -26.117188 14.773438 -26.28125 14.140625 -26.28125 C 12.703125 -26.28125 11.660156 -25.8125 11.015625 -24.875 C 11.335938 -23.726562 11.8125 -22.753906 12.4375 -21.953125 C 13.0625 -21.160156 13.75 -20.429688 14.5 -19.765625 Z M 14.5 -19.765625 "/></g></g></g><g fill="#000000" fill-opacity="1"><g transform="translate(149.509752, 354.205261)"><g><path d="M 13.625 -16.859375 C 13.625 -18.640625 15.003906 -19.53125 17.765625 -19.53125 C 18.460938 -19.53125 18.894531 -19.300781 19.0625 -18.84375 C 19.238281 -18.394531 19.328125 -17.707031 19.328125 -16.78125 C 19.328125 -15.46875 19.035156 -13.441406 18.453125 -10.703125 C 17.867188 -7.960938 17.585938 -6.113281 17.609375 -5.15625 C 17.609375 -4.695312 17.753906 -4.46875 18.046875 -4.46875 C 18.453125 -4.46875 18.945312 -4.71875 19.53125 -5.21875 C 20.113281 -5.726562 20.695312 -6.28125 21.28125 -6.875 C 21.875 -7.476562 22.414062 -8.035156 22.90625 -8.546875 C 23.394531 -9.054688 23.734375 -9.3125 23.921875 -9.3125 C 24.296875 -9.3125 24.484375 -8.859375 24.484375 -7.953125 C 24.484375 -6.085938 23.5625 -4.289062 21.71875 -2.5625 C 18.632812 -0.75 16.679688 0.15625 15.859375 0.15625 C 15.773438 0.15625 15.707031 0.144531 15.65625 0.125 C 14.644531 0.125 13.929688 -0.207031 13.515625 -0.875 C 13.109375 -1.539062 12.847656 -2.378906 12.734375 -3.390625 C 12.203125 -2.410156 11.46875 -1.566406 10.53125 -0.859375 C 9.601562 -0.148438 8.539062 0.203125 7.34375 0.203125 C 5.238281 0.203125 3.617188 -0.195312 2.484375 -1 C 1.359375 -1.800781 0.796875 -2.984375 0.796875 -4.546875 C 0.796875 -5.242188 0.894531 -5.882812 1.09375 -6.46875 C 1.289062 -7.050781 1.617188 -7.769531 2.078125 -8.625 L 3.234375 -18.453125 C 4.054688 -19.085938 5.242188 -19.40625 6.796875 -19.40625 C 8.015625 -19.40625 8.703125 -18.609375 8.859375 -17.015625 C 8.992188 -15.710938 8.9375 -14.546875 8.6875 -13.515625 C 8.4375 -12.492188 8.097656 -11.203125 7.671875 -9.640625 C 7.242188 -8.085938 7.03125 -6.710938 7.03125 -5.515625 C 7.03125 -4.554688 7.628906 -4.078125 8.828125 -4.078125 C 10.128906 -4.078125 11.257812 -5.222656 12.21875 -7.515625 C 12.96875 -9.265625 13.472656 -11.21875 13.734375 -13.375 C 13.710938 -13.59375 13.691406 -13.867188 13.671875 -14.203125 C 13.660156 -14.535156 13.648438 -14.859375 13.640625 -15.171875 C 13.628906 -15.492188 13.625 -15.816406 13.625 -16.140625 Z M 13.625 -16.859375 "/></g></g></g><g fill="#000000" fill-opacity="1"><g transform="translate(170.796471, 354.205261)"><g><path d="M 7.03125 -6.703125 L 7.265625 -1.84375 C 7.265625 -1.195312 6.929688 -0.617188 6.265625 -0.109375 C 5.597656 0.390625 4.691406 0.640625 3.546875 0.640625 C 2.890625 0.640625 2.429688 0.296875 2.171875 -0.390625 C 1.921875 -1.085938 1.796875 -2.101562 1.796875 -3.4375 C 1.796875 -6.226562 1.9375 -8.414062 2.21875 -10 C 2.5 -11.582031 3.050781 -13.1875 3.875 -14.8125 C 2.644531 -15.988281 2.03125 -17.003906 2.03125 -17.859375 C 2.03125 -19.640625 2.988281 -20.53125 4.90625 -20.53125 C 5.894531 -20.53125 6.765625 -20.007812 7.515625 -18.96875 C 8.046875 -18.25 8.429688 -17.410156 8.671875 -16.453125 C 9.035156 -16.316406 9.5 -16.25 10.0625 -16.25 C 10.832031 -16.25 11.722656 -16.503906 12.734375 -17.015625 L 13.78125 -17.53125 C 14.09375 -17.6875 14.367188 -17.765625 14.609375 -17.765625 C 15.390625 -17.765625 16.164062 -16.632812 16.9375 -14.375 C 16.695312 -13.332031 16.4375 -12.332031 16.15625 -11.375 C 15.875 -10.414062 15.546875 -9.257812 15.171875 -7.90625 C 14.796875 -6.550781 14.601562 -5.640625 14.59375 -5.171875 C 14.582031 -4.703125 14.722656 -4.46875 15.015625 -4.46875 C 15.410156 -4.46875 15.898438 -4.71875 16.484375 -5.21875 C 17.078125 -5.726562 17.664062 -6.28125 18.25 -6.875 C 18.832031 -7.476562 19.367188 -8.035156 19.859375 -8.546875 C 20.359375 -9.054688 20.703125 -9.3125 20.890625 -9.3125 C 21.265625 -9.3125 21.453125 -8.859375 21.453125 -7.953125 C 21.453125 -6.109375 20.644531 -4.296875 19.03125 -2.515625 C 17.414062 -0.734375 15.570312 0.144531 13.5 0.125 C 12.269531 0.125 11.347656 -0.363281 10.734375 -1.34375 C 10.128906 -2.332031 9.8125 -3.535156 9.78125 -4.953125 C 9.78125 -7.742188 10.40625 -10.394531 11.65625 -12.90625 C 11.070312 -12.664062 10.414062 -12.546875 9.6875 -12.546875 C 8.957031 -12.546875 8.429688 -12.570312 8.109375 -12.625 C 7.867188 -11.613281 7.628906 -10.59375 7.390625 -9.5625 C 7.148438 -8.539062 7.03125 -7.585938 7.03125 -6.703125 Z M 7.03125 -6.703125 "/></g></g></g><g fill="#000000" fill-opacity="1"><g transform="translate(189.04793, 354.205261)"><g><path d="M 5.984375 0.125 C 3.328125 0.125 2 -2.363281 2 -7.34375 C 2 -10.0625 2.332031 -12.523438 3 -14.734375 C 4.03125 -18.140625 5.203125 -19.84375 6.515625 -19.84375 C 7.285156 -19.84375 7.894531 -19.328125 8.34375 -18.296875 C 8.71875 -17.492188 8.890625 -16.707031 8.859375 -15.9375 C 8.859375 -14.875 8.539062 -12.992188 7.90625 -10.296875 C 7.289062 -7.960938 6.984375 -6.515625 6.984375 -5.953125 C 6.984375 -5.390625 7.125 -5 7.40625 -4.78125 C 7.6875 -4.570312 8.019531 -4.46875 8.40625 -4.46875 C 8.789062 -4.46875 9.273438 -4.71875 9.859375 -5.21875 C 10.453125 -5.726562 11.039062 -6.28125 11.625 -6.875 C 12.207031 -7.476562 12.742188 -8.035156 13.234375 -8.546875 C 13.734375 -9.054688 14.070312 -9.3125 14.25 -9.3125 C 14.625 -9.3125 14.8125 -8.859375 14.8125 -7.953125 C 14.8125 -6.085938 13.875 -4.269531 12 -2.5 C 10.125 -0.726562 8.117188 0.144531 5.984375 0.125 Z M 7.625 -23.078125 C 6.90625 -24.148438 6.546875 -25.296875 6.546875 -26.515625 C 6.546875 -27.742188 6.738281 -28.765625 7.125 -29.578125 C 7.507812 -30.390625 7.875 -30.988281 8.21875 -31.375 C 8.570312 -31.757812 8.972656 -31.953125 9.421875 -31.953125 C 10.171875 -31.953125 10.847656 -31.398438 11.453125 -30.296875 C 12.066406 -29.191406 12.375 -28.265625 12.375 -27.515625 C 12.375 -26.128906 11.890625 -25.039062 10.921875 -24.25 C 9.953125 -23.46875 8.851562 -23.078125 7.625 -23.078125 Z M 7.625 -23.078125 "/></g></g></g><g fill="#000000" fill-opacity="1"><g transform="translate(200.66976, 354.205261)"><g><path d="M 5.71875 -24.15625 C 4.8125 -24.75 4.363281 -25.660156 4.375 -26.890625 C 4.382812 -28.128906 4.851562 -29.148438 5.78125 -29.953125 C 6.71875 -30.753906 7.828125 -31.15625 9.109375 -31.15625 C 9.828125 -31.15625 10.457031 -30.953125 11 -30.546875 C 11.550781 -30.148438 11.828125 -29.460938 11.828125 -28.484375 C 11.828125 -27.515625 11.617188 -26.519531 11.203125 -25.5 C 10.785156 -24.476562 10.222656 -23.539062 9.515625 -22.6875 C 8.816406 -21.832031 8.007812 -21.125 7.09375 -20.5625 C 6.175781 -20.007812 5.222656 -19.734375 4.234375 -19.734375 C 3.859375 -19.734375 3.457031 -19.804688 3.03125 -19.953125 C 2.601562 -20.097656 2.390625 -20.367188 2.390625 -20.765625 C 2.390625 -21.160156 2.53125 -21.460938 2.8125 -21.671875 C 3.09375 -21.890625 3.421875 -22.097656 3.796875 -22.296875 C 4.171875 -22.503906 4.535156 -22.738281 4.890625 -23 C 5.253906 -23.269531 5.53125 -23.65625 5.71875 -24.15625 Z M 5.71875 -24.15625 "/></g></g></g><g fill="#000000" fill-opacity="1"><g transform="translate(214.488156, 354.205261)"><g><path d="M 10.296875 -19.34375 C 12.085938 -19.363281 13.421875 -19.03125 14.296875 -18.34375 C 15.171875 -17.664062 15.609375 -16.691406 15.609375 -15.421875 C 15.609375 -14.160156 15.226562 -13.082031 14.46875 -12.1875 C 13.71875 -11.300781 12.796875 -10.671875 11.703125 -10.296875 C 12.472656 -9.503906 13.171875 -8.691406 13.796875 -7.859375 C 14.421875 -7.035156 14.734375 -6.171875 14.734375 -5.265625 C 14.734375 -3.484375 14.023438 -2.109375 12.609375 -1.140625 C 11.203125 -0.171875 9.238281 0.3125 6.71875 0.3125 C 4.207031 0.3125 2.328125 -0.179688 1.078125 -1.171875 C -0.171875 -2.171875 -0.796875 -3.300781 -0.796875 -4.5625 C -0.796875 -5.832031 -0.484375 -6.984375 0.140625 -8.015625 C 0.765625 -9.054688 1.4375 -9.578125 2.15625 -9.578125 C 2.582031 -9.578125 2.890625 -9.425781 3.078125 -9.125 C 3.265625 -8.820312 3.609375 -7.9375 4.109375 -6.46875 C 4.296875 -5.9375 4.601562 -5.429688 5.03125 -4.953125 C 6.019531 -3.859375 7.578125 -3.3125 9.703125 -3.3125 C 9.378906 -4.320312 8.863281 -5.191406 8.15625 -5.921875 C 7.457031 -6.660156 6.757812 -7.375 6.0625 -8.0625 C 5.375 -8.757812 4.765625 -9.5 4.234375 -10.28125 C 3.703125 -11.070312 3.4375 -12 3.4375 -13.0625 C 3.4375 -14.976562 4.15625 -16.535156 5.59375 -17.734375 C 6.945312 -18.796875 8.515625 -19.332031 10.296875 -19.34375 Z M 10.140625 -11.9375 C 11.203125 -13.082031 11.734375 -14.003906 11.734375 -14.703125 C 11.734375 -15.015625 11.617188 -15.296875 11.390625 -15.546875 C 11.171875 -15.804688 10.847656 -15.9375 10.421875 -15.9375 C 9.992188 -15.9375 9.585938 -15.878906 9.203125 -15.765625 C 8.816406 -15.660156 8.503906 -15.582031 8.265625 -15.53125 C 8.265625 -14.519531 8.890625 -13.320312 10.140625 -11.9375 Z M 10.140625 -11.9375 "/></g></g></g></svg>