<svg width="40" height="40" viewBox="0 0 40 40" fill="none" xmlns="http://www.w3.org/2000/svg">
<g clip-path="url(#clip0_38_161)">
<path d="M27.3438 39.2188H2.34375C1.48078 39.2188 0.78125 38.5192 0.78125 37.6562V2.34375C0.78125 1.48078 1.48078 0.78125 2.34375 0.78125H27.3438C28.2067 0.78125 28.9062 1.48078 28.9062 2.34375V37.6562C28.9062 38.5192 28.2067 39.2188 27.3438 39.2188Z" fill="#6E83B7"/>
<path d="M25.1562 11.7188C23.7777 11.7188 22.6562 12.8402 22.6562 14.2188V37.6562C22.6562 38.2471 22.8627 38.7904 23.2068 39.2188H27.3438C28.2067 39.2188 28.9062 38.5192 28.9062 37.6562V11.7188H25.1562Z" fill="#466089"/>
<path d="M28.125 3.125V34.375H1.5625V3.125H28.125Z" fill="#80D6FB"/>
<path d="M28.125 34.375V11.7188H25.1562C23.7777 11.7188 22.6562 12.8402 22.6562 14.2188V34.375H28.125Z" fill="#46BEE8"/>
<path d="M16.4062 37.5781H13.2812C12.8498 37.5781 12.5 37.2284 12.5 36.7969C12.5 36.3654 12.8498 36.0156 13.2812 36.0156H16.4062C16.8377 36.0156 17.1875 36.3654 17.1875 36.7969C17.1875 37.2284 16.8377 37.5781 16.4062 37.5781Z" fill="#466089"/>
<path d="M20.1562 36.4062H23.2812V37.1875H20.1562V36.4062Z" fill="#EDEFF1"/>
<path d="M22.6562 36.4062H23.2812V37.1875H22.6562V36.4062Z" fill="#D3D3D3"/>
<path d="M9.53125 37.1875H6.40625V36.4062H9.53125V37.1875Z" fill="#EDEFF1"/>
<path d="M14.8438 2.73438C15.2752 2.73438 15.625 2.3846 15.625 1.95312C15.625 1.52165 15.2752 1.17188 14.8438 1.17188C14.4123 1.17188 14.0625 1.52165 14.0625 1.95312C14.0625 2.3846 14.4123 2.73438 14.8438 2.73438Z" fill="#466089"/>
<path d="M14.8438 2.5C15.1458 2.5 15.3906 2.25516 15.3906 1.95312C15.3906 1.65109 15.1458 1.40625 14.8438 1.40625C14.5417 1.40625 14.2969 1.65109 14.2969 1.95312C14.2969 2.25516 14.5417 2.5 14.8438 2.5Z" fill="#80D6FB"/>
<path d="M37.6562 39.2188H25.1562C24.2933 39.2188 23.5938 38.5192 23.5938 37.6562V14.2188C23.5938 13.3558 24.2933 12.6562 25.1562 12.6562H37.6562C38.5192 12.6562 39.2188 13.3558 39.2188 14.2188V37.6562C39.2188 38.5192 38.5192 39.2188 37.6562 39.2188Z" fill="#6E83B7"/>
<path d="M38.4375 15V36.875H24.375V15H38.4375Z" fill="#80D6FB"/>
<path d="M28.2812 15L28.75 16.25H34.0625L34.5312 15H28.2812Z" fill="#6E83B7"/>
<path d="M29.8438 15C30.1889 15 30.4688 14.7202 30.4688 14.375C30.4688 14.0298 30.1889 13.75 29.8438 13.75C29.4986 13.75 29.2188 14.0298 29.2188 14.375C29.2188 14.7202 29.4986 15 29.8438 15Z" fill="#466089"/>
<path d="M32.9688 15C33.3139 15 33.5938 14.7202 33.5938 14.375C33.5938 14.0298 33.3139 13.75 32.9688 13.75C32.6236 13.75 32.3438 14.0298 32.3438 14.375C32.3438 14.7202 32.6236 15 32.9688 15Z" fill="#80D6FB"/>
</g>
<defs>
<clipPath id="clip0_38_161">
<rect width="40" height="40" fill="white"/>
</clipPath>
</defs>
</svg>
