<svg width="80" height="81" viewBox="0 0 80 81" fill="none" xmlns="http://www.w3.org/2000/svg">
<path d="M60.0379 52.8403C61.4155 52.8403 62.5426 53.9675 62.5426 55.345C62.5426 56.7225 61.4154 57.8497 60.0379 57.8497C58.6602 57.8497 57.5332 56.7225 57.5332 55.345C57.5332 53.9675 58.6602 52.8403 60.0379 52.8403Z" fill="#F1F2F2"/>
<path d="M60.0378 47.8306C64.1833 47.8306 67.5522 51.1996 67.5522 55.3449C67.5522 59.4903 64.1831 62.8593 60.0378 62.8593C55.8925 62.8593 52.5234 59.4903 52.5234 55.3449C52.5234 51.1996 55.8923 47.8306 60.0378 47.8306ZM62.5425 55.3449C62.5425 53.9673 61.4153 52.8403 60.0378 52.8403C58.6602 52.8403 57.5331 53.9674 57.5331 55.3449C57.5331 56.7224 58.6603 57.8496 60.0378 57.8496C61.4153 57.8498 62.5425 56.7226 62.5425 55.3449Z" fill="#768BA0"/>
<path d="M19.9616 47.8306C24.107 47.8306 27.476 51.1996 27.476 55.3449C27.476 59.4903 24.107 62.8593 19.9616 62.8593C15.8163 62.8593 12.4473 59.4903 12.4473 55.3449C12.4473 51.1996 15.8162 47.8306 19.9616 47.8306ZM22.4663 55.3449C22.4663 53.9673 21.3391 52.8403 19.9616 52.8403C18.5841 52.8403 17.457 53.9674 17.457 55.3449C17.457 56.7224 18.5841 57.8496 19.9616 57.8496C21.3391 57.8498 22.4663 56.7226 22.4663 55.3449Z" fill="#768BA0"/>
<path d="M19.9617 52.8403C21.3394 52.8403 22.4664 53.9675 22.4664 55.345C22.4664 56.7225 21.3392 57.8497 19.9617 57.8497C18.5842 57.8497 17.457 56.7225 17.457 55.345C17.4569 53.9675 18.5841 52.8403 19.9617 52.8403Z" fill="#F1F2F2"/>
<path d="M48.7664 17.7729V24.0348H29.9805L34.9902 17.7729H48.7664Z" fill="#A4B0C0"/>
<path d="M78.8242 45.3261V55.3452H67.5527C67.5527 51.1997 64.1836 47.8308 60.0383 47.8308C55.893 47.8308 52.5239 51.1998 52.5239 55.3452H27.4761C27.4761 51.1997 24.107 47.8308 19.9617 47.8308C15.8164 47.8308 12.4473 51.1998 12.4473 55.3452H1.17578V32.802H9.9425L19.9616 24.0352H29.9806H48.7666H52.5238L62.5428 37.8114C62.5428 37.8114 62.5428 37.8114 68.8047 37.8114C75.067 37.8117 78.8242 45.3261 78.8242 45.3261Z" fill="#FFE451"/>
<path d="M9.94266 32.8027H1.17578V55.3465H9.94266V32.8027Z" fill="#FCB64F"/>
<path d="M34.9902 17.7729L29.9805 24.0348H37.4948L42.5045 17.7729H34.9902Z" fill="#768BA0"/>
<path d="M48.7661 29.0449L56.2805 39.064H37.4945L36.2422 37.8118V29.0449H48.7661Z" fill="#31E8BB"/>
<path d="M31.2329 29.0449V39.064H16.2041V36.5593L22.466 31.5496V29.0449H31.2329Z" fill="#31E8BB"/>
<path d="M41.2527 29.0449H36.2432V37.8118L37.4955 39.064H42.5052L41.2527 37.8118V29.0449Z" fill="#31CCBB"/>
<path d="M2.35156 33.9778H10.3842L20.4033 25.2111H51.925L55.2161 29.7362L57.1178 28.3533L53.1225 22.8595H49.9423V16.5977H34.4252L29.4156 22.8595H19.5195L9.50047 31.6263H0V37.8117H2.35156V33.9778ZM35.5555 18.9492H47.5909V22.8595H32.427L35.5555 18.9492Z" fill="#231F20"/>
<path d="M79.9996 45.0486L79.8754 44.8003C79.7086 44.467 75.7138 36.6361 68.8046 36.6361H63.1413L58.9393 30.8584L57.0375 32.2414L61.9438 38.9876H68.8046C73.6793 38.9876 76.9813 44.4265 77.6479 45.6218V54.1693H68.6461C68.0702 49.932 64.4304 46.655 60.0377 46.655C55.6449 46.655 52.0054 49.932 51.4294 54.1693H38.7471V56.5209H51.4294C52.0054 60.7582 55.645 64.0354 60.0377 64.0354C64.4305 64.0354 68.0702 60.7582 68.6461 56.5209H79.9996V45.0486ZM60.0379 61.6839C56.5429 61.6839 53.6993 58.8403 53.6993 55.3451C53.6993 51.8501 56.5429 49.0065 60.0379 49.0065C63.533 49.0065 66.3766 51.8501 66.3766 55.3451C66.3764 58.8404 63.533 61.6839 60.0379 61.6839Z" fill="#231F20"/>
<path d="M19.9616 46.6549C15.5686 46.6549 11.9292 49.932 11.3533 54.1693H2.35156V41.5688H0V56.5209H11.3533C11.9292 60.7582 15.5689 64.0354 19.9616 64.0354C24.3542 64.0354 27.9941 60.7582 28.57 56.5209H34.9903V54.1693H28.57C27.9941 49.932 24.3544 46.6549 19.9616 46.6549ZM19.9616 61.6837C16.4666 61.6837 13.623 58.8401 13.623 55.3449C13.623 51.8499 16.4666 49.0063 19.9616 49.0063C23.4567 49.0063 26.3003 51.8499 26.3003 55.3449C26.3003 58.8403 23.4567 61.6837 19.9616 61.6837Z" fill="#231F20"/>
<path d="M19.9617 51.6646C17.9323 51.6646 16.2812 53.3155 16.2812 55.345C16.2812 57.3746 17.9322 59.0256 19.9617 59.0256C21.9913 59.0256 23.6423 57.3746 23.6423 55.345C23.6423 53.3155 21.9911 51.6646 19.9617 51.6646ZM19.9617 56.6739C19.2289 56.6739 18.6328 56.0777 18.6328 55.3449C18.6328 54.6121 19.2291 54.016 19.9617 54.016C20.6947 54.016 21.2908 54.6122 21.2908 55.3449C21.2908 56.078 20.6947 56.6739 19.9617 56.6739Z" fill="#231F20"/>
<path d="M60.038 51.6646C58.0087 51.6646 56.3574 53.3155 56.3574 55.345C56.3574 57.3746 58.0085 59.0256 60.038 59.0256C62.0676 59.0256 63.7187 57.3746 63.7187 55.345C63.7187 53.3155 62.0674 51.6646 60.038 51.6646ZM60.038 56.6739C59.3051 56.6739 58.709 56.0777 58.709 55.3449C58.709 54.6121 59.3052 54.016 60.038 54.016C60.771 54.016 61.3671 54.6122 61.3671 55.3449C61.367 56.078 60.771 56.6739 60.038 56.6739Z" fill="#231F20"/>
<path d="M7.43746 42.897H4.93262V45.2485H7.43746V42.897Z" fill="white"/>
<path d="M12.4472 42.897H9.94238V45.2485H12.4472V42.897Z" fill="#231F20"/>
<path d="M75.0664 46.6548H72.5615V49.0063H75.0664V46.6548Z" fill="white"/>
<path d="M49.3541 27.8691H35.0664V38.2987L37.0075 40.2398H58.632L49.3541 27.8691ZM37.4181 37.3246V30.2207H48.1784L53.9291 37.8882H37.9816L37.4181 37.3246Z" fill="#231F20"/>
<path d="M32.4086 27.8691H21.2902V30.9846L15.0283 35.9943V40.2398H32.4086V27.8691ZM30.0571 37.8882H17.3799V37.1245L23.6418 32.1148V30.2207H30.0571V37.8882Z" fill="#231F20"/>
<path d="M29.9804 42.8975H27.4756V45.249H29.9804V42.8975Z" fill="#231F20"/>
<path d="M32.4852 45.4023H29.9805V47.7539H32.4852V45.4023Z" fill="white"/>
<path d="M34.9912 42.897H32.4863V45.2485H34.9912V42.897Z" fill="#231F20"/>
<path d="M37.4951 45.4023H34.9902V47.7539H37.4951V45.4023Z" fill="white"/>
<path d="M40 42.897H37.4951V45.2485H40V42.897Z" fill="#231F20"/>
<path d="M42.5048 45.4023H40V47.7539H42.5048V45.4023Z" fill="white"/>
<path d="M45.0105 42.897H42.5059V45.2485H45.0105V42.897Z" fill="#231F20"/>
<path d="M47.5136 45.4023H45.0088V47.7539H47.5136V45.4023Z" fill="white"/>
<path d="M50.0195 42.897H47.5146V45.2485H50.0195V42.897Z" fill="#231F20"/>
</svg>
