<svg width="80" height="81" viewBox="0 0 80 81" fill="none" xmlns="http://www.w3.org/2000/svg">
<g clip-path="url(#clip0_267_709)">
<path fill-rule="evenodd" clip-rule="evenodd" d="M41.0695 62.5303V43.0956V32.3729V23.2669C41.0695 21.8408 39.9003 20.6714 38.4742 20.6714H32.2914H10.7312H4.54844C3.12234 20.6714 1.95312 21.8406 1.95312 23.2669V62.5304H41.0695V62.5303ZM29.7358 34.0648H13.2867C11.5683 34.0648 10.1644 32.6608 10.1644 30.9423C10.1644 29.2239 11.5683 27.8154 13.2867 27.8154H29.7358C31.4542 27.8154 32.8581 29.2239 32.8581 30.9423C32.8581 32.6608 31.4542 34.0648 29.7358 34.0648Z" fill="#A0C8FF"/>
<path fill-rule="evenodd" clip-rule="evenodd" d="M32.858 30.9423C32.858 29.2239 31.4541 27.8154 29.7356 27.8154H13.2864C11.568 27.8154 10.1641 29.2239 10.1641 30.9423C10.1641 32.6607 11.568 34.0648 13.2864 34.0648H29.7355C31.4539 34.0648 32.858 32.6607 32.858 30.9423Z" fill="white"/>
<path fill-rule="evenodd" clip-rule="evenodd" d="M70.898 78.754V43.0957H66.3716H41.0692V62.5304V68.0181C41.0692 69.4487 39.9 70.6179 38.4739 70.6179H36.543V75.1798C36.543 77.1463 34.9353 78.754 32.9688 78.754H33.4692H70.898ZM54.1877 49.4115L61.9294 52.9237L59.2853 58.7479L51.548 55.2357L54.1877 49.4115ZM53.0361 64.9663C55.0556 64.9663 56.69 66.6051 56.69 68.6248C56.69 70.6399 55.0558 72.2787 53.0361 72.2787C51.0166 72.2787 49.3778 70.6399 49.3778 68.6248C49.3778 66.6051 51.0166 64.9663 53.0361 64.9663Z" fill="#FFCD69"/>
<path fill-rule="evenodd" clip-rule="evenodd" d="M41.0695 68.0179V62.5303H1.95312V68.0179C1.95312 69.4486 3.12234 70.6178 4.54844 70.6178H6.47938H13.6233H29.3992H36.5431H38.4741C39.9002 70.6179 41.0695 69.4486 41.0695 68.0179Z" fill="#DFEDFF"/>
<path fill-rule="evenodd" clip-rule="evenodd" d="M36.5433 75.1796V70.6177H29.3994V75.1796C29.3994 77.1461 31.0071 78.7538 32.9691 78.7538C34.9357 78.7538 36.5433 77.146 36.5433 75.1796Z" fill="#89A7BC"/>
<path fill-rule="evenodd" clip-rule="evenodd" d="M13.6234 75.1796V70.6177H6.47949V75.1796C6.47949 77.146 8.08715 78.7538 10.0536 78.7538C12.0156 78.7538 13.6234 77.146 13.6234 75.1796Z" fill="#89A7BC"/>
<path fill-rule="evenodd" clip-rule="evenodd" d="M78.0423 74.6793V47.1704C78.0423 44.9293 76.2087 43.0957 73.9722 43.0957H70.8984V78.754H73.9722C76.2087 78.754 78.0423 76.9204 78.0423 74.6793Z" fill="#FFE6B4"/>
<path fill-rule="evenodd" clip-rule="evenodd" d="M61.9293 52.924L54.1875 49.4116L51.5479 55.2358L59.2852 58.7482L61.9293 52.924Z" fill="#DFEDFF"/>
<path fill-rule="evenodd" clip-rule="evenodd" d="M56.6901 68.6247C56.6901 66.6051 55.0559 64.9663 53.0362 64.9663C51.0167 64.9663 49.3779 66.6051 49.3779 68.6247C49.3779 70.6399 51.0167 72.2787 53.0362 72.2787C55.0559 72.2787 56.6901 70.6399 56.6901 68.6247Z" fill="#D5EA7A"/>
<path d="M73.9719 41.5331H67.9342V37.3112C67.9342 34.9405 66.0055 33.0116 63.6347 33.0116H42.6317V23.2667C42.6317 20.9741 40.7664 19.1088 38.4739 19.1088H33.8537V6.09531C33.8537 2.90891 31.2614 0.316406 28.0748 0.316406H14.9475C11.7609 0.316406 9.16859 2.90891 9.16859 6.09531V19.1088H4.54828C2.25562 19.1088 0.390625 20.9741 0.390625 23.2667V38.8747C0.390625 39.7377 1.09031 40.4372 1.95312 40.4372C2.81594 40.4372 3.51562 39.7377 3.51562 38.8747V23.2667C3.51562 22.7069 3.98844 22.2337 4.54828 22.2337H38.4739C39.0337 22.2337 39.5067 22.7067 39.5067 23.2667V60.9678H3.51562V52.9105C3.51562 52.0475 2.81594 51.348 1.95312 51.348C1.09031 51.348 0.390625 52.0475 0.390625 52.9105V68.018C0.390625 70.3131 2.25578 72.1803 4.54828 72.1803H4.91687V75.1797C4.91687 78.012 7.22109 80.3164 10.0534 80.3164C12.8833 80.3164 15.1858 78.012 15.1858 75.1797V72.1803H27.8366V75.1797C27.8366 78.012 30.1389 80.3164 32.9689 80.3164H73.9719C77.0777 80.3164 79.6045 77.7875 79.6045 74.6792V47.1703C79.6044 44.062 77.0775 41.5331 73.9719 41.5331ZM30.7287 19.1088H12.2936V6.09531C12.2936 4.63203 13.4841 3.44141 14.9475 3.44141H28.075C29.5383 3.44141 30.7287 4.63203 30.7287 6.09531V19.1088ZM42.6317 36.1367H63.6347C64.2823 36.1367 64.8092 36.6637 64.8092 37.3114V41.5333H42.6317V36.1367ZM12.0608 75.1797C12.0608 76.2889 11.1603 77.1914 10.0534 77.1914C8.94422 77.1914 8.04188 76.2889 8.04188 75.1797V72.1803H12.0608V75.1797ZM4.54828 69.0553C3.98844 69.0553 3.51562 68.5802 3.51562 68.018V64.0928H39.5069V68.018C39.5069 68.5803 39.0339 69.0553 38.4741 69.0553H4.54828ZM34.9805 75.1797C34.9805 76.2889 34.0781 77.1914 32.9689 77.1914C31.862 77.1914 30.9616 76.2889 30.9616 75.1797V72.1803H34.9805V75.1797ZM69.3356 77.1914H37.6947C37.9587 76.5733 38.1055 75.8933 38.1055 75.1797V72.1803H38.4739C40.7666 72.1803 42.6317 70.3131 42.6317 68.018V44.6581H69.3355V77.1914H69.3356ZM76.4794 74.6792C76.4794 76.0645 75.3545 77.1914 73.9717 77.1914H72.4605V44.6581H73.9717C75.3545 44.6581 76.4794 45.785 76.4794 47.1703V74.6792Z" fill="black"/>
<path d="M11.7275 38.752C10.8647 38.752 10.165 39.4515 10.165 40.3145C10.165 41.1774 10.8647 41.877 11.7275 41.877H31.2989C32.1618 41.877 32.8614 41.1774 32.8614 40.3145C32.8614 39.4515 32.1618 38.752 31.2989 38.752H11.7275Z" fill="black"/>
<path d="M34.4203 30.9423C34.4203 28.3565 32.3187 26.2529 29.7355 26.2529H13.2864C10.7031 26.2529 8.60156 28.3565 8.60156 30.9423C8.60156 33.5256 10.7031 35.6273 13.2864 35.6273H29.7353C32.3186 35.6273 34.4203 33.5256 34.4203 30.9423ZM29.7353 32.5023H13.2864C12.4263 32.5023 11.7266 31.8025 11.7266 30.9423C11.7266 30.0796 12.4264 29.3779 13.2864 29.3779H29.7353C30.5955 29.3779 31.2952 30.0798 31.2952 30.9423C31.2953 31.8025 30.5955 32.5023 29.7353 32.5023Z" fill="black"/>
<path d="M50.9023 56.6583L58.6398 60.1705C58.8493 60.2655 59.0687 60.3105 59.2848 60.3105C59.879 60.3105 60.447 59.9697 60.7084 59.3935L63.3524 53.5692C63.5238 53.1917 63.5381 52.7619 63.3924 52.3738C63.2466 51.9858 62.9527 51.6716 62.5754 51.5003L54.8335 47.9881C54.456 47.8171 54.0259 47.8027 53.6381 47.9486C53.2501 48.0945 52.936 48.3885 52.7648 48.7661L50.1251 54.5903C49.769 55.3763 50.117 56.3017 50.9023 56.6583ZM54.9657 51.48L59.8609 53.7006L58.5088 56.6791L53.616 54.4581L54.9657 51.48Z" fill="black"/>
<path d="M53.0362 73.8412C55.9125 73.8412 58.2526 71.501 58.2526 68.6247C58.2526 65.746 55.9125 63.4038 53.0362 63.4038C50.1575 63.4038 47.8154 65.7458 47.8154 68.6247C47.8154 71.5012 50.1575 73.8412 53.0362 73.8412ZM53.0362 66.5288C54.1895 66.5288 55.1276 67.469 55.1276 68.6247C55.1276 69.778 54.1895 70.7162 53.0362 70.7162C51.8806 70.7162 50.9404 69.778 50.9404 68.6247C50.9404 67.469 51.8807 66.5288 53.0362 66.5288Z" fill="black"/>
<path d="M1.95312 47.4575C2.81594 47.4575 3.51562 46.7536 3.51562 45.8906C3.51562 45.0277 2.81594 44.3281 1.95312 44.3281C1.09031 44.3281 0.390625 45.0277 0.390625 45.8906V45.8995C0.390625 46.7623 1.09016 47.4575 1.95312 47.4575Z" fill="black"/>
</g>
<defs>
<clipPath id="clip0_267_709">
<rect width="80" height="80" fill="white" transform="translate(-0.00292969 0.316406)"/>
</clipPath>
</defs>
</svg>
