<svg width="40" height="40" viewBox="0 0 40 40" fill="none" xmlns="http://www.w3.org/2000/svg">
<mask id="mask0_313_4812" style="mask-type:luminance" maskUnits="userSpaceOnUse" x="9" y="0" width="32" height="40">
<path d="M9.45312 0H40.0024V40H9.45312V0Z" fill="white"/>
</mask>
<g mask="url(#mask0_313_4812)">
<path d="M40.0366 20.0335C40.0366 20.3215 40.0292 20.6144 40.0167 20.9024C40.0118 21.0886 39.9969 21.2648 39.9845 21.451C39.9721 21.662 39.9522 21.873 39.9348 22.0815C39.9026 22.4216 39.8579 22.7518 39.8057 23.0845C39.7561 23.4171 39.699 23.7423 39.627 24.0725C39.5649 24.3977 39.488 24.7179 39.4036 25.0357C39.3341 25.2988 39.2646 25.5595 39.1876 25.8201C39.1677 25.8797 39.1553 25.9368 39.138 25.9865C39.0535 26.262 38.9592 26.5351 38.8624 26.8032C38.7085 27.2252 38.5446 27.6398 38.3659 28.0544C38.2765 28.2579 38.1872 28.4565 38.0904 28.6601C37.996 28.8587 37.8992 29.0548 37.79 29.2534C37.6882 29.452 37.5864 29.6481 37.4772 29.8417C37.2612 30.229 37.0254 30.6113 36.7821 30.9837C36.6604 31.1674 36.5338 31.3536 36.4072 31.5373L36.0622 32.0164C36.0373 32.0487 36.01 32.0809 35.9852 32.1182C35.8189 32.3416 35.6476 32.5576 35.4689 32.7686C35.3671 32.8977 35.2653 33.0168 35.161 33.1385C34.9575 33.3817 34.7415 33.6176 34.5181 33.846C34.1854 34.191 33.8404 34.5286 33.4854 34.8538C33.3066 35.0202 33.113 35.1815 32.9293 35.3404C32.8772 35.3851 32.8201 35.4347 32.758 35.4794C32.6488 35.5762 32.5346 35.6656 32.4179 35.755C32.1945 35.9337 31.9711 36.1 31.7427 36.2639C31.5714 36.393 31.3976 36.5146 31.2189 36.6363C30.1911 37.3313 29.0939 37.9296 27.9395 38.4286C27.6019 38.5751 27.2569 38.7091 26.9118 38.8357C26.3061 39.0591 25.6755 39.2577 25.0375 39.4166C24.8389 39.4688 24.6428 39.5184 24.4442 39.5631C23.4934 39.7741 22.5228 39.9206 21.5273 39.9975C21.4082 40.0025 21.2915 40.0099 21.1723 40.0174C21.011 40.0223 20.8521 40.0348 20.6858 40.0348C20.4748 40.0422 20.2588 40.0472 20.0428 40.0472C19.7027 40.0472 19.3725 40.0422 19.0399 40.0223H19.0349C15.6091 39.856 12.4192 38.8556 9.68099 37.1452H9.66113L10.103 36.3979L12.789 31.8426H12.794C14.8991 33.1385 17.3816 33.8857 20.0354 33.8857C27.6838 33.8857 33.8851 27.6845 33.8851 20.0285C33.8851 12.3801 27.6838 6.17886 20.0354 6.17886L20.2215 0.148946L20.2265 0.0148926C25.1269 0.0794371 29.5929 1.87178 33.0634 4.87556C33.6045 5.33482 34.1085 5.82138 34.595 6.32533C34.9376 6.70762 35.2777 7.08993 35.6029 7.49208C35.8437 7.78005 36.087 8.09284 36.3104 8.40315C36.3874 8.51238 36.4643 8.62161 36.5338 8.72339C36.5661 8.77552 36.6034 8.82517 36.6356 8.8773C36.6878 8.95178 36.7449 9.02873 36.7895 9.10569C36.8218 9.15037 36.8516 9.19506 36.8789 9.23974C36.9037 9.28443 36.9286 9.32415 36.9559 9.36883C37.0949 9.58977 37.2364 9.81319 37.358 10.0366C37.6187 10.4785 37.862 10.9427 38.0829 11.402L38.3262 11.9258C38.346 11.9705 38.3659 12.0276 38.3833 12.0921C38.4602 12.2708 38.5372 12.4545 38.6142 12.6407C38.6911 12.8244 38.7606 13.0032 38.8301 13.1943C38.8947 13.3482 38.9443 13.5021 38.9965 13.6561C39.0486 13.8075 39.0982 13.9664 39.1504 14.1277C39.2521 14.4256 39.3291 14.7533 39.411 15.0711C39.4632 15.2622 39.5078 15.4534 39.5525 15.652C39.5972 15.8431 39.6419 16.0293 39.6791 16.2204C39.699 16.3098 39.7114 16.3992 39.7238 16.4885C39.7313 16.5059 39.7313 16.5183 39.7313 16.5332C39.7611 16.6971 39.7884 16.8708 39.8132 17.0421C39.838 17.2085 39.8653 17.3748 39.8827 17.5461C39.9075 17.6925 39.9274 17.8465 39.9398 17.9929C39.9522 18.1592 39.9671 18.3305 39.9795 18.4969C40.0167 19.0008 40.0366 19.5172 40.0366 20.0335Z" fill="#FEBB50"/>
</g>
<mask id="mask1_313_4812" style="mask-type:luminance" maskUnits="userSpaceOnUse" x="0" y="12" width="14" height="26">
<path d="M0 12.3652H13.2663V37.1501H0V12.3652Z" fill="white"/>
</mask>
<g mask="url(#mask1_313_4812)">
<path d="M12.7941 31.8426L10.128 36.3979H10.1032L9.68113 37.1451H9.66127C3.87464 33.6374 0.0292969 27.3071 0.0292969 20.0335C0.0292969 17.3301 0.570475 14.7334 1.56098 12.3925L7.18625 14.8476C6.53584 16.4488 6.17837 18.1965 6.17837 20.0285C6.17837 25.0233 8.81971 29.4073 12.7892 31.8426H12.7941Z" fill="#43A2FF"/>
</g>
<mask id="mask2_313_4812" style="mask-type:luminance" maskUnits="userSpaceOnUse" x="8" y="0" width="13" height="9">
<path d="M8.81836 0H20.2576V8.5521H8.81836V0Z" fill="white"/>
</mask>
<g mask="url(#mask2_313_4812)">
<path d="M20.2275 0.0148926L20.2225 0.148946L20.0363 6.17886C17.256 6.17886 14.6643 6.99559 12.4946 8.4106L11.092 6.06218L10.3448 4.85074L9.50324 3.42084L9.39401 3.26196C9.37663 3.22472 9.35677 3.185 9.33691 3.14032C12.4251 1.14442 16.0942 0.0148926 20.0438 0.0148926H20.2275Z" fill="#4FE88E"/>
</g>
<path d="M12.4943 8.4106C10.1211 9.94725 8.25177 12.1939 7.18679 14.8476L1.56152 12.3925C3.13044 8.56451 5.87357 5.33482 9.31923 3.14032L9.39371 3.26196L9.50294 3.42084L10.3445 4.85074L11.0917 6.06218L12.4943 8.4106Z" fill="#FB545C"/>
<path d="M32.0368 19.4004C32.3347 19.7629 32.3347 20.2718 32.0393 20.6342C30.5424 22.4762 25.7289 27.7912 20.0341 27.7912C14.3368 27.7912 9.52331 22.4762 8.02887 20.6342C7.73345 20.2718 7.73345 19.7629 8.03135 19.4004C9.5258 17.5634 14.3393 12.2683 20.0341 12.2683C25.7289 12.2683 30.5399 17.5634 32.0368 19.4004Z" fill="#E5F4F7"/>
<path d="M26.0637 20.0459C26.0637 23.3699 23.3429 26.0609 20.0189 26.0609C16.6924 26.0609 14.0039 23.3699 14.0039 20.0459C14.0039 16.7194 16.6924 13.9986 20.0189 13.9986C23.3429 13.9986 26.0637 16.7194 26.0637 20.0459Z" fill="#43A2FF"/>
<path d="M23.4125 20.0385C23.4125 21.9003 21.8883 23.4072 20.024 23.4072C18.1621 23.4072 16.6553 21.9003 16.6553 20.0385C16.6553 18.1741 18.1621 16.6499 20.024 16.6499C21.8883 16.6499 23.4125 18.1741 23.4125 20.0385Z" fill="#2C3033"/>
<path d="M19.3929 21.7092C19.3929 22.0567 19.1099 22.3372 18.7624 22.3372C18.4148 22.3372 18.1318 22.0567 18.1318 21.7092C18.1318 21.3616 18.4148 21.0786 18.7624 21.0786C19.1099 21.0786 19.3929 21.3616 19.3929 21.7092Z" fill="white"/>
<path d="M23.3607 17.1811C23.3607 17.7397 22.9015 18.1915 22.3429 18.1915C21.7844 18.1915 21.3301 17.7397 21.3301 17.1811C21.3301 16.6201 21.7844 16.1633 22.3429 16.1633C22.9015 16.1633 23.3607 16.6201 23.3607 17.1811Z" fill="white"/>
</svg>
