<svg width="40" height="40" viewBox="0 0 40 40" fill="none" xmlns="http://www.w3.org/2000/svg">
<path d="M39.3768 3.12402V38.7508C39.3768 39.0932 39.0955 39.3764 38.7512 39.3764H1.24963C0.907195 39.3764 0.625977 39.0932 0.625977 38.7508V3.12402H39.3768Z" fill="#E1EBF4"/>
<path d="M37.1878 15.6258C37.1878 15.7807 37.0329 15.9376 36.876 15.9376H20.3128C20.1559 15.9376 20.001 15.7807 20.001 15.6258C20.001 15.4689 20.1559 15.312 20.3128 15.312H36.876C37.0329 15.312 37.1878 15.4689 37.1878 15.6258Z" fill="#9FA5AA" fill-opacity="0.5"/>
<path d="M37.1878 17.5006C37.1878 17.6555 37.0329 17.8124 36.876 17.8124H20.3128C20.1559 17.8124 20.001 17.6555 20.001 17.5006C20.001 17.3437 20.1559 17.1868 20.3128 17.1868H36.876C37.0329 17.1868 37.1878 17.3437 37.1878 17.5006Z" fill="#9FA5AA" fill-opacity="0.5"/>
<path d="M37.1878 19.3754C37.1878 19.5303 37.0329 19.6872 36.876 19.6872H20.3128C20.1559 19.6872 20.001 19.5303 20.001 19.3754C20.001 19.2185 20.1559 19.0616 20.3128 19.0616H36.876C37.0329 19.0616 37.1878 19.2185 37.1878 19.3754Z" fill="#9FA5AA" fill-opacity="0.5"/>
<path d="M37.1878 21.2501C37.1878 21.407 37.0329 21.5619 36.876 21.5619H20.3128C20.1559 21.5619 20.001 21.407 20.001 21.2501C20.001 21.0933 20.1559 20.9383 20.3128 20.9383H36.876C37.0329 20.9383 37.1878 21.0933 37.1878 21.2501Z" fill="#9FA5AA" fill-opacity="0.5"/>
<path d="M37.1878 23.1249C37.1878 23.2818 37.0329 23.4368 36.876 23.4368H20.3128C20.1559 23.4368 20.001 23.2818 20.001 23.1249C20.001 22.9681 20.1559 22.8131 20.3128 22.8131H36.876C37.0329 22.8131 37.1878 22.9681 37.1878 23.1249Z" fill="#9FA5AA" fill-opacity="0.5"/>
<path d="M37.1878 24.9997C37.1878 25.1566 37.0329 25.3134 36.876 25.3134H20.3128C20.1559 25.3134 20.001 25.1566 20.001 24.9997C20.001 24.8447 20.1559 24.6879 20.3128 24.6879H36.876C37.0329 24.6879 37.1878 24.8447 37.1878 24.9997Z" fill="#9FA5AA" fill-opacity="0.5"/>
<path d="M37.1878 26.8745C37.1878 27.0314 37.0329 27.1883 36.876 27.1883H20.3128C20.1559 27.1883 20.001 27.0314 20.001 26.8745C20.001 26.7196 20.1559 26.5627 20.3128 26.5627H36.876C37.0329 26.5627 37.1878 26.7196 37.1878 26.8745Z" fill="#9FA5AA" fill-opacity="0.5"/>
<path d="M38.7512 0.625488H1.24963C0.907195 0.625488 0.625977 0.906707 0.625977 1.24914V2.50028H39.3768V1.24914C39.3768 0.906707 39.0955 0.625488 38.7512 0.625488ZM34.6573 1.87471C34.5004 1.87471 34.3454 1.71784 34.376 1.53036C34.376 1.3754 34.5329 1.21853 34.7204 1.24914C34.8753 1.24914 35.0322 1.40601 35.0016 1.59349C35.0016 1.75036 34.8447 1.87471 34.6573 1.87471ZM35.9084 1.87471C35.7515 1.87471 35.5947 1.71784 35.6253 1.53036C35.6253 1.3754 35.7821 1.21853 35.9696 1.24914C36.1265 1.24914 36.2833 1.40601 36.2508 1.59349C36.2508 1.75036 36.0959 1.87471 35.9084 1.87471ZM37.1882 1.87471C37.0333 1.87471 36.8764 1.71784 36.8764 1.56288C36.8764 1.40601 37.0333 1.24914 37.1882 1.24914C37.3451 1.24914 37.502 1.40601 37.502 1.56288C37.502 1.71784 37.3451 1.87471 37.1882 1.87471Z" fill="#FC785E"/>
<path d="M37.5015 1.56301C37.5015 1.6491 37.4709 1.72179 37.4097 1.78301C37.3485 1.84423 37.2739 1.87484 37.1878 1.87484C37.1017 1.87484 37.029 1.84423 36.9678 1.78301C36.9066 1.72179 36.876 1.6491 36.876 1.56301C36.876 1.47501 36.9066 1.40231 36.9678 1.34109C37.029 1.27988 37.1017 1.24927 37.1878 1.24927C37.2739 1.24927 37.3485 1.27988 37.4097 1.34109C37.4709 1.40231 37.5015 1.47501 37.5015 1.56301Z" fill="#2D4356"/>
<path d="M36.2505 1.59357C36.2505 1.75044 36.0956 1.9054 35.9081 1.87479C35.7512 1.87479 35.5943 1.71792 35.625 1.53044C35.625 1.37548 35.7818 1.21861 35.9693 1.24922C36.1262 1.24922 36.2505 1.40609 36.2505 1.59357Z" fill="#2D4356"/>
<path d="M35.0015 1.59357C35.0015 1.75044 34.8447 1.9054 34.6572 1.87479C34.5003 1.87479 34.3454 1.71792 34.376 1.53044C34.376 1.37548 34.5328 1.21861 34.7203 1.24922C34.8753 1.24922 35.0015 1.40609 35.0015 1.59357Z" fill="#2D4356"/>
<path d="M37.1878 15.0003C37.1878 15.1571 37.0329 15.3121 36.876 15.3121H20.3128C20.1559 15.3121 20.001 15.1571 20.001 15.0003C20.001 14.8434 20.1559 14.6865 20.3128 14.6865H36.876C37.0329 14.6865 37.1878 14.8434 37.1878 15.0003Z" fill="#2D4356"/>
<path d="M37.1878 16.8749C37.1878 17.0318 37.0329 17.1868 36.876 17.1868H20.3128C20.1559 17.1868 20.001 17.0318 20.001 16.8749C20.001 16.7181 20.1559 16.5631 20.3128 16.5631H36.876C37.0329 16.5631 37.1878 16.7181 37.1878 16.8749Z" fill="#2D4356"/>
<path d="M37.1878 18.7498C37.1878 18.9067 37.0329 19.0616 36.876 19.0616H20.3128C20.1559 19.0616 20.001 18.9067 20.001 18.7498C20.001 18.5929 20.1559 18.438 20.3128 18.438H36.876C37.0329 18.438 37.1878 18.5929 37.1878 18.7498Z" fill="#2D4356"/>
<path d="M37.1878 20.6246C37.1878 20.7814 37.0329 20.9383 36.876 20.9383H20.3128C20.1559 20.9383 20.001 20.7814 20.001 20.6246C20.001 20.4696 20.1559 20.3127 20.3128 20.3127H36.876C37.0329 20.3127 37.1878 20.4696 37.1878 20.6246Z" fill="#2D4356"/>
<path d="M37.1878 22.4994C37.1878 22.6563 37.0329 22.8131 36.876 22.8131H20.3128C20.1559 22.8131 20.001 22.6563 20.001 22.4994C20.001 22.3444 20.1559 22.1876 20.3128 22.1876H36.876C37.0329 22.1876 37.1878 22.3444 37.1878 22.4994Z" fill="#2D4356"/>
<path d="M37.1878 24.3741C37.1878 24.531 37.0329 24.6879 36.876 24.6879H20.3128C20.1559 24.6879 20.001 24.531 20.001 24.3741C20.001 24.2192 20.1559 24.0623 20.3128 24.0623H36.876C37.0329 24.0623 37.1878 24.2192 37.1878 24.3741Z" fill="#2D4356"/>
<path d="M37.1878 26.2509C37.1878 26.4058 37.0329 26.5627 36.876 26.5627H20.3128C20.1559 26.5627 20.001 26.4058 20.001 26.2509C20.001 26.094 20.1559 25.9371 20.3128 25.9371H36.876C37.0329 25.9371 37.1878 26.094 37.1878 26.2509Z" fill="#2D4356"/>
<path d="M15.9379 14.6865H4.06364C3.37494 14.6865 2.8125 15.2509 2.8125 15.9377V25.3135C2.8125 26.0003 3.37494 26.5627 4.06364 26.5627H15.9379C16.6266 26.5627 17.1891 26.0003 17.1891 25.3135V15.9377C17.1891 15.2509 16.6266 14.6865 15.9379 14.6865ZM16.5635 25.3135C16.5635 25.656 16.2823 25.9372 15.9379 25.9372H4.06364C3.93737 25.9372 3.81303 25.876 3.68868 25.8128L8.0007 21.7495L9.93862 23.6874C9.99984 23.7506 10.0936 23.7812 10.1567 23.7812C10.2504 23.7812 10.3136 23.7506 10.3748 23.6874L14.595 19.2185L16.5635 21.2502V25.3135ZM16.5635 20.3434L14.8131 18.5318C14.7825 18.4686 14.6887 18.438 14.595 18.438C14.5012 18.438 14.4381 18.4686 14.375 18.5318L10.1567 23.0006L8.25131 21.0627C8.12504 20.9384 7.93757 20.9384 7.81322 21.0627L3.43807 25.1873V15.9377C3.43807 15.5933 3.71929 15.3121 4.06364 15.3121H15.9379C16.2823 15.3121 16.5635 15.5933 16.5635 15.9377V20.3434Z" fill="#2D4356"/>
<path d="M16.5629 15.9376V20.3433L14.8125 18.5317C14.7819 18.4685 14.6882 18.4379 14.5944 18.4379C14.5007 18.4379 14.4375 18.4685 14.3744 18.5317L10.1561 23.0006L8.25074 21.0626C8.12448 20.9383 7.937 20.9383 7.81265 21.0626L3.4375 25.1872V15.9376C3.4375 15.5932 3.71872 15.312 4.06307 15.312H15.9374C16.2817 15.312 16.5629 15.5932 16.5629 15.9376Z" fill="#94E1E4"/>
<path d="M16.5633 21.2502V25.3135C16.5633 25.6559 16.2821 25.9371 15.9377 25.9371H4.06343C3.93717 25.9371 3.81282 25.8759 3.68848 25.8128L8.0005 21.7495L9.93842 23.6874C9.99963 23.7505 10.0934 23.7811 10.1565 23.7811C10.2502 23.7811 10.3134 23.7505 10.3746 23.6874L14.5948 19.2185L16.5633 21.2502Z" fill="#D68751"/>
<mask id="mask0_313_4707" style="mask-type:luminance" maskUnits="userSpaceOnUse" x="0" y="0" width="40" height="40">
<path d="M0 0H40V40H0V0Z" fill="white"/>
</mask>
<g mask="url(#mask0_313_4707)">
<path d="M38.7508 0H1.24922C0.562437 0 0 0.562437 0 1.24922V38.7508C0 39.4376 0.562437 40 1.24922 40H38.7508C39.4376 40 40 39.4376 40 38.7508V1.24922C40 0.562437 39.4376 0 38.7508 0ZM39.3763 38.7508C39.3763 39.0932 39.0951 39.3763 38.7508 39.3763H1.24922C0.906786 39.3763 0.625568 39.0932 0.625568 38.7508V3.12401H39.3763V38.7508ZM39.3763 2.50036H0.625568V1.24922C0.625568 0.906786 0.906786 0.625568 1.24922 0.625568H38.7508C39.0951 0.625568 39.3763 0.906786 39.3763 1.24922V2.50036Z" fill="#2D4356"/>
</g>
<path d="M35.6252 4.37512H4.06364C3.37494 4.37512 2.8125 4.93756 2.8125 5.62434V12.188C2.8125 12.8748 3.37494 13.4372 4.06364 13.4372H35.6252C36.3139 13.4372 36.8763 12.8748 36.8763 12.188V5.62434C36.8763 4.93756 36.3139 4.37512 35.6252 4.37512ZM36.2507 12.188C36.2507 12.5305 35.9695 12.8117 35.6252 12.8117H4.06364C3.71929 12.8117 3.43807 12.5305 3.43807 12.188V5.62434C3.43807 5.28191 3.71929 5.00069 4.06364 5.00069H35.6252C35.9695 5.00069 36.2507 5.28191 36.2507 5.62434V12.188Z" fill="#2D4356"/>
<path d="M36.2502 5.62439V12.1881C36.2502 12.5305 35.9689 12.8117 35.6246 12.8117H4.06307C3.71872 12.8117 3.4375 12.5305 3.4375 12.1881V5.62439C3.4375 5.28195 3.71872 5.00073 4.06307 5.00073H35.6246C35.9689 5.00073 36.2502 5.28195 36.2502 5.62439Z" fill="#81D9E3"/>
<path d="M8.1252 17.8124C7.43841 17.8124 6.87598 18.3748 6.87598 19.0616C6.87598 19.7503 7.43841 20.3127 8.1252 20.3127C8.8139 20.3127 9.37634 19.7503 9.37634 19.0616C9.37634 18.3748 8.8139 17.8124 8.1252 17.8124ZM8.1252 19.6872C7.78276 19.6872 7.50154 19.406 7.50154 19.0616C7.50154 18.7192 7.78276 18.4379 8.1252 18.4379C8.46955 18.4379 8.75077 18.7192 8.75077 19.0616C8.75077 19.406 8.46955 19.6872 8.1252 19.6872Z" fill="#2D4356"/>
<path d="M8.7502 19.0616C8.7502 19.1458 8.73489 19.2243 8.70237 19.3008C8.67176 19.3792 8.62585 19.4462 8.56655 19.5036C8.50916 19.5629 8.44029 19.6088 8.36376 19.6394C8.28724 19.6719 8.20881 19.6872 8.12463 19.6872C8.04237 19.6872 7.96202 19.6719 7.8855 19.6394C7.80898 19.6088 7.74202 19.5629 7.68272 19.5036C7.62532 19.4462 7.57941 19.3792 7.54689 19.3008C7.51628 19.2243 7.50098 19.1458 7.50098 19.0616C7.50098 18.9794 7.51628 18.899 7.54689 18.8225C7.57941 18.746 7.62532 18.679 7.68272 18.6197C7.74202 18.5623 7.80898 18.5164 7.8855 18.4858C7.96202 18.4533 8.04237 18.438 8.12463 18.438C8.20881 18.438 8.28724 18.4533 8.36376 18.4858C8.44029 18.5164 8.50916 18.5623 8.56655 18.6197C8.62585 18.679 8.67176 18.746 8.70237 18.8225C8.73489 18.899 8.7502 18.9794 8.7502 19.0616Z" fill="#E1EBF4"/>
<path d="M8.12505 27.8119H4.06364C3.37494 27.8119 2.8125 28.3743 2.8125 29.063V36.8759C2.8125 37.5627 3.37494 38.1252 4.06364 38.1252H8.12505C8.81374 38.1252 9.37618 37.5627 9.37618 36.8759V29.063C9.37618 28.3743 8.81374 27.8119 8.12505 27.8119ZM8.75061 36.8759C8.75061 37.2184 8.46939 37.4996 8.12505 37.4996H4.06364C3.71929 37.4996 3.43807 37.2184 3.43807 36.8759V29.063C3.43807 28.7187 3.71929 28.4375 4.06364 28.4375H8.12505C8.46939 28.4375 8.75061 28.7187 8.75061 29.063V36.8759Z" fill="#2D4356"/>
<path d="M8.75004 29.0631V36.876C8.75004 37.2184 8.46883 37.4996 8.12448 37.4996H4.06307C3.71872 37.4996 3.4375 37.2184 3.4375 36.876V29.0631C3.4375 28.7187 3.71872 28.4375 4.06307 28.4375H8.12448C8.46883 28.4375 8.75004 28.7187 8.75004 29.0631Z" fill="#81D9E3"/>
<path d="M35.6244 27.8119H31.2511C30.5624 27.8119 30 28.3743 30 29.063V36.8759C30 37.5627 30.5624 38.1252 31.2511 38.1252H35.6244C36.3131 38.1252 36.8755 37.5627 36.8755 36.8759V29.063C36.8755 28.3743 36.3131 27.8119 35.6244 27.8119ZM36.2499 36.8759C36.2499 37.2184 35.9687 37.4996 35.6244 37.4996H31.2511C30.9068 37.4996 30.6256 37.2184 30.6256 36.8759V29.063C30.6256 28.7187 30.9068 28.4375 31.2511 28.4375H35.6244C35.9687 28.4375 36.2499 28.7187 36.2499 29.063V36.8759Z" fill="#2D4356"/>
<path d="M36.2503 29.0631V36.876C36.2503 37.2184 35.9691 37.4996 35.6248 37.4996H31.2515C30.9072 37.4996 30.626 37.2184 30.626 36.876V29.0631C30.626 28.7187 30.9072 28.4375 31.2515 28.4375H35.6248C35.9691 28.4375 36.2503 28.7187 36.2503 29.0631Z" fill="#81D9E3"/>
<path d="M17.1885 27.8119H13.1252C12.4384 27.8119 11.876 28.3743 11.876 29.063V36.8759C11.876 37.5627 12.4384 38.1252 13.1252 38.1252H17.1885C17.8753 38.1252 18.4377 37.5627 18.4377 36.8759V29.063C18.4377 28.3743 17.8753 27.8119 17.1885 27.8119ZM17.8122 36.8759C17.8122 37.2184 17.531 37.4996 17.1885 37.4996H13.1252C12.7809 37.4996 12.4996 37.2184 12.4996 36.8759V29.063C12.4996 28.7187 12.7809 28.4375 13.1252 28.4375H17.1885C17.531 28.4375 17.8122 28.7187 17.8122 29.063V36.8759Z" fill="#2D4356"/>
<path d="M17.8125 29.0631V36.876C17.8125 37.2184 17.5313 37.4996 17.1889 37.4996H13.1256C12.7812 37.4996 12.5 37.2184 12.5 36.876V29.0631C12.5 28.7187 12.7812 28.4375 13.1256 28.4375H17.1889C17.5313 28.4375 17.8125 28.7187 17.8125 29.0631Z" fill="#81D9E3"/>
<path d="M26.251 27.8119H22.1877C21.5009 27.8119 20.9385 28.3743 20.9385 29.063V36.8759C20.9385 37.5627 21.5009 38.1252 22.1877 38.1252H26.251C26.9378 38.1252 27.5002 37.5627 27.5002 36.8759V29.063C27.5002 28.3743 26.9378 27.8119 26.251 27.8119ZM26.8766 36.8759C26.8766 37.2184 26.5954 37.4996 26.251 37.4996H22.1877C21.8453 37.4996 21.564 37.2184 21.564 36.8759V29.063C21.564 28.7187 21.8453 28.4375 22.1877 28.4375H26.251C26.5954 28.4375 26.8766 28.7187 26.8766 29.063V36.8759Z" fill="#2D4356"/>
<path d="M26.877 29.0631V36.876C26.877 37.2184 26.5958 37.4996 26.2514 37.4996H22.1881C21.8457 37.4996 21.5645 37.2184 21.5645 36.876V29.0631C21.5645 28.7187 21.8457 28.4375 22.1881 28.4375H26.2514C26.5958 28.4375 26.877 28.7187 26.877 29.0631Z" fill="#81D9E3"/>
<path d="M39.3768 38.1252V38.7508C39.3768 39.0626 39.1261 39.3438 38.8143 39.3763C38.7818 39.3763 38.7818 39.3763 38.7512 39.3763H1.24963C1.21902 39.3763 1.21902 39.3763 1.18841 39.3763C0.874673 39.3438 0.625977 39.0626 0.625977 38.7508V38.1252C0.625977 38.4695 0.907195 38.7508 1.24963 38.7508H38.7512C39.0955 38.7508 39.3768 38.4695 39.3768 38.1252Z" fill="#9FA5AA" fill-opacity="0.5"/>
<path d="M0.625977 3.12402H39.3768V3.74959H0.625977V3.12402Z" fill="#9FA5AA" fill-opacity="0.5"/>
<path d="M39.3768 1.24914V1.87471C39.3768 1.53036 39.0955 1.24914 38.7512 1.24914H1.24963C0.907195 1.24914 0.625977 1.53036 0.625977 1.87471V1.24914C0.625977 0.937316 0.874673 0.656097 1.18841 0.625488C1.21902 0.625488 1.21902 0.625488 1.24963 0.625488H38.7512C38.7818 0.625488 38.7818 0.625488 38.8143 0.625488C39.1261 0.656097 39.3768 0.937316 39.3768 1.24914Z" fill="#F9DBD7" fill-opacity="0.3"/>
<path d="M36.2502 11.5625V12.1881C36.2502 12.4999 36.0015 12.7811 35.6877 12.8117C35.6571 12.8117 35.6571 12.8117 35.6246 12.8117H4.06307C4.03055 12.8117 4.03055 12.8117 3.99994 12.8117C3.68811 12.7811 3.4375 12.4999 3.4375 12.1881V11.5625C3.4375 11.9068 3.71872 12.1881 4.06307 12.1881H35.6246C35.9689 12.1881 36.2502 11.9068 36.2502 11.5625Z" fill="#0F423C" fill-opacity="0.3"/>
<path d="M8.75004 36.2504V36.8759C8.75004 37.1878 8.49943 37.469 8.18761 37.4996C8.157 37.4996 8.157 37.4996 8.12448 37.4996H4.06307C4.03055 37.4996 4.03055 37.4996 3.99994 37.4996C3.68811 37.469 3.4375 37.1878 3.4375 36.8759V36.2504C3.4375 36.5947 3.71872 36.8759 4.06307 36.8759H8.12448C8.46883 36.8759 8.75004 36.5947 8.75004 36.2504Z" fill="#0F423C" fill-opacity="0.3"/>
<path d="M36.2503 36.2504V36.8759C36.2503 37.1878 36.0017 37.469 35.6879 37.4996C35.6573 37.4996 35.6573 37.4996 35.6248 37.4996H31.2515C31.219 37.4996 31.219 37.4996 31.1884 37.4996C30.8766 37.469 30.626 37.1878 30.626 36.8759V36.2504C30.626 36.5947 30.9072 36.8759 31.2515 36.8759H35.6248C35.9691 36.8759 36.2503 36.5947 36.2503 36.2504Z" fill="#0F423C" fill-opacity="0.3"/>
<path d="M17.8125 36.2504V36.8759C17.8125 37.1878 17.5638 37.469 17.2501 37.4996C17.2195 37.4996 17.2195 37.4996 17.1889 37.4996H13.1256C13.095 37.4996 13.095 37.4996 13.0624 37.4996C12.7506 37.469 12.5 37.1878 12.5 36.8759V36.2504C12.5 36.5947 12.7812 36.8759 13.1256 36.8759H17.1889C17.5313 36.8759 17.8125 36.5947 17.8125 36.2504Z" fill="#0F423C" fill-opacity="0.3"/>
<path d="M26.877 36.2504V36.8759C26.877 37.1878 26.6264 37.469 26.3146 37.4996C26.282 37.4996 26.282 37.4996 26.2514 37.4996H22.1881C22.1575 37.4996 22.1575 37.4996 22.1269 37.4996C21.8131 37.469 21.5645 37.1878 21.5645 36.8759V36.2504C21.5645 36.5947 21.8457 36.8759 22.1881 36.8759H26.2514C26.5958 36.8759 26.877 36.5947 26.877 36.2504Z" fill="#0F423C" fill-opacity="0.3"/>
<path d="M36.2502 5.62439V6.24996C36.2502 5.90561 35.9689 5.62439 35.6246 5.62439H4.06307C3.71872 5.62439 3.4375 5.90561 3.4375 6.24996V5.62439C3.4375 5.31256 3.68811 5.03134 3.99994 5.00073C4.03055 5.00073 4.03055 5.00073 4.06307 5.00073H35.6246C35.6571 5.00073 35.6571 5.00073 35.6877 5.00073C36.0015 5.03134 36.2502 5.31256 36.2502 5.62439Z" fill="#0F423C" fill-opacity="0.3"/>
<path d="M8.75004 29.0631V29.6886C8.75004 29.3443 8.46883 29.0631 8.12448 29.0631H4.06307C3.71872 29.0631 3.4375 29.3443 3.4375 29.6886V29.0631C3.4375 28.7493 3.68811 28.4681 3.99994 28.4375C4.03055 28.4375 4.03055 28.4375 4.06307 28.4375H8.12448C8.157 28.4375 8.157 28.4375 8.18761 28.4375C8.49943 28.4681 8.75004 28.7493 8.75004 29.0631Z" fill="#0F423C" fill-opacity="0.3"/>
<path d="M36.2503 29.0631V29.6886C36.2503 29.3443 35.9691 29.0631 35.6248 29.0631H31.2515C30.9072 29.0631 30.626 29.3443 30.626 29.6886V29.0631C30.626 28.7493 30.8766 28.4681 31.1884 28.4375C31.219 28.4375 31.219 28.4375 31.2515 28.4375H35.6248C35.6573 28.4375 35.6573 28.4375 35.6879 28.4375C36.0017 28.4681 36.2503 28.7493 36.2503 29.0631Z" fill="#0F423C" fill-opacity="0.3"/>
<path d="M17.8125 29.0631V29.6886C17.8125 29.3443 17.5313 29.0631 17.1889 29.0631H13.1256C12.7812 29.0631 12.5 29.3443 12.5 29.6886V29.0631C12.5 28.7493 12.7506 28.4681 13.0624 28.4375C13.095 28.4375 13.095 28.4375 13.1256 28.4375H17.1889C17.2195 28.4375 17.2195 28.4375 17.2501 28.4375C17.5638 28.4681 17.8125 28.7493 17.8125 29.0631Z" fill="#0F423C" fill-opacity="0.3"/>
<path d="M26.877 29.0631V29.6886C26.877 29.3443 26.5958 29.0631 26.2514 29.0631H22.1881C21.8457 29.0631 21.5645 29.3443 21.5645 29.6886V29.0631C21.5645 28.7493 21.8131 28.4681 22.1269 28.4375C22.1575 28.4375 22.1575 28.4375 22.1881 28.4375H26.2514C26.282 28.4375 26.282 28.4375 26.3146 28.4375C26.6264 28.4681 26.877 28.7493 26.877 29.0631Z" fill="#0F423C" fill-opacity="0.3"/>
<path d="M16.5629 19.7197V20.3433L14.8125 18.5317C14.7819 18.4686 14.6882 18.4379 14.5944 18.4379C14.5007 18.4379 14.4375 18.4686 14.3744 18.5317L10.1561 23.0006L8.25074 21.0627C8.12448 20.9383 7.937 20.9383 7.81265 21.0627L3.4375 25.1872V24.5635L7.81265 20.4371C7.937 20.3127 8.12448 20.3127 8.25074 20.4371L10.1561 22.375L14.3744 17.9061C14.4375 17.843 14.5313 17.8124 14.5944 17.8124C14.6882 17.8124 14.7494 17.843 14.8125 17.9061L16.5629 19.7197Z" fill="#0F423C" fill-opacity="0.3"/>
<path d="M16.5633 24.6879V25.3134C16.5633 25.6253 16.3127 25.9065 16.0009 25.9371C15.9684 25.9371 15.9684 25.9371 15.9377 25.9371H4.06343C3.93717 25.9371 3.81282 25.8759 3.68848 25.8127L4.21839 25.3134H15.9377C16.2821 25.3134 16.5633 25.0322 16.5633 24.6879Z" fill="#72492D" fill-opacity="0.4"/>
<path d="M16.5629 15.9376V16.5631C16.5629 16.2188 16.2817 15.9376 15.9374 15.9376H4.06307C3.71872 15.9376 3.4375 16.2188 3.4375 16.5631V15.9376C3.4375 15.6258 3.68811 15.3445 3.99994 15.312C4.03055 15.312 4.03055 15.312 4.06307 15.312H15.9374C15.968 15.312 15.968 15.312 16.0005 15.312C16.3123 15.3445 16.5629 15.6258 16.5629 15.9376Z" fill="#BDDEE0" fill-opacity="0.5"/>
<path d="M8.7502 19.0616C8.7502 19.3754 8.49959 19.6566 8.18776 19.6872C8.15715 19.6872 8.15715 19.6872 8.12463 19.6872C8.09402 19.6872 8.09402 19.6872 8.06341 19.6872C7.74967 19.6566 7.50098 19.3754 7.50098 19.0616C7.50098 18.9373 7.53159 18.8436 7.59472 18.7498C7.68846 18.9373 7.90654 19.0616 8.12463 19.0616C8.34463 19.0616 8.56272 18.9373 8.65646 18.7498C8.71959 18.8436 8.7502 18.9373 8.7502 19.0616Z" fill="#9FA5AA" fill-opacity="0.5"/>
</svg>
