<svg width="501" height="501" viewBox="0 0 501 501" fill="none" xmlns="http://www.w3.org/2000/svg">
<mask id="mask0_829_948" style="mask-type:luminance" maskUnits="userSpaceOnUse" x="245" y="158" width="120" height="137">
<path d="M245.406 158.007H364.611V294.681H245.406V158.007Z" fill="white"/>
</mask>
<g mask="url(#mask0_829_948)">
<mask id="mask1_829_948" style="mask-type:luminance" maskUnits="userSpaceOnUse" x="246" y="158" width="119" height="137">
<path d="M364.491 158.495H334.599C331.181 158.409 325.441 158.691 319.663 161.478C313.066 164.658 309.629 169.566 308.03 171.917C301.356 181.748 277.757 219.09 246.59 270.342C257.671 278.292 268.733 286.252 279.804 294.202C308.03 248.969 336.265 203.728 364.491 158.495Z" fill="white"/>
</mask>
<g mask="url(#mask1_829_948)">
<path d="M-7.91211 -7.03174H508.653V507.416H-7.91211V-7.03174Z" fill="#90BDDB"/>
</g>
</g>
<mask id="mask2_829_948" style="mask-type:luminance" maskUnits="userSpaceOnUse" x="259" y="283" width="161" height="213">
<path d="M259.061 283.738H419.905V495.515H259.061V283.738Z" fill="white"/>
</mask>
<g mask="url(#mask2_829_948)">
<mask id="mask3_829_948" style="mask-type:luminance" maskUnits="userSpaceOnUse" x="259" y="283" width="161" height="212">
<path d="M368.41 283.764C385.365 314.592 402.319 345.394 419.293 376.222C393.847 413.008 368.41 449.786 342.974 486.573C342.307 487.334 341.193 488.454 339.585 489.556C339.585 489.556 338.88 490.035 337.69 490.642C337.69 490.642 335.501 491.779 332.788 492.54C330.103 493.318 318.346 494.267 302.267 494.027C299.231 492.557 294.909 490.18 290.396 486.573C290.396 486.573 285.037 482.298 280.22 476.134C269.225 462.054 260.352 434.441 259.857 432.885C296.042 383.189 332.226 333.468 368.391 283.764" fill="white"/>
</mask>
<g mask="url(#mask3_829_948)">
<path d="M-7.91406 -7.03271H508.651V507.415H-7.91406V-7.03271Z" fill="#5997C6"/>
</g>
</g>
<mask id="mask4_829_948" style="mask-type:luminance" maskUnits="userSpaceOnUse" x="249" y="334" width="252" height="167">
<path d="M249.312 334.939H500.374V500.406H249.312V334.939Z" fill="white"/>
</mask>
<g mask="url(#mask4_829_948)">
<mask id="mask5_829_948" style="mask-type:luminance" maskUnits="userSpaceOnUse" x="249" y="335" width="252" height="166">
<path d="M490.695 335.956H444.201C441.716 336.597 437.956 337.862 434.243 340.427C425.79 346.266 423.267 354.926 422.62 356.833C419.259 366.801 397.193 402.51 342.912 482.102C341.779 483.282 339.618 485.205 336.267 486.573C334.287 487.377 332.545 487.719 329.622 488.069C318.218 489.42 309.964 488.334 308.032 488.069C303.748 487.471 302.139 486.872 301.396 486.573C297.008 484.829 294.399 482.068 293.095 480.606C284.689 471.211 275.17 454.301 273.161 450.787C270.953 446.888 267.621 441.195 263.204 434.381C258.767 438.365 254.35 442.332 249.914 446.307C250.495 451.454 253.103 467.834 268.182 482.102C282.281 495.447 298.883 498.995 304.719 499.995C310.906 500.115 365.606 501.038 394.384 498.508C397.954 498.191 404.266 497.55 410.987 494.028C421.896 488.334 426.97 478.7 429.255 473.151C460.356 421.216 483.288 382.634 494.017 365.784C496.511 361.86 503.223 351.763 499.005 343.411C497.054 339.564 493.408 337.273 490.695 335.956Z" fill="white"/>
</mask>
<g mask="url(#mask5_829_948)">
<path d="M-7.90625 -7.03174H508.659V507.416H-7.90625V-7.03174Z" fill="#3E7FB6"/>
</g>
</g>
<mask id="mask6_829_948" style="mask-type:luminance" maskUnits="userSpaceOnUse" x="71" y="0" width="332" height="303">
<path d="M71.5605 0.405762H402.692V302.23H71.5605V0.405762Z" fill="white"/>
</mask>
<g mask="url(#mask6_829_948)">
<mask id="mask7_829_948" style="mask-type:luminance" maskUnits="userSpaceOnUse" x="72" y="0" width="330" height="302">
<path d="M72.2393 174.9C72.8486 177.303 74.9238 180.671 82.1969 183.851H122.056C147.511 223.117 172.986 262.391 198.441 301.657C215.044 279.78 231.646 257.92 248.258 236.043C293.095 163.462 337.923 90.8974 382.761 18.316H396.05C397.612 17.6321 400.03 16.2642 401.029 13.8449C402.743 9.68147 399.649 3.74843 392.728 0.422852H319.665C317.266 1.3376 314.315 2.72254 311.354 4.894C304.919 9.63872 302.139 15.3495 301.396 16.8285C296.979 25.4887 259.815 87.6146 208.399 173.413C202.306 165.958 196.233 158.495 190.14 151.04C187.932 150.04 185.704 149.057 183.495 148.056C178.507 147.056 173.528 146.073 168.55 145.073C132.146 141.679 105.111 140.26 97.1427 140.602C96.4668 140.636 87.6421 141.123 83.8628 145.073C81.5686 147.466 81.321 149.45 80.5404 154.024C78.4937 165.898 70.6114 168.548 72.2393 174.9Z" fill="white"/>
</mask>
<g mask="url(#mask7_829_948)">
<path d="M-7.90625 -7.03174H508.659V507.416H-7.90625V-7.03174Z" fill="#3D9BD5"/>
</g>
</g>
<mask id="mask8_829_948" style="mask-type:luminance" maskUnits="userSpaceOnUse" x="81" y="140" width="243" height="282">
<path d="M81.1582 140.166H323.224V421.173H81.1582V140.166Z" fill="white"/>
</mask>
<g mask="url(#mask8_829_948)">
<mask id="mask9_829_948" style="mask-type:luminance" maskUnits="userSpaceOnUse" x="81" y="140" width="242" height="281">
<path d="M88.0134 157.75C89.07 157.109 92.459 155.228 97.1427 155.51C102.94 155.869 106.424 159.289 107.11 159.99C163.019 246.976 218.918 333.971 274.827 420.958C290.887 399.081 306.927 377.221 322.978 355.344C285.765 296.022 257.406 250.832 239.957 222.62C231.513 208.976 221.755 196.032 213.387 182.354C198.603 158.211 196.061 150.774 185.152 145.071C177.384 141.019 170.911 140.737 140.314 140.6C125.892 140.54 108.557 140.515 88.8416 140.6C82.3492 144.285 80.074 150.321 82.1969 154.022C83.5962 156.442 86.5949 157.408 88.0134 157.75Z" fill="white"/>
</mask>
<g mask="url(#mask9_829_948)">
<path d="M-7.90625 -7.03271H508.659V507.415H-7.90625V-7.03271Z" fill="#036FA7"/>
</g>
</g>
<mask id="mask10_829_948" style="mask-type:luminance" maskUnits="userSpaceOnUse" x="0" y="140" width="304" height="361">
<path d="M0.375 140.166H303.357V500.405H0.375V140.166Z" fill="white"/>
</mask>
<g mask="url(#mask10_829_948)">
<mask id="mask11_829_948" style="mask-type:luminance" maskUnits="userSpaceOnUse" x="0" y="140" width="304" height="361">
<path d="M70.5728 140.601H10.7894C7.85733 142.08 2.42161 145.406 0.831824 151.039C-0.43429 155.485 1.24117 159.409 4.15418 165.958C5.42982 168.83 6.32467 170.856 7.5527 172.993C9.17104 175.78 10.6466 177.687 10.7894 177.883C13.4168 181.406 63.652 269.264 178.507 471.663C180.334 477.211 183.971 484.991 191.796 491.044C202.658 499.473 215.643 499.815 244.935 499.994C269.448 500.148 289.468 500.089 303.052 499.994C301.843 499.729 300.101 499.268 298.074 498.507C294.504 497.165 291.99 495.549 289.772 494.027C283.908 490.018 279.577 487.068 274.827 482.101C271.552 478.682 270.143 476.493 264.859 468.679C261.918 464.336 257.387 457.677 251.58 449.29C259.329 439.852 267.068 430.397 274.827 420.959C261.537 398.098 248.257 375.221 234.968 352.361C228.333 361.799 221.688 371.254 215.043 380.693C203.467 360.295 191.844 339.905 180.173 319.55C147.311 262.228 114.097 205.052 80.5399 148.056C77.2175 145.568 73.8952 143.089 70.5728 140.601Z" fill="white"/>
</mask>
<g mask="url(#mask11_829_948)">
<path d="M-7.91016 -7.03271H508.655V507.415H-7.91016V-7.03271Z" fill="#185D97"/>
</g>
</g>
<mask id="mask12_829_948" style="mask-type:luminance" maskUnits="userSpaceOnUse" x="276" y="140" width="179" height="219">
<path d="M276.863 140.166H454.024V358.73H276.863V140.166Z" fill="white"/>
</mask>
<g mask="url(#mask12_829_948)">
<mask id="mask13_829_948" style="mask-type:luminance" maskUnits="userSpaceOnUse" x="278" y="140" width="175" height="219">
<path d="M278.148 294.202C326.67 216.525 359.046 163.042 362.835 152.535C363.33 151.142 365.263 145.166 371.136 142.097C375.487 139.814 380.466 139.943 384.416 140.601H437.555C440.516 140.421 445.78 140.498 449.179 143.584C449.179 143.584 452.453 146.534 452.501 152.535C452.606 165.906 345.414 325.098 322.976 358.328C308.031 336.955 293.094 315.574 278.148 294.202Z" fill="white"/>
</mask>
<g mask="url(#mask13_829_948)">
<path d="M-7.91016 -7.03174H508.655V507.416H-7.91016V-7.03174Z" fill="#0890CE"/>
</g>
</g>
<mask id="mask14_829_948" style="mask-type:luminance" maskUnits="userSpaceOnUse" x="232" y="288" width="92" height="134">
<path d="M232.26 288.116H323.23V421.173H232.26V288.116Z" fill="white"/>
</mask>
<g mask="url(#mask14_829_948)">
<mask id="mask15_829_948" style="mask-type:luminance" maskUnits="userSpaceOnUse" x="233" y="288" width="90" height="133">
<path d="M281.465 288.235C265.415 310.608 249.374 332.973 233.314 355.345C247.147 377.222 260.998 399.082 274.83 420.959C290.889 400.083 306.93 379.206 322.98 358.329C309.148 334.956 295.306 311.608 281.465 288.235Z" fill="white"/>
</mask>
<g mask="url(#mask15_829_948)">
<path d="M-7.9043 -7.03174H508.661V507.416H-7.9043V-7.03174Z" fill="#034275"/>
</g>
</g>
<mask id="mask16_829_948" style="mask-type:luminance" maskUnits="userSpaceOnUse" x="166" y="380" width="140" height="121">
<path d="M166.457 380.035H305.016V500.406H166.457V380.035Z" fill="white"/>
</mask>
<g mask="url(#mask16_829_948)">
<mask id="mask17_829_948" style="mask-type:luminance" maskUnits="userSpaceOnUse" x="166" y="380" width="139" height="121">
<path d="M215.045 380.692C198.985 404.065 182.944 427.413 166.885 450.786C171.235 462.225 176.185 471.21 180.174 477.63C186.105 487.154 190.018 491.12 195.12 494.027C199.985 496.806 205.049 498.088 206.744 498.507C212.103 499.832 216.758 500.054 220.023 499.994H304.72C297.161 496.925 286.414 491.539 276.485 482.101C271.801 477.639 268.431 473.373 261.539 462.712C249.106 443.494 241.414 428.49 233.313 413.504C229.277 406.049 223.051 394.67 215.045 380.692Z" fill="white"/>
</mask>
<g mask="url(#mask17_829_948)">
<path d="M-7.90625 -7.03174H508.659V507.416H-7.90625V-7.03174Z" fill="#04264E"/>
</g>
</g>
</svg>
