<svg xmlns="http://www.w3.org/2000/svg" xmlns:xlink="http://www.w3.org/1999/xlink" width="500" zoomAndPan="magnify" viewBox="0 0 375 374.999991" height="500" preserveAspectRatio="xMidYMid meet" version="1.0"><defs><g/></defs><rect x="-37.5" width="450" fill="#ffffff" y="-37.499999" height="449.999989" fill-opacity="1"/><rect x="-37.5" width="450" fill="#ffffff" y="-37.499999" height="449.999989" fill-opacity="1"/><g fill="#000e4d" fill-opacity="1"><g transform="translate(64.247765, 252.053112)"><g><path d="M 25.984375 -20.953125 L 30.71875 -20.953125 L 24.28125 0 L 20.234375 0 L 15.53125 -11.734375 L 11.015625 0 L 6.96875 0 L 0.359375 -20.953125 L 5.171875 -20.953125 L 9.28125 -7.03125 L 14.796875 -20.75 L 16.3125 -20.75 L 21.96875 -7.03125 Z M 25.984375 -20.953125 "/></g></g></g><g fill="#000e4d" fill-opacity="1"><g transform="translate(101.392292, 252.053112)"><g><path d="M 6.953125 -4.21875 L 15.296875 -4.21875 L 15.296875 0 L 2.390625 0 L 2.390625 -20.953125 L 14.96875 -20.953125 L 14.96875 -16.765625 L 6.953125 -16.765625 L 6.953125 -12.640625 L 14.1875 -12.640625 L 14.1875 -8.53125 L 6.953125 -8.53125 Z M 6.953125 -4.21875 "/></g></g></g><g fill="#000e4d" fill-opacity="1"><g transform="translate(124.110707, 252.053112)"><g><path d="M 15 -11.046875 C 15.914062 -10.566406 16.628906 -9.890625 17.140625 -9.015625 C 17.648438 -8.148438 17.90625 -7.160156 17.90625 -6.046875 C 17.90625 -4.929688 17.609375 -3.910156 17.015625 -2.984375 C 16.429688 -2.066406 15.632812 -1.335938 14.625 -0.796875 C 13.613281 -0.265625 12.507812 0 11.3125 0 L 2.390625 0 L 2.390625 -20.953125 L 11.078125 -20.953125 C 12.273438 -20.953125 13.347656 -20.71875 14.296875 -20.25 C 15.242188 -19.78125 15.988281 -19.132812 16.53125 -18.3125 C 17.082031 -17.5 17.359375 -16.582031 17.359375 -15.5625 C 17.359375 -14.664062 17.148438 -13.816406 16.734375 -13.015625 C 16.316406 -12.222656 15.738281 -11.566406 15 -11.046875 Z M 12.96875 -14.84375 C 12.96875 -15.507812 12.753906 -16.050781 12.328125 -16.46875 C 11.910156 -16.882812 11.34375 -17.09375 10.625 -17.09375 L 6.859375 -17.09375 L 6.859375 -12.640625 L 10.625 -12.640625 C 11.34375 -12.640625 11.910156 -12.847656 12.328125 -13.265625 C 12.753906 -13.679688 12.96875 -14.207031 12.96875 -14.84375 Z M 10.875 -4.15625 C 11.625 -4.15625 12.222656 -4.375 12.671875 -4.8125 C 13.128906 -5.257812 13.359375 -5.832031 13.359375 -6.53125 C 13.359375 -7.207031 13.128906 -7.765625 12.671875 -8.203125 C 12.222656 -8.640625 11.625 -8.859375 10.875 -8.859375 L 6.859375 -8.859375 L 6.859375 -4.15625 Z M 10.875 -4.15625 "/></g></g></g><g fill="#000e4d" fill-opacity="1"><g transform="translate(149.31329, 252.053112)"><g/></g></g><g fill="#000e4d" fill-opacity="1"><g transform="translate(162.454202, 252.053112)"><g><path d="M 15.6875 -20.953125 L 20.625 -20.953125 L 12.71875 0 L 8.4375 0 L 0.234375 -20.953125 L 5.234375 -20.953125 L 10.53125 -6.140625 Z M 15.6875 -20.953125 "/></g></g></g><g fill="#000e4d" fill-opacity="1"><g transform="translate(189.452553, 252.053112)"><g><path d="M 12.328125 0.453125 C 10.734375 0.453125 9.257812 0.175781 7.90625 -0.375 C 6.550781 -0.925781 5.367188 -1.691406 4.359375 -2.671875 C 3.347656 -3.660156 2.5625 -4.816406 2 -6.140625 C 1.445312 -7.472656 1.171875 -8.921875 1.171875 -10.484375 C 1.171875 -12.035156 1.445312 -13.472656 2 -14.796875 C 2.5625 -16.128906 3.347656 -17.289062 4.359375 -18.28125 C 5.367188 -19.269531 6.550781 -20.035156 7.90625 -20.578125 C 9.257812 -21.128906 10.734375 -21.40625 12.328125 -21.40625 C 13.929688 -21.40625 15.410156 -21.128906 16.765625 -20.578125 C 18.117188 -20.035156 19.296875 -19.269531 20.296875 -18.28125 C 21.296875 -17.289062 22.070312 -16.128906 22.625 -14.796875 C 23.1875 -13.472656 23.46875 -12.035156 23.46875 -10.484375 C 23.46875 -8.921875 23.1875 -7.472656 22.625 -6.140625 C 22.070312 -4.816406 21.296875 -3.660156 20.296875 -2.671875 C 19.296875 -1.691406 18.117188 -0.925781 16.765625 -0.375 C 15.410156 0.175781 13.929688 0.453125 12.328125 0.453125 Z M 12.328125 -3.828125 C 13.585938 -3.828125 14.710938 -4.113281 15.703125 -4.6875 C 16.691406 -5.269531 17.46875 -6.0625 18.03125 -7.0625 C 18.601562 -8.0625 18.890625 -9.203125 18.890625 -10.484375 C 18.890625 -11.734375 18.601562 -12.863281 18.03125 -13.875 C 17.46875 -14.882812 16.691406 -15.675781 15.703125 -16.25 C 14.710938 -16.832031 13.585938 -17.125 12.328125 -17.125 C 11.097656 -17.125 9.984375 -16.832031 8.984375 -16.25 C 7.984375 -15.675781 7.191406 -14.882812 6.609375 -13.875 C 6.035156 -12.863281 5.75 -11.734375 5.75 -10.484375 C 5.75 -9.222656 6.035156 -8.085938 6.609375 -7.078125 C 7.191406 -6.066406 7.984375 -5.269531 8.984375 -4.6875 C 9.984375 -4.113281 11.097656 -3.828125 12.328125 -3.828125 Z M 12.328125 -3.828125 "/></g></g></g><g fill="#000e4d" fill-opacity="1"><g transform="translate(220.072408, 252.053112)"><g><path d="M 13.921875 0 L 9.84375 -7.15625 L 6.953125 -7.15625 L 6.953125 0 L 2.390625 0 L 2.390625 -20.953125 L 10.875 -20.953125 C 12.269531 -20.953125 13.515625 -20.648438 14.609375 -20.046875 C 15.703125 -19.453125 16.566406 -18.632812 17.203125 -17.59375 C 17.847656 -16.5625 18.171875 -15.367188 18.171875 -14.015625 C 18.171875 -12.648438 17.828125 -11.429688 17.140625 -10.359375 C 16.453125 -9.296875 15.53125 -8.488281 14.375 -7.9375 L 19.015625 0 Z M 6.953125 -16.765625 L 6.953125 -11.34375 L 10.5625 -11.34375 C 11.5 -11.34375 12.238281 -11.597656 12.78125 -12.109375 C 13.320312 -12.617188 13.59375 -13.265625 13.59375 -14.046875 C 13.59375 -14.835938 13.320312 -15.488281 12.78125 -16 C 12.238281 -16.507812 11.5 -16.765625 10.5625 -16.765625 Z M 6.953125 -16.765625 "/></g></g></g><g fill="#000e4d" fill-opacity="1"><g transform="translate(245.843655, 252.053112)"><g><path d="M 16.859375 -20.953125 L 16.859375 -16.734375 L 11.015625 -16.734375 L 11.015625 0 L 6.46875 0 L 6.46875 -16.734375 L 0.65625 -16.734375 L 0.65625 -20.953125 Z M 16.859375 -20.953125 "/></g></g></g><g fill="#000e4d" fill-opacity="1"><g transform="translate(269.310312, 252.053112)"><g><path d="M 6.953125 -4.21875 L 15.296875 -4.21875 L 15.296875 0 L 2.390625 0 L 2.390625 -20.953125 L 14.96875 -20.953125 L 14.96875 -16.765625 L 6.953125 -16.765625 L 6.953125 -12.640625 L 14.1875 -12.640625 L 14.1875 -8.53125 L 6.953125 -8.53125 Z M 6.953125 -4.21875 "/></g></g></g><g fill="#000e4d" fill-opacity="1"><g transform="translate(292.028733, 252.053112)"><g><path d="M 18.625 0 L 13.53125 0 L 9.40625 -7.1875 L 5.203125 0 L 0.125 0 L 6.640625 -10.984375 L 0.53125 -20.953125 L 5.625 -20.953125 L 9.375 -14.484375 L 13.140625 -20.953125 L 18.109375 -20.953125 L 12.09375 -10.84375 Z M 18.625 0 "/></g></g></g><g fill="#000e4d" fill-opacity="1"><g transform="translate(121.790439, 274.213897)"><g><path d="M 3.375 0.15625 C 2.789062 0.15625 2.28125 0.0507812 1.84375 -0.15625 C 1.40625 -0.363281 1.0625 -0.660156 0.8125 -1.046875 C 0.5625 -1.441406 0.4375 -1.910156 0.4375 -2.453125 L 2.09375 -2.453125 C 2.09375 -2.085938 2.21875 -1.816406 2.46875 -1.640625 C 2.726562 -1.460938 3.023438 -1.375 3.359375 -1.375 C 3.566406 -1.375 3.757812 -1.40625 3.9375 -1.46875 C 4.125 -1.539062 4.273438 -1.640625 4.390625 -1.765625 C 4.515625 -1.898438 4.578125 -2.0625 4.578125 -2.25 C 4.578125 -2.445312 4.507812 -2.597656 4.375 -2.703125 C 4.238281 -2.816406 4.054688 -2.910156 3.828125 -2.984375 C 3.597656 -3.054688 3.34375 -3.128906 3.0625 -3.203125 C 2.78125 -3.265625 2.492188 -3.34375 2.203125 -3.4375 C 1.910156 -3.53125 1.632812 -3.648438 1.375 -3.796875 C 1.125 -3.953125 0.921875 -4.160156 0.765625 -4.421875 C 0.617188 -4.691406 0.546875 -5.03125 0.546875 -5.4375 C 0.546875 -6.15625 0.789062 -6.710938 1.28125 -7.109375 C 1.78125 -7.503906 2.453125 -7.703125 3.296875 -7.703125 C 4.160156 -7.703125 4.828125 -7.484375 5.296875 -7.046875 C 5.773438 -6.609375 6.015625 -6.015625 6.015625 -5.265625 L 4.390625 -5.265625 C 4.390625 -5.585938 4.273438 -5.828125 4.046875 -5.984375 C 3.816406 -6.140625 3.550781 -6.21875 3.25 -6.21875 C 2.976562 -6.21875 2.734375 -6.160156 2.515625 -6.046875 C 2.296875 -5.929688 2.1875 -5.75 2.1875 -5.5 C 2.1875 -5.320312 2.25 -5.179688 2.375 -5.078125 C 2.507812 -4.972656 2.6875 -4.882812 2.90625 -4.8125 C 3.125 -4.75 3.367188 -4.6875 3.640625 -4.625 C 3.929688 -4.550781 4.226562 -4.460938 4.53125 -4.359375 C 4.832031 -4.265625 5.109375 -4.132812 5.359375 -3.96875 C 5.617188 -3.800781 5.828125 -3.582031 5.984375 -3.3125 C 6.148438 -3.039062 6.234375 -2.695312 6.234375 -2.28125 C 6.234375 -1.726562 6.101562 -1.269531 5.84375 -0.90625 C 5.582031 -0.550781 5.234375 -0.285156 4.796875 -0.109375 C 4.367188 0.0664062 3.894531 0.15625 3.375 0.15625 Z M 3.375 0.15625 "/></g></g></g><g fill="#000e4d" fill-opacity="1"><g transform="translate(137.102634, 274.213897)"><g><path d="M 4.453125 0.15625 C 3.867188 0.15625 3.332031 0.0546875 2.84375 -0.140625 C 2.351562 -0.335938 1.925781 -0.613281 1.5625 -0.96875 C 1.207031 -1.320312 0.925781 -1.738281 0.71875 -2.21875 C 0.519531 -2.695312 0.421875 -3.21875 0.421875 -3.78125 C 0.421875 -4.34375 0.519531 -4.863281 0.71875 -5.34375 C 0.925781 -5.820312 1.207031 -6.238281 1.5625 -6.59375 C 1.925781 -6.945312 2.351562 -7.222656 2.84375 -7.421875 C 3.332031 -7.617188 3.867188 -7.71875 4.453125 -7.71875 C 5.023438 -7.71875 5.554688 -7.617188 6.046875 -7.421875 C 6.535156 -7.222656 6.957031 -6.945312 7.3125 -6.59375 C 7.675781 -6.238281 7.957031 -5.820312 8.15625 -5.34375 C 8.363281 -4.863281 8.46875 -4.34375 8.46875 -3.78125 C 8.46875 -3.21875 8.363281 -2.695312 8.15625 -2.21875 C 7.957031 -1.738281 7.675781 -1.320312 7.3125 -0.96875 C 6.957031 -0.613281 6.535156 -0.335938 6.046875 -0.140625 C 5.554688 0.0546875 5.023438 0.15625 4.453125 0.15625 Z M 4.453125 -1.375 C 4.898438 -1.375 5.300781 -1.476562 5.65625 -1.6875 C 6.019531 -1.90625 6.300781 -2.191406 6.5 -2.546875 C 6.707031 -2.910156 6.8125 -3.320312 6.8125 -3.78125 C 6.8125 -4.226562 6.707031 -4.632812 6.5 -5 C 6.300781 -5.363281 6.019531 -5.648438 5.65625 -5.859375 C 5.300781 -6.066406 4.898438 -6.171875 4.453125 -6.171875 C 4.003906 -6.171875 3.597656 -6.066406 3.234375 -5.859375 C 2.878906 -5.648438 2.597656 -5.363281 2.390625 -5 C 2.179688 -4.632812 2.078125 -4.226562 2.078125 -3.78125 C 2.078125 -3.320312 2.179688 -2.910156 2.390625 -2.546875 C 2.597656 -2.191406 2.878906 -1.90625 3.234375 -1.6875 C 3.597656 -1.476562 4.003906 -1.375 4.453125 -1.375 Z M 4.453125 -1.375 "/></g></g></g><g fill="#000e4d" fill-opacity="1"><g transform="translate(154.614201, 274.213897)"><g><path d="M 2.5 -1.515625 L 5.390625 -1.515625 L 5.390625 0 L 0.859375 0 L 0.859375 -7.5625 L 2.5 -7.5625 Z M 2.5 -1.515625 "/></g></g></g><g fill="#000e4d" fill-opacity="1"><g transform="translate(168.880625, 274.213897)"><g><path d="M 3.90625 0.15625 C 3.3125 0.15625 2.78125 0.03125 2.3125 -0.21875 C 1.84375 -0.476562 1.46875 -0.832031 1.1875 -1.28125 C 0.914062 -1.726562 0.78125 -2.25 0.78125 -2.84375 L 0.78125 -7.5625 L 2.421875 -7.5625 L 2.421875 -2.921875 C 2.421875 -2.453125 2.5625 -2.078125 2.84375 -1.796875 C 3.125 -1.515625 3.476562 -1.375 3.90625 -1.375 C 4.34375 -1.375 4.695312 -1.515625 4.96875 -1.796875 C 5.25 -2.078125 5.390625 -2.453125 5.390625 -2.921875 L 5.390625 -7.5625 L 7.03125 -7.5625 L 7.03125 -2.84375 C 7.03125 -2.25 6.894531 -1.726562 6.625 -1.28125 C 6.351562 -0.832031 5.976562 -0.476562 5.5 -0.21875 C 5.03125 0.03125 4.5 0.15625 3.90625 0.15625 Z M 3.90625 0.15625 "/></g></g></g><g fill="#000e4d" fill-opacity="1"><g transform="translate(185.324857, 274.213897)"><g><path d="M 6.078125 -7.5625 L 6.078125 -6.03125 L 3.96875 -6.03125 L 3.96875 0 L 2.328125 0 L 2.328125 -6.03125 L 0.234375 -6.03125 L 0.234375 -7.5625 Z M 6.078125 -7.5625 "/></g></g></g><g fill="#000e4d" fill-opacity="1"><g transform="translate(200.259716, 274.213897)"><g><path d="M 0.859375 0 L 0.859375 -7.5625 L 2.5 -7.5625 L 2.5 0 Z M 0.859375 0 "/></g></g></g><g fill="#000e4d" fill-opacity="1"><g transform="translate(212.262073, 274.213897)"><g><path d="M 4.453125 0.15625 C 3.867188 0.15625 3.332031 0.0546875 2.84375 -0.140625 C 2.351562 -0.335938 1.925781 -0.613281 1.5625 -0.96875 C 1.207031 -1.320312 0.925781 -1.738281 0.71875 -2.21875 C 0.519531 -2.695312 0.421875 -3.21875 0.421875 -3.78125 C 0.421875 -4.34375 0.519531 -4.863281 0.71875 -5.34375 C 0.925781 -5.820312 1.207031 -6.238281 1.5625 -6.59375 C 1.925781 -6.945312 2.351562 -7.222656 2.84375 -7.421875 C 3.332031 -7.617188 3.867188 -7.71875 4.453125 -7.71875 C 5.023438 -7.71875 5.554688 -7.617188 6.046875 -7.421875 C 6.535156 -7.222656 6.957031 -6.945312 7.3125 -6.59375 C 7.675781 -6.238281 7.957031 -5.820312 8.15625 -5.34375 C 8.363281 -4.863281 8.46875 -4.34375 8.46875 -3.78125 C 8.46875 -3.21875 8.363281 -2.695312 8.15625 -2.21875 C 7.957031 -1.738281 7.675781 -1.320312 7.3125 -0.96875 C 6.957031 -0.613281 6.535156 -0.335938 6.046875 -0.140625 C 5.554688 0.0546875 5.023438 0.15625 4.453125 0.15625 Z M 4.453125 -1.375 C 4.898438 -1.375 5.300781 -1.476562 5.65625 -1.6875 C 6.019531 -1.90625 6.300781 -2.191406 6.5 -2.546875 C 6.707031 -2.910156 6.8125 -3.320312 6.8125 -3.78125 C 6.8125 -4.226562 6.707031 -4.632812 6.5 -5 C 6.300781 -5.363281 6.019531 -5.648438 5.65625 -5.859375 C 5.300781 -6.066406 4.898438 -6.171875 4.453125 -6.171875 C 4.003906 -6.171875 3.597656 -6.066406 3.234375 -5.859375 C 2.878906 -5.648438 2.597656 -5.363281 2.390625 -5 C 2.179688 -4.632812 2.078125 -4.226562 2.078125 -3.78125 C 2.078125 -3.320312 2.179688 -2.910156 2.390625 -2.546875 C 2.597656 -2.191406 2.878906 -1.90625 3.234375 -1.6875 C 3.597656 -1.476562 4.003906 -1.375 4.453125 -1.375 Z M 4.453125 -1.375 "/></g></g></g><g fill="#000e4d" fill-opacity="1"><g transform="translate(229.773644, 274.213897)"><g><path d="M 5.65625 -7.5625 L 7.25 -7.5625 L 7.25 0 L 5.890625 0 L 2.46875 -4.71875 L 2.46875 0 L 0.859375 0 L 0.859375 -7.5625 L 2.34375 -7.5625 L 5.65625 -2.953125 Z M 5.65625 -7.5625 "/></g></g></g><g fill="#000e4d" fill-opacity="1"><g transform="translate(246.519748, 274.213897)"><g><path d="M 3.375 0.15625 C 2.789062 0.15625 2.28125 0.0507812 1.84375 -0.15625 C 1.40625 -0.363281 1.0625 -0.660156 0.8125 -1.046875 C 0.5625 -1.441406 0.4375 -1.910156 0.4375 -2.453125 L 2.09375 -2.453125 C 2.09375 -2.085938 2.21875 -1.816406 2.46875 -1.640625 C 2.726562 -1.460938 3.023438 -1.375 3.359375 -1.375 C 3.566406 -1.375 3.757812 -1.40625 3.9375 -1.46875 C 4.125 -1.539062 4.273438 -1.640625 4.390625 -1.765625 C 4.515625 -1.898438 4.578125 -2.0625 4.578125 -2.25 C 4.578125 -2.445312 4.507812 -2.597656 4.375 -2.703125 C 4.238281 -2.816406 4.054688 -2.910156 3.828125 -2.984375 C 3.597656 -3.054688 3.34375 -3.128906 3.0625 -3.203125 C 2.78125 -3.265625 2.492188 -3.34375 2.203125 -3.4375 C 1.910156 -3.53125 1.632812 -3.648438 1.375 -3.796875 C 1.125 -3.953125 0.921875 -4.160156 0.765625 -4.421875 C 0.617188 -4.691406 0.546875 -5.03125 0.546875 -5.4375 C 0.546875 -6.15625 0.789062 -6.710938 1.28125 -7.109375 C 1.78125 -7.503906 2.453125 -7.703125 3.296875 -7.703125 C 4.160156 -7.703125 4.828125 -7.484375 5.296875 -7.046875 C 5.773438 -6.609375 6.015625 -6.015625 6.015625 -5.265625 L 4.390625 -5.265625 C 4.390625 -5.585938 4.273438 -5.828125 4.046875 -5.984375 C 3.816406 -6.140625 3.550781 -6.21875 3.25 -6.21875 C 2.976562 -6.21875 2.734375 -6.160156 2.515625 -6.046875 C 2.296875 -5.929688 2.1875 -5.75 2.1875 -5.5 C 2.1875 -5.320312 2.25 -5.179688 2.375 -5.078125 C 2.507812 -4.972656 2.6875 -4.882812 2.90625 -4.8125 C 3.125 -4.75 3.367188 -4.6875 3.640625 -4.625 C 3.929688 -4.550781 4.226562 -4.460938 4.53125 -4.359375 C 4.832031 -4.265625 5.109375 -4.132812 5.359375 -3.96875 C 5.617188 -3.800781 5.828125 -3.582031 5.984375 -3.3125 C 6.148438 -3.039062 6.234375 -2.695312 6.234375 -2.28125 C 6.234375 -1.726562 6.101562 -1.269531 5.84375 -0.90625 C 5.582031 -0.550781 5.234375 -0.285156 4.796875 -0.109375 C 4.367188 0.0664062 3.894531 0.15625 3.375 0.15625 Z M 3.375 0.15625 "/></g></g></g><path fill="#38b6ff" d="M 135.257812 128.78125 C 165.617188 44.375 260.5 107.253906 213.464844 172.242188 C 214.113281 173.976562 214.4375 175.871094 214.4375 177.792969 C 214.4375 186.757812 207.210938 193.988281 198.246094 193.988281 C 189.28125 193.988281 182.050781 186.757812 182.050781 177.792969 C 182.050781 168.832031 189.28125 161.601562 198.246094 161.601562 C 199.167969 161.601562 200.058594 161.628906 200.925781 161.789062 C 227.546875 117.8125 177.910156 61.136719 141.703125 125.71875 C 139.511719 126.613281 137.34375 127.617188 135.257812 128.78125 Z M 135.257812 128.78125 " fill-opacity="1" fill-rule="nonzero"/><path fill="#5271ff" d="M 229.738281 136.769531 C 287.660156 205.253906 185.734375 256.027344 152.96875 182.804688 C 151.15625 182.476562 149.394531 181.828125 147.714844 180.878906 C 139.972656 176.386719 137.316406 166.5 141.757812 158.757812 C 146.253906 151.011719 156.191406 148.359375 163.882812 152.800781 C 171.628906 157.269531 174.28125 167.179688 169.839844 174.921875 C 169.40625 175.734375 168.863281 176.441406 168.324219 177.144531 C 193.101562 222.203125 267.027344 207.554688 229.171875 143.890625 C 229.496094 141.507812 229.683594 139.152344 229.738281 136.769531 Z M 229.738281 136.769531 " fill-opacity="1" fill-rule="nonzero"/><path fill="#71ddff" d="M 175.554688 214.621094 C 87.328125 230.515625 94.316406 116.894531 174.089844 125.125 C 175.308594 123.714844 176.691406 122.523438 178.398438 121.550781 C 186.140625 117.054688 196.078125 119.707031 200.519531 127.453125 C 205.015625 135.199219 202.363281 145.136719 194.617188 149.578125 C 186.871094 154.074219 176.933594 151.390625 172.492188 143.675781 C 172.007812 142.863281 171.652344 142.078125 171.328125 141.238281 C 119.90625 140.152344 95.644531 211.535156 169.675781 210.558594 C 171.574219 212.023438 173.496094 213.375 175.554688 214.621094 Z M 175.554688 214.621094 " fill-opacity="1" fill-rule="nonzero"/></svg>